G04 #@! TF.GenerationSoftware,KiCad,Pcbnew,5.1.5+dfsg1-2build2*
G04 #@! TF.CreationDate,2021-01-17T21:09:55-05:00*
G04 #@! TF.ProjectId,Multidrop-Servo-Routing,4d756c74-6964-4726-9f70-2d536572766f,rev?*
G04 #@! TF.SameCoordinates,Original*
G04 #@! TF.FileFunction,Soldermask,Top*
G04 #@! TF.FilePolarity,Negative*
%FSLAX46Y46*%
G04 Gerber Fmt 4.6, Leading zero omitted, Abs format (unit mm)*
G04 Created by KiCad (PCBNEW 5.1.5+dfsg1-2build2) date 2021-01-17 21:09:55*
%MOMM*%
%LPD*%
G04 APERTURE LIST*
G04 #@! TA.AperFunction,Profile*
%ADD10C,0.050000*%
G04 #@! TD*
%ADD11C,0.150000*%
G04 APERTURE END LIST*
D10*
X92500000Y-63500000D02*
G75*
G02X95500000Y-66500000I0J-3000000D01*
G01*
X35000000Y-66500000D02*
G75*
G02X38000000Y-63500000I3000000J0D01*
G01*
X95500000Y-117500000D02*
G75*
G02X92500000Y-120500000I-3000000J0D01*
G01*
X38068062Y-120499228D02*
G75*
G02X35000000Y-117500000I-68062J2999228D01*
G01*
X35000000Y-117500000D02*
X35000000Y-66500000D01*
X92500000Y-120500000D02*
X38068062Y-120499228D01*
X95500000Y-66500000D02*
X95500000Y-117500000D01*
X38000000Y-63500000D02*
X92500000Y-63500000D01*
X53200000Y-69500000D02*
G75*
G03X53200000Y-69500000I-3200000J0D01*
G01*
X83700000Y-69500000D02*
G75*
G03X83700000Y-69500000I-3200000J0D01*
G01*
X83700000Y-100000000D02*
G75*
G03X83700000Y-100000000I-3200000J0D01*
G01*
X53200000Y-100000000D02*
G75*
G03X53200000Y-100000000I-3200000J0D01*
G01*
D11*
G36*
X50431000Y-117811000D02*
G01*
X48629000Y-117811000D01*
X48629000Y-116009000D01*
X50431000Y-116009000D01*
X50431000Y-117811000D01*
G37*
G36*
X44563512Y-116013927D02*
G01*
X44712812Y-116043624D01*
X44876784Y-116111544D01*
X45024354Y-116210147D01*
X45149853Y-116335646D01*
X45248456Y-116483216D01*
X45316376Y-116647188D01*
X45351000Y-116821259D01*
X45351000Y-116998741D01*
X45316376Y-117172812D01*
X45248456Y-117336784D01*
X45149853Y-117484354D01*
X45024354Y-117609853D01*
X44876784Y-117708456D01*
X44712812Y-117776376D01*
X44563512Y-117806073D01*
X44538742Y-117811000D01*
X44361258Y-117811000D01*
X44336488Y-117806073D01*
X44187188Y-117776376D01*
X44023216Y-117708456D01*
X43875646Y-117609853D01*
X43750147Y-117484354D01*
X43651544Y-117336784D01*
X43583624Y-117172812D01*
X43549000Y-116998741D01*
X43549000Y-116821259D01*
X43583624Y-116647188D01*
X43651544Y-116483216D01*
X43750147Y-116335646D01*
X43875646Y-116210147D01*
X44023216Y-116111544D01*
X44187188Y-116043624D01*
X44336488Y-116013927D01*
X44361258Y-116009000D01*
X44538742Y-116009000D01*
X44563512Y-116013927D01*
G37*
G36*
X47103512Y-116013927D02*
G01*
X47252812Y-116043624D01*
X47416784Y-116111544D01*
X47564354Y-116210147D01*
X47689853Y-116335646D01*
X47788456Y-116483216D01*
X47856376Y-116647188D01*
X47891000Y-116821259D01*
X47891000Y-116998741D01*
X47856376Y-117172812D01*
X47788456Y-117336784D01*
X47689853Y-117484354D01*
X47564354Y-117609853D01*
X47416784Y-117708456D01*
X47252812Y-117776376D01*
X47103512Y-117806073D01*
X47078742Y-117811000D01*
X46901258Y-117811000D01*
X46876488Y-117806073D01*
X46727188Y-117776376D01*
X46563216Y-117708456D01*
X46415646Y-117609853D01*
X46290147Y-117484354D01*
X46191544Y-117336784D01*
X46123624Y-117172812D01*
X46089000Y-116998741D01*
X46089000Y-116821259D01*
X46123624Y-116647188D01*
X46191544Y-116483216D01*
X46290147Y-116335646D01*
X46415646Y-116210147D01*
X46563216Y-116111544D01*
X46727188Y-116043624D01*
X46876488Y-116013927D01*
X46901258Y-116009000D01*
X47078742Y-116009000D01*
X47103512Y-116013927D01*
G37*
G36*
X88531000Y-117741000D02*
G01*
X86729000Y-117741000D01*
X86729000Y-115939000D01*
X88531000Y-115939000D01*
X88531000Y-117741000D01*
G37*
G36*
X72503512Y-115943927D02*
G01*
X72652812Y-115973624D01*
X72816784Y-116041544D01*
X72964354Y-116140147D01*
X73089853Y-116265646D01*
X73188456Y-116413216D01*
X73256376Y-116577188D01*
X73291000Y-116751259D01*
X73291000Y-116928741D01*
X73256376Y-117102812D01*
X73188456Y-117266784D01*
X73089853Y-117414354D01*
X72964354Y-117539853D01*
X72816784Y-117638456D01*
X72652812Y-117706376D01*
X72503512Y-117736073D01*
X72478742Y-117741000D01*
X72301258Y-117741000D01*
X72276488Y-117736073D01*
X72127188Y-117706376D01*
X71963216Y-117638456D01*
X71815646Y-117539853D01*
X71690147Y-117414354D01*
X71591544Y-117266784D01*
X71523624Y-117102812D01*
X71489000Y-116928741D01*
X71489000Y-116751259D01*
X71523624Y-116577188D01*
X71591544Y-116413216D01*
X71690147Y-116265646D01*
X71815646Y-116140147D01*
X71963216Y-116041544D01*
X72127188Y-115973624D01*
X72276488Y-115943927D01*
X72301258Y-115939000D01*
X72478742Y-115939000D01*
X72503512Y-115943927D01*
G37*
G36*
X69963512Y-115943927D02*
G01*
X70112812Y-115973624D01*
X70276784Y-116041544D01*
X70424354Y-116140147D01*
X70549853Y-116265646D01*
X70648456Y-116413216D01*
X70716376Y-116577188D01*
X70751000Y-116751259D01*
X70751000Y-116928741D01*
X70716376Y-117102812D01*
X70648456Y-117266784D01*
X70549853Y-117414354D01*
X70424354Y-117539853D01*
X70276784Y-117638456D01*
X70112812Y-117706376D01*
X69963512Y-117736073D01*
X69938742Y-117741000D01*
X69761258Y-117741000D01*
X69736488Y-117736073D01*
X69587188Y-117706376D01*
X69423216Y-117638456D01*
X69275646Y-117539853D01*
X69150147Y-117414354D01*
X69051544Y-117266784D01*
X68983624Y-117102812D01*
X68949000Y-116928741D01*
X68949000Y-116751259D01*
X68983624Y-116577188D01*
X69051544Y-116413216D01*
X69150147Y-116265646D01*
X69275646Y-116140147D01*
X69423216Y-116041544D01*
X69587188Y-115973624D01*
X69736488Y-115943927D01*
X69761258Y-115939000D01*
X69938742Y-115939000D01*
X69963512Y-115943927D01*
G37*
G36*
X85203512Y-115943927D02*
G01*
X85352812Y-115973624D01*
X85516784Y-116041544D01*
X85664354Y-116140147D01*
X85789853Y-116265646D01*
X85888456Y-116413216D01*
X85956376Y-116577188D01*
X85991000Y-116751259D01*
X85991000Y-116928741D01*
X85956376Y-117102812D01*
X85888456Y-117266784D01*
X85789853Y-117414354D01*
X85664354Y-117539853D01*
X85516784Y-117638456D01*
X85352812Y-117706376D01*
X85203512Y-117736073D01*
X85178742Y-117741000D01*
X85001258Y-117741000D01*
X84976488Y-117736073D01*
X84827188Y-117706376D01*
X84663216Y-117638456D01*
X84515646Y-117539853D01*
X84390147Y-117414354D01*
X84291544Y-117266784D01*
X84223624Y-117102812D01*
X84189000Y-116928741D01*
X84189000Y-116751259D01*
X84223624Y-116577188D01*
X84291544Y-116413216D01*
X84390147Y-116265646D01*
X84515646Y-116140147D01*
X84663216Y-116041544D01*
X84827188Y-115973624D01*
X84976488Y-115943927D01*
X85001258Y-115939000D01*
X85178742Y-115939000D01*
X85203512Y-115943927D01*
G37*
G36*
X82663512Y-115943927D02*
G01*
X82812812Y-115973624D01*
X82976784Y-116041544D01*
X83124354Y-116140147D01*
X83249853Y-116265646D01*
X83348456Y-116413216D01*
X83416376Y-116577188D01*
X83451000Y-116751259D01*
X83451000Y-116928741D01*
X83416376Y-117102812D01*
X83348456Y-117266784D01*
X83249853Y-117414354D01*
X83124354Y-117539853D01*
X82976784Y-117638456D01*
X82812812Y-117706376D01*
X82663512Y-117736073D01*
X82638742Y-117741000D01*
X82461258Y-117741000D01*
X82436488Y-117736073D01*
X82287188Y-117706376D01*
X82123216Y-117638456D01*
X81975646Y-117539853D01*
X81850147Y-117414354D01*
X81751544Y-117266784D01*
X81683624Y-117102812D01*
X81649000Y-116928741D01*
X81649000Y-116751259D01*
X81683624Y-116577188D01*
X81751544Y-116413216D01*
X81850147Y-116265646D01*
X81975646Y-116140147D01*
X82123216Y-116041544D01*
X82287188Y-115973624D01*
X82436488Y-115943927D01*
X82461258Y-115939000D01*
X82638742Y-115939000D01*
X82663512Y-115943927D01*
G37*
G36*
X63131000Y-117741000D02*
G01*
X61329000Y-117741000D01*
X61329000Y-115939000D01*
X63131000Y-115939000D01*
X63131000Y-117741000D01*
G37*
G36*
X59803512Y-115943927D02*
G01*
X59952812Y-115973624D01*
X60116784Y-116041544D01*
X60264354Y-116140147D01*
X60389853Y-116265646D01*
X60488456Y-116413216D01*
X60556376Y-116577188D01*
X60591000Y-116751259D01*
X60591000Y-116928741D01*
X60556376Y-117102812D01*
X60488456Y-117266784D01*
X60389853Y-117414354D01*
X60264354Y-117539853D01*
X60116784Y-117638456D01*
X59952812Y-117706376D01*
X59803512Y-117736073D01*
X59778742Y-117741000D01*
X59601258Y-117741000D01*
X59576488Y-117736073D01*
X59427188Y-117706376D01*
X59263216Y-117638456D01*
X59115646Y-117539853D01*
X58990147Y-117414354D01*
X58891544Y-117266784D01*
X58823624Y-117102812D01*
X58789000Y-116928741D01*
X58789000Y-116751259D01*
X58823624Y-116577188D01*
X58891544Y-116413216D01*
X58990147Y-116265646D01*
X59115646Y-116140147D01*
X59263216Y-116041544D01*
X59427188Y-115973624D01*
X59576488Y-115943927D01*
X59601258Y-115939000D01*
X59778742Y-115939000D01*
X59803512Y-115943927D01*
G37*
G36*
X57263512Y-115943927D02*
G01*
X57412812Y-115973624D01*
X57576784Y-116041544D01*
X57724354Y-116140147D01*
X57849853Y-116265646D01*
X57948456Y-116413216D01*
X58016376Y-116577188D01*
X58051000Y-116751259D01*
X58051000Y-116928741D01*
X58016376Y-117102812D01*
X57948456Y-117266784D01*
X57849853Y-117414354D01*
X57724354Y-117539853D01*
X57576784Y-117638456D01*
X57412812Y-117706376D01*
X57263512Y-117736073D01*
X57238742Y-117741000D01*
X57061258Y-117741000D01*
X57036488Y-117736073D01*
X56887188Y-117706376D01*
X56723216Y-117638456D01*
X56575646Y-117539853D01*
X56450147Y-117414354D01*
X56351544Y-117266784D01*
X56283624Y-117102812D01*
X56249000Y-116928741D01*
X56249000Y-116751259D01*
X56283624Y-116577188D01*
X56351544Y-116413216D01*
X56450147Y-116265646D01*
X56575646Y-116140147D01*
X56723216Y-116041544D01*
X56887188Y-115973624D01*
X57036488Y-115943927D01*
X57061258Y-115939000D01*
X57238742Y-115939000D01*
X57263512Y-115943927D01*
G37*
G36*
X75831000Y-117741000D02*
G01*
X74029000Y-117741000D01*
X74029000Y-115939000D01*
X75831000Y-115939000D01*
X75831000Y-117741000D01*
G37*
G36*
X82663512Y-108323927D02*
G01*
X82812812Y-108353624D01*
X82976784Y-108421544D01*
X83124354Y-108520147D01*
X83249853Y-108645646D01*
X83348456Y-108793216D01*
X83416376Y-108957188D01*
X83451000Y-109131259D01*
X83451000Y-109308741D01*
X83416376Y-109482812D01*
X83348456Y-109646784D01*
X83249853Y-109794354D01*
X83124354Y-109919853D01*
X82976784Y-110018456D01*
X82812812Y-110086376D01*
X82663512Y-110116073D01*
X82638742Y-110121000D01*
X82461258Y-110121000D01*
X82436488Y-110116073D01*
X82287188Y-110086376D01*
X82123216Y-110018456D01*
X81975646Y-109919853D01*
X81850147Y-109794354D01*
X81751544Y-109646784D01*
X81683624Y-109482812D01*
X81649000Y-109308741D01*
X81649000Y-109131259D01*
X81683624Y-108957188D01*
X81751544Y-108793216D01*
X81850147Y-108645646D01*
X81975646Y-108520147D01*
X82123216Y-108421544D01*
X82287188Y-108353624D01*
X82436488Y-108323927D01*
X82461258Y-108319000D01*
X82638742Y-108319000D01*
X82663512Y-108323927D01*
G37*
G36*
X57263512Y-108323927D02*
G01*
X57412812Y-108353624D01*
X57576784Y-108421544D01*
X57724354Y-108520147D01*
X57849853Y-108645646D01*
X57948456Y-108793216D01*
X58016376Y-108957188D01*
X58051000Y-109131259D01*
X58051000Y-109308741D01*
X58016376Y-109482812D01*
X57948456Y-109646784D01*
X57849853Y-109794354D01*
X57724354Y-109919853D01*
X57576784Y-110018456D01*
X57412812Y-110086376D01*
X57263512Y-110116073D01*
X57238742Y-110121000D01*
X57061258Y-110121000D01*
X57036488Y-110116073D01*
X56887188Y-110086376D01*
X56723216Y-110018456D01*
X56575646Y-109919853D01*
X56450147Y-109794354D01*
X56351544Y-109646784D01*
X56283624Y-109482812D01*
X56249000Y-109308741D01*
X56249000Y-109131259D01*
X56283624Y-108957188D01*
X56351544Y-108793216D01*
X56450147Y-108645646D01*
X56575646Y-108520147D01*
X56723216Y-108421544D01*
X56887188Y-108353624D01*
X57036488Y-108323927D01*
X57061258Y-108319000D01*
X57238742Y-108319000D01*
X57263512Y-108323927D01*
G37*
G36*
X63131000Y-110121000D02*
G01*
X61329000Y-110121000D01*
X61329000Y-108319000D01*
X63131000Y-108319000D01*
X63131000Y-110121000D01*
G37*
G36*
X75831000Y-110121000D02*
G01*
X74029000Y-110121000D01*
X74029000Y-108319000D01*
X75831000Y-108319000D01*
X75831000Y-110121000D01*
G37*
G36*
X72503512Y-108323927D02*
G01*
X72652812Y-108353624D01*
X72816784Y-108421544D01*
X72964354Y-108520147D01*
X73089853Y-108645646D01*
X73188456Y-108793216D01*
X73256376Y-108957188D01*
X73291000Y-109131259D01*
X73291000Y-109308741D01*
X73256376Y-109482812D01*
X73188456Y-109646784D01*
X73089853Y-109794354D01*
X72964354Y-109919853D01*
X72816784Y-110018456D01*
X72652812Y-110086376D01*
X72503512Y-110116073D01*
X72478742Y-110121000D01*
X72301258Y-110121000D01*
X72276488Y-110116073D01*
X72127188Y-110086376D01*
X71963216Y-110018456D01*
X71815646Y-109919853D01*
X71690147Y-109794354D01*
X71591544Y-109646784D01*
X71523624Y-109482812D01*
X71489000Y-109308741D01*
X71489000Y-109131259D01*
X71523624Y-108957188D01*
X71591544Y-108793216D01*
X71690147Y-108645646D01*
X71815646Y-108520147D01*
X71963216Y-108421544D01*
X72127188Y-108353624D01*
X72276488Y-108323927D01*
X72301258Y-108319000D01*
X72478742Y-108319000D01*
X72503512Y-108323927D01*
G37*
G36*
X69963512Y-108323927D02*
G01*
X70112812Y-108353624D01*
X70276784Y-108421544D01*
X70424354Y-108520147D01*
X70549853Y-108645646D01*
X70648456Y-108793216D01*
X70716376Y-108957188D01*
X70751000Y-109131259D01*
X70751000Y-109308741D01*
X70716376Y-109482812D01*
X70648456Y-109646784D01*
X70549853Y-109794354D01*
X70424354Y-109919853D01*
X70276784Y-110018456D01*
X70112812Y-110086376D01*
X69963512Y-110116073D01*
X69938742Y-110121000D01*
X69761258Y-110121000D01*
X69736488Y-110116073D01*
X69587188Y-110086376D01*
X69423216Y-110018456D01*
X69275646Y-109919853D01*
X69150147Y-109794354D01*
X69051544Y-109646784D01*
X68983624Y-109482812D01*
X68949000Y-109308741D01*
X68949000Y-109131259D01*
X68983624Y-108957188D01*
X69051544Y-108793216D01*
X69150147Y-108645646D01*
X69275646Y-108520147D01*
X69423216Y-108421544D01*
X69587188Y-108353624D01*
X69736488Y-108323927D01*
X69761258Y-108319000D01*
X69938742Y-108319000D01*
X69963512Y-108323927D01*
G37*
G36*
X88531000Y-110121000D02*
G01*
X86729000Y-110121000D01*
X86729000Y-108319000D01*
X88531000Y-108319000D01*
X88531000Y-110121000D01*
G37*
G36*
X85203512Y-108323927D02*
G01*
X85352812Y-108353624D01*
X85516784Y-108421544D01*
X85664354Y-108520147D01*
X85789853Y-108645646D01*
X85888456Y-108793216D01*
X85956376Y-108957188D01*
X85991000Y-109131259D01*
X85991000Y-109308741D01*
X85956376Y-109482812D01*
X85888456Y-109646784D01*
X85789853Y-109794354D01*
X85664354Y-109919853D01*
X85516784Y-110018456D01*
X85352812Y-110086376D01*
X85203512Y-110116073D01*
X85178742Y-110121000D01*
X85001258Y-110121000D01*
X84976488Y-110116073D01*
X84827188Y-110086376D01*
X84663216Y-110018456D01*
X84515646Y-109919853D01*
X84390147Y-109794354D01*
X84291544Y-109646784D01*
X84223624Y-109482812D01*
X84189000Y-109308741D01*
X84189000Y-109131259D01*
X84223624Y-108957188D01*
X84291544Y-108793216D01*
X84390147Y-108645646D01*
X84515646Y-108520147D01*
X84663216Y-108421544D01*
X84827188Y-108353624D01*
X84976488Y-108323927D01*
X85001258Y-108319000D01*
X85178742Y-108319000D01*
X85203512Y-108323927D01*
G37*
G36*
X50431000Y-110121000D02*
G01*
X48629000Y-110121000D01*
X48629000Y-108319000D01*
X50431000Y-108319000D01*
X50431000Y-110121000D01*
G37*
G36*
X47103512Y-108323927D02*
G01*
X47252812Y-108353624D01*
X47416784Y-108421544D01*
X47564354Y-108520147D01*
X47689853Y-108645646D01*
X47788456Y-108793216D01*
X47856376Y-108957188D01*
X47891000Y-109131259D01*
X47891000Y-109308741D01*
X47856376Y-109482812D01*
X47788456Y-109646784D01*
X47689853Y-109794354D01*
X47564354Y-109919853D01*
X47416784Y-110018456D01*
X47252812Y-110086376D01*
X47103512Y-110116073D01*
X47078742Y-110121000D01*
X46901258Y-110121000D01*
X46876488Y-110116073D01*
X46727188Y-110086376D01*
X46563216Y-110018456D01*
X46415646Y-109919853D01*
X46290147Y-109794354D01*
X46191544Y-109646784D01*
X46123624Y-109482812D01*
X46089000Y-109308741D01*
X46089000Y-109131259D01*
X46123624Y-108957188D01*
X46191544Y-108793216D01*
X46290147Y-108645646D01*
X46415646Y-108520147D01*
X46563216Y-108421544D01*
X46727188Y-108353624D01*
X46876488Y-108323927D01*
X46901258Y-108319000D01*
X47078742Y-108319000D01*
X47103512Y-108323927D01*
G37*
G36*
X59803512Y-108323927D02*
G01*
X59952812Y-108353624D01*
X60116784Y-108421544D01*
X60264354Y-108520147D01*
X60389853Y-108645646D01*
X60488456Y-108793216D01*
X60556376Y-108957188D01*
X60591000Y-109131259D01*
X60591000Y-109308741D01*
X60556376Y-109482812D01*
X60488456Y-109646784D01*
X60389853Y-109794354D01*
X60264354Y-109919853D01*
X60116784Y-110018456D01*
X59952812Y-110086376D01*
X59803512Y-110116073D01*
X59778742Y-110121000D01*
X59601258Y-110121000D01*
X59576488Y-110116073D01*
X59427188Y-110086376D01*
X59263216Y-110018456D01*
X59115646Y-109919853D01*
X58990147Y-109794354D01*
X58891544Y-109646784D01*
X58823624Y-109482812D01*
X58789000Y-109308741D01*
X58789000Y-109131259D01*
X58823624Y-108957188D01*
X58891544Y-108793216D01*
X58990147Y-108645646D01*
X59115646Y-108520147D01*
X59263216Y-108421544D01*
X59427188Y-108353624D01*
X59576488Y-108323927D01*
X59601258Y-108319000D01*
X59778742Y-108319000D01*
X59803512Y-108323927D01*
G37*
G36*
X44563512Y-108323927D02*
G01*
X44712812Y-108353624D01*
X44876784Y-108421544D01*
X45024354Y-108520147D01*
X45149853Y-108645646D01*
X45248456Y-108793216D01*
X45316376Y-108957188D01*
X45351000Y-109131259D01*
X45351000Y-109308741D01*
X45316376Y-109482812D01*
X45248456Y-109646784D01*
X45149853Y-109794354D01*
X45024354Y-109919853D01*
X44876784Y-110018456D01*
X44712812Y-110086376D01*
X44563512Y-110116073D01*
X44538742Y-110121000D01*
X44361258Y-110121000D01*
X44336488Y-110116073D01*
X44187188Y-110086376D01*
X44023216Y-110018456D01*
X43875646Y-109919853D01*
X43750147Y-109794354D01*
X43651544Y-109646784D01*
X43583624Y-109482812D01*
X43549000Y-109308741D01*
X43549000Y-109131259D01*
X43583624Y-108957188D01*
X43651544Y-108793216D01*
X43750147Y-108645646D01*
X43875646Y-108520147D01*
X44023216Y-108421544D01*
X44187188Y-108353624D01*
X44336488Y-108323927D01*
X44361258Y-108319000D01*
X44538742Y-108319000D01*
X44563512Y-108323927D01*
G37*
G36*
X73908228Y-91383703D02*
G01*
X74063100Y-91447853D01*
X74202481Y-91540985D01*
X74321015Y-91659519D01*
X74414147Y-91798900D01*
X74478297Y-91953772D01*
X74511000Y-92118184D01*
X74511000Y-92285816D01*
X74478297Y-92450228D01*
X74414147Y-92605100D01*
X74321015Y-92744481D01*
X74202481Y-92863015D01*
X74063100Y-92956147D01*
X73908228Y-93020297D01*
X73743816Y-93053000D01*
X73576184Y-93053000D01*
X73411772Y-93020297D01*
X73256900Y-92956147D01*
X73117519Y-92863015D01*
X72998985Y-92744481D01*
X72905853Y-92605100D01*
X72841703Y-92450228D01*
X72809000Y-92285816D01*
X72809000Y-92118184D01*
X72841703Y-91953772D01*
X72905853Y-91798900D01*
X72998985Y-91659519D01*
X73117519Y-91540985D01*
X73256900Y-91447853D01*
X73411772Y-91383703D01*
X73576184Y-91351000D01*
X73743816Y-91351000D01*
X73908228Y-91383703D01*
G37*
G36*
X53588228Y-91383703D02*
G01*
X53743100Y-91447853D01*
X53882481Y-91540985D01*
X54001015Y-91659519D01*
X54094147Y-91798900D01*
X54158297Y-91953772D01*
X54191000Y-92118184D01*
X54191000Y-92285816D01*
X54158297Y-92450228D01*
X54094147Y-92605100D01*
X54001015Y-92744481D01*
X53882481Y-92863015D01*
X53743100Y-92956147D01*
X53588228Y-93020297D01*
X53423816Y-93053000D01*
X53256184Y-93053000D01*
X53091772Y-93020297D01*
X52936900Y-92956147D01*
X52797519Y-92863015D01*
X52678985Y-92744481D01*
X52585853Y-92605100D01*
X52521703Y-92450228D01*
X52489000Y-92285816D01*
X52489000Y-92118184D01*
X52521703Y-91953772D01*
X52585853Y-91798900D01*
X52678985Y-91659519D01*
X52797519Y-91540985D01*
X52936900Y-91447853D01*
X53091772Y-91383703D01*
X53256184Y-91351000D01*
X53423816Y-91351000D01*
X53588228Y-91383703D01*
G37*
G36*
X56128228Y-91383703D02*
G01*
X56283100Y-91447853D01*
X56422481Y-91540985D01*
X56541015Y-91659519D01*
X56634147Y-91798900D01*
X56698297Y-91953772D01*
X56731000Y-92118184D01*
X56731000Y-92285816D01*
X56698297Y-92450228D01*
X56634147Y-92605100D01*
X56541015Y-92744481D01*
X56422481Y-92863015D01*
X56283100Y-92956147D01*
X56128228Y-93020297D01*
X55963816Y-93053000D01*
X55796184Y-93053000D01*
X55631772Y-93020297D01*
X55476900Y-92956147D01*
X55337519Y-92863015D01*
X55218985Y-92744481D01*
X55125853Y-92605100D01*
X55061703Y-92450228D01*
X55029000Y-92285816D01*
X55029000Y-92118184D01*
X55061703Y-91953772D01*
X55125853Y-91798900D01*
X55218985Y-91659519D01*
X55337519Y-91540985D01*
X55476900Y-91447853D01*
X55631772Y-91383703D01*
X55796184Y-91351000D01*
X55963816Y-91351000D01*
X56128228Y-91383703D01*
G37*
G36*
X58668228Y-91383703D02*
G01*
X58823100Y-91447853D01*
X58962481Y-91540985D01*
X59081015Y-91659519D01*
X59174147Y-91798900D01*
X59238297Y-91953772D01*
X59271000Y-92118184D01*
X59271000Y-92285816D01*
X59238297Y-92450228D01*
X59174147Y-92605100D01*
X59081015Y-92744481D01*
X58962481Y-92863015D01*
X58823100Y-92956147D01*
X58668228Y-93020297D01*
X58503816Y-93053000D01*
X58336184Y-93053000D01*
X58171772Y-93020297D01*
X58016900Y-92956147D01*
X57877519Y-92863015D01*
X57758985Y-92744481D01*
X57665853Y-92605100D01*
X57601703Y-92450228D01*
X57569000Y-92285816D01*
X57569000Y-92118184D01*
X57601703Y-91953772D01*
X57665853Y-91798900D01*
X57758985Y-91659519D01*
X57877519Y-91540985D01*
X58016900Y-91447853D01*
X58171772Y-91383703D01*
X58336184Y-91351000D01*
X58503816Y-91351000D01*
X58668228Y-91383703D01*
G37*
G36*
X61208228Y-91383703D02*
G01*
X61363100Y-91447853D01*
X61502481Y-91540985D01*
X61621015Y-91659519D01*
X61714147Y-91798900D01*
X61778297Y-91953772D01*
X61811000Y-92118184D01*
X61811000Y-92285816D01*
X61778297Y-92450228D01*
X61714147Y-92605100D01*
X61621015Y-92744481D01*
X61502481Y-92863015D01*
X61363100Y-92956147D01*
X61208228Y-93020297D01*
X61043816Y-93053000D01*
X60876184Y-93053000D01*
X60711772Y-93020297D01*
X60556900Y-92956147D01*
X60417519Y-92863015D01*
X60298985Y-92744481D01*
X60205853Y-92605100D01*
X60141703Y-92450228D01*
X60109000Y-92285816D01*
X60109000Y-92118184D01*
X60141703Y-91953772D01*
X60205853Y-91798900D01*
X60298985Y-91659519D01*
X60417519Y-91540985D01*
X60556900Y-91447853D01*
X60711772Y-91383703D01*
X60876184Y-91351000D01*
X61043816Y-91351000D01*
X61208228Y-91383703D01*
G37*
G36*
X63748228Y-91383703D02*
G01*
X63903100Y-91447853D01*
X64042481Y-91540985D01*
X64161015Y-91659519D01*
X64254147Y-91798900D01*
X64318297Y-91953772D01*
X64351000Y-92118184D01*
X64351000Y-92285816D01*
X64318297Y-92450228D01*
X64254147Y-92605100D01*
X64161015Y-92744481D01*
X64042481Y-92863015D01*
X63903100Y-92956147D01*
X63748228Y-93020297D01*
X63583816Y-93053000D01*
X63416184Y-93053000D01*
X63251772Y-93020297D01*
X63096900Y-92956147D01*
X62957519Y-92863015D01*
X62838985Y-92744481D01*
X62745853Y-92605100D01*
X62681703Y-92450228D01*
X62649000Y-92285816D01*
X62649000Y-92118184D01*
X62681703Y-91953772D01*
X62745853Y-91798900D01*
X62838985Y-91659519D01*
X62957519Y-91540985D01*
X63096900Y-91447853D01*
X63251772Y-91383703D01*
X63416184Y-91351000D01*
X63583816Y-91351000D01*
X63748228Y-91383703D01*
G37*
G36*
X66288228Y-91383703D02*
G01*
X66443100Y-91447853D01*
X66582481Y-91540985D01*
X66701015Y-91659519D01*
X66794147Y-91798900D01*
X66858297Y-91953772D01*
X66891000Y-92118184D01*
X66891000Y-92285816D01*
X66858297Y-92450228D01*
X66794147Y-92605100D01*
X66701015Y-92744481D01*
X66582481Y-92863015D01*
X66443100Y-92956147D01*
X66288228Y-93020297D01*
X66123816Y-93053000D01*
X65956184Y-93053000D01*
X65791772Y-93020297D01*
X65636900Y-92956147D01*
X65497519Y-92863015D01*
X65378985Y-92744481D01*
X65285853Y-92605100D01*
X65221703Y-92450228D01*
X65189000Y-92285816D01*
X65189000Y-92118184D01*
X65221703Y-91953772D01*
X65285853Y-91798900D01*
X65378985Y-91659519D01*
X65497519Y-91540985D01*
X65636900Y-91447853D01*
X65791772Y-91383703D01*
X65956184Y-91351000D01*
X66123816Y-91351000D01*
X66288228Y-91383703D01*
G37*
G36*
X68828228Y-91383703D02*
G01*
X68983100Y-91447853D01*
X69122481Y-91540985D01*
X69241015Y-91659519D01*
X69334147Y-91798900D01*
X69398297Y-91953772D01*
X69431000Y-92118184D01*
X69431000Y-92285816D01*
X69398297Y-92450228D01*
X69334147Y-92605100D01*
X69241015Y-92744481D01*
X69122481Y-92863015D01*
X68983100Y-92956147D01*
X68828228Y-93020297D01*
X68663816Y-93053000D01*
X68496184Y-93053000D01*
X68331772Y-93020297D01*
X68176900Y-92956147D01*
X68037519Y-92863015D01*
X67918985Y-92744481D01*
X67825853Y-92605100D01*
X67761703Y-92450228D01*
X67729000Y-92285816D01*
X67729000Y-92118184D01*
X67761703Y-91953772D01*
X67825853Y-91798900D01*
X67918985Y-91659519D01*
X68037519Y-91540985D01*
X68176900Y-91447853D01*
X68331772Y-91383703D01*
X68496184Y-91351000D01*
X68663816Y-91351000D01*
X68828228Y-91383703D01*
G37*
G36*
X76448228Y-91383703D02*
G01*
X76603100Y-91447853D01*
X76742481Y-91540985D01*
X76861015Y-91659519D01*
X76954147Y-91798900D01*
X77018297Y-91953772D01*
X77051000Y-92118184D01*
X77051000Y-92285816D01*
X77018297Y-92450228D01*
X76954147Y-92605100D01*
X76861015Y-92744481D01*
X76742481Y-92863015D01*
X76603100Y-92956147D01*
X76448228Y-93020297D01*
X76283816Y-93053000D01*
X76116184Y-93053000D01*
X75951772Y-93020297D01*
X75796900Y-92956147D01*
X75657519Y-92863015D01*
X75538985Y-92744481D01*
X75445853Y-92605100D01*
X75381703Y-92450228D01*
X75349000Y-92285816D01*
X75349000Y-92118184D01*
X75381703Y-91953772D01*
X75445853Y-91798900D01*
X75538985Y-91659519D01*
X75657519Y-91540985D01*
X75796900Y-91447853D01*
X75951772Y-91383703D01*
X76116184Y-91351000D01*
X76283816Y-91351000D01*
X76448228Y-91383703D01*
G37*
G36*
X51651000Y-93053000D02*
G01*
X49949000Y-93053000D01*
X49949000Y-91351000D01*
X51651000Y-91351000D01*
X51651000Y-93053000D01*
G37*
G36*
X81528228Y-91383703D02*
G01*
X81683100Y-91447853D01*
X81822481Y-91540985D01*
X81941015Y-91659519D01*
X82034147Y-91798900D01*
X82098297Y-91953772D01*
X82131000Y-92118184D01*
X82131000Y-92285816D01*
X82098297Y-92450228D01*
X82034147Y-92605100D01*
X81941015Y-92744481D01*
X81822481Y-92863015D01*
X81683100Y-92956147D01*
X81528228Y-93020297D01*
X81363816Y-93053000D01*
X81196184Y-93053000D01*
X81031772Y-93020297D01*
X80876900Y-92956147D01*
X80737519Y-92863015D01*
X80618985Y-92744481D01*
X80525853Y-92605100D01*
X80461703Y-92450228D01*
X80429000Y-92285816D01*
X80429000Y-92118184D01*
X80461703Y-91953772D01*
X80525853Y-91798900D01*
X80618985Y-91659519D01*
X80737519Y-91540985D01*
X80876900Y-91447853D01*
X81031772Y-91383703D01*
X81196184Y-91351000D01*
X81363816Y-91351000D01*
X81528228Y-91383703D01*
G37*
G36*
X84068228Y-91383703D02*
G01*
X84223100Y-91447853D01*
X84362481Y-91540985D01*
X84481015Y-91659519D01*
X84574147Y-91798900D01*
X84638297Y-91953772D01*
X84671000Y-92118184D01*
X84671000Y-92285816D01*
X84638297Y-92450228D01*
X84574147Y-92605100D01*
X84481015Y-92744481D01*
X84362481Y-92863015D01*
X84223100Y-92956147D01*
X84068228Y-93020297D01*
X83903816Y-93053000D01*
X83736184Y-93053000D01*
X83571772Y-93020297D01*
X83416900Y-92956147D01*
X83277519Y-92863015D01*
X83158985Y-92744481D01*
X83065853Y-92605100D01*
X83001703Y-92450228D01*
X82969000Y-92285816D01*
X82969000Y-92118184D01*
X83001703Y-91953772D01*
X83065853Y-91798900D01*
X83158985Y-91659519D01*
X83277519Y-91540985D01*
X83416900Y-91447853D01*
X83571772Y-91383703D01*
X83736184Y-91351000D01*
X83903816Y-91351000D01*
X84068228Y-91383703D01*
G37*
G36*
X86608228Y-91383703D02*
G01*
X86763100Y-91447853D01*
X86902481Y-91540985D01*
X87021015Y-91659519D01*
X87114147Y-91798900D01*
X87178297Y-91953772D01*
X87211000Y-92118184D01*
X87211000Y-92285816D01*
X87178297Y-92450228D01*
X87114147Y-92605100D01*
X87021015Y-92744481D01*
X86902481Y-92863015D01*
X86763100Y-92956147D01*
X86608228Y-93020297D01*
X86443816Y-93053000D01*
X86276184Y-93053000D01*
X86111772Y-93020297D01*
X85956900Y-92956147D01*
X85817519Y-92863015D01*
X85698985Y-92744481D01*
X85605853Y-92605100D01*
X85541703Y-92450228D01*
X85509000Y-92285816D01*
X85509000Y-92118184D01*
X85541703Y-91953772D01*
X85605853Y-91798900D01*
X85698985Y-91659519D01*
X85817519Y-91540985D01*
X85956900Y-91447853D01*
X86111772Y-91383703D01*
X86276184Y-91351000D01*
X86443816Y-91351000D01*
X86608228Y-91383703D01*
G37*
G36*
X78988228Y-91383703D02*
G01*
X79143100Y-91447853D01*
X79282481Y-91540985D01*
X79401015Y-91659519D01*
X79494147Y-91798900D01*
X79558297Y-91953772D01*
X79591000Y-92118184D01*
X79591000Y-92285816D01*
X79558297Y-92450228D01*
X79494147Y-92605100D01*
X79401015Y-92744481D01*
X79282481Y-92863015D01*
X79143100Y-92956147D01*
X78988228Y-93020297D01*
X78823816Y-93053000D01*
X78656184Y-93053000D01*
X78491772Y-93020297D01*
X78336900Y-92956147D01*
X78197519Y-92863015D01*
X78078985Y-92744481D01*
X77985853Y-92605100D01*
X77921703Y-92450228D01*
X77889000Y-92285816D01*
X77889000Y-92118184D01*
X77921703Y-91953772D01*
X77985853Y-91798900D01*
X78078985Y-91659519D01*
X78197519Y-91540985D01*
X78336900Y-91447853D01*
X78491772Y-91383703D01*
X78656184Y-91351000D01*
X78823816Y-91351000D01*
X78988228Y-91383703D01*
G37*
G36*
X71368228Y-91383703D02*
G01*
X71523100Y-91447853D01*
X71662481Y-91540985D01*
X71781015Y-91659519D01*
X71874147Y-91798900D01*
X71938297Y-91953772D01*
X71971000Y-92118184D01*
X71971000Y-92285816D01*
X71938297Y-92450228D01*
X71874147Y-92605100D01*
X71781015Y-92744481D01*
X71662481Y-92863015D01*
X71523100Y-92956147D01*
X71368228Y-93020297D01*
X71203816Y-93053000D01*
X71036184Y-93053000D01*
X70871772Y-93020297D01*
X70716900Y-92956147D01*
X70577519Y-92863015D01*
X70458985Y-92744481D01*
X70365853Y-92605100D01*
X70301703Y-92450228D01*
X70269000Y-92285816D01*
X70269000Y-92118184D01*
X70301703Y-91953772D01*
X70365853Y-91798900D01*
X70458985Y-91659519D01*
X70577519Y-91540985D01*
X70716900Y-91447853D01*
X70871772Y-91383703D01*
X71036184Y-91351000D01*
X71203816Y-91351000D01*
X71368228Y-91383703D01*
G37*
G36*
X40271000Y-92341000D02*
G01*
X38469000Y-92341000D01*
X38469000Y-90539000D01*
X40271000Y-90539000D01*
X40271000Y-92341000D01*
G37*
G36*
X39483512Y-88003927D02*
G01*
X39632812Y-88033624D01*
X39796784Y-88101544D01*
X39944354Y-88200147D01*
X40069853Y-88325646D01*
X40168456Y-88473216D01*
X40236376Y-88637188D01*
X40271000Y-88811259D01*
X40271000Y-88988741D01*
X40236376Y-89162812D01*
X40168456Y-89326784D01*
X40069853Y-89474354D01*
X39944354Y-89599853D01*
X39796784Y-89698456D01*
X39632812Y-89766376D01*
X39483512Y-89796073D01*
X39458742Y-89801000D01*
X39281258Y-89801000D01*
X39256488Y-89796073D01*
X39107188Y-89766376D01*
X38943216Y-89698456D01*
X38795646Y-89599853D01*
X38670147Y-89474354D01*
X38571544Y-89326784D01*
X38503624Y-89162812D01*
X38469000Y-88988741D01*
X38469000Y-88811259D01*
X38503624Y-88637188D01*
X38571544Y-88473216D01*
X38670147Y-88325646D01*
X38795646Y-88200147D01*
X38943216Y-88101544D01*
X39107188Y-88033624D01*
X39256488Y-88003927D01*
X39281258Y-87999000D01*
X39458742Y-87999000D01*
X39483512Y-88003927D01*
G37*
G36*
X39483512Y-85463927D02*
G01*
X39632812Y-85493624D01*
X39796784Y-85561544D01*
X39944354Y-85660147D01*
X40069853Y-85785646D01*
X40168456Y-85933216D01*
X40236376Y-86097188D01*
X40271000Y-86271259D01*
X40271000Y-86448741D01*
X40236376Y-86622812D01*
X40168456Y-86786784D01*
X40069853Y-86934354D01*
X39944354Y-87059853D01*
X39796784Y-87158456D01*
X39632812Y-87226376D01*
X39483512Y-87256073D01*
X39458742Y-87261000D01*
X39281258Y-87261000D01*
X39256488Y-87256073D01*
X39107188Y-87226376D01*
X38943216Y-87158456D01*
X38795646Y-87059853D01*
X38670147Y-86934354D01*
X38571544Y-86786784D01*
X38503624Y-86622812D01*
X38469000Y-86448741D01*
X38469000Y-86271259D01*
X38503624Y-86097188D01*
X38571544Y-85933216D01*
X38670147Y-85785646D01*
X38795646Y-85660147D01*
X38943216Y-85561544D01*
X39107188Y-85493624D01*
X39256488Y-85463927D01*
X39281258Y-85459000D01*
X39458742Y-85459000D01*
X39483512Y-85463927D01*
G37*
G36*
X39483512Y-82923927D02*
G01*
X39632812Y-82953624D01*
X39796784Y-83021544D01*
X39944354Y-83120147D01*
X40069853Y-83245646D01*
X40168456Y-83393216D01*
X40236376Y-83557188D01*
X40271000Y-83731259D01*
X40271000Y-83908741D01*
X40236376Y-84082812D01*
X40168456Y-84246784D01*
X40069853Y-84394354D01*
X39944354Y-84519853D01*
X39796784Y-84618456D01*
X39632812Y-84686376D01*
X39483512Y-84716073D01*
X39458742Y-84721000D01*
X39281258Y-84721000D01*
X39256488Y-84716073D01*
X39107188Y-84686376D01*
X38943216Y-84618456D01*
X38795646Y-84519853D01*
X38670147Y-84394354D01*
X38571544Y-84246784D01*
X38503624Y-84082812D01*
X38469000Y-83908741D01*
X38469000Y-83731259D01*
X38503624Y-83557188D01*
X38571544Y-83393216D01*
X38670147Y-83245646D01*
X38795646Y-83120147D01*
X38943216Y-83021544D01*
X39107188Y-82953624D01*
X39256488Y-82923927D01*
X39281258Y-82919000D01*
X39458742Y-82919000D01*
X39483512Y-82923927D01*
G37*
G36*
X39483512Y-80383927D02*
G01*
X39632812Y-80413624D01*
X39796784Y-80481544D01*
X39944354Y-80580147D01*
X40069853Y-80705646D01*
X40168456Y-80853216D01*
X40236376Y-81017188D01*
X40271000Y-81191259D01*
X40271000Y-81368741D01*
X40236376Y-81542812D01*
X40168456Y-81706784D01*
X40069853Y-81854354D01*
X39944354Y-81979853D01*
X39796784Y-82078456D01*
X39632812Y-82146376D01*
X39483512Y-82176073D01*
X39458742Y-82181000D01*
X39281258Y-82181000D01*
X39256488Y-82176073D01*
X39107188Y-82146376D01*
X38943216Y-82078456D01*
X38795646Y-81979853D01*
X38670147Y-81854354D01*
X38571544Y-81706784D01*
X38503624Y-81542812D01*
X38469000Y-81368741D01*
X38469000Y-81191259D01*
X38503624Y-81017188D01*
X38571544Y-80853216D01*
X38670147Y-80705646D01*
X38795646Y-80580147D01*
X38943216Y-80481544D01*
X39107188Y-80413624D01*
X39256488Y-80383927D01*
X39281258Y-80379000D01*
X39458742Y-80379000D01*
X39483512Y-80383927D01*
G37*
G36*
X39483512Y-77843927D02*
G01*
X39632812Y-77873624D01*
X39796784Y-77941544D01*
X39944354Y-78040147D01*
X40069853Y-78165646D01*
X40168456Y-78313216D01*
X40236376Y-78477188D01*
X40271000Y-78651259D01*
X40271000Y-78828741D01*
X40236376Y-79002812D01*
X40168456Y-79166784D01*
X40069853Y-79314354D01*
X39944354Y-79439853D01*
X39796784Y-79538456D01*
X39632812Y-79606376D01*
X39483512Y-79636073D01*
X39458742Y-79641000D01*
X39281258Y-79641000D01*
X39256488Y-79636073D01*
X39107188Y-79606376D01*
X38943216Y-79538456D01*
X38795646Y-79439853D01*
X38670147Y-79314354D01*
X38571544Y-79166784D01*
X38503624Y-79002812D01*
X38469000Y-78828741D01*
X38469000Y-78651259D01*
X38503624Y-78477188D01*
X38571544Y-78313216D01*
X38670147Y-78165646D01*
X38795646Y-78040147D01*
X38943216Y-77941544D01*
X39107188Y-77873624D01*
X39256488Y-77843927D01*
X39281258Y-77839000D01*
X39458742Y-77839000D01*
X39483512Y-77843927D01*
G37*
G36*
X61208228Y-76143703D02*
G01*
X61363100Y-76207853D01*
X61502481Y-76300985D01*
X61621015Y-76419519D01*
X61714147Y-76558900D01*
X61778297Y-76713772D01*
X61811000Y-76878184D01*
X61811000Y-77045816D01*
X61778297Y-77210228D01*
X61714147Y-77365100D01*
X61621015Y-77504481D01*
X61502481Y-77623015D01*
X61363100Y-77716147D01*
X61208228Y-77780297D01*
X61043816Y-77813000D01*
X60876184Y-77813000D01*
X60711772Y-77780297D01*
X60556900Y-77716147D01*
X60417519Y-77623015D01*
X60298985Y-77504481D01*
X60205853Y-77365100D01*
X60141703Y-77210228D01*
X60109000Y-77045816D01*
X60109000Y-76878184D01*
X60141703Y-76713772D01*
X60205853Y-76558900D01*
X60298985Y-76419519D01*
X60417519Y-76300985D01*
X60556900Y-76207853D01*
X60711772Y-76143703D01*
X60876184Y-76111000D01*
X61043816Y-76111000D01*
X61208228Y-76143703D01*
G37*
G36*
X58668228Y-76143703D02*
G01*
X58823100Y-76207853D01*
X58962481Y-76300985D01*
X59081015Y-76419519D01*
X59174147Y-76558900D01*
X59238297Y-76713772D01*
X59271000Y-76878184D01*
X59271000Y-77045816D01*
X59238297Y-77210228D01*
X59174147Y-77365100D01*
X59081015Y-77504481D01*
X58962481Y-77623015D01*
X58823100Y-77716147D01*
X58668228Y-77780297D01*
X58503816Y-77813000D01*
X58336184Y-77813000D01*
X58171772Y-77780297D01*
X58016900Y-77716147D01*
X57877519Y-77623015D01*
X57758985Y-77504481D01*
X57665853Y-77365100D01*
X57601703Y-77210228D01*
X57569000Y-77045816D01*
X57569000Y-76878184D01*
X57601703Y-76713772D01*
X57665853Y-76558900D01*
X57758985Y-76419519D01*
X57877519Y-76300985D01*
X58016900Y-76207853D01*
X58171772Y-76143703D01*
X58336184Y-76111000D01*
X58503816Y-76111000D01*
X58668228Y-76143703D01*
G37*
G36*
X56128228Y-76143703D02*
G01*
X56283100Y-76207853D01*
X56422481Y-76300985D01*
X56541015Y-76419519D01*
X56634147Y-76558900D01*
X56698297Y-76713772D01*
X56731000Y-76878184D01*
X56731000Y-77045816D01*
X56698297Y-77210228D01*
X56634147Y-77365100D01*
X56541015Y-77504481D01*
X56422481Y-77623015D01*
X56283100Y-77716147D01*
X56128228Y-77780297D01*
X55963816Y-77813000D01*
X55796184Y-77813000D01*
X55631772Y-77780297D01*
X55476900Y-77716147D01*
X55337519Y-77623015D01*
X55218985Y-77504481D01*
X55125853Y-77365100D01*
X55061703Y-77210228D01*
X55029000Y-77045816D01*
X55029000Y-76878184D01*
X55061703Y-76713772D01*
X55125853Y-76558900D01*
X55218985Y-76419519D01*
X55337519Y-76300985D01*
X55476900Y-76207853D01*
X55631772Y-76143703D01*
X55796184Y-76111000D01*
X55963816Y-76111000D01*
X56128228Y-76143703D01*
G37*
G36*
X53588228Y-76143703D02*
G01*
X53743100Y-76207853D01*
X53882481Y-76300985D01*
X54001015Y-76419519D01*
X54094147Y-76558900D01*
X54158297Y-76713772D01*
X54191000Y-76878184D01*
X54191000Y-77045816D01*
X54158297Y-77210228D01*
X54094147Y-77365100D01*
X54001015Y-77504481D01*
X53882481Y-77623015D01*
X53743100Y-77716147D01*
X53588228Y-77780297D01*
X53423816Y-77813000D01*
X53256184Y-77813000D01*
X53091772Y-77780297D01*
X52936900Y-77716147D01*
X52797519Y-77623015D01*
X52678985Y-77504481D01*
X52585853Y-77365100D01*
X52521703Y-77210228D01*
X52489000Y-77045816D01*
X52489000Y-76878184D01*
X52521703Y-76713772D01*
X52585853Y-76558900D01*
X52678985Y-76419519D01*
X52797519Y-76300985D01*
X52936900Y-76207853D01*
X53091772Y-76143703D01*
X53256184Y-76111000D01*
X53423816Y-76111000D01*
X53588228Y-76143703D01*
G37*
G36*
X51048228Y-76143703D02*
G01*
X51203100Y-76207853D01*
X51342481Y-76300985D01*
X51461015Y-76419519D01*
X51554147Y-76558900D01*
X51618297Y-76713772D01*
X51651000Y-76878184D01*
X51651000Y-77045816D01*
X51618297Y-77210228D01*
X51554147Y-77365100D01*
X51461015Y-77504481D01*
X51342481Y-77623015D01*
X51203100Y-77716147D01*
X51048228Y-77780297D01*
X50883816Y-77813000D01*
X50716184Y-77813000D01*
X50551772Y-77780297D01*
X50396900Y-77716147D01*
X50257519Y-77623015D01*
X50138985Y-77504481D01*
X50045853Y-77365100D01*
X49981703Y-77210228D01*
X49949000Y-77045816D01*
X49949000Y-76878184D01*
X49981703Y-76713772D01*
X50045853Y-76558900D01*
X50138985Y-76419519D01*
X50257519Y-76300985D01*
X50396900Y-76207853D01*
X50551772Y-76143703D01*
X50716184Y-76111000D01*
X50883816Y-76111000D01*
X51048228Y-76143703D01*
G37*
G36*
X81528228Y-76143703D02*
G01*
X81683100Y-76207853D01*
X81822481Y-76300985D01*
X81941015Y-76419519D01*
X82034147Y-76558900D01*
X82098297Y-76713772D01*
X82131000Y-76878184D01*
X82131000Y-77045816D01*
X82098297Y-77210228D01*
X82034147Y-77365100D01*
X81941015Y-77504481D01*
X81822481Y-77623015D01*
X81683100Y-77716147D01*
X81528228Y-77780297D01*
X81363816Y-77813000D01*
X81196184Y-77813000D01*
X81031772Y-77780297D01*
X80876900Y-77716147D01*
X80737519Y-77623015D01*
X80618985Y-77504481D01*
X80525853Y-77365100D01*
X80461703Y-77210228D01*
X80429000Y-77045816D01*
X80429000Y-76878184D01*
X80461703Y-76713772D01*
X80525853Y-76558900D01*
X80618985Y-76419519D01*
X80737519Y-76300985D01*
X80876900Y-76207853D01*
X81031772Y-76143703D01*
X81196184Y-76111000D01*
X81363816Y-76111000D01*
X81528228Y-76143703D01*
G37*
G36*
X78988228Y-76143703D02*
G01*
X79143100Y-76207853D01*
X79282481Y-76300985D01*
X79401015Y-76419519D01*
X79494147Y-76558900D01*
X79558297Y-76713772D01*
X79591000Y-76878184D01*
X79591000Y-77045816D01*
X79558297Y-77210228D01*
X79494147Y-77365100D01*
X79401015Y-77504481D01*
X79282481Y-77623015D01*
X79143100Y-77716147D01*
X78988228Y-77780297D01*
X78823816Y-77813000D01*
X78656184Y-77813000D01*
X78491772Y-77780297D01*
X78336900Y-77716147D01*
X78197519Y-77623015D01*
X78078985Y-77504481D01*
X77985853Y-77365100D01*
X77921703Y-77210228D01*
X77889000Y-77045816D01*
X77889000Y-76878184D01*
X77921703Y-76713772D01*
X77985853Y-76558900D01*
X78078985Y-76419519D01*
X78197519Y-76300985D01*
X78336900Y-76207853D01*
X78491772Y-76143703D01*
X78656184Y-76111000D01*
X78823816Y-76111000D01*
X78988228Y-76143703D01*
G37*
G36*
X76448228Y-76143703D02*
G01*
X76603100Y-76207853D01*
X76742481Y-76300985D01*
X76861015Y-76419519D01*
X76954147Y-76558900D01*
X77018297Y-76713772D01*
X77051000Y-76878184D01*
X77051000Y-77045816D01*
X77018297Y-77210228D01*
X76954147Y-77365100D01*
X76861015Y-77504481D01*
X76742481Y-77623015D01*
X76603100Y-77716147D01*
X76448228Y-77780297D01*
X76283816Y-77813000D01*
X76116184Y-77813000D01*
X75951772Y-77780297D01*
X75796900Y-77716147D01*
X75657519Y-77623015D01*
X75538985Y-77504481D01*
X75445853Y-77365100D01*
X75381703Y-77210228D01*
X75349000Y-77045816D01*
X75349000Y-76878184D01*
X75381703Y-76713772D01*
X75445853Y-76558900D01*
X75538985Y-76419519D01*
X75657519Y-76300985D01*
X75796900Y-76207853D01*
X75951772Y-76143703D01*
X76116184Y-76111000D01*
X76283816Y-76111000D01*
X76448228Y-76143703D01*
G37*
G36*
X73908228Y-76143703D02*
G01*
X74063100Y-76207853D01*
X74202481Y-76300985D01*
X74321015Y-76419519D01*
X74414147Y-76558900D01*
X74478297Y-76713772D01*
X74511000Y-76878184D01*
X74511000Y-77045816D01*
X74478297Y-77210228D01*
X74414147Y-77365100D01*
X74321015Y-77504481D01*
X74202481Y-77623015D01*
X74063100Y-77716147D01*
X73908228Y-77780297D01*
X73743816Y-77813000D01*
X73576184Y-77813000D01*
X73411772Y-77780297D01*
X73256900Y-77716147D01*
X73117519Y-77623015D01*
X72998985Y-77504481D01*
X72905853Y-77365100D01*
X72841703Y-77210228D01*
X72809000Y-77045816D01*
X72809000Y-76878184D01*
X72841703Y-76713772D01*
X72905853Y-76558900D01*
X72998985Y-76419519D01*
X73117519Y-76300985D01*
X73256900Y-76207853D01*
X73411772Y-76143703D01*
X73576184Y-76111000D01*
X73743816Y-76111000D01*
X73908228Y-76143703D01*
G37*
G36*
X71368228Y-76143703D02*
G01*
X71523100Y-76207853D01*
X71662481Y-76300985D01*
X71781015Y-76419519D01*
X71874147Y-76558900D01*
X71938297Y-76713772D01*
X71971000Y-76878184D01*
X71971000Y-77045816D01*
X71938297Y-77210228D01*
X71874147Y-77365100D01*
X71781015Y-77504481D01*
X71662481Y-77623015D01*
X71523100Y-77716147D01*
X71368228Y-77780297D01*
X71203816Y-77813000D01*
X71036184Y-77813000D01*
X70871772Y-77780297D01*
X70716900Y-77716147D01*
X70577519Y-77623015D01*
X70458985Y-77504481D01*
X70365853Y-77365100D01*
X70301703Y-77210228D01*
X70269000Y-77045816D01*
X70269000Y-76878184D01*
X70301703Y-76713772D01*
X70365853Y-76558900D01*
X70458985Y-76419519D01*
X70577519Y-76300985D01*
X70716900Y-76207853D01*
X70871772Y-76143703D01*
X71036184Y-76111000D01*
X71203816Y-76111000D01*
X71368228Y-76143703D01*
G37*
G36*
X68828228Y-76143703D02*
G01*
X68983100Y-76207853D01*
X69122481Y-76300985D01*
X69241015Y-76419519D01*
X69334147Y-76558900D01*
X69398297Y-76713772D01*
X69431000Y-76878184D01*
X69431000Y-77045816D01*
X69398297Y-77210228D01*
X69334147Y-77365100D01*
X69241015Y-77504481D01*
X69122481Y-77623015D01*
X68983100Y-77716147D01*
X68828228Y-77780297D01*
X68663816Y-77813000D01*
X68496184Y-77813000D01*
X68331772Y-77780297D01*
X68176900Y-77716147D01*
X68037519Y-77623015D01*
X67918985Y-77504481D01*
X67825853Y-77365100D01*
X67761703Y-77210228D01*
X67729000Y-77045816D01*
X67729000Y-76878184D01*
X67761703Y-76713772D01*
X67825853Y-76558900D01*
X67918985Y-76419519D01*
X68037519Y-76300985D01*
X68176900Y-76207853D01*
X68331772Y-76143703D01*
X68496184Y-76111000D01*
X68663816Y-76111000D01*
X68828228Y-76143703D01*
G37*
G36*
X66288228Y-76143703D02*
G01*
X66443100Y-76207853D01*
X66582481Y-76300985D01*
X66701015Y-76419519D01*
X66794147Y-76558900D01*
X66858297Y-76713772D01*
X66891000Y-76878184D01*
X66891000Y-77045816D01*
X66858297Y-77210228D01*
X66794147Y-77365100D01*
X66701015Y-77504481D01*
X66582481Y-77623015D01*
X66443100Y-77716147D01*
X66288228Y-77780297D01*
X66123816Y-77813000D01*
X65956184Y-77813000D01*
X65791772Y-77780297D01*
X65636900Y-77716147D01*
X65497519Y-77623015D01*
X65378985Y-77504481D01*
X65285853Y-77365100D01*
X65221703Y-77210228D01*
X65189000Y-77045816D01*
X65189000Y-76878184D01*
X65221703Y-76713772D01*
X65285853Y-76558900D01*
X65378985Y-76419519D01*
X65497519Y-76300985D01*
X65636900Y-76207853D01*
X65791772Y-76143703D01*
X65956184Y-76111000D01*
X66123816Y-76111000D01*
X66288228Y-76143703D01*
G37*
G36*
X86608228Y-76143703D02*
G01*
X86763100Y-76207853D01*
X86902481Y-76300985D01*
X87021015Y-76419519D01*
X87114147Y-76558900D01*
X87178297Y-76713772D01*
X87211000Y-76878184D01*
X87211000Y-77045816D01*
X87178297Y-77210228D01*
X87114147Y-77365100D01*
X87021015Y-77504481D01*
X86902481Y-77623015D01*
X86763100Y-77716147D01*
X86608228Y-77780297D01*
X86443816Y-77813000D01*
X86276184Y-77813000D01*
X86111772Y-77780297D01*
X85956900Y-77716147D01*
X85817519Y-77623015D01*
X85698985Y-77504481D01*
X85605853Y-77365100D01*
X85541703Y-77210228D01*
X85509000Y-77045816D01*
X85509000Y-76878184D01*
X85541703Y-76713772D01*
X85605853Y-76558900D01*
X85698985Y-76419519D01*
X85817519Y-76300985D01*
X85956900Y-76207853D01*
X86111772Y-76143703D01*
X86276184Y-76111000D01*
X86443816Y-76111000D01*
X86608228Y-76143703D01*
G37*
G36*
X84068228Y-76143703D02*
G01*
X84223100Y-76207853D01*
X84362481Y-76300985D01*
X84481015Y-76419519D01*
X84574147Y-76558900D01*
X84638297Y-76713772D01*
X84671000Y-76878184D01*
X84671000Y-77045816D01*
X84638297Y-77210228D01*
X84574147Y-77365100D01*
X84481015Y-77504481D01*
X84362481Y-77623015D01*
X84223100Y-77716147D01*
X84068228Y-77780297D01*
X83903816Y-77813000D01*
X83736184Y-77813000D01*
X83571772Y-77780297D01*
X83416900Y-77716147D01*
X83277519Y-77623015D01*
X83158985Y-77504481D01*
X83065853Y-77365100D01*
X83001703Y-77210228D01*
X82969000Y-77045816D01*
X82969000Y-76878184D01*
X83001703Y-76713772D01*
X83065853Y-76558900D01*
X83158985Y-76419519D01*
X83277519Y-76300985D01*
X83416900Y-76207853D01*
X83571772Y-76143703D01*
X83736184Y-76111000D01*
X83903816Y-76111000D01*
X84068228Y-76143703D01*
G37*
G36*
X63748228Y-76143703D02*
G01*
X63903100Y-76207853D01*
X64042481Y-76300985D01*
X64161015Y-76419519D01*
X64254147Y-76558900D01*
X64318297Y-76713772D01*
X64351000Y-76878184D01*
X64351000Y-77045816D01*
X64318297Y-77210228D01*
X64254147Y-77365100D01*
X64161015Y-77504481D01*
X64042481Y-77623015D01*
X63903100Y-77716147D01*
X63748228Y-77780297D01*
X63583816Y-77813000D01*
X63416184Y-77813000D01*
X63251772Y-77780297D01*
X63096900Y-77716147D01*
X62957519Y-77623015D01*
X62838985Y-77504481D01*
X62745853Y-77365100D01*
X62681703Y-77210228D01*
X62649000Y-77045816D01*
X62649000Y-76878184D01*
X62681703Y-76713772D01*
X62745853Y-76558900D01*
X62838985Y-76419519D01*
X62957519Y-76300985D01*
X63096900Y-76207853D01*
X63251772Y-76143703D01*
X63416184Y-76111000D01*
X63583816Y-76111000D01*
X63748228Y-76143703D01*
G37*
M02*
