M48
; DRILL file {KiCad 5.1.5+dfsg1-2build2} date Sun 17 Jan 2021 09:10:15 PM EST
; FORMAT={-:-/ absolute / inch / decimal}
; #@! TF.CreationDate,2021-01-17T21:10:15-05:00
; #@! TF.GenerationSoftware,Kicad,Pcbnew,5.1.5+dfsg1-2build2
FMAT,2
INCH
T1C0.0157
T2C0.0315
T3C0.0394
%
G90
G05
T1
X1.6Y-2.8
X1.6Y-4.3
X1.6Y-4.6
X2.1Y-4.6
X2.2Y-3.8
X2.6Y-2.8
X2.6Y-3.4
X2.6Y-4.0
X2.6Y-4.3
X2.6Y-4.6
X3.1Y-3.4
X3.1Y-4.6
X3.6Y-2.8
X3.6Y-3.4
X3.6Y-3.7
X3.6Y-4.0
X3.6Y-4.3
X3.6Y-4.6
T2
X2.0Y-3.03
X2.0Y-3.63
X2.1Y-3.03
X2.1Y-3.63
X2.2Y-3.03
X2.2Y-3.63
X2.3Y-3.03
X2.3Y-3.63
X2.4Y-3.03
X2.4Y-3.63
X2.5Y-3.03
X2.5Y-3.63
X2.6Y-3.03
X2.6Y-3.63
X2.7Y-3.03
X2.7Y-3.63
X2.8Y-3.03
X2.8Y-3.63
X2.9Y-3.03
X2.9Y-3.63
X3.0Y-3.03
X3.0Y-3.63
X3.1Y-3.03
X3.1Y-3.63
X3.2Y-3.03
X3.2Y-3.63
X3.3Y-3.03
X3.3Y-3.63
X3.4Y-3.03
X3.4Y-3.63
T3
X1.75Y-4.6028
X1.85Y-4.6028
X1.95Y-4.6028
X1.55Y-3.1
X1.55Y-3.2
X1.55Y-3.3
X1.55Y-3.4
X1.55Y-3.5
X1.55Y-3.6
X2.25Y-4.3
X2.35Y-4.3
X2.45Y-4.3
X2.25Y-4.6
X2.35Y-4.6
X2.45Y-4.6
X1.75Y-4.3
X1.85Y-4.3
X1.95Y-4.3
X3.25Y-4.6
X3.35Y-4.6
X3.45Y-4.6
X2.75Y-4.3
X2.85Y-4.3
X2.95Y-4.3
X2.75Y-4.6
X2.85Y-4.6
X2.95Y-4.6
X3.25Y-4.3
X3.35Y-4.3
X3.45Y-4.3
T0
M30
