G04 #@! TF.GenerationSoftware,KiCad,Pcbnew,5.1.5+dfsg1-2build2*
G04 #@! TF.CreationDate,2021-01-17T21:09:55-05:00*
G04 #@! TF.ProjectId,Multidrop-Servo-Routing,4d756c74-6964-4726-9f70-2d536572766f,rev?*
G04 #@! TF.SameCoordinates,Original*
G04 #@! TF.FileFunction,Copper,L2,Bot*
G04 #@! TF.FilePolarity,Positive*
%FSLAX46Y46*%
G04 Gerber Fmt 4.6, Leading zero omitted, Abs format (unit mm)*
G04 Created by KiCad (PCBNEW 5.1.5+dfsg1-2build2) date 2021-01-17 21:09:55*
%MOMM*%
%LPD*%
G04 APERTURE LIST*
G04 #@! TA.AperFunction,Profile*
%ADD10C,0.050000*%
G04 #@! TD*
G04 #@! TA.AperFunction,ComponentPad*
%ADD11O,1.700000X1.700000*%
G04 #@! TD*
G04 #@! TA.AperFunction,ComponentPad*
%ADD12R,1.700000X1.700000*%
G04 #@! TD*
G04 #@! TA.AperFunction,ComponentPad*
%ADD13O,1.600000X1.600000*%
G04 #@! TD*
G04 #@! TA.AperFunction,ComponentPad*
%ADD14R,1.600000X1.600000*%
G04 #@! TD*
G04 #@! TA.AperFunction,ViaPad*
%ADD15C,0.800000*%
G04 #@! TD*
G04 #@! TA.AperFunction,Conductor*
%ADD16C,0.500000*%
G04 #@! TD*
G04 #@! TA.AperFunction,Conductor*
%ADD17C,1.000000*%
G04 #@! TD*
G04 #@! TA.AperFunction,Conductor*
%ADD18C,1.500000*%
G04 #@! TD*
G04 #@! TA.AperFunction,Conductor*
%ADD19C,2.000000*%
G04 #@! TD*
G04 #@! TA.AperFunction,Conductor*
%ADD20C,0.254000*%
G04 #@! TD*
G04 APERTURE END LIST*
D10*
X92500000Y-63500000D02*
G75*
G02X95500000Y-66500000I0J-3000000D01*
G01*
X35000000Y-66500000D02*
G75*
G02X38000000Y-63500000I3000000J0D01*
G01*
X95500000Y-117500000D02*
G75*
G02X92500000Y-120500000I-3000000J0D01*
G01*
X38068062Y-120499228D02*
G75*
G02X35000000Y-117500000I-68062J2999228D01*
G01*
X35000000Y-117500000D02*
X35000000Y-66500000D01*
X92500000Y-120500000D02*
X38068062Y-120499228D01*
X95500000Y-66500000D02*
X95500000Y-117500000D01*
X38000000Y-63500000D02*
X92500000Y-63500000D01*
X53200000Y-69500000D02*
G75*
G03X53200000Y-69500000I-3200000J0D01*
G01*
X83700000Y-69500000D02*
G75*
G03X83700000Y-69500000I-3200000J0D01*
G01*
X83700000Y-100000000D02*
G75*
G03X83700000Y-100000000I-3200000J0D01*
G01*
X53200000Y-100000000D02*
G75*
G03X53200000Y-100000000I-3200000J0D01*
G01*
D11*
G04 #@! TO.P,J6,3*
G04 #@! TO.N,GND*
X44450000Y-109220000D03*
G04 #@! TO.P,J6,2*
G04 #@! TO.N,+5V*
X46990000Y-109220000D03*
D12*
G04 #@! TO.P,J6,1*
G04 #@! TO.N,Servo_1*
X49530000Y-109220000D03*
G04 #@! TD*
D11*
G04 #@! TO.P,J9,3*
G04 #@! TO.N,GND*
X82550000Y-109220000D03*
G04 #@! TO.P,J9,2*
G04 #@! TO.N,+5V*
X85090000Y-109220000D03*
D12*
G04 #@! TO.P,J9,1*
G04 #@! TO.N,Servo_4*
X87630000Y-109220000D03*
G04 #@! TD*
D11*
G04 #@! TO.P,J8,3*
G04 #@! TO.N,GND*
X69850000Y-109220000D03*
G04 #@! TO.P,J8,2*
G04 #@! TO.N,+5V*
X72390000Y-109220000D03*
D12*
G04 #@! TO.P,J8,1*
G04 #@! TO.N,Servo_3*
X74930000Y-109220000D03*
G04 #@! TD*
D11*
G04 #@! TO.P,J7,3*
G04 #@! TO.N,GND*
X57150000Y-116840000D03*
G04 #@! TO.P,J7,2*
G04 #@! TO.N,+5V*
X59690000Y-116840000D03*
D12*
G04 #@! TO.P,J7,1*
G04 #@! TO.N,Servo_2*
X62230000Y-116840000D03*
G04 #@! TD*
D11*
G04 #@! TO.P,J5,6*
G04 #@! TO.N,GND*
X39370000Y-78740000D03*
G04 #@! TO.P,J5,5*
X39370000Y-81280000D03*
G04 #@! TO.P,J5,4*
G04 #@! TO.N,SCL*
X39370000Y-83820000D03*
G04 #@! TO.P,J5,3*
G04 #@! TO.N,SDA*
X39370000Y-86360000D03*
G04 #@! TO.P,J5,2*
G04 #@! TO.N,+5V*
X39370000Y-88900000D03*
D12*
G04 #@! TO.P,J5,1*
X39370000Y-91440000D03*
G04 #@! TD*
D11*
G04 #@! TO.P,J4,3*
G04 #@! TO.N,GND*
X82550000Y-116840000D03*
G04 #@! TO.P,J4,2*
G04 #@! TO.N,+5V*
X85090000Y-116840000D03*
D12*
G04 #@! TO.P,J4,1*
G04 #@! TO.N,Servo_4*
X87630000Y-116840000D03*
G04 #@! TD*
D11*
G04 #@! TO.P,J3,3*
G04 #@! TO.N,GND*
X69850000Y-116840000D03*
G04 #@! TO.P,J3,2*
G04 #@! TO.N,+5V*
X72390000Y-116840000D03*
D12*
G04 #@! TO.P,J3,1*
G04 #@! TO.N,Servo_3*
X74930000Y-116840000D03*
G04 #@! TD*
D11*
G04 #@! TO.P,J2,3*
G04 #@! TO.N,GND*
X57150000Y-109220000D03*
G04 #@! TO.P,J2,2*
G04 #@! TO.N,+5V*
X59690000Y-109220000D03*
D12*
G04 #@! TO.P,J2,1*
G04 #@! TO.N,Servo_2*
X62230000Y-109220000D03*
G04 #@! TD*
D11*
G04 #@! TO.P,J1,3*
G04 #@! TO.N,GND*
X44450000Y-116910000D03*
G04 #@! TO.P,J1,2*
G04 #@! TO.N,+5V*
X46990000Y-116910000D03*
D12*
G04 #@! TO.P,J1,1*
G04 #@! TO.N,Servo_1*
X49530000Y-116910000D03*
G04 #@! TD*
D13*
G04 #@! TO.P,A1,16*
G04 #@! TO.N,Net-(A1-Pad16)*
X86360000Y-76962000D03*
G04 #@! TO.P,A1,15*
G04 #@! TO.N,Net-(A1-Pad15)*
X86360000Y-92202000D03*
G04 #@! TO.P,A1,30*
G04 #@! TO.N,Net-(A1-Pad30)*
X50800000Y-76962000D03*
G04 #@! TO.P,A1,14*
G04 #@! TO.N,Servo_4*
X83820000Y-92202000D03*
G04 #@! TO.P,A1,29*
G04 #@! TO.N,GND*
X53340000Y-76962000D03*
G04 #@! TO.P,A1,13*
G04 #@! TO.N,Servo_3*
X81280000Y-92202000D03*
G04 #@! TO.P,A1,28*
G04 #@! TO.N,Net-(A1-Pad28)*
X55880000Y-76962000D03*
G04 #@! TO.P,A1,12*
G04 #@! TO.N,Net-(A1-Pad12)*
X78740000Y-92202000D03*
G04 #@! TO.P,A1,27*
G04 #@! TO.N,+5V*
X58420000Y-76962000D03*
G04 #@! TO.P,A1,11*
G04 #@! TO.N,Net-(A1-Pad11)*
X76200000Y-92202000D03*
G04 #@! TO.P,A1,26*
G04 #@! TO.N,Net-(A1-Pad26)*
X60960000Y-76962000D03*
G04 #@! TO.P,A1,10*
G04 #@! TO.N,Net-(A1-Pad10)*
X73660000Y-92202000D03*
G04 #@! TO.P,A1,25*
G04 #@! TO.N,Net-(A1-Pad25)*
X63500000Y-76962000D03*
G04 #@! TO.P,A1,9*
G04 #@! TO.N,Servo_2*
X71120000Y-92202000D03*
G04 #@! TO.P,A1,24*
G04 #@! TO.N,SCL*
X66040000Y-76962000D03*
G04 #@! TO.P,A1,8*
G04 #@! TO.N,Servo_1*
X68580000Y-92202000D03*
G04 #@! TO.P,A1,23*
G04 #@! TO.N,SDA*
X68580000Y-76962000D03*
G04 #@! TO.P,A1,7*
G04 #@! TO.N,Net-(A1-Pad7)*
X66040000Y-92202000D03*
G04 #@! TO.P,A1,22*
G04 #@! TO.N,Net-(A1-Pad22)*
X71120000Y-76962000D03*
G04 #@! TO.P,A1,6*
G04 #@! TO.N,Net-(A1-Pad6)*
X63500000Y-92202000D03*
G04 #@! TO.P,A1,21*
G04 #@! TO.N,Net-(A1-Pad21)*
X73660000Y-76962000D03*
G04 #@! TO.P,A1,5*
G04 #@! TO.N,Net-(A1-Pad5)*
X60960000Y-92202000D03*
G04 #@! TO.P,A1,20*
G04 #@! TO.N,Net-(A1-Pad20)*
X76200000Y-76962000D03*
G04 #@! TO.P,A1,4*
G04 #@! TO.N,GND*
X58420000Y-92202000D03*
G04 #@! TO.P,A1,19*
G04 #@! TO.N,Net-(A1-Pad19)*
X78740000Y-76962000D03*
G04 #@! TO.P,A1,3*
G04 #@! TO.N,Net-(A1-Pad3)*
X55880000Y-92202000D03*
G04 #@! TO.P,A1,18*
G04 #@! TO.N,Net-(A1-Pad18)*
X81280000Y-76962000D03*
G04 #@! TO.P,A1,2*
G04 #@! TO.N,Net-(A1-Pad2)*
X53340000Y-92202000D03*
G04 #@! TO.P,A1,17*
G04 #@! TO.N,Net-(A1-Pad17)*
X83820000Y-76962000D03*
D14*
G04 #@! TO.P,A1,1*
G04 #@! TO.N,Net-(A1-Pad1)*
X50800000Y-92202000D03*
G04 #@! TD*
D15*
G04 #@! TO.N,GND*
X66040000Y-109220000D03*
X66040000Y-116840000D03*
X53340000Y-116840000D03*
X40640000Y-116840000D03*
X40640000Y-109220000D03*
X91440000Y-109220000D03*
X91440000Y-116840000D03*
X91440000Y-101600000D03*
X78740000Y-116840000D03*
X66040000Y-101600000D03*
X91440000Y-93980000D03*
X91440000Y-86360000D03*
X78740000Y-86360000D03*
X66040000Y-86360000D03*
X91440000Y-71120000D03*
X66040000Y-71120000D03*
X40640000Y-71120000D03*
X55880000Y-96520000D03*
G04 #@! TD*
D16*
G04 #@! TO.N,+5V*
X59690000Y-116840000D02*
X55880000Y-113030000D01*
X55880000Y-113030000D02*
X59690000Y-109220000D01*
X46990000Y-116910000D02*
X50870000Y-113030000D01*
X50800000Y-113030000D02*
X46990000Y-109220000D01*
X50870000Y-113030000D02*
X50800000Y-113030000D01*
X72390000Y-116840000D02*
X76200000Y-113030000D01*
X76200000Y-113030000D02*
X72390000Y-109220000D01*
X85090000Y-116840000D02*
X81280000Y-113030000D01*
X81280000Y-113030000D02*
X85090000Y-109220000D01*
D17*
X50870000Y-113030000D02*
X52070000Y-113030000D01*
X52070000Y-113030000D02*
X53340000Y-111760000D01*
X53340000Y-111760000D02*
X54610000Y-113030000D01*
X54610000Y-113030000D02*
X55880000Y-113030000D01*
X76200000Y-113030000D02*
X77470000Y-113030000D01*
X77470000Y-113030000D02*
X78740000Y-111760000D01*
X78740000Y-111760000D02*
X80010000Y-113030000D01*
X80010000Y-113030000D02*
X81280000Y-113030000D01*
D18*
X40640000Y-88900000D02*
X39370000Y-88900000D01*
X41910000Y-90170000D02*
X40640000Y-88900000D01*
X41910000Y-91630000D02*
X41910000Y-90170000D01*
X41720000Y-91440000D02*
X41910000Y-91630000D01*
X39370000Y-91440000D02*
X41720000Y-91440000D01*
D19*
X41720000Y-91440000D02*
X41720000Y-102747919D01*
D18*
X76200000Y-105410000D02*
X78740000Y-107950000D01*
X50800000Y-105410000D02*
X76200000Y-105410000D01*
X78740000Y-107950000D02*
X78740000Y-109220000D01*
X53340000Y-107950000D02*
X50800000Y-105410000D01*
X53340000Y-111760000D02*
X53340000Y-107950000D01*
D19*
X44382081Y-105410000D02*
X50800000Y-105410000D01*
X41720000Y-102747919D02*
X44382081Y-105410000D01*
D18*
X78740000Y-109220000D02*
X78740000Y-111760000D01*
D16*
X45212000Y-90170000D02*
X58420000Y-76962000D01*
X41910000Y-90170000D02*
X45212000Y-90170000D01*
G04 #@! TD*
D20*
G04 #@! TO.N,GND*
G36*
X92953893Y-64207670D02*
G01*
X93390498Y-64339489D01*
X93793185Y-64553600D01*
X94146612Y-64841848D01*
X94437327Y-65193261D01*
X94654242Y-65594439D01*
X94789106Y-66030113D01*
X94840000Y-66514344D01*
X94840001Y-117467711D01*
X94792330Y-117953894D01*
X94660512Y-118390497D01*
X94446399Y-118793186D01*
X94158150Y-119146613D01*
X93806739Y-119437327D01*
X93405564Y-119654240D01*
X92969886Y-119789106D01*
X92485661Y-119840000D01*
X38092848Y-119839229D01*
X37598230Y-119802038D01*
X37158748Y-119680159D01*
X36751306Y-119475238D01*
X36391430Y-119195082D01*
X36092822Y-118850360D01*
X35866857Y-118454201D01*
X35722143Y-118021695D01*
X35660695Y-117542024D01*
X35660000Y-117495134D01*
X35660000Y-90590000D01*
X37881928Y-90590000D01*
X37881928Y-92290000D01*
X37894188Y-92414482D01*
X37930498Y-92534180D01*
X37989463Y-92644494D01*
X38068815Y-92741185D01*
X38165506Y-92820537D01*
X38275820Y-92879502D01*
X38395518Y-92915812D01*
X38520000Y-92928072D01*
X40085000Y-92928072D01*
X40085001Y-102667590D01*
X40077089Y-102747919D01*
X40108658Y-103068435D01*
X40202148Y-103376633D01*
X40202149Y-103376634D01*
X40353970Y-103660671D01*
X40558287Y-103909633D01*
X40620682Y-103960839D01*
X43169161Y-106509319D01*
X43220367Y-106571714D01*
X43469329Y-106776031D01*
X43753366Y-106927852D01*
X44061565Y-107021343D01*
X44301759Y-107045000D01*
X44301761Y-107045000D01*
X44382080Y-107052911D01*
X44462400Y-107045000D01*
X50476315Y-107045000D01*
X51955001Y-108523686D01*
X51955000Y-111539868D01*
X51599869Y-111895000D01*
X50916579Y-111895000D01*
X49729651Y-110708072D01*
X50380000Y-110708072D01*
X50504482Y-110695812D01*
X50624180Y-110659502D01*
X50734494Y-110600537D01*
X50831185Y-110521185D01*
X50910537Y-110424494D01*
X50969502Y-110314180D01*
X51005812Y-110194482D01*
X51018072Y-110070000D01*
X51018072Y-108370000D01*
X51005812Y-108245518D01*
X50969502Y-108125820D01*
X50910537Y-108015506D01*
X50831185Y-107918815D01*
X50734494Y-107839463D01*
X50624180Y-107780498D01*
X50504482Y-107744188D01*
X50380000Y-107731928D01*
X48680000Y-107731928D01*
X48555518Y-107744188D01*
X48435820Y-107780498D01*
X48325506Y-107839463D01*
X48228815Y-107918815D01*
X48149463Y-108015506D01*
X48090498Y-108125820D01*
X48068487Y-108198380D01*
X47936632Y-108066525D01*
X47693411Y-107904010D01*
X47423158Y-107792068D01*
X47136260Y-107735000D01*
X46843740Y-107735000D01*
X46556842Y-107792068D01*
X46286589Y-107904010D01*
X46043368Y-108066525D01*
X45836525Y-108273368D01*
X45674010Y-108516589D01*
X45562068Y-108786842D01*
X45505000Y-109073740D01*
X45505000Y-109366260D01*
X45562068Y-109653158D01*
X45674010Y-109923411D01*
X45836525Y-110166632D01*
X46043368Y-110373475D01*
X46286589Y-110535990D01*
X46556842Y-110647932D01*
X46843740Y-110705000D01*
X47136260Y-110705000D01*
X47208961Y-110690539D01*
X49583421Y-113065000D01*
X47208961Y-115439461D01*
X47136260Y-115425000D01*
X46843740Y-115425000D01*
X46556842Y-115482068D01*
X46286589Y-115594010D01*
X46043368Y-115756525D01*
X45836525Y-115963368D01*
X45674010Y-116206589D01*
X45562068Y-116476842D01*
X45505000Y-116763740D01*
X45505000Y-117056260D01*
X45562068Y-117343158D01*
X45674010Y-117613411D01*
X45836525Y-117856632D01*
X46043368Y-118063475D01*
X46286589Y-118225990D01*
X46556842Y-118337932D01*
X46843740Y-118395000D01*
X47136260Y-118395000D01*
X47423158Y-118337932D01*
X47693411Y-118225990D01*
X47936632Y-118063475D01*
X48068487Y-117931620D01*
X48090498Y-118004180D01*
X48149463Y-118114494D01*
X48228815Y-118211185D01*
X48325506Y-118290537D01*
X48435820Y-118349502D01*
X48555518Y-118385812D01*
X48680000Y-118398072D01*
X50380000Y-118398072D01*
X50504482Y-118385812D01*
X50624180Y-118349502D01*
X50734494Y-118290537D01*
X50831185Y-118211185D01*
X50910537Y-118114494D01*
X50969502Y-118004180D01*
X51005812Y-117884482D01*
X51018072Y-117760000D01*
X51018072Y-116060000D01*
X51005812Y-115935518D01*
X50969502Y-115815820D01*
X50910537Y-115705506D01*
X50831185Y-115608815D01*
X50734494Y-115529463D01*
X50624180Y-115470498D01*
X50504482Y-115434188D01*
X50380000Y-115421928D01*
X49729651Y-115421928D01*
X50986579Y-114165000D01*
X52014249Y-114165000D01*
X52070000Y-114170491D01*
X52125751Y-114165000D01*
X52125752Y-114165000D01*
X52292499Y-114148577D01*
X52506447Y-114083676D01*
X52703623Y-113978284D01*
X52876449Y-113836449D01*
X52911996Y-113793135D01*
X53340000Y-113365132D01*
X53768008Y-113793140D01*
X53803551Y-113836449D01*
X53976377Y-113978284D01*
X54173553Y-114083676D01*
X54337705Y-114133471D01*
X54387500Y-114148577D01*
X54408493Y-114150644D01*
X54554248Y-114165000D01*
X54554255Y-114165000D01*
X54609999Y-114170490D01*
X54665743Y-114165000D01*
X55763422Y-114165000D01*
X58219461Y-116621040D01*
X58205000Y-116693740D01*
X58205000Y-116986260D01*
X58262068Y-117273158D01*
X58374010Y-117543411D01*
X58536525Y-117786632D01*
X58743368Y-117993475D01*
X58986589Y-118155990D01*
X59256842Y-118267932D01*
X59543740Y-118325000D01*
X59836260Y-118325000D01*
X60123158Y-118267932D01*
X60393411Y-118155990D01*
X60636632Y-117993475D01*
X60768487Y-117861620D01*
X60790498Y-117934180D01*
X60849463Y-118044494D01*
X60928815Y-118141185D01*
X61025506Y-118220537D01*
X61135820Y-118279502D01*
X61255518Y-118315812D01*
X61380000Y-118328072D01*
X63080000Y-118328072D01*
X63204482Y-118315812D01*
X63324180Y-118279502D01*
X63434494Y-118220537D01*
X63531185Y-118141185D01*
X63610537Y-118044494D01*
X63669502Y-117934180D01*
X63705812Y-117814482D01*
X63718072Y-117690000D01*
X63718072Y-115990000D01*
X63705812Y-115865518D01*
X63669502Y-115745820D01*
X63610537Y-115635506D01*
X63531185Y-115538815D01*
X63434494Y-115459463D01*
X63324180Y-115400498D01*
X63204482Y-115364188D01*
X63080000Y-115351928D01*
X61380000Y-115351928D01*
X61255518Y-115364188D01*
X61135820Y-115400498D01*
X61025506Y-115459463D01*
X60928815Y-115538815D01*
X60849463Y-115635506D01*
X60790498Y-115745820D01*
X60768487Y-115818380D01*
X60636632Y-115686525D01*
X60393411Y-115524010D01*
X60123158Y-115412068D01*
X59836260Y-115355000D01*
X59543740Y-115355000D01*
X59471040Y-115369461D01*
X57131578Y-113030000D01*
X59471040Y-110690539D01*
X59543740Y-110705000D01*
X59836260Y-110705000D01*
X60123158Y-110647932D01*
X60393411Y-110535990D01*
X60636632Y-110373475D01*
X60768487Y-110241620D01*
X60790498Y-110314180D01*
X60849463Y-110424494D01*
X60928815Y-110521185D01*
X61025506Y-110600537D01*
X61135820Y-110659502D01*
X61255518Y-110695812D01*
X61380000Y-110708072D01*
X63080000Y-110708072D01*
X63204482Y-110695812D01*
X63324180Y-110659502D01*
X63434494Y-110600537D01*
X63531185Y-110521185D01*
X63610537Y-110424494D01*
X63669502Y-110314180D01*
X63705812Y-110194482D01*
X63718072Y-110070000D01*
X63718072Y-108370000D01*
X63705812Y-108245518D01*
X63669502Y-108125820D01*
X63610537Y-108015506D01*
X63531185Y-107918815D01*
X63434494Y-107839463D01*
X63324180Y-107780498D01*
X63204482Y-107744188D01*
X63080000Y-107731928D01*
X61380000Y-107731928D01*
X61255518Y-107744188D01*
X61135820Y-107780498D01*
X61025506Y-107839463D01*
X60928815Y-107918815D01*
X60849463Y-108015506D01*
X60790498Y-108125820D01*
X60768487Y-108198380D01*
X60636632Y-108066525D01*
X60393411Y-107904010D01*
X60123158Y-107792068D01*
X59836260Y-107735000D01*
X59543740Y-107735000D01*
X59256842Y-107792068D01*
X58986589Y-107904010D01*
X58743368Y-108066525D01*
X58536525Y-108273368D01*
X58374010Y-108516589D01*
X58262068Y-108786842D01*
X58205000Y-109073740D01*
X58205000Y-109366260D01*
X58219461Y-109438960D01*
X55763422Y-111895000D01*
X55080132Y-111895000D01*
X54725000Y-111539869D01*
X54725000Y-108018026D01*
X54731700Y-107949999D01*
X54725000Y-107881972D01*
X54725000Y-107881963D01*
X54704960Y-107678493D01*
X54625764Y-107417419D01*
X54497157Y-107176812D01*
X54324081Y-106965919D01*
X54271231Y-106922546D01*
X54143685Y-106795000D01*
X75626315Y-106795000D01*
X77355000Y-108523685D01*
X77355000Y-109151964D01*
X77355001Y-111539868D01*
X76999869Y-111895000D01*
X76316579Y-111895000D01*
X75129651Y-110708072D01*
X75780000Y-110708072D01*
X75904482Y-110695812D01*
X76024180Y-110659502D01*
X76134494Y-110600537D01*
X76231185Y-110521185D01*
X76310537Y-110424494D01*
X76369502Y-110314180D01*
X76405812Y-110194482D01*
X76418072Y-110070000D01*
X76418072Y-108370000D01*
X76405812Y-108245518D01*
X76369502Y-108125820D01*
X76310537Y-108015506D01*
X76231185Y-107918815D01*
X76134494Y-107839463D01*
X76024180Y-107780498D01*
X75904482Y-107744188D01*
X75780000Y-107731928D01*
X74080000Y-107731928D01*
X73955518Y-107744188D01*
X73835820Y-107780498D01*
X73725506Y-107839463D01*
X73628815Y-107918815D01*
X73549463Y-108015506D01*
X73490498Y-108125820D01*
X73468487Y-108198380D01*
X73336632Y-108066525D01*
X73093411Y-107904010D01*
X72823158Y-107792068D01*
X72536260Y-107735000D01*
X72243740Y-107735000D01*
X71956842Y-107792068D01*
X71686589Y-107904010D01*
X71443368Y-108066525D01*
X71236525Y-108273368D01*
X71074010Y-108516589D01*
X70962068Y-108786842D01*
X70905000Y-109073740D01*
X70905000Y-109366260D01*
X70962068Y-109653158D01*
X71074010Y-109923411D01*
X71236525Y-110166632D01*
X71443368Y-110373475D01*
X71686589Y-110535990D01*
X71956842Y-110647932D01*
X72243740Y-110705000D01*
X72536260Y-110705000D01*
X72608961Y-110690539D01*
X74948421Y-113030000D01*
X72608961Y-115369461D01*
X72536260Y-115355000D01*
X72243740Y-115355000D01*
X71956842Y-115412068D01*
X71686589Y-115524010D01*
X71443368Y-115686525D01*
X71236525Y-115893368D01*
X71074010Y-116136589D01*
X70962068Y-116406842D01*
X70905000Y-116693740D01*
X70905000Y-116986260D01*
X70962068Y-117273158D01*
X71074010Y-117543411D01*
X71236525Y-117786632D01*
X71443368Y-117993475D01*
X71686589Y-118155990D01*
X71956842Y-118267932D01*
X72243740Y-118325000D01*
X72536260Y-118325000D01*
X72823158Y-118267932D01*
X73093411Y-118155990D01*
X73336632Y-117993475D01*
X73468487Y-117861620D01*
X73490498Y-117934180D01*
X73549463Y-118044494D01*
X73628815Y-118141185D01*
X73725506Y-118220537D01*
X73835820Y-118279502D01*
X73955518Y-118315812D01*
X74080000Y-118328072D01*
X75780000Y-118328072D01*
X75904482Y-118315812D01*
X76024180Y-118279502D01*
X76134494Y-118220537D01*
X76231185Y-118141185D01*
X76310537Y-118044494D01*
X76369502Y-117934180D01*
X76405812Y-117814482D01*
X76418072Y-117690000D01*
X76418072Y-115990000D01*
X76405812Y-115865518D01*
X76369502Y-115745820D01*
X76310537Y-115635506D01*
X76231185Y-115538815D01*
X76134494Y-115459463D01*
X76024180Y-115400498D01*
X75904482Y-115364188D01*
X75780000Y-115351928D01*
X75129651Y-115351928D01*
X76316579Y-114165000D01*
X77414249Y-114165000D01*
X77470000Y-114170491D01*
X77525751Y-114165000D01*
X77525752Y-114165000D01*
X77692499Y-114148577D01*
X77906447Y-114083676D01*
X78103623Y-113978284D01*
X78276449Y-113836449D01*
X78311996Y-113793135D01*
X78740000Y-113365132D01*
X79168008Y-113793140D01*
X79203551Y-113836449D01*
X79376377Y-113978284D01*
X79573553Y-114083676D01*
X79737705Y-114133471D01*
X79787500Y-114148577D01*
X79808493Y-114150644D01*
X79954248Y-114165000D01*
X79954255Y-114165000D01*
X80009999Y-114170490D01*
X80065743Y-114165000D01*
X81163422Y-114165000D01*
X83619461Y-116621040D01*
X83605000Y-116693740D01*
X83605000Y-116986260D01*
X83662068Y-117273158D01*
X83774010Y-117543411D01*
X83936525Y-117786632D01*
X84143368Y-117993475D01*
X84386589Y-118155990D01*
X84656842Y-118267932D01*
X84943740Y-118325000D01*
X85236260Y-118325000D01*
X85523158Y-118267932D01*
X85793411Y-118155990D01*
X86036632Y-117993475D01*
X86168487Y-117861620D01*
X86190498Y-117934180D01*
X86249463Y-118044494D01*
X86328815Y-118141185D01*
X86425506Y-118220537D01*
X86535820Y-118279502D01*
X86655518Y-118315812D01*
X86780000Y-118328072D01*
X88480000Y-118328072D01*
X88604482Y-118315812D01*
X88724180Y-118279502D01*
X88834494Y-118220537D01*
X88931185Y-118141185D01*
X89010537Y-118044494D01*
X89069502Y-117934180D01*
X89105812Y-117814482D01*
X89118072Y-117690000D01*
X89118072Y-115990000D01*
X89105812Y-115865518D01*
X89069502Y-115745820D01*
X89010537Y-115635506D01*
X88931185Y-115538815D01*
X88834494Y-115459463D01*
X88724180Y-115400498D01*
X88604482Y-115364188D01*
X88480000Y-115351928D01*
X86780000Y-115351928D01*
X86655518Y-115364188D01*
X86535820Y-115400498D01*
X86425506Y-115459463D01*
X86328815Y-115538815D01*
X86249463Y-115635506D01*
X86190498Y-115745820D01*
X86168487Y-115818380D01*
X86036632Y-115686525D01*
X85793411Y-115524010D01*
X85523158Y-115412068D01*
X85236260Y-115355000D01*
X84943740Y-115355000D01*
X84871040Y-115369461D01*
X82531578Y-113030000D01*
X84871040Y-110690539D01*
X84943740Y-110705000D01*
X85236260Y-110705000D01*
X85523158Y-110647932D01*
X85793411Y-110535990D01*
X86036632Y-110373475D01*
X86168487Y-110241620D01*
X86190498Y-110314180D01*
X86249463Y-110424494D01*
X86328815Y-110521185D01*
X86425506Y-110600537D01*
X86535820Y-110659502D01*
X86655518Y-110695812D01*
X86780000Y-110708072D01*
X88480000Y-110708072D01*
X88604482Y-110695812D01*
X88724180Y-110659502D01*
X88834494Y-110600537D01*
X88931185Y-110521185D01*
X89010537Y-110424494D01*
X89069502Y-110314180D01*
X89105812Y-110194482D01*
X89118072Y-110070000D01*
X89118072Y-108370000D01*
X89105812Y-108245518D01*
X89069502Y-108125820D01*
X89010537Y-108015506D01*
X88931185Y-107918815D01*
X88834494Y-107839463D01*
X88724180Y-107780498D01*
X88604482Y-107744188D01*
X88480000Y-107731928D01*
X86780000Y-107731928D01*
X86655518Y-107744188D01*
X86535820Y-107780498D01*
X86425506Y-107839463D01*
X86328815Y-107918815D01*
X86249463Y-108015506D01*
X86190498Y-108125820D01*
X86168487Y-108198380D01*
X86036632Y-108066525D01*
X85793411Y-107904010D01*
X85523158Y-107792068D01*
X85236260Y-107735000D01*
X84943740Y-107735000D01*
X84656842Y-107792068D01*
X84386589Y-107904010D01*
X84143368Y-108066525D01*
X83936525Y-108273368D01*
X83774010Y-108516589D01*
X83662068Y-108786842D01*
X83605000Y-109073740D01*
X83605000Y-109366260D01*
X83619461Y-109438960D01*
X81163422Y-111895000D01*
X80480132Y-111895000D01*
X80125000Y-111539869D01*
X80125000Y-108018026D01*
X80131700Y-107949999D01*
X80125000Y-107881972D01*
X80125000Y-107881963D01*
X80104960Y-107678493D01*
X80025764Y-107417419D01*
X79897157Y-107176812D01*
X79724080Y-106965919D01*
X79671235Y-106922550D01*
X77227454Y-104478769D01*
X77184081Y-104425919D01*
X76973188Y-104252843D01*
X76732581Y-104124236D01*
X76471507Y-104045040D01*
X76268037Y-104025000D01*
X76268029Y-104025000D01*
X76200000Y-104018300D01*
X76131971Y-104025000D01*
X51677264Y-104025000D01*
X51428715Y-103892148D01*
X51120516Y-103798657D01*
X50880322Y-103775000D01*
X50814253Y-103775000D01*
X51126305Y-103712929D01*
X51829019Y-103421855D01*
X52461446Y-102999281D01*
X52999281Y-102461446D01*
X53421855Y-101829019D01*
X53712929Y-101126305D01*
X53861317Y-100380307D01*
X53861317Y-99619693D01*
X76638683Y-99619693D01*
X76638683Y-100380307D01*
X76787071Y-101126305D01*
X77078145Y-101829019D01*
X77500719Y-102461446D01*
X78038554Y-102999281D01*
X78670981Y-103421855D01*
X79373695Y-103712929D01*
X80119693Y-103861317D01*
X80880307Y-103861317D01*
X81626305Y-103712929D01*
X82329019Y-103421855D01*
X82961446Y-102999281D01*
X83499281Y-102461446D01*
X83921855Y-101829019D01*
X84212929Y-101126305D01*
X84361317Y-100380307D01*
X84361317Y-99619693D01*
X84212929Y-98873695D01*
X83921855Y-98170981D01*
X83499281Y-97538554D01*
X82961446Y-97000719D01*
X82329019Y-96578145D01*
X81626305Y-96287071D01*
X80880307Y-96138683D01*
X80119693Y-96138683D01*
X79373695Y-96287071D01*
X78670981Y-96578145D01*
X78038554Y-97000719D01*
X77500719Y-97538554D01*
X77078145Y-98170981D01*
X76787071Y-98873695D01*
X76638683Y-99619693D01*
X53861317Y-99619693D01*
X53712929Y-98873695D01*
X53421855Y-98170981D01*
X52999281Y-97538554D01*
X52461446Y-97000719D01*
X51829019Y-96578145D01*
X51126305Y-96287071D01*
X50380307Y-96138683D01*
X49619693Y-96138683D01*
X48873695Y-96287071D01*
X48170981Y-96578145D01*
X47538554Y-97000719D01*
X47000719Y-97538554D01*
X46578145Y-98170981D01*
X46287071Y-98873695D01*
X46138683Y-99619693D01*
X46138683Y-100380307D01*
X46287071Y-101126305D01*
X46578145Y-101829019D01*
X47000719Y-102461446D01*
X47538554Y-102999281D01*
X48170981Y-103421855D01*
X48873695Y-103712929D01*
X49185747Y-103775000D01*
X45059320Y-103775000D01*
X43355000Y-102070681D01*
X43355000Y-91402000D01*
X49361928Y-91402000D01*
X49361928Y-93002000D01*
X49374188Y-93126482D01*
X49410498Y-93246180D01*
X49469463Y-93356494D01*
X49548815Y-93453185D01*
X49645506Y-93532537D01*
X49755820Y-93591502D01*
X49875518Y-93627812D01*
X50000000Y-93640072D01*
X51600000Y-93640072D01*
X51724482Y-93627812D01*
X51844180Y-93591502D01*
X51954494Y-93532537D01*
X52051185Y-93453185D01*
X52130537Y-93356494D01*
X52189502Y-93246180D01*
X52225812Y-93126482D01*
X52226643Y-93118039D01*
X52425241Y-93316637D01*
X52660273Y-93473680D01*
X52921426Y-93581853D01*
X53198665Y-93637000D01*
X53481335Y-93637000D01*
X53758574Y-93581853D01*
X54019727Y-93473680D01*
X54254759Y-93316637D01*
X54454637Y-93116759D01*
X54610000Y-92884241D01*
X54765363Y-93116759D01*
X54965241Y-93316637D01*
X55200273Y-93473680D01*
X55461426Y-93581853D01*
X55738665Y-93637000D01*
X56021335Y-93637000D01*
X56298574Y-93581853D01*
X56559727Y-93473680D01*
X56794759Y-93316637D01*
X56994637Y-93116759D01*
X57151680Y-92881727D01*
X57259853Y-92620574D01*
X57315000Y-92343335D01*
X57315000Y-92060665D01*
X59525000Y-92060665D01*
X59525000Y-92343335D01*
X59580147Y-92620574D01*
X59688320Y-92881727D01*
X59845363Y-93116759D01*
X60045241Y-93316637D01*
X60280273Y-93473680D01*
X60541426Y-93581853D01*
X60818665Y-93637000D01*
X61101335Y-93637000D01*
X61378574Y-93581853D01*
X61639727Y-93473680D01*
X61874759Y-93316637D01*
X62074637Y-93116759D01*
X62230000Y-92884241D01*
X62385363Y-93116759D01*
X62585241Y-93316637D01*
X62820273Y-93473680D01*
X63081426Y-93581853D01*
X63358665Y-93637000D01*
X63641335Y-93637000D01*
X63918574Y-93581853D01*
X64179727Y-93473680D01*
X64414759Y-93316637D01*
X64614637Y-93116759D01*
X64770000Y-92884241D01*
X64925363Y-93116759D01*
X65125241Y-93316637D01*
X65360273Y-93473680D01*
X65621426Y-93581853D01*
X65898665Y-93637000D01*
X66181335Y-93637000D01*
X66458574Y-93581853D01*
X66719727Y-93473680D01*
X66954759Y-93316637D01*
X67154637Y-93116759D01*
X67310000Y-92884241D01*
X67465363Y-93116759D01*
X67665241Y-93316637D01*
X67900273Y-93473680D01*
X68161426Y-93581853D01*
X68438665Y-93637000D01*
X68721335Y-93637000D01*
X68998574Y-93581853D01*
X69259727Y-93473680D01*
X69494759Y-93316637D01*
X69694637Y-93116759D01*
X69850000Y-92884241D01*
X70005363Y-93116759D01*
X70205241Y-93316637D01*
X70440273Y-93473680D01*
X70701426Y-93581853D01*
X70978665Y-93637000D01*
X71261335Y-93637000D01*
X71538574Y-93581853D01*
X71799727Y-93473680D01*
X72034759Y-93316637D01*
X72234637Y-93116759D01*
X72390000Y-92884241D01*
X72545363Y-93116759D01*
X72745241Y-93316637D01*
X72980273Y-93473680D01*
X73241426Y-93581853D01*
X73518665Y-93637000D01*
X73801335Y-93637000D01*
X74078574Y-93581853D01*
X74339727Y-93473680D01*
X74574759Y-93316637D01*
X74774637Y-93116759D01*
X74930000Y-92884241D01*
X75085363Y-93116759D01*
X75285241Y-93316637D01*
X75520273Y-93473680D01*
X75781426Y-93581853D01*
X76058665Y-93637000D01*
X76341335Y-93637000D01*
X76618574Y-93581853D01*
X76879727Y-93473680D01*
X77114759Y-93316637D01*
X77314637Y-93116759D01*
X77470000Y-92884241D01*
X77625363Y-93116759D01*
X77825241Y-93316637D01*
X78060273Y-93473680D01*
X78321426Y-93581853D01*
X78598665Y-93637000D01*
X78881335Y-93637000D01*
X79158574Y-93581853D01*
X79419727Y-93473680D01*
X79654759Y-93316637D01*
X79854637Y-93116759D01*
X80010000Y-92884241D01*
X80165363Y-93116759D01*
X80365241Y-93316637D01*
X80600273Y-93473680D01*
X80861426Y-93581853D01*
X81138665Y-93637000D01*
X81421335Y-93637000D01*
X81698574Y-93581853D01*
X81959727Y-93473680D01*
X82194759Y-93316637D01*
X82394637Y-93116759D01*
X82550000Y-92884241D01*
X82705363Y-93116759D01*
X82905241Y-93316637D01*
X83140273Y-93473680D01*
X83401426Y-93581853D01*
X83678665Y-93637000D01*
X83961335Y-93637000D01*
X84238574Y-93581853D01*
X84499727Y-93473680D01*
X84734759Y-93316637D01*
X84934637Y-93116759D01*
X85090000Y-92884241D01*
X85245363Y-93116759D01*
X85445241Y-93316637D01*
X85680273Y-93473680D01*
X85941426Y-93581853D01*
X86218665Y-93637000D01*
X86501335Y-93637000D01*
X86778574Y-93581853D01*
X87039727Y-93473680D01*
X87274759Y-93316637D01*
X87474637Y-93116759D01*
X87631680Y-92881727D01*
X87739853Y-92620574D01*
X87795000Y-92343335D01*
X87795000Y-92060665D01*
X87739853Y-91783426D01*
X87631680Y-91522273D01*
X87474637Y-91287241D01*
X87274759Y-91087363D01*
X87039727Y-90930320D01*
X86778574Y-90822147D01*
X86501335Y-90767000D01*
X86218665Y-90767000D01*
X85941426Y-90822147D01*
X85680273Y-90930320D01*
X85445241Y-91087363D01*
X85245363Y-91287241D01*
X85090000Y-91519759D01*
X84934637Y-91287241D01*
X84734759Y-91087363D01*
X84499727Y-90930320D01*
X84238574Y-90822147D01*
X83961335Y-90767000D01*
X83678665Y-90767000D01*
X83401426Y-90822147D01*
X83140273Y-90930320D01*
X82905241Y-91087363D01*
X82705363Y-91287241D01*
X82550000Y-91519759D01*
X82394637Y-91287241D01*
X82194759Y-91087363D01*
X81959727Y-90930320D01*
X81698574Y-90822147D01*
X81421335Y-90767000D01*
X81138665Y-90767000D01*
X80861426Y-90822147D01*
X80600273Y-90930320D01*
X80365241Y-91087363D01*
X80165363Y-91287241D01*
X80010000Y-91519759D01*
X79854637Y-91287241D01*
X79654759Y-91087363D01*
X79419727Y-90930320D01*
X79158574Y-90822147D01*
X78881335Y-90767000D01*
X78598665Y-90767000D01*
X78321426Y-90822147D01*
X78060273Y-90930320D01*
X77825241Y-91087363D01*
X77625363Y-91287241D01*
X77470000Y-91519759D01*
X77314637Y-91287241D01*
X77114759Y-91087363D01*
X76879727Y-90930320D01*
X76618574Y-90822147D01*
X76341335Y-90767000D01*
X76058665Y-90767000D01*
X75781426Y-90822147D01*
X75520273Y-90930320D01*
X75285241Y-91087363D01*
X75085363Y-91287241D01*
X74930000Y-91519759D01*
X74774637Y-91287241D01*
X74574759Y-91087363D01*
X74339727Y-90930320D01*
X74078574Y-90822147D01*
X73801335Y-90767000D01*
X73518665Y-90767000D01*
X73241426Y-90822147D01*
X72980273Y-90930320D01*
X72745241Y-91087363D01*
X72545363Y-91287241D01*
X72390000Y-91519759D01*
X72234637Y-91287241D01*
X72034759Y-91087363D01*
X71799727Y-90930320D01*
X71538574Y-90822147D01*
X71261335Y-90767000D01*
X70978665Y-90767000D01*
X70701426Y-90822147D01*
X70440273Y-90930320D01*
X70205241Y-91087363D01*
X70005363Y-91287241D01*
X69850000Y-91519759D01*
X69694637Y-91287241D01*
X69494759Y-91087363D01*
X69259727Y-90930320D01*
X68998574Y-90822147D01*
X68721335Y-90767000D01*
X68438665Y-90767000D01*
X68161426Y-90822147D01*
X67900273Y-90930320D01*
X67665241Y-91087363D01*
X67465363Y-91287241D01*
X67310000Y-91519759D01*
X67154637Y-91287241D01*
X66954759Y-91087363D01*
X66719727Y-90930320D01*
X66458574Y-90822147D01*
X66181335Y-90767000D01*
X65898665Y-90767000D01*
X65621426Y-90822147D01*
X65360273Y-90930320D01*
X65125241Y-91087363D01*
X64925363Y-91287241D01*
X64770000Y-91519759D01*
X64614637Y-91287241D01*
X64414759Y-91087363D01*
X64179727Y-90930320D01*
X63918574Y-90822147D01*
X63641335Y-90767000D01*
X63358665Y-90767000D01*
X63081426Y-90822147D01*
X62820273Y-90930320D01*
X62585241Y-91087363D01*
X62385363Y-91287241D01*
X62230000Y-91519759D01*
X62074637Y-91287241D01*
X61874759Y-91087363D01*
X61639727Y-90930320D01*
X61378574Y-90822147D01*
X61101335Y-90767000D01*
X60818665Y-90767000D01*
X60541426Y-90822147D01*
X60280273Y-90930320D01*
X60045241Y-91087363D01*
X59845363Y-91287241D01*
X59688320Y-91522273D01*
X59580147Y-91783426D01*
X59525000Y-92060665D01*
X57315000Y-92060665D01*
X57259853Y-91783426D01*
X57151680Y-91522273D01*
X56994637Y-91287241D01*
X56794759Y-91087363D01*
X56559727Y-90930320D01*
X56298574Y-90822147D01*
X56021335Y-90767000D01*
X55738665Y-90767000D01*
X55461426Y-90822147D01*
X55200273Y-90930320D01*
X54965241Y-91087363D01*
X54765363Y-91287241D01*
X54610000Y-91519759D01*
X54454637Y-91287241D01*
X54254759Y-91087363D01*
X54019727Y-90930320D01*
X53758574Y-90822147D01*
X53481335Y-90767000D01*
X53198665Y-90767000D01*
X52921426Y-90822147D01*
X52660273Y-90930320D01*
X52425241Y-91087363D01*
X52226643Y-91285961D01*
X52225812Y-91277518D01*
X52189502Y-91157820D01*
X52130537Y-91047506D01*
X52051185Y-90950815D01*
X51954494Y-90871463D01*
X51844180Y-90812498D01*
X51724482Y-90776188D01*
X51600000Y-90763928D01*
X50000000Y-90763928D01*
X49875518Y-90776188D01*
X49755820Y-90812498D01*
X49645506Y-90871463D01*
X49548815Y-90950815D01*
X49469463Y-91047506D01*
X49410498Y-91157820D01*
X49374188Y-91277518D01*
X49361928Y-91402000D01*
X43355000Y-91402000D01*
X43355000Y-91359678D01*
X43331343Y-91119484D01*
X43311782Y-91055000D01*
X45168531Y-91055000D01*
X45212000Y-91059281D01*
X45255469Y-91055000D01*
X45255477Y-91055000D01*
X45385490Y-91042195D01*
X45552313Y-90991589D01*
X45706059Y-90909411D01*
X45840817Y-90798817D01*
X45868534Y-90765044D01*
X58243562Y-78390017D01*
X58278665Y-78397000D01*
X58561335Y-78397000D01*
X58838574Y-78341853D01*
X59099727Y-78233680D01*
X59334759Y-78076637D01*
X59534637Y-77876759D01*
X59690000Y-77644241D01*
X59845363Y-77876759D01*
X60045241Y-78076637D01*
X60280273Y-78233680D01*
X60541426Y-78341853D01*
X60818665Y-78397000D01*
X61101335Y-78397000D01*
X61378574Y-78341853D01*
X61639727Y-78233680D01*
X61874759Y-78076637D01*
X62074637Y-77876759D01*
X62230000Y-77644241D01*
X62385363Y-77876759D01*
X62585241Y-78076637D01*
X62820273Y-78233680D01*
X63081426Y-78341853D01*
X63358665Y-78397000D01*
X63641335Y-78397000D01*
X63918574Y-78341853D01*
X64179727Y-78233680D01*
X64414759Y-78076637D01*
X64614637Y-77876759D01*
X64770000Y-77644241D01*
X64925363Y-77876759D01*
X65125241Y-78076637D01*
X65360273Y-78233680D01*
X65621426Y-78341853D01*
X65898665Y-78397000D01*
X66181335Y-78397000D01*
X66458574Y-78341853D01*
X66719727Y-78233680D01*
X66954759Y-78076637D01*
X67154637Y-77876759D01*
X67310000Y-77644241D01*
X67465363Y-77876759D01*
X67665241Y-78076637D01*
X67900273Y-78233680D01*
X68161426Y-78341853D01*
X68438665Y-78397000D01*
X68721335Y-78397000D01*
X68998574Y-78341853D01*
X69259727Y-78233680D01*
X69494759Y-78076637D01*
X69694637Y-77876759D01*
X69850000Y-77644241D01*
X70005363Y-77876759D01*
X70205241Y-78076637D01*
X70440273Y-78233680D01*
X70701426Y-78341853D01*
X70978665Y-78397000D01*
X71261335Y-78397000D01*
X71538574Y-78341853D01*
X71799727Y-78233680D01*
X72034759Y-78076637D01*
X72234637Y-77876759D01*
X72390000Y-77644241D01*
X72545363Y-77876759D01*
X72745241Y-78076637D01*
X72980273Y-78233680D01*
X73241426Y-78341853D01*
X73518665Y-78397000D01*
X73801335Y-78397000D01*
X74078574Y-78341853D01*
X74339727Y-78233680D01*
X74574759Y-78076637D01*
X74774637Y-77876759D01*
X74930000Y-77644241D01*
X75085363Y-77876759D01*
X75285241Y-78076637D01*
X75520273Y-78233680D01*
X75781426Y-78341853D01*
X76058665Y-78397000D01*
X76341335Y-78397000D01*
X76618574Y-78341853D01*
X76879727Y-78233680D01*
X77114759Y-78076637D01*
X77314637Y-77876759D01*
X77470000Y-77644241D01*
X77625363Y-77876759D01*
X77825241Y-78076637D01*
X78060273Y-78233680D01*
X78321426Y-78341853D01*
X78598665Y-78397000D01*
X78881335Y-78397000D01*
X79158574Y-78341853D01*
X79419727Y-78233680D01*
X79654759Y-78076637D01*
X79854637Y-77876759D01*
X80010000Y-77644241D01*
X80165363Y-77876759D01*
X80365241Y-78076637D01*
X80600273Y-78233680D01*
X80861426Y-78341853D01*
X81138665Y-78397000D01*
X81421335Y-78397000D01*
X81698574Y-78341853D01*
X81959727Y-78233680D01*
X82194759Y-78076637D01*
X82394637Y-77876759D01*
X82550000Y-77644241D01*
X82705363Y-77876759D01*
X82905241Y-78076637D01*
X83140273Y-78233680D01*
X83401426Y-78341853D01*
X83678665Y-78397000D01*
X83961335Y-78397000D01*
X84238574Y-78341853D01*
X84499727Y-78233680D01*
X84734759Y-78076637D01*
X84934637Y-77876759D01*
X85090000Y-77644241D01*
X85245363Y-77876759D01*
X85445241Y-78076637D01*
X85680273Y-78233680D01*
X85941426Y-78341853D01*
X86218665Y-78397000D01*
X86501335Y-78397000D01*
X86778574Y-78341853D01*
X87039727Y-78233680D01*
X87274759Y-78076637D01*
X87474637Y-77876759D01*
X87631680Y-77641727D01*
X87739853Y-77380574D01*
X87795000Y-77103335D01*
X87795000Y-76820665D01*
X87739853Y-76543426D01*
X87631680Y-76282273D01*
X87474637Y-76047241D01*
X87274759Y-75847363D01*
X87039727Y-75690320D01*
X86778574Y-75582147D01*
X86501335Y-75527000D01*
X86218665Y-75527000D01*
X85941426Y-75582147D01*
X85680273Y-75690320D01*
X85445241Y-75847363D01*
X85245363Y-76047241D01*
X85090000Y-76279759D01*
X84934637Y-76047241D01*
X84734759Y-75847363D01*
X84499727Y-75690320D01*
X84238574Y-75582147D01*
X83961335Y-75527000D01*
X83678665Y-75527000D01*
X83401426Y-75582147D01*
X83140273Y-75690320D01*
X82905241Y-75847363D01*
X82705363Y-76047241D01*
X82550000Y-76279759D01*
X82394637Y-76047241D01*
X82194759Y-75847363D01*
X81959727Y-75690320D01*
X81698574Y-75582147D01*
X81421335Y-75527000D01*
X81138665Y-75527000D01*
X80861426Y-75582147D01*
X80600273Y-75690320D01*
X80365241Y-75847363D01*
X80165363Y-76047241D01*
X80010000Y-76279759D01*
X79854637Y-76047241D01*
X79654759Y-75847363D01*
X79419727Y-75690320D01*
X79158574Y-75582147D01*
X78881335Y-75527000D01*
X78598665Y-75527000D01*
X78321426Y-75582147D01*
X78060273Y-75690320D01*
X77825241Y-75847363D01*
X77625363Y-76047241D01*
X77470000Y-76279759D01*
X77314637Y-76047241D01*
X77114759Y-75847363D01*
X76879727Y-75690320D01*
X76618574Y-75582147D01*
X76341335Y-75527000D01*
X76058665Y-75527000D01*
X75781426Y-75582147D01*
X75520273Y-75690320D01*
X75285241Y-75847363D01*
X75085363Y-76047241D01*
X74930000Y-76279759D01*
X74774637Y-76047241D01*
X74574759Y-75847363D01*
X74339727Y-75690320D01*
X74078574Y-75582147D01*
X73801335Y-75527000D01*
X73518665Y-75527000D01*
X73241426Y-75582147D01*
X72980273Y-75690320D01*
X72745241Y-75847363D01*
X72545363Y-76047241D01*
X72390000Y-76279759D01*
X72234637Y-76047241D01*
X72034759Y-75847363D01*
X71799727Y-75690320D01*
X71538574Y-75582147D01*
X71261335Y-75527000D01*
X70978665Y-75527000D01*
X70701426Y-75582147D01*
X70440273Y-75690320D01*
X70205241Y-75847363D01*
X70005363Y-76047241D01*
X69850000Y-76279759D01*
X69694637Y-76047241D01*
X69494759Y-75847363D01*
X69259727Y-75690320D01*
X68998574Y-75582147D01*
X68721335Y-75527000D01*
X68438665Y-75527000D01*
X68161426Y-75582147D01*
X67900273Y-75690320D01*
X67665241Y-75847363D01*
X67465363Y-76047241D01*
X67310000Y-76279759D01*
X67154637Y-76047241D01*
X66954759Y-75847363D01*
X66719727Y-75690320D01*
X66458574Y-75582147D01*
X66181335Y-75527000D01*
X65898665Y-75527000D01*
X65621426Y-75582147D01*
X65360273Y-75690320D01*
X65125241Y-75847363D01*
X64925363Y-76047241D01*
X64770000Y-76279759D01*
X64614637Y-76047241D01*
X64414759Y-75847363D01*
X64179727Y-75690320D01*
X63918574Y-75582147D01*
X63641335Y-75527000D01*
X63358665Y-75527000D01*
X63081426Y-75582147D01*
X62820273Y-75690320D01*
X62585241Y-75847363D01*
X62385363Y-76047241D01*
X62230000Y-76279759D01*
X62074637Y-76047241D01*
X61874759Y-75847363D01*
X61639727Y-75690320D01*
X61378574Y-75582147D01*
X61101335Y-75527000D01*
X60818665Y-75527000D01*
X60541426Y-75582147D01*
X60280273Y-75690320D01*
X60045241Y-75847363D01*
X59845363Y-76047241D01*
X59690000Y-76279759D01*
X59534637Y-76047241D01*
X59334759Y-75847363D01*
X59099727Y-75690320D01*
X58838574Y-75582147D01*
X58561335Y-75527000D01*
X58278665Y-75527000D01*
X58001426Y-75582147D01*
X57740273Y-75690320D01*
X57505241Y-75847363D01*
X57305363Y-76047241D01*
X57150000Y-76279759D01*
X56994637Y-76047241D01*
X56794759Y-75847363D01*
X56559727Y-75690320D01*
X56298574Y-75582147D01*
X56021335Y-75527000D01*
X55738665Y-75527000D01*
X55461426Y-75582147D01*
X55200273Y-75690320D01*
X54965241Y-75847363D01*
X54765363Y-76047241D01*
X54608320Y-76282273D01*
X54500147Y-76543426D01*
X54445000Y-76820665D01*
X54445000Y-77103335D01*
X54500147Y-77380574D01*
X54608320Y-77641727D01*
X54765363Y-77876759D01*
X54965241Y-78076637D01*
X55200273Y-78233680D01*
X55461426Y-78341853D01*
X55734291Y-78396130D01*
X44845422Y-89285000D01*
X42975395Y-89285000D01*
X42894081Y-89185919D01*
X42841236Y-89142550D01*
X41667454Y-87968769D01*
X41624081Y-87915919D01*
X41413188Y-87742843D01*
X41172581Y-87614236D01*
X40911507Y-87535040D01*
X40708037Y-87515000D01*
X40708029Y-87515000D01*
X40640000Y-87508300D01*
X40571971Y-87515000D01*
X40314350Y-87515000D01*
X40316632Y-87513475D01*
X40523475Y-87306632D01*
X40685990Y-87063411D01*
X40797932Y-86793158D01*
X40855000Y-86506260D01*
X40855000Y-86213740D01*
X40797932Y-85926842D01*
X40685990Y-85656589D01*
X40523475Y-85413368D01*
X40316632Y-85206525D01*
X40142240Y-85090000D01*
X40316632Y-84973475D01*
X40523475Y-84766632D01*
X40685990Y-84523411D01*
X40797932Y-84253158D01*
X40855000Y-83966260D01*
X40855000Y-83673740D01*
X40797932Y-83386842D01*
X40685990Y-83116589D01*
X40523475Y-82873368D01*
X40316632Y-82666525D01*
X40073411Y-82504010D01*
X39803158Y-82392068D01*
X39516260Y-82335000D01*
X39223740Y-82335000D01*
X38936842Y-82392068D01*
X38666589Y-82504010D01*
X38423368Y-82666525D01*
X38216525Y-82873368D01*
X38054010Y-83116589D01*
X37942068Y-83386842D01*
X37885000Y-83673740D01*
X37885000Y-83966260D01*
X37942068Y-84253158D01*
X38054010Y-84523411D01*
X38216525Y-84766632D01*
X38423368Y-84973475D01*
X38597760Y-85090000D01*
X38423368Y-85206525D01*
X38216525Y-85413368D01*
X38054010Y-85656589D01*
X37942068Y-85926842D01*
X37885000Y-86213740D01*
X37885000Y-86506260D01*
X37942068Y-86793158D01*
X38054010Y-87063411D01*
X38216525Y-87306632D01*
X38423368Y-87513475D01*
X38597760Y-87630000D01*
X38423368Y-87746525D01*
X38216525Y-87953368D01*
X38054010Y-88196589D01*
X37942068Y-88466842D01*
X37885000Y-88753740D01*
X37885000Y-89046260D01*
X37942068Y-89333158D01*
X38054010Y-89603411D01*
X38216525Y-89846632D01*
X38348380Y-89978487D01*
X38275820Y-90000498D01*
X38165506Y-90059463D01*
X38068815Y-90138815D01*
X37989463Y-90235506D01*
X37930498Y-90345820D01*
X37894188Y-90465518D01*
X37881928Y-90590000D01*
X35660000Y-90590000D01*
X35660000Y-76820665D01*
X49365000Y-76820665D01*
X49365000Y-77103335D01*
X49420147Y-77380574D01*
X49528320Y-77641727D01*
X49685363Y-77876759D01*
X49885241Y-78076637D01*
X50120273Y-78233680D01*
X50381426Y-78341853D01*
X50658665Y-78397000D01*
X50941335Y-78397000D01*
X51218574Y-78341853D01*
X51479727Y-78233680D01*
X51714759Y-78076637D01*
X51914637Y-77876759D01*
X52071680Y-77641727D01*
X52179853Y-77380574D01*
X52235000Y-77103335D01*
X52235000Y-76820665D01*
X52179853Y-76543426D01*
X52071680Y-76282273D01*
X51914637Y-76047241D01*
X51714759Y-75847363D01*
X51479727Y-75690320D01*
X51218574Y-75582147D01*
X50941335Y-75527000D01*
X50658665Y-75527000D01*
X50381426Y-75582147D01*
X50120273Y-75690320D01*
X49885241Y-75847363D01*
X49685363Y-76047241D01*
X49528320Y-76282273D01*
X49420147Y-76543426D01*
X49365000Y-76820665D01*
X35660000Y-76820665D01*
X35660000Y-69119693D01*
X46138683Y-69119693D01*
X46138683Y-69880307D01*
X46287071Y-70626305D01*
X46578145Y-71329019D01*
X47000719Y-71961446D01*
X47538554Y-72499281D01*
X48170981Y-72921855D01*
X48873695Y-73212929D01*
X49619693Y-73361317D01*
X50380307Y-73361317D01*
X51126305Y-73212929D01*
X51829019Y-72921855D01*
X52461446Y-72499281D01*
X52999281Y-71961446D01*
X53421855Y-71329019D01*
X53712929Y-70626305D01*
X53861317Y-69880307D01*
X53861317Y-69119693D01*
X76638683Y-69119693D01*
X76638683Y-69880307D01*
X76787071Y-70626305D01*
X77078145Y-71329019D01*
X77500719Y-71961446D01*
X78038554Y-72499281D01*
X78670981Y-72921855D01*
X79373695Y-73212929D01*
X80119693Y-73361317D01*
X80880307Y-73361317D01*
X81626305Y-73212929D01*
X82329019Y-72921855D01*
X82961446Y-72499281D01*
X83499281Y-71961446D01*
X83921855Y-71329019D01*
X84212929Y-70626305D01*
X84361317Y-69880307D01*
X84361317Y-69119693D01*
X84212929Y-68373695D01*
X83921855Y-67670981D01*
X83499281Y-67038554D01*
X82961446Y-66500719D01*
X82329019Y-66078145D01*
X81626305Y-65787071D01*
X80880307Y-65638683D01*
X80119693Y-65638683D01*
X79373695Y-65787071D01*
X78670981Y-66078145D01*
X78038554Y-66500719D01*
X77500719Y-67038554D01*
X77078145Y-67670981D01*
X76787071Y-68373695D01*
X76638683Y-69119693D01*
X53861317Y-69119693D01*
X53712929Y-68373695D01*
X53421855Y-67670981D01*
X52999281Y-67038554D01*
X52461446Y-66500719D01*
X51829019Y-66078145D01*
X51126305Y-65787071D01*
X50380307Y-65638683D01*
X49619693Y-65638683D01*
X48873695Y-65787071D01*
X48170981Y-66078145D01*
X47538554Y-66500719D01*
X47000719Y-67038554D01*
X46578145Y-67670981D01*
X46287071Y-68373695D01*
X46138683Y-69119693D01*
X35660000Y-69119693D01*
X35660000Y-66532279D01*
X35707670Y-66046107D01*
X35839489Y-65609502D01*
X36053600Y-65206815D01*
X36341848Y-64853388D01*
X36693261Y-64562673D01*
X37094439Y-64345758D01*
X37530113Y-64210894D01*
X38014344Y-64160000D01*
X92467721Y-64160000D01*
X92953893Y-64207670D01*
G37*
X92953893Y-64207670D02*
X93390498Y-64339489D01*
X93793185Y-64553600D01*
X94146612Y-64841848D01*
X94437327Y-65193261D01*
X94654242Y-65594439D01*
X94789106Y-66030113D01*
X94840000Y-66514344D01*
X94840001Y-117467711D01*
X94792330Y-117953894D01*
X94660512Y-118390497D01*
X94446399Y-118793186D01*
X94158150Y-119146613D01*
X93806739Y-119437327D01*
X93405564Y-119654240D01*
X92969886Y-119789106D01*
X92485661Y-119840000D01*
X38092848Y-119839229D01*
X37598230Y-119802038D01*
X37158748Y-119680159D01*
X36751306Y-119475238D01*
X36391430Y-119195082D01*
X36092822Y-118850360D01*
X35866857Y-118454201D01*
X35722143Y-118021695D01*
X35660695Y-117542024D01*
X35660000Y-117495134D01*
X35660000Y-90590000D01*
X37881928Y-90590000D01*
X37881928Y-92290000D01*
X37894188Y-92414482D01*
X37930498Y-92534180D01*
X37989463Y-92644494D01*
X38068815Y-92741185D01*
X38165506Y-92820537D01*
X38275820Y-92879502D01*
X38395518Y-92915812D01*
X38520000Y-92928072D01*
X40085000Y-92928072D01*
X40085001Y-102667590D01*
X40077089Y-102747919D01*
X40108658Y-103068435D01*
X40202148Y-103376633D01*
X40202149Y-103376634D01*
X40353970Y-103660671D01*
X40558287Y-103909633D01*
X40620682Y-103960839D01*
X43169161Y-106509319D01*
X43220367Y-106571714D01*
X43469329Y-106776031D01*
X43753366Y-106927852D01*
X44061565Y-107021343D01*
X44301759Y-107045000D01*
X44301761Y-107045000D01*
X44382080Y-107052911D01*
X44462400Y-107045000D01*
X50476315Y-107045000D01*
X51955001Y-108523686D01*
X51955000Y-111539868D01*
X51599869Y-111895000D01*
X50916579Y-111895000D01*
X49729651Y-110708072D01*
X50380000Y-110708072D01*
X50504482Y-110695812D01*
X50624180Y-110659502D01*
X50734494Y-110600537D01*
X50831185Y-110521185D01*
X50910537Y-110424494D01*
X50969502Y-110314180D01*
X51005812Y-110194482D01*
X51018072Y-110070000D01*
X51018072Y-108370000D01*
X51005812Y-108245518D01*
X50969502Y-108125820D01*
X50910537Y-108015506D01*
X50831185Y-107918815D01*
X50734494Y-107839463D01*
X50624180Y-107780498D01*
X50504482Y-107744188D01*
X50380000Y-107731928D01*
X48680000Y-107731928D01*
X48555518Y-107744188D01*
X48435820Y-107780498D01*
X48325506Y-107839463D01*
X48228815Y-107918815D01*
X48149463Y-108015506D01*
X48090498Y-108125820D01*
X48068487Y-108198380D01*
X47936632Y-108066525D01*
X47693411Y-107904010D01*
X47423158Y-107792068D01*
X47136260Y-107735000D01*
X46843740Y-107735000D01*
X46556842Y-107792068D01*
X46286589Y-107904010D01*
X46043368Y-108066525D01*
X45836525Y-108273368D01*
X45674010Y-108516589D01*
X45562068Y-108786842D01*
X45505000Y-109073740D01*
X45505000Y-109366260D01*
X45562068Y-109653158D01*
X45674010Y-109923411D01*
X45836525Y-110166632D01*
X46043368Y-110373475D01*
X46286589Y-110535990D01*
X46556842Y-110647932D01*
X46843740Y-110705000D01*
X47136260Y-110705000D01*
X47208961Y-110690539D01*
X49583421Y-113065000D01*
X47208961Y-115439461D01*
X47136260Y-115425000D01*
X46843740Y-115425000D01*
X46556842Y-115482068D01*
X46286589Y-115594010D01*
X46043368Y-115756525D01*
X45836525Y-115963368D01*
X45674010Y-116206589D01*
X45562068Y-116476842D01*
X45505000Y-116763740D01*
X45505000Y-117056260D01*
X45562068Y-117343158D01*
X45674010Y-117613411D01*
X45836525Y-117856632D01*
X46043368Y-118063475D01*
X46286589Y-118225990D01*
X46556842Y-118337932D01*
X46843740Y-118395000D01*
X47136260Y-118395000D01*
X47423158Y-118337932D01*
X47693411Y-118225990D01*
X47936632Y-118063475D01*
X48068487Y-117931620D01*
X48090498Y-118004180D01*
X48149463Y-118114494D01*
X48228815Y-118211185D01*
X48325506Y-118290537D01*
X48435820Y-118349502D01*
X48555518Y-118385812D01*
X48680000Y-118398072D01*
X50380000Y-118398072D01*
X50504482Y-118385812D01*
X50624180Y-118349502D01*
X50734494Y-118290537D01*
X50831185Y-118211185D01*
X50910537Y-118114494D01*
X50969502Y-118004180D01*
X51005812Y-117884482D01*
X51018072Y-117760000D01*
X51018072Y-116060000D01*
X51005812Y-115935518D01*
X50969502Y-115815820D01*
X50910537Y-115705506D01*
X50831185Y-115608815D01*
X50734494Y-115529463D01*
X50624180Y-115470498D01*
X50504482Y-115434188D01*
X50380000Y-115421928D01*
X49729651Y-115421928D01*
X50986579Y-114165000D01*
X52014249Y-114165000D01*
X52070000Y-114170491D01*
X52125751Y-114165000D01*
X52125752Y-114165000D01*
X52292499Y-114148577D01*
X52506447Y-114083676D01*
X52703623Y-113978284D01*
X52876449Y-113836449D01*
X52911996Y-113793135D01*
X53340000Y-113365132D01*
X53768008Y-113793140D01*
X53803551Y-113836449D01*
X53976377Y-113978284D01*
X54173553Y-114083676D01*
X54337705Y-114133471D01*
X54387500Y-114148577D01*
X54408493Y-114150644D01*
X54554248Y-114165000D01*
X54554255Y-114165000D01*
X54609999Y-114170490D01*
X54665743Y-114165000D01*
X55763422Y-114165000D01*
X58219461Y-116621040D01*
X58205000Y-116693740D01*
X58205000Y-116986260D01*
X58262068Y-117273158D01*
X58374010Y-117543411D01*
X58536525Y-117786632D01*
X58743368Y-117993475D01*
X58986589Y-118155990D01*
X59256842Y-118267932D01*
X59543740Y-118325000D01*
X59836260Y-118325000D01*
X60123158Y-118267932D01*
X60393411Y-118155990D01*
X60636632Y-117993475D01*
X60768487Y-117861620D01*
X60790498Y-117934180D01*
X60849463Y-118044494D01*
X60928815Y-118141185D01*
X61025506Y-118220537D01*
X61135820Y-118279502D01*
X61255518Y-118315812D01*
X61380000Y-118328072D01*
X63080000Y-118328072D01*
X63204482Y-118315812D01*
X63324180Y-118279502D01*
X63434494Y-118220537D01*
X63531185Y-118141185D01*
X63610537Y-118044494D01*
X63669502Y-117934180D01*
X63705812Y-117814482D01*
X63718072Y-117690000D01*
X63718072Y-115990000D01*
X63705812Y-115865518D01*
X63669502Y-115745820D01*
X63610537Y-115635506D01*
X63531185Y-115538815D01*
X63434494Y-115459463D01*
X63324180Y-115400498D01*
X63204482Y-115364188D01*
X63080000Y-115351928D01*
X61380000Y-115351928D01*
X61255518Y-115364188D01*
X61135820Y-115400498D01*
X61025506Y-115459463D01*
X60928815Y-115538815D01*
X60849463Y-115635506D01*
X60790498Y-115745820D01*
X60768487Y-115818380D01*
X60636632Y-115686525D01*
X60393411Y-115524010D01*
X60123158Y-115412068D01*
X59836260Y-115355000D01*
X59543740Y-115355000D01*
X59471040Y-115369461D01*
X57131578Y-113030000D01*
X59471040Y-110690539D01*
X59543740Y-110705000D01*
X59836260Y-110705000D01*
X60123158Y-110647932D01*
X60393411Y-110535990D01*
X60636632Y-110373475D01*
X60768487Y-110241620D01*
X60790498Y-110314180D01*
X60849463Y-110424494D01*
X60928815Y-110521185D01*
X61025506Y-110600537D01*
X61135820Y-110659502D01*
X61255518Y-110695812D01*
X61380000Y-110708072D01*
X63080000Y-110708072D01*
X63204482Y-110695812D01*
X63324180Y-110659502D01*
X63434494Y-110600537D01*
X63531185Y-110521185D01*
X63610537Y-110424494D01*
X63669502Y-110314180D01*
X63705812Y-110194482D01*
X63718072Y-110070000D01*
X63718072Y-108370000D01*
X63705812Y-108245518D01*
X63669502Y-108125820D01*
X63610537Y-108015506D01*
X63531185Y-107918815D01*
X63434494Y-107839463D01*
X63324180Y-107780498D01*
X63204482Y-107744188D01*
X63080000Y-107731928D01*
X61380000Y-107731928D01*
X61255518Y-107744188D01*
X61135820Y-107780498D01*
X61025506Y-107839463D01*
X60928815Y-107918815D01*
X60849463Y-108015506D01*
X60790498Y-108125820D01*
X60768487Y-108198380D01*
X60636632Y-108066525D01*
X60393411Y-107904010D01*
X60123158Y-107792068D01*
X59836260Y-107735000D01*
X59543740Y-107735000D01*
X59256842Y-107792068D01*
X58986589Y-107904010D01*
X58743368Y-108066525D01*
X58536525Y-108273368D01*
X58374010Y-108516589D01*
X58262068Y-108786842D01*
X58205000Y-109073740D01*
X58205000Y-109366260D01*
X58219461Y-109438960D01*
X55763422Y-111895000D01*
X55080132Y-111895000D01*
X54725000Y-111539869D01*
X54725000Y-108018026D01*
X54731700Y-107949999D01*
X54725000Y-107881972D01*
X54725000Y-107881963D01*
X54704960Y-107678493D01*
X54625764Y-107417419D01*
X54497157Y-107176812D01*
X54324081Y-106965919D01*
X54271231Y-106922546D01*
X54143685Y-106795000D01*
X75626315Y-106795000D01*
X77355000Y-108523685D01*
X77355000Y-109151964D01*
X77355001Y-111539868D01*
X76999869Y-111895000D01*
X76316579Y-111895000D01*
X75129651Y-110708072D01*
X75780000Y-110708072D01*
X75904482Y-110695812D01*
X76024180Y-110659502D01*
X76134494Y-110600537D01*
X76231185Y-110521185D01*
X76310537Y-110424494D01*
X76369502Y-110314180D01*
X76405812Y-110194482D01*
X76418072Y-110070000D01*
X76418072Y-108370000D01*
X76405812Y-108245518D01*
X76369502Y-108125820D01*
X76310537Y-108015506D01*
X76231185Y-107918815D01*
X76134494Y-107839463D01*
X76024180Y-107780498D01*
X75904482Y-107744188D01*
X75780000Y-107731928D01*
X74080000Y-107731928D01*
X73955518Y-107744188D01*
X73835820Y-107780498D01*
X73725506Y-107839463D01*
X73628815Y-107918815D01*
X73549463Y-108015506D01*
X73490498Y-108125820D01*
X73468487Y-108198380D01*
X73336632Y-108066525D01*
X73093411Y-107904010D01*
X72823158Y-107792068D01*
X72536260Y-107735000D01*
X72243740Y-107735000D01*
X71956842Y-107792068D01*
X71686589Y-107904010D01*
X71443368Y-108066525D01*
X71236525Y-108273368D01*
X71074010Y-108516589D01*
X70962068Y-108786842D01*
X70905000Y-109073740D01*
X70905000Y-109366260D01*
X70962068Y-109653158D01*
X71074010Y-109923411D01*
X71236525Y-110166632D01*
X71443368Y-110373475D01*
X71686589Y-110535990D01*
X71956842Y-110647932D01*
X72243740Y-110705000D01*
X72536260Y-110705000D01*
X72608961Y-110690539D01*
X74948421Y-113030000D01*
X72608961Y-115369461D01*
X72536260Y-115355000D01*
X72243740Y-115355000D01*
X71956842Y-115412068D01*
X71686589Y-115524010D01*
X71443368Y-115686525D01*
X71236525Y-115893368D01*
X71074010Y-116136589D01*
X70962068Y-116406842D01*
X70905000Y-116693740D01*
X70905000Y-116986260D01*
X70962068Y-117273158D01*
X71074010Y-117543411D01*
X71236525Y-117786632D01*
X71443368Y-117993475D01*
X71686589Y-118155990D01*
X71956842Y-118267932D01*
X72243740Y-118325000D01*
X72536260Y-118325000D01*
X72823158Y-118267932D01*
X73093411Y-118155990D01*
X73336632Y-117993475D01*
X73468487Y-117861620D01*
X73490498Y-117934180D01*
X73549463Y-118044494D01*
X73628815Y-118141185D01*
X73725506Y-118220537D01*
X73835820Y-118279502D01*
X73955518Y-118315812D01*
X74080000Y-118328072D01*
X75780000Y-118328072D01*
X75904482Y-118315812D01*
X76024180Y-118279502D01*
X76134494Y-118220537D01*
X76231185Y-118141185D01*
X76310537Y-118044494D01*
X76369502Y-117934180D01*
X76405812Y-117814482D01*
X76418072Y-117690000D01*
X76418072Y-115990000D01*
X76405812Y-115865518D01*
X76369502Y-115745820D01*
X76310537Y-115635506D01*
X76231185Y-115538815D01*
X76134494Y-115459463D01*
X76024180Y-115400498D01*
X75904482Y-115364188D01*
X75780000Y-115351928D01*
X75129651Y-115351928D01*
X76316579Y-114165000D01*
X77414249Y-114165000D01*
X77470000Y-114170491D01*
X77525751Y-114165000D01*
X77525752Y-114165000D01*
X77692499Y-114148577D01*
X77906447Y-114083676D01*
X78103623Y-113978284D01*
X78276449Y-113836449D01*
X78311996Y-113793135D01*
X78740000Y-113365132D01*
X79168008Y-113793140D01*
X79203551Y-113836449D01*
X79376377Y-113978284D01*
X79573553Y-114083676D01*
X79737705Y-114133471D01*
X79787500Y-114148577D01*
X79808493Y-114150644D01*
X79954248Y-114165000D01*
X79954255Y-114165000D01*
X80009999Y-114170490D01*
X80065743Y-114165000D01*
X81163422Y-114165000D01*
X83619461Y-116621040D01*
X83605000Y-116693740D01*
X83605000Y-116986260D01*
X83662068Y-117273158D01*
X83774010Y-117543411D01*
X83936525Y-117786632D01*
X84143368Y-117993475D01*
X84386589Y-118155990D01*
X84656842Y-118267932D01*
X84943740Y-118325000D01*
X85236260Y-118325000D01*
X85523158Y-118267932D01*
X85793411Y-118155990D01*
X86036632Y-117993475D01*
X86168487Y-117861620D01*
X86190498Y-117934180D01*
X86249463Y-118044494D01*
X86328815Y-118141185D01*
X86425506Y-118220537D01*
X86535820Y-118279502D01*
X86655518Y-118315812D01*
X86780000Y-118328072D01*
X88480000Y-118328072D01*
X88604482Y-118315812D01*
X88724180Y-118279502D01*
X88834494Y-118220537D01*
X88931185Y-118141185D01*
X89010537Y-118044494D01*
X89069502Y-117934180D01*
X89105812Y-117814482D01*
X89118072Y-117690000D01*
X89118072Y-115990000D01*
X89105812Y-115865518D01*
X89069502Y-115745820D01*
X89010537Y-115635506D01*
X88931185Y-115538815D01*
X88834494Y-115459463D01*
X88724180Y-115400498D01*
X88604482Y-115364188D01*
X88480000Y-115351928D01*
X86780000Y-115351928D01*
X86655518Y-115364188D01*
X86535820Y-115400498D01*
X86425506Y-115459463D01*
X86328815Y-115538815D01*
X86249463Y-115635506D01*
X86190498Y-115745820D01*
X86168487Y-115818380D01*
X86036632Y-115686525D01*
X85793411Y-115524010D01*
X85523158Y-115412068D01*
X85236260Y-115355000D01*
X84943740Y-115355000D01*
X84871040Y-115369461D01*
X82531578Y-113030000D01*
X84871040Y-110690539D01*
X84943740Y-110705000D01*
X85236260Y-110705000D01*
X85523158Y-110647932D01*
X85793411Y-110535990D01*
X86036632Y-110373475D01*
X86168487Y-110241620D01*
X86190498Y-110314180D01*
X86249463Y-110424494D01*
X86328815Y-110521185D01*
X86425506Y-110600537D01*
X86535820Y-110659502D01*
X86655518Y-110695812D01*
X86780000Y-110708072D01*
X88480000Y-110708072D01*
X88604482Y-110695812D01*
X88724180Y-110659502D01*
X88834494Y-110600537D01*
X88931185Y-110521185D01*
X89010537Y-110424494D01*
X89069502Y-110314180D01*
X89105812Y-110194482D01*
X89118072Y-110070000D01*
X89118072Y-108370000D01*
X89105812Y-108245518D01*
X89069502Y-108125820D01*
X89010537Y-108015506D01*
X88931185Y-107918815D01*
X88834494Y-107839463D01*
X88724180Y-107780498D01*
X88604482Y-107744188D01*
X88480000Y-107731928D01*
X86780000Y-107731928D01*
X86655518Y-107744188D01*
X86535820Y-107780498D01*
X86425506Y-107839463D01*
X86328815Y-107918815D01*
X86249463Y-108015506D01*
X86190498Y-108125820D01*
X86168487Y-108198380D01*
X86036632Y-108066525D01*
X85793411Y-107904010D01*
X85523158Y-107792068D01*
X85236260Y-107735000D01*
X84943740Y-107735000D01*
X84656842Y-107792068D01*
X84386589Y-107904010D01*
X84143368Y-108066525D01*
X83936525Y-108273368D01*
X83774010Y-108516589D01*
X83662068Y-108786842D01*
X83605000Y-109073740D01*
X83605000Y-109366260D01*
X83619461Y-109438960D01*
X81163422Y-111895000D01*
X80480132Y-111895000D01*
X80125000Y-111539869D01*
X80125000Y-108018026D01*
X80131700Y-107949999D01*
X80125000Y-107881972D01*
X80125000Y-107881963D01*
X80104960Y-107678493D01*
X80025764Y-107417419D01*
X79897157Y-107176812D01*
X79724080Y-106965919D01*
X79671235Y-106922550D01*
X77227454Y-104478769D01*
X77184081Y-104425919D01*
X76973188Y-104252843D01*
X76732581Y-104124236D01*
X76471507Y-104045040D01*
X76268037Y-104025000D01*
X76268029Y-104025000D01*
X76200000Y-104018300D01*
X76131971Y-104025000D01*
X51677264Y-104025000D01*
X51428715Y-103892148D01*
X51120516Y-103798657D01*
X50880322Y-103775000D01*
X50814253Y-103775000D01*
X51126305Y-103712929D01*
X51829019Y-103421855D01*
X52461446Y-102999281D01*
X52999281Y-102461446D01*
X53421855Y-101829019D01*
X53712929Y-101126305D01*
X53861317Y-100380307D01*
X53861317Y-99619693D01*
X76638683Y-99619693D01*
X76638683Y-100380307D01*
X76787071Y-101126305D01*
X77078145Y-101829019D01*
X77500719Y-102461446D01*
X78038554Y-102999281D01*
X78670981Y-103421855D01*
X79373695Y-103712929D01*
X80119693Y-103861317D01*
X80880307Y-103861317D01*
X81626305Y-103712929D01*
X82329019Y-103421855D01*
X82961446Y-102999281D01*
X83499281Y-102461446D01*
X83921855Y-101829019D01*
X84212929Y-101126305D01*
X84361317Y-100380307D01*
X84361317Y-99619693D01*
X84212929Y-98873695D01*
X83921855Y-98170981D01*
X83499281Y-97538554D01*
X82961446Y-97000719D01*
X82329019Y-96578145D01*
X81626305Y-96287071D01*
X80880307Y-96138683D01*
X80119693Y-96138683D01*
X79373695Y-96287071D01*
X78670981Y-96578145D01*
X78038554Y-97000719D01*
X77500719Y-97538554D01*
X77078145Y-98170981D01*
X76787071Y-98873695D01*
X76638683Y-99619693D01*
X53861317Y-99619693D01*
X53712929Y-98873695D01*
X53421855Y-98170981D01*
X52999281Y-97538554D01*
X52461446Y-97000719D01*
X51829019Y-96578145D01*
X51126305Y-96287071D01*
X50380307Y-96138683D01*
X49619693Y-96138683D01*
X48873695Y-96287071D01*
X48170981Y-96578145D01*
X47538554Y-97000719D01*
X47000719Y-97538554D01*
X46578145Y-98170981D01*
X46287071Y-98873695D01*
X46138683Y-99619693D01*
X46138683Y-100380307D01*
X46287071Y-101126305D01*
X46578145Y-101829019D01*
X47000719Y-102461446D01*
X47538554Y-102999281D01*
X48170981Y-103421855D01*
X48873695Y-103712929D01*
X49185747Y-103775000D01*
X45059320Y-103775000D01*
X43355000Y-102070681D01*
X43355000Y-91402000D01*
X49361928Y-91402000D01*
X49361928Y-93002000D01*
X49374188Y-93126482D01*
X49410498Y-93246180D01*
X49469463Y-93356494D01*
X49548815Y-93453185D01*
X49645506Y-93532537D01*
X49755820Y-93591502D01*
X49875518Y-93627812D01*
X50000000Y-93640072D01*
X51600000Y-93640072D01*
X51724482Y-93627812D01*
X51844180Y-93591502D01*
X51954494Y-93532537D01*
X52051185Y-93453185D01*
X52130537Y-93356494D01*
X52189502Y-93246180D01*
X52225812Y-93126482D01*
X52226643Y-93118039D01*
X52425241Y-93316637D01*
X52660273Y-93473680D01*
X52921426Y-93581853D01*
X53198665Y-93637000D01*
X53481335Y-93637000D01*
X53758574Y-93581853D01*
X54019727Y-93473680D01*
X54254759Y-93316637D01*
X54454637Y-93116759D01*
X54610000Y-92884241D01*
X54765363Y-93116759D01*
X54965241Y-93316637D01*
X55200273Y-93473680D01*
X55461426Y-93581853D01*
X55738665Y-93637000D01*
X56021335Y-93637000D01*
X56298574Y-93581853D01*
X56559727Y-93473680D01*
X56794759Y-93316637D01*
X56994637Y-93116759D01*
X57151680Y-92881727D01*
X57259853Y-92620574D01*
X57315000Y-92343335D01*
X57315000Y-92060665D01*
X59525000Y-92060665D01*
X59525000Y-92343335D01*
X59580147Y-92620574D01*
X59688320Y-92881727D01*
X59845363Y-93116759D01*
X60045241Y-93316637D01*
X60280273Y-93473680D01*
X60541426Y-93581853D01*
X60818665Y-93637000D01*
X61101335Y-93637000D01*
X61378574Y-93581853D01*
X61639727Y-93473680D01*
X61874759Y-93316637D01*
X62074637Y-93116759D01*
X62230000Y-92884241D01*
X62385363Y-93116759D01*
X62585241Y-93316637D01*
X62820273Y-93473680D01*
X63081426Y-93581853D01*
X63358665Y-93637000D01*
X63641335Y-93637000D01*
X63918574Y-93581853D01*
X64179727Y-93473680D01*
X64414759Y-93316637D01*
X64614637Y-93116759D01*
X64770000Y-92884241D01*
X64925363Y-93116759D01*
X65125241Y-93316637D01*
X65360273Y-93473680D01*
X65621426Y-93581853D01*
X65898665Y-93637000D01*
X66181335Y-93637000D01*
X66458574Y-93581853D01*
X66719727Y-93473680D01*
X66954759Y-93316637D01*
X67154637Y-93116759D01*
X67310000Y-92884241D01*
X67465363Y-93116759D01*
X67665241Y-93316637D01*
X67900273Y-93473680D01*
X68161426Y-93581853D01*
X68438665Y-93637000D01*
X68721335Y-93637000D01*
X68998574Y-93581853D01*
X69259727Y-93473680D01*
X69494759Y-93316637D01*
X69694637Y-93116759D01*
X69850000Y-92884241D01*
X70005363Y-93116759D01*
X70205241Y-93316637D01*
X70440273Y-93473680D01*
X70701426Y-93581853D01*
X70978665Y-93637000D01*
X71261335Y-93637000D01*
X71538574Y-93581853D01*
X71799727Y-93473680D01*
X72034759Y-93316637D01*
X72234637Y-93116759D01*
X72390000Y-92884241D01*
X72545363Y-93116759D01*
X72745241Y-93316637D01*
X72980273Y-93473680D01*
X73241426Y-93581853D01*
X73518665Y-93637000D01*
X73801335Y-93637000D01*
X74078574Y-93581853D01*
X74339727Y-93473680D01*
X74574759Y-93316637D01*
X74774637Y-93116759D01*
X74930000Y-92884241D01*
X75085363Y-93116759D01*
X75285241Y-93316637D01*
X75520273Y-93473680D01*
X75781426Y-93581853D01*
X76058665Y-93637000D01*
X76341335Y-93637000D01*
X76618574Y-93581853D01*
X76879727Y-93473680D01*
X77114759Y-93316637D01*
X77314637Y-93116759D01*
X77470000Y-92884241D01*
X77625363Y-93116759D01*
X77825241Y-93316637D01*
X78060273Y-93473680D01*
X78321426Y-93581853D01*
X78598665Y-93637000D01*
X78881335Y-93637000D01*
X79158574Y-93581853D01*
X79419727Y-93473680D01*
X79654759Y-93316637D01*
X79854637Y-93116759D01*
X80010000Y-92884241D01*
X80165363Y-93116759D01*
X80365241Y-93316637D01*
X80600273Y-93473680D01*
X80861426Y-93581853D01*
X81138665Y-93637000D01*
X81421335Y-93637000D01*
X81698574Y-93581853D01*
X81959727Y-93473680D01*
X82194759Y-93316637D01*
X82394637Y-93116759D01*
X82550000Y-92884241D01*
X82705363Y-93116759D01*
X82905241Y-93316637D01*
X83140273Y-93473680D01*
X83401426Y-93581853D01*
X83678665Y-93637000D01*
X83961335Y-93637000D01*
X84238574Y-93581853D01*
X84499727Y-93473680D01*
X84734759Y-93316637D01*
X84934637Y-93116759D01*
X85090000Y-92884241D01*
X85245363Y-93116759D01*
X85445241Y-93316637D01*
X85680273Y-93473680D01*
X85941426Y-93581853D01*
X86218665Y-93637000D01*
X86501335Y-93637000D01*
X86778574Y-93581853D01*
X87039727Y-93473680D01*
X87274759Y-93316637D01*
X87474637Y-93116759D01*
X87631680Y-92881727D01*
X87739853Y-92620574D01*
X87795000Y-92343335D01*
X87795000Y-92060665D01*
X87739853Y-91783426D01*
X87631680Y-91522273D01*
X87474637Y-91287241D01*
X87274759Y-91087363D01*
X87039727Y-90930320D01*
X86778574Y-90822147D01*
X86501335Y-90767000D01*
X86218665Y-90767000D01*
X85941426Y-90822147D01*
X85680273Y-90930320D01*
X85445241Y-91087363D01*
X85245363Y-91287241D01*
X85090000Y-91519759D01*
X84934637Y-91287241D01*
X84734759Y-91087363D01*
X84499727Y-90930320D01*
X84238574Y-90822147D01*
X83961335Y-90767000D01*
X83678665Y-90767000D01*
X83401426Y-90822147D01*
X83140273Y-90930320D01*
X82905241Y-91087363D01*
X82705363Y-91287241D01*
X82550000Y-91519759D01*
X82394637Y-91287241D01*
X82194759Y-91087363D01*
X81959727Y-90930320D01*
X81698574Y-90822147D01*
X81421335Y-90767000D01*
X81138665Y-90767000D01*
X80861426Y-90822147D01*
X80600273Y-90930320D01*
X80365241Y-91087363D01*
X80165363Y-91287241D01*
X80010000Y-91519759D01*
X79854637Y-91287241D01*
X79654759Y-91087363D01*
X79419727Y-90930320D01*
X79158574Y-90822147D01*
X78881335Y-90767000D01*
X78598665Y-90767000D01*
X78321426Y-90822147D01*
X78060273Y-90930320D01*
X77825241Y-91087363D01*
X77625363Y-91287241D01*
X77470000Y-91519759D01*
X77314637Y-91287241D01*
X77114759Y-91087363D01*
X76879727Y-90930320D01*
X76618574Y-90822147D01*
X76341335Y-90767000D01*
X76058665Y-90767000D01*
X75781426Y-90822147D01*
X75520273Y-90930320D01*
X75285241Y-91087363D01*
X75085363Y-91287241D01*
X74930000Y-91519759D01*
X74774637Y-91287241D01*
X74574759Y-91087363D01*
X74339727Y-90930320D01*
X74078574Y-90822147D01*
X73801335Y-90767000D01*
X73518665Y-90767000D01*
X73241426Y-90822147D01*
X72980273Y-90930320D01*
X72745241Y-91087363D01*
X72545363Y-91287241D01*
X72390000Y-91519759D01*
X72234637Y-91287241D01*
X72034759Y-91087363D01*
X71799727Y-90930320D01*
X71538574Y-90822147D01*
X71261335Y-90767000D01*
X70978665Y-90767000D01*
X70701426Y-90822147D01*
X70440273Y-90930320D01*
X70205241Y-91087363D01*
X70005363Y-91287241D01*
X69850000Y-91519759D01*
X69694637Y-91287241D01*
X69494759Y-91087363D01*
X69259727Y-90930320D01*
X68998574Y-90822147D01*
X68721335Y-90767000D01*
X68438665Y-90767000D01*
X68161426Y-90822147D01*
X67900273Y-90930320D01*
X67665241Y-91087363D01*
X67465363Y-91287241D01*
X67310000Y-91519759D01*
X67154637Y-91287241D01*
X66954759Y-91087363D01*
X66719727Y-90930320D01*
X66458574Y-90822147D01*
X66181335Y-90767000D01*
X65898665Y-90767000D01*
X65621426Y-90822147D01*
X65360273Y-90930320D01*
X65125241Y-91087363D01*
X64925363Y-91287241D01*
X64770000Y-91519759D01*
X64614637Y-91287241D01*
X64414759Y-91087363D01*
X64179727Y-90930320D01*
X63918574Y-90822147D01*
X63641335Y-90767000D01*
X63358665Y-90767000D01*
X63081426Y-90822147D01*
X62820273Y-90930320D01*
X62585241Y-91087363D01*
X62385363Y-91287241D01*
X62230000Y-91519759D01*
X62074637Y-91287241D01*
X61874759Y-91087363D01*
X61639727Y-90930320D01*
X61378574Y-90822147D01*
X61101335Y-90767000D01*
X60818665Y-90767000D01*
X60541426Y-90822147D01*
X60280273Y-90930320D01*
X60045241Y-91087363D01*
X59845363Y-91287241D01*
X59688320Y-91522273D01*
X59580147Y-91783426D01*
X59525000Y-92060665D01*
X57315000Y-92060665D01*
X57259853Y-91783426D01*
X57151680Y-91522273D01*
X56994637Y-91287241D01*
X56794759Y-91087363D01*
X56559727Y-90930320D01*
X56298574Y-90822147D01*
X56021335Y-90767000D01*
X55738665Y-90767000D01*
X55461426Y-90822147D01*
X55200273Y-90930320D01*
X54965241Y-91087363D01*
X54765363Y-91287241D01*
X54610000Y-91519759D01*
X54454637Y-91287241D01*
X54254759Y-91087363D01*
X54019727Y-90930320D01*
X53758574Y-90822147D01*
X53481335Y-90767000D01*
X53198665Y-90767000D01*
X52921426Y-90822147D01*
X52660273Y-90930320D01*
X52425241Y-91087363D01*
X52226643Y-91285961D01*
X52225812Y-91277518D01*
X52189502Y-91157820D01*
X52130537Y-91047506D01*
X52051185Y-90950815D01*
X51954494Y-90871463D01*
X51844180Y-90812498D01*
X51724482Y-90776188D01*
X51600000Y-90763928D01*
X50000000Y-90763928D01*
X49875518Y-90776188D01*
X49755820Y-90812498D01*
X49645506Y-90871463D01*
X49548815Y-90950815D01*
X49469463Y-91047506D01*
X49410498Y-91157820D01*
X49374188Y-91277518D01*
X49361928Y-91402000D01*
X43355000Y-91402000D01*
X43355000Y-91359678D01*
X43331343Y-91119484D01*
X43311782Y-91055000D01*
X45168531Y-91055000D01*
X45212000Y-91059281D01*
X45255469Y-91055000D01*
X45255477Y-91055000D01*
X45385490Y-91042195D01*
X45552313Y-90991589D01*
X45706059Y-90909411D01*
X45840817Y-90798817D01*
X45868534Y-90765044D01*
X58243562Y-78390017D01*
X58278665Y-78397000D01*
X58561335Y-78397000D01*
X58838574Y-78341853D01*
X59099727Y-78233680D01*
X59334759Y-78076637D01*
X59534637Y-77876759D01*
X59690000Y-77644241D01*
X59845363Y-77876759D01*
X60045241Y-78076637D01*
X60280273Y-78233680D01*
X60541426Y-78341853D01*
X60818665Y-78397000D01*
X61101335Y-78397000D01*
X61378574Y-78341853D01*
X61639727Y-78233680D01*
X61874759Y-78076637D01*
X62074637Y-77876759D01*
X62230000Y-77644241D01*
X62385363Y-77876759D01*
X62585241Y-78076637D01*
X62820273Y-78233680D01*
X63081426Y-78341853D01*
X63358665Y-78397000D01*
X63641335Y-78397000D01*
X63918574Y-78341853D01*
X64179727Y-78233680D01*
X64414759Y-78076637D01*
X64614637Y-77876759D01*
X64770000Y-77644241D01*
X64925363Y-77876759D01*
X65125241Y-78076637D01*
X65360273Y-78233680D01*
X65621426Y-78341853D01*
X65898665Y-78397000D01*
X66181335Y-78397000D01*
X66458574Y-78341853D01*
X66719727Y-78233680D01*
X66954759Y-78076637D01*
X67154637Y-77876759D01*
X67310000Y-77644241D01*
X67465363Y-77876759D01*
X67665241Y-78076637D01*
X67900273Y-78233680D01*
X68161426Y-78341853D01*
X68438665Y-78397000D01*
X68721335Y-78397000D01*
X68998574Y-78341853D01*
X69259727Y-78233680D01*
X69494759Y-78076637D01*
X69694637Y-77876759D01*
X69850000Y-77644241D01*
X70005363Y-77876759D01*
X70205241Y-78076637D01*
X70440273Y-78233680D01*
X70701426Y-78341853D01*
X70978665Y-78397000D01*
X71261335Y-78397000D01*
X71538574Y-78341853D01*
X71799727Y-78233680D01*
X72034759Y-78076637D01*
X72234637Y-77876759D01*
X72390000Y-77644241D01*
X72545363Y-77876759D01*
X72745241Y-78076637D01*
X72980273Y-78233680D01*
X73241426Y-78341853D01*
X73518665Y-78397000D01*
X73801335Y-78397000D01*
X74078574Y-78341853D01*
X74339727Y-78233680D01*
X74574759Y-78076637D01*
X74774637Y-77876759D01*
X74930000Y-77644241D01*
X75085363Y-77876759D01*
X75285241Y-78076637D01*
X75520273Y-78233680D01*
X75781426Y-78341853D01*
X76058665Y-78397000D01*
X76341335Y-78397000D01*
X76618574Y-78341853D01*
X76879727Y-78233680D01*
X77114759Y-78076637D01*
X77314637Y-77876759D01*
X77470000Y-77644241D01*
X77625363Y-77876759D01*
X77825241Y-78076637D01*
X78060273Y-78233680D01*
X78321426Y-78341853D01*
X78598665Y-78397000D01*
X78881335Y-78397000D01*
X79158574Y-78341853D01*
X79419727Y-78233680D01*
X79654759Y-78076637D01*
X79854637Y-77876759D01*
X80010000Y-77644241D01*
X80165363Y-77876759D01*
X80365241Y-78076637D01*
X80600273Y-78233680D01*
X80861426Y-78341853D01*
X81138665Y-78397000D01*
X81421335Y-78397000D01*
X81698574Y-78341853D01*
X81959727Y-78233680D01*
X82194759Y-78076637D01*
X82394637Y-77876759D01*
X82550000Y-77644241D01*
X82705363Y-77876759D01*
X82905241Y-78076637D01*
X83140273Y-78233680D01*
X83401426Y-78341853D01*
X83678665Y-78397000D01*
X83961335Y-78397000D01*
X84238574Y-78341853D01*
X84499727Y-78233680D01*
X84734759Y-78076637D01*
X84934637Y-77876759D01*
X85090000Y-77644241D01*
X85245363Y-77876759D01*
X85445241Y-78076637D01*
X85680273Y-78233680D01*
X85941426Y-78341853D01*
X86218665Y-78397000D01*
X86501335Y-78397000D01*
X86778574Y-78341853D01*
X87039727Y-78233680D01*
X87274759Y-78076637D01*
X87474637Y-77876759D01*
X87631680Y-77641727D01*
X87739853Y-77380574D01*
X87795000Y-77103335D01*
X87795000Y-76820665D01*
X87739853Y-76543426D01*
X87631680Y-76282273D01*
X87474637Y-76047241D01*
X87274759Y-75847363D01*
X87039727Y-75690320D01*
X86778574Y-75582147D01*
X86501335Y-75527000D01*
X86218665Y-75527000D01*
X85941426Y-75582147D01*
X85680273Y-75690320D01*
X85445241Y-75847363D01*
X85245363Y-76047241D01*
X85090000Y-76279759D01*
X84934637Y-76047241D01*
X84734759Y-75847363D01*
X84499727Y-75690320D01*
X84238574Y-75582147D01*
X83961335Y-75527000D01*
X83678665Y-75527000D01*
X83401426Y-75582147D01*
X83140273Y-75690320D01*
X82905241Y-75847363D01*
X82705363Y-76047241D01*
X82550000Y-76279759D01*
X82394637Y-76047241D01*
X82194759Y-75847363D01*
X81959727Y-75690320D01*
X81698574Y-75582147D01*
X81421335Y-75527000D01*
X81138665Y-75527000D01*
X80861426Y-75582147D01*
X80600273Y-75690320D01*
X80365241Y-75847363D01*
X80165363Y-76047241D01*
X80010000Y-76279759D01*
X79854637Y-76047241D01*
X79654759Y-75847363D01*
X79419727Y-75690320D01*
X79158574Y-75582147D01*
X78881335Y-75527000D01*
X78598665Y-75527000D01*
X78321426Y-75582147D01*
X78060273Y-75690320D01*
X77825241Y-75847363D01*
X77625363Y-76047241D01*
X77470000Y-76279759D01*
X77314637Y-76047241D01*
X77114759Y-75847363D01*
X76879727Y-75690320D01*
X76618574Y-75582147D01*
X76341335Y-75527000D01*
X76058665Y-75527000D01*
X75781426Y-75582147D01*
X75520273Y-75690320D01*
X75285241Y-75847363D01*
X75085363Y-76047241D01*
X74930000Y-76279759D01*
X74774637Y-76047241D01*
X74574759Y-75847363D01*
X74339727Y-75690320D01*
X74078574Y-75582147D01*
X73801335Y-75527000D01*
X73518665Y-75527000D01*
X73241426Y-75582147D01*
X72980273Y-75690320D01*
X72745241Y-75847363D01*
X72545363Y-76047241D01*
X72390000Y-76279759D01*
X72234637Y-76047241D01*
X72034759Y-75847363D01*
X71799727Y-75690320D01*
X71538574Y-75582147D01*
X71261335Y-75527000D01*
X70978665Y-75527000D01*
X70701426Y-75582147D01*
X70440273Y-75690320D01*
X70205241Y-75847363D01*
X70005363Y-76047241D01*
X69850000Y-76279759D01*
X69694637Y-76047241D01*
X69494759Y-75847363D01*
X69259727Y-75690320D01*
X68998574Y-75582147D01*
X68721335Y-75527000D01*
X68438665Y-75527000D01*
X68161426Y-75582147D01*
X67900273Y-75690320D01*
X67665241Y-75847363D01*
X67465363Y-76047241D01*
X67310000Y-76279759D01*
X67154637Y-76047241D01*
X66954759Y-75847363D01*
X66719727Y-75690320D01*
X66458574Y-75582147D01*
X66181335Y-75527000D01*
X65898665Y-75527000D01*
X65621426Y-75582147D01*
X65360273Y-75690320D01*
X65125241Y-75847363D01*
X64925363Y-76047241D01*
X64770000Y-76279759D01*
X64614637Y-76047241D01*
X64414759Y-75847363D01*
X64179727Y-75690320D01*
X63918574Y-75582147D01*
X63641335Y-75527000D01*
X63358665Y-75527000D01*
X63081426Y-75582147D01*
X62820273Y-75690320D01*
X62585241Y-75847363D01*
X62385363Y-76047241D01*
X62230000Y-76279759D01*
X62074637Y-76047241D01*
X61874759Y-75847363D01*
X61639727Y-75690320D01*
X61378574Y-75582147D01*
X61101335Y-75527000D01*
X60818665Y-75527000D01*
X60541426Y-75582147D01*
X60280273Y-75690320D01*
X60045241Y-75847363D01*
X59845363Y-76047241D01*
X59690000Y-76279759D01*
X59534637Y-76047241D01*
X59334759Y-75847363D01*
X59099727Y-75690320D01*
X58838574Y-75582147D01*
X58561335Y-75527000D01*
X58278665Y-75527000D01*
X58001426Y-75582147D01*
X57740273Y-75690320D01*
X57505241Y-75847363D01*
X57305363Y-76047241D01*
X57150000Y-76279759D01*
X56994637Y-76047241D01*
X56794759Y-75847363D01*
X56559727Y-75690320D01*
X56298574Y-75582147D01*
X56021335Y-75527000D01*
X55738665Y-75527000D01*
X55461426Y-75582147D01*
X55200273Y-75690320D01*
X54965241Y-75847363D01*
X54765363Y-76047241D01*
X54608320Y-76282273D01*
X54500147Y-76543426D01*
X54445000Y-76820665D01*
X54445000Y-77103335D01*
X54500147Y-77380574D01*
X54608320Y-77641727D01*
X54765363Y-77876759D01*
X54965241Y-78076637D01*
X55200273Y-78233680D01*
X55461426Y-78341853D01*
X55734291Y-78396130D01*
X44845422Y-89285000D01*
X42975395Y-89285000D01*
X42894081Y-89185919D01*
X42841236Y-89142550D01*
X41667454Y-87968769D01*
X41624081Y-87915919D01*
X41413188Y-87742843D01*
X41172581Y-87614236D01*
X40911507Y-87535040D01*
X40708037Y-87515000D01*
X40708029Y-87515000D01*
X40640000Y-87508300D01*
X40571971Y-87515000D01*
X40314350Y-87515000D01*
X40316632Y-87513475D01*
X40523475Y-87306632D01*
X40685990Y-87063411D01*
X40797932Y-86793158D01*
X40855000Y-86506260D01*
X40855000Y-86213740D01*
X40797932Y-85926842D01*
X40685990Y-85656589D01*
X40523475Y-85413368D01*
X40316632Y-85206525D01*
X40142240Y-85090000D01*
X40316632Y-84973475D01*
X40523475Y-84766632D01*
X40685990Y-84523411D01*
X40797932Y-84253158D01*
X40855000Y-83966260D01*
X40855000Y-83673740D01*
X40797932Y-83386842D01*
X40685990Y-83116589D01*
X40523475Y-82873368D01*
X40316632Y-82666525D01*
X40073411Y-82504010D01*
X39803158Y-82392068D01*
X39516260Y-82335000D01*
X39223740Y-82335000D01*
X38936842Y-82392068D01*
X38666589Y-82504010D01*
X38423368Y-82666525D01*
X38216525Y-82873368D01*
X38054010Y-83116589D01*
X37942068Y-83386842D01*
X37885000Y-83673740D01*
X37885000Y-83966260D01*
X37942068Y-84253158D01*
X38054010Y-84523411D01*
X38216525Y-84766632D01*
X38423368Y-84973475D01*
X38597760Y-85090000D01*
X38423368Y-85206525D01*
X38216525Y-85413368D01*
X38054010Y-85656589D01*
X37942068Y-85926842D01*
X37885000Y-86213740D01*
X37885000Y-86506260D01*
X37942068Y-86793158D01*
X38054010Y-87063411D01*
X38216525Y-87306632D01*
X38423368Y-87513475D01*
X38597760Y-87630000D01*
X38423368Y-87746525D01*
X38216525Y-87953368D01*
X38054010Y-88196589D01*
X37942068Y-88466842D01*
X37885000Y-88753740D01*
X37885000Y-89046260D01*
X37942068Y-89333158D01*
X38054010Y-89603411D01*
X38216525Y-89846632D01*
X38348380Y-89978487D01*
X38275820Y-90000498D01*
X38165506Y-90059463D01*
X38068815Y-90138815D01*
X37989463Y-90235506D01*
X37930498Y-90345820D01*
X37894188Y-90465518D01*
X37881928Y-90590000D01*
X35660000Y-90590000D01*
X35660000Y-76820665D01*
X49365000Y-76820665D01*
X49365000Y-77103335D01*
X49420147Y-77380574D01*
X49528320Y-77641727D01*
X49685363Y-77876759D01*
X49885241Y-78076637D01*
X50120273Y-78233680D01*
X50381426Y-78341853D01*
X50658665Y-78397000D01*
X50941335Y-78397000D01*
X51218574Y-78341853D01*
X51479727Y-78233680D01*
X51714759Y-78076637D01*
X51914637Y-77876759D01*
X52071680Y-77641727D01*
X52179853Y-77380574D01*
X52235000Y-77103335D01*
X52235000Y-76820665D01*
X52179853Y-76543426D01*
X52071680Y-76282273D01*
X51914637Y-76047241D01*
X51714759Y-75847363D01*
X51479727Y-75690320D01*
X51218574Y-75582147D01*
X50941335Y-75527000D01*
X50658665Y-75527000D01*
X50381426Y-75582147D01*
X50120273Y-75690320D01*
X49885241Y-75847363D01*
X49685363Y-76047241D01*
X49528320Y-76282273D01*
X49420147Y-76543426D01*
X49365000Y-76820665D01*
X35660000Y-76820665D01*
X35660000Y-69119693D01*
X46138683Y-69119693D01*
X46138683Y-69880307D01*
X46287071Y-70626305D01*
X46578145Y-71329019D01*
X47000719Y-71961446D01*
X47538554Y-72499281D01*
X48170981Y-72921855D01*
X48873695Y-73212929D01*
X49619693Y-73361317D01*
X50380307Y-73361317D01*
X51126305Y-73212929D01*
X51829019Y-72921855D01*
X52461446Y-72499281D01*
X52999281Y-71961446D01*
X53421855Y-71329019D01*
X53712929Y-70626305D01*
X53861317Y-69880307D01*
X53861317Y-69119693D01*
X76638683Y-69119693D01*
X76638683Y-69880307D01*
X76787071Y-70626305D01*
X77078145Y-71329019D01*
X77500719Y-71961446D01*
X78038554Y-72499281D01*
X78670981Y-72921855D01*
X79373695Y-73212929D01*
X80119693Y-73361317D01*
X80880307Y-73361317D01*
X81626305Y-73212929D01*
X82329019Y-72921855D01*
X82961446Y-72499281D01*
X83499281Y-71961446D01*
X83921855Y-71329019D01*
X84212929Y-70626305D01*
X84361317Y-69880307D01*
X84361317Y-69119693D01*
X84212929Y-68373695D01*
X83921855Y-67670981D01*
X83499281Y-67038554D01*
X82961446Y-66500719D01*
X82329019Y-66078145D01*
X81626305Y-65787071D01*
X80880307Y-65638683D01*
X80119693Y-65638683D01*
X79373695Y-65787071D01*
X78670981Y-66078145D01*
X78038554Y-66500719D01*
X77500719Y-67038554D01*
X77078145Y-67670981D01*
X76787071Y-68373695D01*
X76638683Y-69119693D01*
X53861317Y-69119693D01*
X53712929Y-68373695D01*
X53421855Y-67670981D01*
X52999281Y-67038554D01*
X52461446Y-66500719D01*
X51829019Y-66078145D01*
X51126305Y-65787071D01*
X50380307Y-65638683D01*
X49619693Y-65638683D01*
X48873695Y-65787071D01*
X48170981Y-66078145D01*
X47538554Y-66500719D01*
X47000719Y-67038554D01*
X46578145Y-67670981D01*
X46287071Y-68373695D01*
X46138683Y-69119693D01*
X35660000Y-69119693D01*
X35660000Y-66532279D01*
X35707670Y-66046107D01*
X35839489Y-65609502D01*
X36053600Y-65206815D01*
X36341848Y-64853388D01*
X36693261Y-64562673D01*
X37094439Y-64345758D01*
X37530113Y-64210894D01*
X38014344Y-64160000D01*
X92467721Y-64160000D01*
X92953893Y-64207670D01*
G04 #@! TD*
M02*
