G04 #@! TF.GenerationSoftware,KiCad,Pcbnew,5.1.5+dfsg1-2build2*
G04 #@! TF.CreationDate,2021-01-17T21:09:55-05:00*
G04 #@! TF.ProjectId,Multidrop-Servo-Routing,4d756c74-6964-4726-9f70-2d536572766f,rev?*
G04 #@! TF.SameCoordinates,Original*
G04 #@! TF.FileFunction,Legend,Top*
G04 #@! TF.FilePolarity,Positive*
%FSLAX46Y46*%
G04 Gerber Fmt 4.6, Leading zero omitted, Abs format (unit mm)*
G04 Created by KiCad (PCBNEW 5.1.5+dfsg1-2build2) date 2021-01-17 21:09:55*
%MOMM*%
%LPD*%
G04 APERTURE LIST*
%ADD10C,0.150000*%
%ADD11C,0.120000*%
G04 #@! TA.AperFunction,Profile*
%ADD12C,0.050000*%
G04 #@! TD*
%ADD13C,0.010000*%
G04 APERTURE END LIST*
D10*
X85050333Y-112974380D02*
X84574142Y-112974380D01*
X84574142Y-111974380D01*
X85812238Y-112307714D02*
X85812238Y-112974380D01*
X85574142Y-111926761D02*
X85336047Y-112641047D01*
X85955095Y-112641047D01*
X72350333Y-113101380D02*
X71874142Y-113101380D01*
X71874142Y-112101380D01*
X72588428Y-112101380D02*
X73207476Y-112101380D01*
X72874142Y-112482333D01*
X73017000Y-112482333D01*
X73112238Y-112529952D01*
X73159857Y-112577571D01*
X73207476Y-112672809D01*
X73207476Y-112910904D01*
X73159857Y-113006142D01*
X73112238Y-113053761D01*
X73017000Y-113101380D01*
X72731285Y-113101380D01*
X72636047Y-113053761D01*
X72588428Y-113006142D01*
X59777333Y-113101380D02*
X59301142Y-113101380D01*
X59301142Y-112101380D01*
X60063047Y-112196619D02*
X60110666Y-112149000D01*
X60205904Y-112101380D01*
X60444000Y-112101380D01*
X60539238Y-112149000D01*
X60586857Y-112196619D01*
X60634476Y-112291857D01*
X60634476Y-112387095D01*
X60586857Y-112529952D01*
X60015428Y-113101380D01*
X60634476Y-113101380D01*
X46823333Y-113101380D02*
X46347142Y-113101380D01*
X46347142Y-112101380D01*
X47680476Y-113101380D02*
X47109047Y-113101380D01*
X47394761Y-113101380D02*
X47394761Y-112101380D01*
X47299523Y-112244238D01*
X47204285Y-112339476D01*
X47109047Y-112387095D01*
X82796333Y-114498428D02*
X83558238Y-114498428D01*
X84796333Y-114498428D02*
X85558238Y-114498428D01*
X85177285Y-114879380D02*
X85177285Y-114117476D01*
X86748714Y-114831761D02*
X86843952Y-114879380D01*
X87034428Y-114879380D01*
X87129666Y-114831761D01*
X87177285Y-114736523D01*
X87177285Y-114688904D01*
X87129666Y-114593666D01*
X87034428Y-114546047D01*
X86891571Y-114546047D01*
X86796333Y-114498428D01*
X86748714Y-114403190D01*
X86748714Y-114355571D01*
X86796333Y-114260333D01*
X86891571Y-114212714D01*
X87034428Y-114212714D01*
X87129666Y-114260333D01*
X70096333Y-114498428D02*
X70858238Y-114498428D01*
X72096333Y-114498428D02*
X72858238Y-114498428D01*
X72477285Y-114879380D02*
X72477285Y-114117476D01*
X74048714Y-114831761D02*
X74143952Y-114879380D01*
X74334428Y-114879380D01*
X74429666Y-114831761D01*
X74477285Y-114736523D01*
X74477285Y-114688904D01*
X74429666Y-114593666D01*
X74334428Y-114546047D01*
X74191571Y-114546047D01*
X74096333Y-114498428D01*
X74048714Y-114403190D01*
X74048714Y-114355571D01*
X74096333Y-114260333D01*
X74191571Y-114212714D01*
X74334428Y-114212714D01*
X74429666Y-114260333D01*
X57523333Y-114498428D02*
X58285238Y-114498428D01*
X59523333Y-114498428D02*
X60285238Y-114498428D01*
X59904285Y-114879380D02*
X59904285Y-114117476D01*
X61475714Y-114831761D02*
X61570952Y-114879380D01*
X61761428Y-114879380D01*
X61856666Y-114831761D01*
X61904285Y-114736523D01*
X61904285Y-114688904D01*
X61856666Y-114593666D01*
X61761428Y-114546047D01*
X61618571Y-114546047D01*
X61523333Y-114498428D01*
X61475714Y-114403190D01*
X61475714Y-114355571D01*
X61523333Y-114260333D01*
X61618571Y-114212714D01*
X61761428Y-114212714D01*
X61856666Y-114260333D01*
X44569333Y-114498428D02*
X45331238Y-114498428D01*
X46569333Y-114498428D02*
X47331238Y-114498428D01*
X46950285Y-114879380D02*
X46950285Y-114117476D01*
X48521714Y-114831761D02*
X48616952Y-114879380D01*
X48807428Y-114879380D01*
X48902666Y-114831761D01*
X48950285Y-114736523D01*
X48950285Y-114688904D01*
X48902666Y-114593666D01*
X48807428Y-114546047D01*
X48664571Y-114546047D01*
X48569333Y-114498428D01*
X48521714Y-114403190D01*
X48521714Y-114355571D01*
X48569333Y-114260333D01*
X48664571Y-114212714D01*
X48807428Y-114212714D01*
X48902666Y-114260333D01*
D11*
X87884000Y-88392000D02*
X90297000Y-80772000D01*
X87884000Y-80772000D02*
X90297000Y-88392000D01*
X87884000Y-80772000D02*
X90297000Y-80772000D01*
X90170000Y-88392000D02*
X90297000Y-88392000D01*
X87884000Y-88392000D02*
X90170000Y-88392000D01*
X87884000Y-80772000D02*
X87884000Y-88392000D01*
D10*
X60111380Y-105052761D02*
X60254238Y-105100380D01*
X60492333Y-105100380D01*
X60587571Y-105052761D01*
X60635190Y-105005142D01*
X60682809Y-104909904D01*
X60682809Y-104814666D01*
X60635190Y-104719428D01*
X60587571Y-104671809D01*
X60492333Y-104624190D01*
X60301857Y-104576571D01*
X60206619Y-104528952D01*
X60159000Y-104481333D01*
X60111380Y-104386095D01*
X60111380Y-104290857D01*
X60159000Y-104195619D01*
X60206619Y-104148000D01*
X60301857Y-104100380D01*
X60539952Y-104100380D01*
X60682809Y-104148000D01*
X61492333Y-105052761D02*
X61397095Y-105100380D01*
X61206619Y-105100380D01*
X61111380Y-105052761D01*
X61063761Y-104957523D01*
X61063761Y-104576571D01*
X61111380Y-104481333D01*
X61206619Y-104433714D01*
X61397095Y-104433714D01*
X61492333Y-104481333D01*
X61539952Y-104576571D01*
X61539952Y-104671809D01*
X61063761Y-104767047D01*
X61968523Y-105100380D02*
X61968523Y-104433714D01*
X61968523Y-104624190D02*
X62016142Y-104528952D01*
X62063761Y-104481333D01*
X62159000Y-104433714D01*
X62254238Y-104433714D01*
X62492333Y-104433714D02*
X62730428Y-105100380D01*
X62968523Y-104433714D01*
X63492333Y-105100380D02*
X63397095Y-105052761D01*
X63349476Y-105005142D01*
X63301857Y-104909904D01*
X63301857Y-104624190D01*
X63349476Y-104528952D01*
X63397095Y-104481333D01*
X63492333Y-104433714D01*
X63635190Y-104433714D01*
X63730428Y-104481333D01*
X63778047Y-104528952D01*
X63825666Y-104624190D01*
X63825666Y-104909904D01*
X63778047Y-105005142D01*
X63730428Y-105052761D01*
X63635190Y-105100380D01*
X63492333Y-105100380D01*
X65349476Y-104576571D02*
X65492333Y-104624190D01*
X65539952Y-104671809D01*
X65587571Y-104767047D01*
X65587571Y-104909904D01*
X65539952Y-105005142D01*
X65492333Y-105052761D01*
X65397095Y-105100380D01*
X65016142Y-105100380D01*
X65016142Y-104100380D01*
X65349476Y-104100380D01*
X65444714Y-104148000D01*
X65492333Y-104195619D01*
X65539952Y-104290857D01*
X65539952Y-104386095D01*
X65492333Y-104481333D01*
X65444714Y-104528952D01*
X65349476Y-104576571D01*
X65016142Y-104576571D01*
X66159000Y-105100380D02*
X66063761Y-105052761D01*
X66016142Y-105005142D01*
X65968523Y-104909904D01*
X65968523Y-104624190D01*
X66016142Y-104528952D01*
X66063761Y-104481333D01*
X66159000Y-104433714D01*
X66301857Y-104433714D01*
X66397095Y-104481333D01*
X66444714Y-104528952D01*
X66492333Y-104624190D01*
X66492333Y-104909904D01*
X66444714Y-105005142D01*
X66397095Y-105052761D01*
X66301857Y-105100380D01*
X66159000Y-105100380D01*
X67349476Y-104433714D02*
X67349476Y-105100380D01*
X66920904Y-104433714D02*
X66920904Y-104957523D01*
X66968523Y-105052761D01*
X67063761Y-105100380D01*
X67206619Y-105100380D01*
X67301857Y-105052761D01*
X67349476Y-105005142D01*
X67825666Y-105100380D02*
X67825666Y-104433714D01*
X67825666Y-104528952D02*
X67873285Y-104481333D01*
X67968523Y-104433714D01*
X68111380Y-104433714D01*
X68206619Y-104481333D01*
X68254238Y-104576571D01*
X68254238Y-105100380D01*
X68254238Y-104576571D02*
X68301857Y-104481333D01*
X68397095Y-104433714D01*
X68539952Y-104433714D01*
X68635190Y-104481333D01*
X68682809Y-104576571D01*
X68682809Y-105100380D01*
X69825666Y-104433714D02*
X70063761Y-105100380D01*
X70301857Y-104433714D01*
X71206619Y-105100380D02*
X70635190Y-105100380D01*
X70920904Y-105100380D02*
X70920904Y-104100380D01*
X70825666Y-104243238D01*
X70730428Y-104338476D01*
X70635190Y-104386095D01*
X42575314Y-86815561D02*
X42718171Y-86863180D01*
X42956266Y-86863180D01*
X43051504Y-86815561D01*
X43099123Y-86767942D01*
X43146742Y-86672704D01*
X43146742Y-86577466D01*
X43099123Y-86482228D01*
X43051504Y-86434609D01*
X42956266Y-86386990D01*
X42765790Y-86339371D01*
X42670552Y-86291752D01*
X42622933Y-86244133D01*
X42575314Y-86148895D01*
X42575314Y-86053657D01*
X42622933Y-85958419D01*
X42670552Y-85910800D01*
X42765790Y-85863180D01*
X43003885Y-85863180D01*
X43146742Y-85910800D01*
X43575314Y-86863180D02*
X43575314Y-85863180D01*
X43813409Y-85863180D01*
X43956266Y-85910800D01*
X44051504Y-86006038D01*
X44099123Y-86101276D01*
X44146742Y-86291752D01*
X44146742Y-86434609D01*
X44099123Y-86625085D01*
X44051504Y-86720323D01*
X43956266Y-86815561D01*
X43813409Y-86863180D01*
X43575314Y-86863180D01*
X44527695Y-86577466D02*
X45003885Y-86577466D01*
X44432457Y-86863180D02*
X44765790Y-85863180D01*
X45099123Y-86863180D01*
X42599123Y-84123161D02*
X42741980Y-84170780D01*
X42980076Y-84170780D01*
X43075314Y-84123161D01*
X43122933Y-84075542D01*
X43170552Y-83980304D01*
X43170552Y-83885066D01*
X43122933Y-83789828D01*
X43075314Y-83742209D01*
X42980076Y-83694590D01*
X42789600Y-83646971D01*
X42694361Y-83599352D01*
X42646742Y-83551733D01*
X42599123Y-83456495D01*
X42599123Y-83361257D01*
X42646742Y-83266019D01*
X42694361Y-83218400D01*
X42789600Y-83170780D01*
X43027695Y-83170780D01*
X43170552Y-83218400D01*
X44170552Y-84075542D02*
X44122933Y-84123161D01*
X43980076Y-84170780D01*
X43884838Y-84170780D01*
X43741980Y-84123161D01*
X43646742Y-84027923D01*
X43599123Y-83932685D01*
X43551504Y-83742209D01*
X43551504Y-83599352D01*
X43599123Y-83408876D01*
X43646742Y-83313638D01*
X43741980Y-83218400D01*
X43884838Y-83170780D01*
X43980076Y-83170780D01*
X44122933Y-83218400D01*
X44170552Y-83266019D01*
X45075314Y-84170780D02*
X44599123Y-84170780D01*
X44599123Y-83170780D01*
X42148285Y-90190628D02*
X42910190Y-90190628D01*
X42529238Y-90571580D02*
X42529238Y-89809676D01*
X43862571Y-89571580D02*
X43386380Y-89571580D01*
X43338761Y-90047771D01*
X43386380Y-90000152D01*
X43481619Y-89952533D01*
X43719714Y-89952533D01*
X43814952Y-90000152D01*
X43862571Y-90047771D01*
X43910190Y-90143009D01*
X43910190Y-90381104D01*
X43862571Y-90476342D01*
X43814952Y-90523961D01*
X43719714Y-90571580D01*
X43481619Y-90571580D01*
X43386380Y-90523961D01*
X43338761Y-90476342D01*
X44195904Y-89571580D02*
X44529238Y-90571580D01*
X44862571Y-89571580D01*
X42875295Y-79459200D02*
X42780057Y-79411580D01*
X42637200Y-79411580D01*
X42494342Y-79459200D01*
X42399104Y-79554438D01*
X42351485Y-79649676D01*
X42303866Y-79840152D01*
X42303866Y-79983009D01*
X42351485Y-80173485D01*
X42399104Y-80268723D01*
X42494342Y-80363961D01*
X42637200Y-80411580D01*
X42732438Y-80411580D01*
X42875295Y-80363961D01*
X42922914Y-80316342D01*
X42922914Y-79983009D01*
X42732438Y-79983009D01*
X43351485Y-80411580D02*
X43351485Y-79411580D01*
X43922914Y-80411580D01*
X43922914Y-79411580D01*
X44399104Y-80411580D02*
X44399104Y-79411580D01*
X44637200Y-79411580D01*
X44780057Y-79459200D01*
X44875295Y-79554438D01*
X44922914Y-79649676D01*
X44970533Y-79840152D01*
X44970533Y-79983009D01*
X44922914Y-80173485D01*
X44875295Y-80268723D01*
X44780057Y-80363961D01*
X44637200Y-80411580D01*
X44399104Y-80411580D01*
D12*
X92500000Y-63500000D02*
G75*
G02X95500000Y-66500000I0J-3000000D01*
G01*
X35000000Y-66500000D02*
G75*
G02X38000000Y-63500000I3000000J0D01*
G01*
X95500000Y-117500000D02*
G75*
G02X92500000Y-120500000I-3000000J0D01*
G01*
X38068062Y-120499228D02*
G75*
G02X35000000Y-117500000I-68062J2999228D01*
G01*
X35000000Y-117500000D02*
X35000000Y-66500000D01*
X92500000Y-120500000D02*
X38068062Y-120499228D01*
X95500000Y-66500000D02*
X95500000Y-117500000D01*
X38000000Y-63500000D02*
X92500000Y-63500000D01*
X53200000Y-69500000D02*
G75*
G03X53200000Y-69500000I-3200000J0D01*
G01*
X83700000Y-69500000D02*
G75*
G03X83700000Y-69500000I-3200000J0D01*
G01*
X83700000Y-100000000D02*
G75*
G03X83700000Y-100000000I-3200000J0D01*
G01*
X53200000Y-100000000D02*
G75*
G03X53200000Y-100000000I-3200000J0D01*
G01*
D13*
G04 #@! TO.C,G\002A\002A\002A*
G36*
X61561034Y-97185881D02*
G01*
X61595380Y-97224244D01*
X61609877Y-97281806D01*
X61602798Y-97353351D01*
X61585726Y-97405080D01*
X61546706Y-97476599D01*
X61501811Y-97523434D01*
X61455110Y-97543327D01*
X61410672Y-97534019D01*
X61387961Y-97514833D01*
X61355901Y-97461401D01*
X61348546Y-97397626D01*
X61359198Y-97334793D01*
X61389700Y-97256157D01*
X61433785Y-97201181D01*
X61487600Y-97174066D01*
X61508565Y-97171934D01*
X61561034Y-97185881D01*
G37*
X61561034Y-97185881D02*
X61595380Y-97224244D01*
X61609877Y-97281806D01*
X61602798Y-97353351D01*
X61585726Y-97405080D01*
X61546706Y-97476599D01*
X61501811Y-97523434D01*
X61455110Y-97543327D01*
X61410672Y-97534019D01*
X61387961Y-97514833D01*
X61355901Y-97461401D01*
X61348546Y-97397626D01*
X61359198Y-97334793D01*
X61389700Y-97256157D01*
X61433785Y-97201181D01*
X61487600Y-97174066D01*
X61508565Y-97171934D01*
X61561034Y-97185881D01*
G36*
X62678729Y-97528019D02*
G01*
X62703699Y-97560559D01*
X62722413Y-97602074D01*
X62727987Y-97637643D01*
X62721184Y-97681959D01*
X62711855Y-97717508D01*
X62680321Y-97793433D01*
X62636498Y-97847397D01*
X62585083Y-97876033D01*
X62530774Y-97875971D01*
X62505848Y-97865225D01*
X62479066Y-97831861D01*
X62465271Y-97776627D01*
X62466078Y-97709552D01*
X62474137Y-97668189D01*
X62502731Y-97598858D01*
X62543071Y-97547558D01*
X62589572Y-97516907D01*
X62636652Y-97509521D01*
X62678729Y-97528019D01*
G37*
X62678729Y-97528019D02*
X62703699Y-97560559D01*
X62722413Y-97602074D01*
X62727987Y-97637643D01*
X62721184Y-97681959D01*
X62711855Y-97717508D01*
X62680321Y-97793433D01*
X62636498Y-97847397D01*
X62585083Y-97876033D01*
X62530774Y-97875971D01*
X62505848Y-97865225D01*
X62479066Y-97831861D01*
X62465271Y-97776627D01*
X62466078Y-97709552D01*
X62474137Y-97668189D01*
X62502731Y-97598858D01*
X62543071Y-97547558D01*
X62589572Y-97516907D01*
X62636652Y-97509521D01*
X62678729Y-97528019D01*
G36*
X60597470Y-98829721D02*
G01*
X60668907Y-98843572D01*
X60697534Y-98854806D01*
X60767353Y-98903397D01*
X60805922Y-98960813D01*
X60815691Y-99016336D01*
X60810451Y-99056242D01*
X60790180Y-99093508D01*
X60748920Y-99138553D01*
X60741984Y-99145257D01*
X60685063Y-99190863D01*
X60620453Y-99229917D01*
X60585350Y-99245397D01*
X60508992Y-99265071D01*
X60417505Y-99277795D01*
X60322033Y-99283080D01*
X60233720Y-99280436D01*
X60163710Y-99269374D01*
X60148610Y-99264591D01*
X60069890Y-99223043D01*
X60021019Y-99170906D01*
X60001106Y-99111808D01*
X60003627Y-99092508D01*
X60138734Y-99092508D01*
X60154192Y-99118209D01*
X60195845Y-99137110D01*
X60256613Y-99148710D01*
X60329416Y-99152508D01*
X60407173Y-99148004D01*
X60482805Y-99134698D01*
X60529919Y-99120172D01*
X60597989Y-99089511D01*
X60649253Y-99056992D01*
X60677281Y-99027084D01*
X60680601Y-99015477D01*
X60665275Y-98994433D01*
X60625576Y-98974376D01*
X60570915Y-98958605D01*
X60510705Y-98950418D01*
X60493548Y-98949934D01*
X60412302Y-98956251D01*
X60330712Y-98973357D01*
X60255672Y-98998481D01*
X60194075Y-99028853D01*
X60152815Y-99061703D01*
X60138734Y-99092508D01*
X60003627Y-99092508D01*
X60009263Y-99049377D01*
X60044600Y-98987240D01*
X60106226Y-98929025D01*
X60193253Y-98878360D01*
X60248800Y-98856009D01*
X60324618Y-98837239D01*
X60414931Y-98826583D01*
X60509346Y-98824068D01*
X60597470Y-98829721D01*
G37*
X60597470Y-98829721D02*
X60668907Y-98843572D01*
X60697534Y-98854806D01*
X60767353Y-98903397D01*
X60805922Y-98960813D01*
X60815691Y-99016336D01*
X60810451Y-99056242D01*
X60790180Y-99093508D01*
X60748920Y-99138553D01*
X60741984Y-99145257D01*
X60685063Y-99190863D01*
X60620453Y-99229917D01*
X60585350Y-99245397D01*
X60508992Y-99265071D01*
X60417505Y-99277795D01*
X60322033Y-99283080D01*
X60233720Y-99280436D01*
X60163710Y-99269374D01*
X60148610Y-99264591D01*
X60069890Y-99223043D01*
X60021019Y-99170906D01*
X60001106Y-99111808D01*
X60003627Y-99092508D01*
X60138734Y-99092508D01*
X60154192Y-99118209D01*
X60195845Y-99137110D01*
X60256613Y-99148710D01*
X60329416Y-99152508D01*
X60407173Y-99148004D01*
X60482805Y-99134698D01*
X60529919Y-99120172D01*
X60597989Y-99089511D01*
X60649253Y-99056992D01*
X60677281Y-99027084D01*
X60680601Y-99015477D01*
X60665275Y-98994433D01*
X60625576Y-98974376D01*
X60570915Y-98958605D01*
X60510705Y-98950418D01*
X60493548Y-98949934D01*
X60412302Y-98956251D01*
X60330712Y-98973357D01*
X60255672Y-98998481D01*
X60194075Y-99028853D01*
X60152815Y-99061703D01*
X60138734Y-99092508D01*
X60003627Y-99092508D01*
X60009263Y-99049377D01*
X60044600Y-98987240D01*
X60106226Y-98929025D01*
X60193253Y-98878360D01*
X60248800Y-98856009D01*
X60324618Y-98837239D01*
X60414931Y-98826583D01*
X60509346Y-98824068D01*
X60597470Y-98829721D01*
G36*
X62411396Y-99382601D02*
G01*
X62504954Y-99414888D01*
X62601992Y-99471927D01*
X62690749Y-99546208D01*
X62766244Y-99631477D01*
X62823493Y-99721479D01*
X62857515Y-99809957D01*
X62864842Y-99866691D01*
X62856029Y-99941608D01*
X62826850Y-99991096D01*
X62773734Y-100019137D01*
X62719991Y-100028171D01*
X62654273Y-100027899D01*
X62592186Y-100012133D01*
X62546428Y-99992404D01*
X62475060Y-99948999D01*
X62398131Y-99887042D01*
X62324446Y-99815140D01*
X62262809Y-99741899D01*
X62222026Y-99675927D01*
X62221505Y-99674787D01*
X62191198Y-99580534D01*
X62190557Y-99547752D01*
X62323134Y-99547752D01*
X62333636Y-99588233D01*
X62360948Y-99643100D01*
X62398774Y-99701973D01*
X62440822Y-99754474D01*
X62460448Y-99774175D01*
X62517465Y-99818788D01*
X62579631Y-99855944D01*
X62639800Y-99882739D01*
X62690827Y-99896273D01*
X62725565Y-99893641D01*
X62734515Y-99885500D01*
X62736800Y-99849052D01*
X62716986Y-99798040D01*
X62679807Y-99738562D01*
X62629998Y-99676716D01*
X62572292Y-99618600D01*
X62511424Y-99570312D01*
X62471367Y-99546561D01*
X62399711Y-99516431D01*
X62351855Y-99509727D01*
X62327136Y-99526453D01*
X62323134Y-99547752D01*
X62190557Y-99547752D01*
X62189639Y-99500867D01*
X62213854Y-99438512D01*
X62260868Y-99396198D01*
X62327707Y-99376652D01*
X62411396Y-99382601D01*
G37*
X62411396Y-99382601D02*
X62504954Y-99414888D01*
X62601992Y-99471927D01*
X62690749Y-99546208D01*
X62766244Y-99631477D01*
X62823493Y-99721479D01*
X62857515Y-99809957D01*
X62864842Y-99866691D01*
X62856029Y-99941608D01*
X62826850Y-99991096D01*
X62773734Y-100019137D01*
X62719991Y-100028171D01*
X62654273Y-100027899D01*
X62592186Y-100012133D01*
X62546428Y-99992404D01*
X62475060Y-99948999D01*
X62398131Y-99887042D01*
X62324446Y-99815140D01*
X62262809Y-99741899D01*
X62222026Y-99675927D01*
X62221505Y-99674787D01*
X62191198Y-99580534D01*
X62190557Y-99547752D01*
X62323134Y-99547752D01*
X62333636Y-99588233D01*
X62360948Y-99643100D01*
X62398774Y-99701973D01*
X62440822Y-99754474D01*
X62460448Y-99774175D01*
X62517465Y-99818788D01*
X62579631Y-99855944D01*
X62639800Y-99882739D01*
X62690827Y-99896273D01*
X62725565Y-99893641D01*
X62734515Y-99885500D01*
X62736800Y-99849052D01*
X62716986Y-99798040D01*
X62679807Y-99738562D01*
X62629998Y-99676716D01*
X62572292Y-99618600D01*
X62511424Y-99570312D01*
X62471367Y-99546561D01*
X62399711Y-99516431D01*
X62351855Y-99509727D01*
X62327136Y-99526453D01*
X62323134Y-99547752D01*
X62190557Y-99547752D01*
X62189639Y-99500867D01*
X62213854Y-99438512D01*
X62260868Y-99396198D01*
X62327707Y-99376652D01*
X62411396Y-99382601D01*
G36*
X60536801Y-99974885D02*
G01*
X60546869Y-99989920D01*
X60550385Y-100022141D01*
X60549278Y-100079236D01*
X60548805Y-100091104D01*
X60557056Y-100222620D01*
X60593656Y-100337902D01*
X60659142Y-100437520D01*
X60754046Y-100522042D01*
X60878905Y-100592037D01*
X61034252Y-100648075D01*
X61085094Y-100661799D01*
X61206421Y-100684071D01*
X61335398Y-100693383D01*
X61462300Y-100690019D01*
X61577400Y-100674261D01*
X61670973Y-100646390D01*
X61674901Y-100644688D01*
X61737159Y-100614624D01*
X61776058Y-100585720D01*
X61800283Y-100548175D01*
X61818521Y-100492191D01*
X61822011Y-100478722D01*
X61839175Y-100426169D01*
X61859447Y-100399694D01*
X61879501Y-100392344D01*
X61916959Y-100400599D01*
X61939570Y-100434324D01*
X61945214Y-100487605D01*
X61934501Y-100545850D01*
X61892385Y-100629737D01*
X61822044Y-100701337D01*
X61728116Y-100756543D01*
X61673969Y-100776647D01*
X61556948Y-100803174D01*
X61423148Y-100818067D01*
X61287990Y-100820190D01*
X61191204Y-100812203D01*
X61017727Y-100776747D01*
X60862207Y-100721928D01*
X60726929Y-100649791D01*
X60614176Y-100562382D01*
X60526233Y-100461749D01*
X60465383Y-100349936D01*
X60433911Y-100228991D01*
X60431110Y-100131281D01*
X60441428Y-100048793D01*
X60459843Y-99996574D01*
X60487951Y-99971656D01*
X60518252Y-99969350D01*
X60536801Y-99974885D01*
G37*
X60536801Y-99974885D02*
X60546869Y-99989920D01*
X60550385Y-100022141D01*
X60549278Y-100079236D01*
X60548805Y-100091104D01*
X60557056Y-100222620D01*
X60593656Y-100337902D01*
X60659142Y-100437520D01*
X60754046Y-100522042D01*
X60878905Y-100592037D01*
X61034252Y-100648075D01*
X61085094Y-100661799D01*
X61206421Y-100684071D01*
X61335398Y-100693383D01*
X61462300Y-100690019D01*
X61577400Y-100674261D01*
X61670973Y-100646390D01*
X61674901Y-100644688D01*
X61737159Y-100614624D01*
X61776058Y-100585720D01*
X61800283Y-100548175D01*
X61818521Y-100492191D01*
X61822011Y-100478722D01*
X61839175Y-100426169D01*
X61859447Y-100399694D01*
X61879501Y-100392344D01*
X61916959Y-100400599D01*
X61939570Y-100434324D01*
X61945214Y-100487605D01*
X61934501Y-100545850D01*
X61892385Y-100629737D01*
X61822044Y-100701337D01*
X61728116Y-100756543D01*
X61673969Y-100776647D01*
X61556948Y-100803174D01*
X61423148Y-100818067D01*
X61287990Y-100820190D01*
X61191204Y-100812203D01*
X61017727Y-100776747D01*
X60862207Y-100721928D01*
X60726929Y-100649791D01*
X60614176Y-100562382D01*
X60526233Y-100461749D01*
X60465383Y-100349936D01*
X60433911Y-100228991D01*
X60431110Y-100131281D01*
X60441428Y-100048793D01*
X60459843Y-99996574D01*
X60487951Y-99971656D01*
X60518252Y-99969350D01*
X60536801Y-99974885D01*
G36*
X65446912Y-99832698D02*
G01*
X65556895Y-99843996D01*
X65625134Y-99857249D01*
X65689110Y-99867993D01*
X65786136Y-99877830D01*
X65915402Y-99886700D01*
X66076104Y-99894543D01*
X66189417Y-99898805D01*
X66563308Y-99914788D01*
X66903944Y-99936136D01*
X67211513Y-99962884D01*
X67486204Y-99995065D01*
X67728207Y-100032713D01*
X67937711Y-100075863D01*
X68114904Y-100124547D01*
X68259975Y-100178800D01*
X68373114Y-100238656D01*
X68454509Y-100304148D01*
X68455558Y-100305246D01*
X68516821Y-100391775D01*
X68545982Y-100488513D01*
X68543106Y-100595070D01*
X68508258Y-100711057D01*
X68441501Y-100836083D01*
X68346388Y-100965546D01*
X68275749Y-101043429D01*
X68190067Y-101125777D01*
X68095223Y-101208031D01*
X67997104Y-101285638D01*
X67901591Y-101354039D01*
X67814569Y-101408679D01*
X67741922Y-101445002D01*
X67715373Y-101454190D01*
X67639599Y-101461817D01*
X67557195Y-101443211D01*
X67464525Y-101397161D01*
X67388105Y-101345374D01*
X67332495Y-101305291D01*
X67285437Y-101276512D01*
X67241789Y-101259580D01*
X67196410Y-101255038D01*
X67144158Y-101263430D01*
X67079892Y-101285300D01*
X66998469Y-101321191D01*
X66894748Y-101371646D01*
X66828985Y-101404473D01*
X66674772Y-101479768D01*
X66545036Y-101538439D01*
X66435511Y-101581772D01*
X66341931Y-101611052D01*
X66260030Y-101627567D01*
X66185542Y-101632601D01*
X66114200Y-101627440D01*
X66097624Y-101624920D01*
X66035857Y-101611267D01*
X65982259Y-101589813D01*
X65929396Y-101555828D01*
X65869831Y-101504584D01*
X65800785Y-101436142D01*
X65665830Y-101289730D01*
X65538516Y-101136612D01*
X65420729Y-100980102D01*
X65314352Y-100823516D01*
X65221271Y-100670169D01*
X65143372Y-100523375D01*
X65082538Y-100386449D01*
X65040656Y-100262706D01*
X65019610Y-100155462D01*
X65021285Y-100068031D01*
X65021658Y-100066003D01*
X65053846Y-99975386D01*
X65110490Y-99904058D01*
X65172517Y-99863721D01*
X65244891Y-99842701D01*
X65339633Y-99832313D01*
X65446912Y-99832698D01*
G37*
X65446912Y-99832698D02*
X65556895Y-99843996D01*
X65625134Y-99857249D01*
X65689110Y-99867993D01*
X65786136Y-99877830D01*
X65915402Y-99886700D01*
X66076104Y-99894543D01*
X66189417Y-99898805D01*
X66563308Y-99914788D01*
X66903944Y-99936136D01*
X67211513Y-99962884D01*
X67486204Y-99995065D01*
X67728207Y-100032713D01*
X67937711Y-100075863D01*
X68114904Y-100124547D01*
X68259975Y-100178800D01*
X68373114Y-100238656D01*
X68454509Y-100304148D01*
X68455558Y-100305246D01*
X68516821Y-100391775D01*
X68545982Y-100488513D01*
X68543106Y-100595070D01*
X68508258Y-100711057D01*
X68441501Y-100836083D01*
X68346388Y-100965546D01*
X68275749Y-101043429D01*
X68190067Y-101125777D01*
X68095223Y-101208031D01*
X67997104Y-101285638D01*
X67901591Y-101354039D01*
X67814569Y-101408679D01*
X67741922Y-101445002D01*
X67715373Y-101454190D01*
X67639599Y-101461817D01*
X67557195Y-101443211D01*
X67464525Y-101397161D01*
X67388105Y-101345374D01*
X67332495Y-101305291D01*
X67285437Y-101276512D01*
X67241789Y-101259580D01*
X67196410Y-101255038D01*
X67144158Y-101263430D01*
X67079892Y-101285300D01*
X66998469Y-101321191D01*
X66894748Y-101371646D01*
X66828985Y-101404473D01*
X66674772Y-101479768D01*
X66545036Y-101538439D01*
X66435511Y-101581772D01*
X66341931Y-101611052D01*
X66260030Y-101627567D01*
X66185542Y-101632601D01*
X66114200Y-101627440D01*
X66097624Y-101624920D01*
X66035857Y-101611267D01*
X65982259Y-101589813D01*
X65929396Y-101555828D01*
X65869831Y-101504584D01*
X65800785Y-101436142D01*
X65665830Y-101289730D01*
X65538516Y-101136612D01*
X65420729Y-100980102D01*
X65314352Y-100823516D01*
X65221271Y-100670169D01*
X65143372Y-100523375D01*
X65082538Y-100386449D01*
X65040656Y-100262706D01*
X65019610Y-100155462D01*
X65021285Y-100068031D01*
X65021658Y-100066003D01*
X65053846Y-99975386D01*
X65110490Y-99904058D01*
X65172517Y-99863721D01*
X65244891Y-99842701D01*
X65339633Y-99832313D01*
X65446912Y-99832698D01*
G36*
X62072240Y-94772489D02*
G01*
X62119727Y-94813317D01*
X62145412Y-94868694D01*
X62152979Y-94947606D01*
X62142391Y-95051689D01*
X62113612Y-95182577D01*
X62111224Y-95191628D01*
X62073732Y-95337528D01*
X62046544Y-95455487D01*
X62028860Y-95549557D01*
X62019881Y-95623792D01*
X62018334Y-95662743D01*
X62018334Y-95743071D01*
X62536272Y-95901554D01*
X62683030Y-95946199D01*
X62800671Y-95981296D01*
X62892332Y-96007636D01*
X62961146Y-96026009D01*
X63010248Y-96037202D01*
X63042774Y-96042006D01*
X63061859Y-96041209D01*
X63070370Y-96036019D01*
X63110075Y-95967293D01*
X63155246Y-95872554D01*
X63202878Y-95758578D01*
X63249966Y-95632141D01*
X63251748Y-95627057D01*
X63281904Y-95543297D01*
X63311713Y-95464798D01*
X63337609Y-95400707D01*
X63355103Y-95361958D01*
X63407372Y-95286027D01*
X63467979Y-95240573D01*
X63532196Y-95225509D01*
X63595295Y-95240751D01*
X63652550Y-95286213D01*
X63699233Y-95361812D01*
X63701966Y-95368191D01*
X63726506Y-95451437D01*
X63743222Y-95559681D01*
X63752115Y-95684974D01*
X63753189Y-95819365D01*
X63746444Y-95954902D01*
X63731882Y-96083636D01*
X63709506Y-96197614D01*
X63701768Y-96226051D01*
X63699138Y-96234939D01*
X63697627Y-96243083D01*
X63698649Y-96250519D01*
X63703620Y-96257284D01*
X63713953Y-96263414D01*
X63731065Y-96268947D01*
X63756368Y-96273918D01*
X63791280Y-96278366D01*
X63837213Y-96282326D01*
X63895583Y-96285836D01*
X63967805Y-96288932D01*
X64055294Y-96291651D01*
X64159464Y-96294030D01*
X64281729Y-96296105D01*
X64423506Y-96297914D01*
X64586208Y-96299493D01*
X64771250Y-96300879D01*
X64980047Y-96302110D01*
X65214015Y-96303220D01*
X65474567Y-96304248D01*
X65763118Y-96305230D01*
X66081084Y-96306204D01*
X66429878Y-96307205D01*
X66810916Y-96308270D01*
X66869734Y-96308435D01*
X67248452Y-96309505D01*
X67594798Y-96310517D01*
X67910267Y-96311491D01*
X68196356Y-96312444D01*
X68454558Y-96313396D01*
X68686368Y-96314365D01*
X68893283Y-96315371D01*
X69076796Y-96316431D01*
X69238402Y-96317566D01*
X69379598Y-96318793D01*
X69501878Y-96320132D01*
X69606736Y-96321601D01*
X69695669Y-96323219D01*
X69770171Y-96325005D01*
X69831737Y-96326978D01*
X69881862Y-96329156D01*
X69922041Y-96331559D01*
X69953769Y-96334204D01*
X69978542Y-96337112D01*
X69997854Y-96340301D01*
X70013200Y-96343789D01*
X70026076Y-96347596D01*
X70027801Y-96348166D01*
X70193818Y-96418320D01*
X70349131Y-96514720D01*
X70495097Y-96638755D01*
X70633071Y-96791812D01*
X70764410Y-96975280D01*
X70890471Y-97190547D01*
X70935322Y-97277089D01*
X71021550Y-97458246D01*
X71104135Y-97651993D01*
X71183803Y-97860770D01*
X71261285Y-98087016D01*
X71337307Y-98333169D01*
X71412598Y-98601668D01*
X71487887Y-98894952D01*
X71563901Y-99215460D01*
X71641369Y-99565631D01*
X71695263Y-99822000D01*
X71743361Y-100054536D01*
X71785426Y-100256254D01*
X71822064Y-100429549D01*
X71853883Y-100576813D01*
X71881488Y-100700438D01*
X71905487Y-100802817D01*
X71926487Y-100886344D01*
X71945094Y-100953411D01*
X71961916Y-101006409D01*
X71977557Y-101047734D01*
X71992627Y-101079776D01*
X72007730Y-101104929D01*
X72023474Y-101125585D01*
X72026794Y-101129433D01*
X72065755Y-101181560D01*
X72105672Y-101246873D01*
X72125822Y-101285961D01*
X72146695Y-101334540D01*
X72159582Y-101378911D01*
X72166178Y-101429679D01*
X72168180Y-101497451D01*
X72167897Y-101549200D01*
X72162744Y-101649096D01*
X72150415Y-101756107D01*
X72132319Y-101864510D01*
X72109858Y-101968579D01*
X72084439Y-102062592D01*
X72057468Y-102140824D01*
X72030348Y-102197551D01*
X72004487Y-102227049D01*
X72001083Y-102228666D01*
X71965545Y-102228339D01*
X71939104Y-102196225D01*
X71921464Y-102131882D01*
X71917692Y-102104952D01*
X71904687Y-102029808D01*
X71882078Y-101959848D01*
X71846147Y-101887261D01*
X71793177Y-101804239D01*
X71738358Y-101728175D01*
X71666087Y-101626788D01*
X71615384Y-101542760D01*
X71584329Y-101469053D01*
X71571006Y-101398624D01*
X71573496Y-101324434D01*
X71589882Y-101239443D01*
X71597313Y-101210437D01*
X71625893Y-101103183D01*
X71504121Y-100610323D01*
X71434325Y-100340651D01*
X71359551Y-100075358D01*
X71281703Y-99820466D01*
X71202684Y-99581994D01*
X71124395Y-99365964D01*
X71059616Y-99203934D01*
X71026777Y-99128927D01*
X70984906Y-99037691D01*
X70936297Y-98934808D01*
X70883239Y-98824858D01*
X70828025Y-98712423D01*
X70772945Y-98602083D01*
X70720290Y-98498421D01*
X70672353Y-98406016D01*
X70631423Y-98329450D01*
X70599793Y-98273304D01*
X70579754Y-98242160D01*
X70577003Y-98238992D01*
X70561197Y-98226335D01*
X70556012Y-98235260D01*
X70559372Y-98271139D01*
X70560751Y-98281067D01*
X70563761Y-98308410D01*
X70569527Y-98366758D01*
X70577798Y-98453379D01*
X70588321Y-98565547D01*
X70600846Y-98700530D01*
X70615119Y-98855601D01*
X70630889Y-99028031D01*
X70647904Y-99215089D01*
X70665913Y-99414047D01*
X70684663Y-99622176D01*
X70688923Y-99669600D01*
X70708587Y-99888444D01*
X70728115Y-100105422D01*
X70747184Y-100316982D01*
X70765473Y-100519570D01*
X70782660Y-100709635D01*
X70798425Y-100883623D01*
X70812444Y-101037983D01*
X70824398Y-101169162D01*
X70833963Y-101273606D01*
X70840655Y-101346000D01*
X70867316Y-101633638D01*
X70890644Y-101888911D01*
X70910747Y-102113146D01*
X70927729Y-102307670D01*
X70941699Y-102473808D01*
X70952761Y-102612888D01*
X70961024Y-102726236D01*
X70966592Y-102815180D01*
X70969572Y-102881045D01*
X70970071Y-102925159D01*
X70968874Y-102944827D01*
X70936530Y-103065465D01*
X70874504Y-103179560D01*
X70786964Y-103281645D01*
X70678076Y-103366252D01*
X70624695Y-103396422D01*
X70527334Y-103445734D01*
X69837322Y-103445734D01*
X69455226Y-102848192D01*
X69356976Y-102695485D01*
X69271246Y-102564182D01*
X69198908Y-102455556D01*
X69140834Y-102370881D01*
X69097895Y-102311428D01*
X69070961Y-102278472D01*
X69061155Y-102272459D01*
X69053014Y-102295603D01*
X69038227Y-102345519D01*
X69018497Y-102416158D01*
X68995528Y-102501472D01*
X68979707Y-102561776D01*
X68954397Y-102656219D01*
X68929811Y-102742577D01*
X68908022Y-102813943D01*
X68891104Y-102863414D01*
X68884257Y-102879517D01*
X68842657Y-102933112D01*
X68776382Y-102987755D01*
X68693912Y-103037597D01*
X68603730Y-103076789D01*
X68592913Y-103080459D01*
X68459850Y-103116721D01*
X68321425Y-103138486D01*
X68168321Y-103146790D01*
X68021201Y-103144107D01*
X67826587Y-103127554D01*
X67657624Y-103096282D01*
X67515740Y-103050744D01*
X67402360Y-102991394D01*
X67321421Y-102921577D01*
X67286558Y-102877322D01*
X67265103Y-102834728D01*
X67255363Y-102785102D01*
X67255530Y-102746058D01*
X67369267Y-102746058D01*
X67376010Y-102800432D01*
X67401676Y-102842854D01*
X67420882Y-102862295D01*
X67484887Y-102906831D01*
X67575893Y-102948512D01*
X67687032Y-102984566D01*
X67775667Y-103005486D01*
X67861742Y-103017677D01*
X67969393Y-103025289D01*
X68088086Y-103028305D01*
X68207282Y-103026711D01*
X68316446Y-103020490D01*
X68405040Y-103009626D01*
X68421495Y-103006449D01*
X68543245Y-102973762D01*
X68646037Y-102932259D01*
X68723791Y-102884617D01*
X68748489Y-102862416D01*
X68772782Y-102825066D01*
X68799774Y-102765586D01*
X68825561Y-102695062D01*
X68846237Y-102624579D01*
X68857898Y-102565225D01*
X68859146Y-102548267D01*
X68843639Y-102539550D01*
X68801100Y-102535571D01*
X68753603Y-102536230D01*
X68657311Y-102530444D01*
X68582410Y-102501327D01*
X68523550Y-102446331D01*
X68503709Y-102417188D01*
X68470060Y-102362000D01*
X68469903Y-102412800D01*
X68455240Y-102518558D01*
X68413735Y-102608409D01*
X68348071Y-102678149D01*
X68274875Y-102718624D01*
X68181452Y-102737743D01*
X68091641Y-102725085D01*
X68010778Y-102682696D01*
X67944196Y-102612621D01*
X67927098Y-102585255D01*
X67890457Y-102520062D01*
X67860715Y-102568031D01*
X67795433Y-102645488D01*
X67716003Y-102695297D01*
X67628024Y-102716228D01*
X67537092Y-102707051D01*
X67448807Y-102666534D01*
X67440066Y-102660516D01*
X67405497Y-102640642D01*
X67384099Y-102643298D01*
X67373007Y-102671945D01*
X67369357Y-102730045D01*
X67369267Y-102746058D01*
X67255530Y-102746058D01*
X67255643Y-102719751D01*
X67264252Y-102629979D01*
X67264393Y-102628764D01*
X67271488Y-102561999D01*
X67275764Y-102509389D01*
X67276631Y-102478917D01*
X67275792Y-102474590D01*
X67260102Y-102480067D01*
X67227810Y-102500913D01*
X67213746Y-102511264D01*
X67131147Y-102554397D01*
X67042312Y-102566944D01*
X66953698Y-102549717D01*
X66871760Y-102503528D01*
X66829025Y-102462863D01*
X66791066Y-102408555D01*
X66768935Y-102345955D01*
X66760558Y-102266448D01*
X66761218Y-102236118D01*
X66878201Y-102236118D01*
X66880729Y-102297909D01*
X66891087Y-102339561D01*
X66913427Y-102374603D01*
X66924767Y-102387721D01*
X66984123Y-102433070D01*
X67032509Y-102449093D01*
X67096590Y-102443590D01*
X67152767Y-102409910D01*
X67194700Y-102353706D01*
X67215366Y-102286091D01*
X67230241Y-102224854D01*
X67256423Y-102193658D01*
X67297771Y-102190752D01*
X67358141Y-102214386D01*
X67365231Y-102218067D01*
X67445467Y-102260400D01*
X67446486Y-102370467D01*
X67452008Y-102455355D01*
X67468973Y-102514909D01*
X67500760Y-102556687D01*
X67541852Y-102583815D01*
X67608201Y-102601590D01*
X67671800Y-102590361D01*
X67725603Y-102554714D01*
X67762566Y-102499238D01*
X67775667Y-102431539D01*
X67787633Y-102370361D01*
X67823570Y-102333105D01*
X67883537Y-102319713D01*
X67888057Y-102319667D01*
X67953311Y-102325831D01*
X67992058Y-102347791D01*
X68009958Y-102390746D01*
X68013110Y-102434563D01*
X68026682Y-102511719D01*
X68062416Y-102570404D01*
X68114047Y-102607761D01*
X68175310Y-102620933D01*
X68239940Y-102607060D01*
X68299690Y-102565293D01*
X68323675Y-102536603D01*
X68337084Y-102503883D01*
X68343069Y-102456085D01*
X68344524Y-102408134D01*
X68345709Y-102337091D01*
X68348942Y-102292029D01*
X68357372Y-102265078D01*
X68374145Y-102248370D01*
X68402410Y-102234038D01*
X68416739Y-102227614D01*
X68486682Y-102204730D01*
X68536165Y-102208582D01*
X68565635Y-102239265D01*
X68572200Y-102260400D01*
X68598137Y-102338184D01*
X68640831Y-102390245D01*
X68682963Y-102414461D01*
X68728429Y-102429173D01*
X68766510Y-102426282D01*
X68797921Y-102414816D01*
X68852954Y-102383507D01*
X68887586Y-102340412D01*
X68905450Y-102278496D01*
X68910201Y-102197366D01*
X68910201Y-102082600D01*
X67904479Y-102082600D01*
X67693283Y-102082670D01*
X67513447Y-102082925D01*
X67362462Y-102083429D01*
X67237822Y-102084250D01*
X67137019Y-102085454D01*
X67057546Y-102087106D01*
X66996895Y-102089273D01*
X66952559Y-102092020D01*
X66922032Y-102095415D01*
X66902804Y-102099523D01*
X66892370Y-102104409D01*
X66888479Y-102109385D01*
X66882871Y-102140294D01*
X66879138Y-102192092D01*
X66878201Y-102236118D01*
X66761218Y-102236118D01*
X66762316Y-102185768D01*
X66768134Y-102082538D01*
X65921467Y-102082664D01*
X65732924Y-102083027D01*
X65560466Y-102084026D01*
X65406749Y-102085611D01*
X65274432Y-102087734D01*
X65166172Y-102090345D01*
X65084625Y-102093396D01*
X65032451Y-102096836D01*
X65014949Y-102099416D01*
X64903968Y-102147123D01*
X64806194Y-102222175D01*
X64727202Y-102318923D01*
X64672565Y-102431719D01*
X64665713Y-102453405D01*
X64657773Y-102483162D01*
X64652110Y-102513158D01*
X64648799Y-102547910D01*
X64647913Y-102591934D01*
X64649529Y-102649745D01*
X64653719Y-102725861D01*
X64660560Y-102824798D01*
X64670126Y-102951071D01*
X64674970Y-103013285D01*
X64687161Y-103168968D01*
X64696763Y-103294400D01*
X64703654Y-103393104D01*
X64707714Y-103468605D01*
X64708822Y-103524429D01*
X64706857Y-103564099D01*
X64701698Y-103591141D01*
X64693224Y-103609078D01*
X64681315Y-103621436D01*
X64665850Y-103631740D01*
X64653513Y-103639203D01*
X64533715Y-103702101D01*
X64395478Y-103756234D01*
X64246549Y-103799996D01*
X64094680Y-103831776D01*
X63947619Y-103849967D01*
X63813116Y-103852960D01*
X63698922Y-103839148D01*
X63694734Y-103838187D01*
X63626404Y-103818287D01*
X63558604Y-103792549D01*
X63531453Y-103779791D01*
X63498802Y-103761982D01*
X63469799Y-103743161D01*
X63443118Y-103720647D01*
X63417428Y-103691758D01*
X63391404Y-103653811D01*
X63363715Y-103604124D01*
X63333034Y-103540016D01*
X63298034Y-103458805D01*
X63257385Y-103357809D01*
X63209760Y-103234346D01*
X63153830Y-103085733D01*
X63088267Y-102909289D01*
X63052544Y-102812729D01*
X62985523Y-102631775D01*
X62929053Y-102480222D01*
X62882127Y-102355634D01*
X62843736Y-102255580D01*
X62812873Y-102177627D01*
X62788531Y-102119340D01*
X62769701Y-102078287D01*
X62755376Y-102052035D01*
X62744548Y-102038151D01*
X62736209Y-102034200D01*
X62730979Y-102036296D01*
X62713209Y-102052039D01*
X62673446Y-102088429D01*
X62614403Y-102142948D01*
X62538793Y-102213078D01*
X62449326Y-102296303D01*
X62348716Y-102390102D01*
X62239674Y-102491960D01*
X62179227Y-102548504D01*
X62065450Y-102654838D01*
X61957491Y-102755451D01*
X61858259Y-102847652D01*
X61770666Y-102928749D01*
X61697621Y-102996051D01*
X61642034Y-103046865D01*
X61606817Y-103078499D01*
X61597935Y-103086137D01*
X61541602Y-103132467D01*
X61122678Y-103132467D01*
X61000342Y-103131713D01*
X60883562Y-103129595D01*
X60778467Y-103126333D01*
X60691183Y-103122145D01*
X60627838Y-103117249D01*
X60603277Y-103113954D01*
X60463063Y-103073300D01*
X60336842Y-103007399D01*
X60229734Y-102919920D01*
X60146862Y-102814528D01*
X60122269Y-102769472D01*
X60106795Y-102734964D01*
X60095017Y-102700513D01*
X60087344Y-102663084D01*
X60084183Y-102619647D01*
X60084364Y-102614216D01*
X60197040Y-102614216D01*
X60198321Y-102626877D01*
X60238338Y-102734819D01*
X60306730Y-102830871D01*
X60398852Y-102910677D01*
X60510062Y-102969884D01*
X60591437Y-102995509D01*
X60625701Y-102999668D01*
X60688413Y-103003440D01*
X60774158Y-103006652D01*
X60877520Y-103009134D01*
X60993080Y-103010714D01*
X61087001Y-103011208D01*
X61518801Y-103011884D01*
X62086067Y-102478850D01*
X62203054Y-102368889D01*
X62313196Y-102265295D01*
X62413881Y-102170530D01*
X62502496Y-102087056D01*
X62576429Y-102017336D01*
X62633068Y-101963830D01*
X62669799Y-101929002D01*
X62683296Y-101916042D01*
X62693670Y-101903672D01*
X62698792Y-101888337D01*
X62697512Y-101865097D01*
X62688677Y-101829007D01*
X62671138Y-101775127D01*
X62643742Y-101698513D01*
X62613439Y-101616134D01*
X62513620Y-101346000D01*
X62346410Y-101333508D01*
X62289144Y-101329067D01*
X62631575Y-101329067D01*
X62965452Y-102235000D01*
X63029613Y-102409131D01*
X63092381Y-102579555D01*
X63152391Y-102742557D01*
X63208275Y-102894421D01*
X63258666Y-103031431D01*
X63302197Y-103149872D01*
X63337503Y-103246028D01*
X63363216Y-103316184D01*
X63372832Y-103342500D01*
X63420218Y-103462253D01*
X63466240Y-103553404D01*
X63515100Y-103620758D01*
X63570995Y-103669123D01*
X63638127Y-103703301D01*
X63706884Y-103724719D01*
X63773690Y-103733907D01*
X63863416Y-103735546D01*
X63966122Y-103730271D01*
X64071865Y-103718720D01*
X64170703Y-103701526D01*
X64208298Y-103692637D01*
X64293953Y-103667538D01*
X64381244Y-103637226D01*
X64461889Y-103605044D01*
X64527605Y-103574331D01*
X64570110Y-103548427D01*
X64573993Y-103545145D01*
X64580768Y-103534984D01*
X64585272Y-103516356D01*
X64587402Y-103485622D01*
X64587055Y-103439139D01*
X64584131Y-103373266D01*
X64578526Y-103284363D01*
X64570139Y-103168789D01*
X64559628Y-103032581D01*
X64549368Y-102893785D01*
X64541203Y-102766909D01*
X64535341Y-102656386D01*
X64531987Y-102566648D01*
X64531350Y-102502128D01*
X64533335Y-102468878D01*
X64570559Y-102345022D01*
X64637106Y-102229690D01*
X64728549Y-102128567D01*
X64840465Y-102047334D01*
X64876572Y-102028085D01*
X64989402Y-101972533D01*
X66934546Y-101967953D01*
X67240297Y-101967174D01*
X67513798Y-101966341D01*
X67756668Y-101965433D01*
X67970524Y-101964426D01*
X68156985Y-101963299D01*
X68317666Y-101962030D01*
X68454187Y-101960596D01*
X68568164Y-101958974D01*
X68661216Y-101957144D01*
X68734960Y-101955082D01*
X68791014Y-101952766D01*
X68830994Y-101950174D01*
X68856520Y-101947285D01*
X68869208Y-101944074D01*
X68871241Y-101941352D01*
X68859110Y-101919089D01*
X68832423Y-101874967D01*
X68795172Y-101815463D01*
X68753203Y-101749914D01*
X68708299Y-101679991D01*
X68668808Y-101617572D01*
X68639212Y-101569798D01*
X68624568Y-101544908D01*
X68613079Y-101500324D01*
X68627851Y-101468116D01*
X68664308Y-101456067D01*
X68674493Y-101459794D01*
X68689154Y-101472238D01*
X68709579Y-101495296D01*
X68737058Y-101530863D01*
X68772882Y-101580835D01*
X68818340Y-101647109D01*
X68874721Y-101731580D01*
X68943315Y-101836144D01*
X69025411Y-101962698D01*
X69122300Y-102113136D01*
X69235271Y-102289356D01*
X69300688Y-102391633D01*
X69403767Y-102552676D01*
X69501763Y-102705361D01*
X69593112Y-102847278D01*
X69676252Y-102976020D01*
X69749620Y-103089178D01*
X69811652Y-103184344D01*
X69860786Y-103259108D01*
X69895458Y-103311062D01*
X69914105Y-103337797D01*
X69916693Y-103340865D01*
X69939053Y-103345146D01*
X69989029Y-103348038D01*
X70060391Y-103349384D01*
X70146909Y-103349030D01*
X70201484Y-103347986D01*
X70302345Y-103345313D01*
X70376403Y-103342218D01*
X70430713Y-103337505D01*
X70472332Y-103329977D01*
X70508313Y-103318440D01*
X70545712Y-103301698D01*
X70581847Y-103283521D01*
X70670669Y-103229745D01*
X70737610Y-103167887D01*
X70758046Y-103142607D01*
X70797160Y-103086588D01*
X70825085Y-103033575D01*
X70842958Y-102976956D01*
X70851919Y-102910119D01*
X70853107Y-102826452D01*
X70847659Y-102719341D01*
X70842554Y-102651839D01*
X70834631Y-102557625D01*
X70826780Y-102471322D01*
X70819731Y-102400500D01*
X70814218Y-102352729D01*
X70812551Y-102341445D01*
X70803194Y-102287023D01*
X70723807Y-102327252D01*
X70579045Y-102386236D01*
X70437489Y-102415795D01*
X70339012Y-102418073D01*
X70275642Y-102411893D01*
X70232877Y-102399906D01*
X70197459Y-102377020D01*
X70172234Y-102354018D01*
X70132775Y-102307736D01*
X70103005Y-102252024D01*
X70081342Y-102181229D01*
X70066205Y-102089700D01*
X70056012Y-101971783D01*
X70053671Y-101930200D01*
X70043788Y-101803026D01*
X70026497Y-101703718D01*
X69998404Y-101626515D01*
X69956116Y-101565654D01*
X69896237Y-101515374D01*
X69815375Y-101469913D01*
X69770254Y-101449058D01*
X69718294Y-101424219D01*
X69679762Y-101402348D01*
X69665003Y-101390387D01*
X69665349Y-101365366D01*
X69678312Y-101316635D01*
X69701464Y-101250826D01*
X69732377Y-101174570D01*
X69768624Y-101094501D01*
X69787016Y-101057033D01*
X69866813Y-100922105D01*
X69954009Y-100818110D01*
X70047724Y-100745718D01*
X70147078Y-100705603D01*
X70251194Y-100698435D01*
X70255774Y-100698876D01*
X70363306Y-100720962D01*
X70468644Y-100766586D01*
X70579795Y-100839262D01*
X70585599Y-100843631D01*
X70631976Y-100877899D01*
X70666134Y-100901545D01*
X70680904Y-100909616D01*
X70680981Y-100909557D01*
X70679963Y-100892518D01*
X70676067Y-100844171D01*
X70669507Y-100766933D01*
X70660497Y-100663223D01*
X70649254Y-100535457D01*
X70635989Y-100386053D01*
X70620920Y-100217429D01*
X70604259Y-100032001D01*
X70586221Y-99832187D01*
X70567022Y-99620404D01*
X70549232Y-99424927D01*
X70414234Y-97944120D01*
X70254483Y-97672327D01*
X70204194Y-97585144D01*
X70160906Y-97506984D01*
X70127254Y-97442864D01*
X70105872Y-97397800D01*
X70099366Y-97376948D01*
X70118630Y-97343528D01*
X70151321Y-97328933D01*
X70183969Y-97338597D01*
X70187156Y-97341554D01*
X70207303Y-97368552D01*
X70241364Y-97421458D01*
X70287130Y-97496395D01*
X70342391Y-97589488D01*
X70404939Y-97696862D01*
X70472563Y-97814641D01*
X70543056Y-97938950D01*
X70614207Y-98065914D01*
X70683807Y-98191656D01*
X70749648Y-98312301D01*
X70809521Y-98423974D01*
X70861215Y-98522800D01*
X70867508Y-98535067D01*
X70985422Y-98770672D01*
X71087280Y-98986004D01*
X71176330Y-99188615D01*
X71255821Y-99386061D01*
X71328999Y-99585895D01*
X71366215Y-99695000D01*
X71422074Y-99870261D01*
X71481287Y-100069861D01*
X71541370Y-100284782D01*
X71599839Y-100506003D01*
X71654207Y-100724506D01*
X71679905Y-100833507D01*
X71699424Y-100917045D01*
X71713854Y-100972773D01*
X71725685Y-101005886D01*
X71737406Y-101021583D01*
X71751506Y-101025061D01*
X71770021Y-101021625D01*
X71805537Y-101011515D01*
X71821865Y-101004409D01*
X71821514Y-100986189D01*
X71814473Y-100942403D01*
X71802043Y-100880398D01*
X71791556Y-100833224D01*
X71778720Y-100775918D01*
X71760176Y-100690930D01*
X71737096Y-100583738D01*
X71710651Y-100459821D01*
X71682013Y-100324658D01*
X71652353Y-100183727D01*
X71636890Y-100109867D01*
X71573429Y-99808671D01*
X71515148Y-99537748D01*
X71461268Y-99294032D01*
X71411008Y-99074457D01*
X71363591Y-98875959D01*
X71318237Y-98695470D01*
X71274167Y-98529927D01*
X71230602Y-98376262D01*
X71186762Y-98231411D01*
X71141870Y-98092307D01*
X71095145Y-97955886D01*
X71075295Y-97900067D01*
X70966076Y-97618607D01*
X70850897Y-97365285D01*
X70730385Y-97141104D01*
X70605163Y-96947069D01*
X70475856Y-96784184D01*
X70343089Y-96653451D01*
X70259482Y-96589104D01*
X70188378Y-96546479D01*
X70105722Y-96506617D01*
X70021662Y-96473541D01*
X69946347Y-96451277D01*
X69893094Y-96443800D01*
X69867611Y-96446273D01*
X69848997Y-96458161D01*
X69832287Y-96486167D01*
X69812515Y-96536997D01*
X69802172Y-96566567D01*
X69775191Y-96640754D01*
X69740815Y-96729878D01*
X69705284Y-96817875D01*
X69695298Y-96841734D01*
X69657399Y-96941097D01*
X69635066Y-97028854D01*
X69628544Y-97112974D01*
X69638078Y-97201425D01*
X69663915Y-97302174D01*
X69706299Y-97423191D01*
X69713822Y-97442867D01*
X69749076Y-97537119D01*
X69772831Y-97609145D01*
X69787270Y-97667697D01*
X69794578Y-97721527D01*
X69796898Y-97775923D01*
X69796651Y-97828358D01*
X69792742Y-97871198D01*
X69782652Y-97912777D01*
X69763862Y-97961429D01*
X69733853Y-98025487D01*
X69702200Y-98089189D01*
X69636278Y-98212961D01*
X69553465Y-98356364D01*
X69458151Y-98512681D01*
X69354726Y-98675199D01*
X69247579Y-98837202D01*
X69141101Y-98991976D01*
X69039682Y-99132806D01*
X68947712Y-99252977D01*
X68915095Y-99293105D01*
X68850345Y-99361110D01*
X68778439Y-99414477D01*
X68691668Y-99457469D01*
X68582319Y-99494348D01*
X68521745Y-99510577D01*
X68373058Y-99536304D01*
X68233338Y-99537326D01*
X68108584Y-99513842D01*
X68058724Y-99495244D01*
X68004540Y-99463004D01*
X67931909Y-99406859D01*
X67843760Y-99329171D01*
X67791232Y-99279571D01*
X67695630Y-99189569D01*
X67615019Y-99120982D01*
X67541904Y-99070571D01*
X67468794Y-99035099D01*
X67388193Y-99011326D01*
X67292608Y-98996016D01*
X67174547Y-98985931D01*
X67101828Y-98981678D01*
X66997421Y-98975341D01*
X66895646Y-98967848D01*
X66805313Y-98959940D01*
X66735235Y-98952358D01*
X66708867Y-98948651D01*
X66570251Y-98914872D01*
X66454525Y-98863360D01*
X66363601Y-98796129D01*
X66299392Y-98715197D01*
X66263809Y-98622578D01*
X66258766Y-98520288D01*
X66264945Y-98480766D01*
X66276696Y-98433379D01*
X66292936Y-98387367D01*
X66316327Y-98338279D01*
X66349532Y-98281668D01*
X66395214Y-98213084D01*
X66456036Y-98128078D01*
X66534660Y-98022201D01*
X66557878Y-97991327D01*
X66656381Y-97858053D01*
X66733136Y-97746592D01*
X66788668Y-97653244D01*
X66823505Y-97574310D01*
X66838171Y-97506092D01*
X66833192Y-97444890D01*
X66809094Y-97387006D01*
X66766402Y-97328739D01*
X66705643Y-97266392D01*
X66666046Y-97230208D01*
X66548528Y-97124473D01*
X66454400Y-97037253D01*
X66380833Y-96965623D01*
X66324999Y-96906661D01*
X66284070Y-96857444D01*
X66255218Y-96815049D01*
X66243372Y-96793380D01*
X66207826Y-96688931D01*
X66204050Y-96585031D01*
X66226267Y-96500455D01*
X66242497Y-96460125D01*
X66251200Y-96435604D01*
X66251667Y-96433266D01*
X66235290Y-96431964D01*
X66188383Y-96430750D01*
X66114282Y-96429654D01*
X66016324Y-96428700D01*
X65897846Y-96427918D01*
X65762183Y-96427333D01*
X65612674Y-96426975D01*
X65469912Y-96426867D01*
X65311329Y-96427105D01*
X65164013Y-96427787D01*
X65031234Y-96428865D01*
X64916266Y-96430290D01*
X64822379Y-96432014D01*
X64752846Y-96433988D01*
X64710938Y-96436164D01*
X64699562Y-96438272D01*
X64719451Y-96447437D01*
X64764915Y-96463759D01*
X64829031Y-96484867D01*
X64898959Y-96506601D01*
X65011711Y-96542318D01*
X65096608Y-96573530D01*
X65158879Y-96602985D01*
X65203750Y-96633430D01*
X65236448Y-96667615D01*
X65253589Y-96693040D01*
X65288768Y-96745945D01*
X65326755Y-96794805D01*
X65333608Y-96802531D01*
X65363642Y-96852989D01*
X65360193Y-96902962D01*
X65323117Y-96952999D01*
X65286668Y-96981909D01*
X65247506Y-97010891D01*
X65223206Y-97032522D01*
X65219376Y-97038400D01*
X65233322Y-97049921D01*
X65269534Y-97067589D01*
X65294868Y-97077875D01*
X65381319Y-97119076D01*
X65478998Y-97178702D01*
X65577246Y-97249333D01*
X65665406Y-97323550D01*
X65707629Y-97365222D01*
X65798592Y-97462134D01*
X65791238Y-97602240D01*
X65786563Y-97667348D01*
X65778343Y-97720357D01*
X65763545Y-97771494D01*
X65739139Y-97830982D01*
X65702091Y-97909045D01*
X65697424Y-97918573D01*
X65613316Y-98073226D01*
X65517269Y-98220936D01*
X65412752Y-98358064D01*
X65303233Y-98480973D01*
X65192180Y-98586026D01*
X65083061Y-98669583D01*
X64979344Y-98728009D01*
X64900329Y-98754705D01*
X64835644Y-98752802D01*
X64758742Y-98724852D01*
X64673779Y-98674452D01*
X64584911Y-98605203D01*
X64496293Y-98520702D01*
X64412082Y-98424548D01*
X64336433Y-98320339D01*
X64273734Y-98212136D01*
X64212728Y-98065336D01*
X64171551Y-97910403D01*
X64150797Y-97754371D01*
X64151063Y-97604272D01*
X64172943Y-97467142D01*
X64203211Y-97378577D01*
X64221751Y-97333689D01*
X64231641Y-97303739D01*
X64232037Y-97297192D01*
X64214269Y-97297736D01*
X64170390Y-97303195D01*
X64107601Y-97312377D01*
X64033103Y-97324086D01*
X63954097Y-97337127D01*
X63877782Y-97350307D01*
X63811359Y-97362430D01*
X63762030Y-97372303D01*
X63736993Y-97378730D01*
X63735445Y-97379578D01*
X63729281Y-97399415D01*
X63719040Y-97448071D01*
X63705508Y-97520851D01*
X63689472Y-97613057D01*
X63671721Y-97719994D01*
X63653041Y-97836966D01*
X63634221Y-97959275D01*
X63616047Y-98082227D01*
X63607008Y-98145600D01*
X63595006Y-98236053D01*
X63585723Y-98320148D01*
X63578824Y-98404425D01*
X63573974Y-98495422D01*
X63570837Y-98599679D01*
X63569077Y-98723737D01*
X63568358Y-98874133D01*
X63568320Y-98899388D01*
X63567734Y-99382242D01*
X63695782Y-99530510D01*
X63827044Y-99696957D01*
X63930818Y-99861905D01*
X64008829Y-100025200D01*
X64030578Y-100081513D01*
X64044775Y-100130401D01*
X64053028Y-100182092D01*
X64056951Y-100246815D01*
X64058152Y-100334798D01*
X64058165Y-100338467D01*
X64054395Y-100462255D01*
X64040262Y-100562617D01*
X64012891Y-100649155D01*
X63969406Y-100731472D01*
X63918836Y-100803703D01*
X63807781Y-100925144D01*
X63670832Y-101030679D01*
X63507051Y-101120716D01*
X63315496Y-101195662D01*
X63095231Y-101255924D01*
X62845315Y-101301908D01*
X62735588Y-101316546D01*
X62631575Y-101329067D01*
X62289144Y-101329067D01*
X62170239Y-101319846D01*
X62021794Y-101307064D01*
X61894972Y-101294426D01*
X61783671Y-101281191D01*
X61681789Y-101266621D01*
X61583223Y-101249977D01*
X61481871Y-101230522D01*
X61461589Y-101226404D01*
X61368773Y-101207918D01*
X61287795Y-101192732D01*
X61224345Y-101181840D01*
X61184115Y-101176231D01*
X61172632Y-101176070D01*
X61159583Y-101193829D01*
X61137792Y-101232116D01*
X61122547Y-101261602D01*
X61083120Y-101340546D01*
X61112068Y-101643706D01*
X61124230Y-101785636D01*
X61130413Y-101899603D01*
X61130341Y-101991024D01*
X61123736Y-102065320D01*
X61110324Y-102127908D01*
X61089826Y-102184208D01*
X61083833Y-102197362D01*
X61041463Y-102261132D01*
X60981283Y-102303379D01*
X60913817Y-102325984D01*
X60862992Y-102328362D01*
X60787967Y-102319074D01*
X60695732Y-102299658D01*
X60593273Y-102271653D01*
X60487578Y-102236597D01*
X60458267Y-102225694D01*
X60391318Y-102200614D01*
X60336415Y-102180923D01*
X60301106Y-102169281D01*
X60292548Y-102167267D01*
X60281530Y-102182808D01*
X60267241Y-102224543D01*
X60251185Y-102285135D01*
X60234866Y-102357249D01*
X60219789Y-102433550D01*
X60207456Y-102506701D01*
X60199372Y-102569369D01*
X60197040Y-102614216D01*
X60084364Y-102614216D01*
X60085941Y-102567167D01*
X60093026Y-102502613D01*
X60105845Y-102422950D01*
X60124807Y-102325148D01*
X60150319Y-102206173D01*
X60182789Y-102062991D01*
X60222624Y-101892572D01*
X60263062Y-101722005D01*
X60299921Y-101566610D01*
X60334230Y-101421052D01*
X60365210Y-101288699D01*
X60392083Y-101172915D01*
X60414073Y-101077067D01*
X60430401Y-101004520D01*
X60440289Y-100958641D01*
X60443049Y-100943071D01*
X60428347Y-100929739D01*
X60387648Y-100904549D01*
X60325597Y-100870071D01*
X60246838Y-100828870D01*
X60156017Y-100783516D01*
X60142482Y-100776922D01*
X59919044Y-100660717D01*
X59704465Y-100534157D01*
X59503492Y-100400617D01*
X59320871Y-100263469D01*
X59161347Y-100126089D01*
X59029669Y-99991849D01*
X59016136Y-99976311D01*
X58875717Y-99796073D01*
X58767500Y-99620244D01*
X58691540Y-99449424D01*
X58647892Y-99284209D01*
X58636612Y-99125195D01*
X58640128Y-99099879D01*
X58758629Y-99099879D01*
X58762983Y-99222238D01*
X58774518Y-99289857D01*
X58825178Y-99455233D01*
X58907536Y-99620774D01*
X59019458Y-99785129D01*
X59158809Y-99946949D01*
X59323454Y-100104886D01*
X59511259Y-100257588D01*
X59720089Y-100403707D01*
X59947810Y-100541893D01*
X60192287Y-100670797D01*
X60451386Y-100789069D01*
X60722971Y-100895360D01*
X61004909Y-100988319D01*
X61295065Y-101066598D01*
X61591304Y-101128847D01*
X61716442Y-101149796D01*
X61815813Y-101165076D01*
X61894763Y-101176613D01*
X61960953Y-101184978D01*
X62022044Y-101190745D01*
X62085695Y-101194484D01*
X62159567Y-101196768D01*
X62251321Y-101198169D01*
X62368615Y-101199258D01*
X62380227Y-101199357D01*
X62575129Y-101198049D01*
X62738247Y-101190493D01*
X62871096Y-101176618D01*
X62876560Y-101175819D01*
X63100183Y-101132663D01*
X63301548Y-101073382D01*
X63478903Y-100998940D01*
X63630496Y-100910302D01*
X63754574Y-100808434D01*
X63849384Y-100694301D01*
X63893735Y-100615604D01*
X63915838Y-100564486D01*
X63929605Y-100518694D01*
X63936904Y-100467335D01*
X63939602Y-100399516D01*
X63939791Y-100346934D01*
X63934827Y-100232243D01*
X63918445Y-100133324D01*
X63887348Y-100039437D01*
X63838236Y-99939841D01*
X63789743Y-99858367D01*
X63655642Y-99672309D01*
X63490291Y-99491557D01*
X63296089Y-99317560D01*
X63075433Y-99151765D01*
X62830721Y-98995622D01*
X62564349Y-98850578D01*
X62278715Y-98718082D01*
X61976217Y-98599581D01*
X61659252Y-98496524D01*
X61434134Y-98435370D01*
X61171866Y-98378034D01*
X60903196Y-98334929D01*
X60634518Y-98306449D01*
X60372226Y-98292986D01*
X60122717Y-98294936D01*
X59892383Y-98312692D01*
X59759875Y-98332194D01*
X59542994Y-98381253D01*
X59349258Y-98446032D01*
X59180414Y-98525534D01*
X59038208Y-98618762D01*
X58924387Y-98724716D01*
X58840698Y-98842400D01*
X58829513Y-98863661D01*
X58780307Y-98984217D01*
X58758629Y-99099879D01*
X58640128Y-99099879D01*
X58657756Y-98972981D01*
X58711379Y-98828162D01*
X58797537Y-98691337D01*
X58887098Y-98590806D01*
X59005132Y-98493540D01*
X59150082Y-98405540D01*
X59315523Y-98330122D01*
X59495031Y-98270602D01*
X59520667Y-98263792D01*
X59599921Y-98242384D01*
X59654891Y-98223891D01*
X59694379Y-98203991D01*
X59727187Y-98178363D01*
X59757734Y-98147414D01*
X59844967Y-98044166D01*
X59941266Y-97912888D01*
X60044211Y-97757410D01*
X60151381Y-97581561D01*
X60260356Y-97389171D01*
X60368717Y-97184069D01*
X60377934Y-97165951D01*
X60427421Y-97067013D01*
X60478511Y-96962471D01*
X60529001Y-96857089D01*
X60576687Y-96755630D01*
X60619367Y-96662857D01*
X60654838Y-96583535D01*
X60680896Y-96522427D01*
X60695339Y-96484296D01*
X60697534Y-96474864D01*
X60685915Y-96459008D01*
X60653793Y-96424114D01*
X60605272Y-96374415D01*
X60544454Y-96314143D01*
X60499267Y-96270336D01*
X60334389Y-96109687D01*
X60192501Y-95966635D01*
X60070187Y-95837572D01*
X59964031Y-95718889D01*
X59870618Y-95606979D01*
X59866926Y-95602377D01*
X59772709Y-95479083D01*
X59703392Y-95375070D01*
X59657725Y-95288097D01*
X59656540Y-95284419D01*
X59819271Y-95284419D01*
X59820013Y-95306344D01*
X59840050Y-95349444D01*
X59876549Y-95409258D01*
X59926678Y-95481322D01*
X59987601Y-95561175D01*
X60021541Y-95603008D01*
X60069515Y-95658295D01*
X60131523Y-95725767D01*
X60204050Y-95801981D01*
X60283581Y-95883494D01*
X60366600Y-95966864D01*
X60449592Y-96048649D01*
X60529043Y-96125405D01*
X60601435Y-96193690D01*
X60663255Y-96250062D01*
X60710987Y-96291076D01*
X60741116Y-96313292D01*
X60749595Y-96316021D01*
X60763660Y-96292460D01*
X60765267Y-96279797D01*
X60757552Y-96254491D01*
X60736724Y-96207178D01*
X60706258Y-96145374D01*
X60680601Y-96096667D01*
X60638366Y-96016647D01*
X60611988Y-95960116D01*
X60600054Y-95921430D01*
X60601153Y-95894942D01*
X60613873Y-95875009D01*
X60623073Y-95866623D01*
X60641715Y-95856925D01*
X60667008Y-95858893D01*
X60706788Y-95874482D01*
X60759182Y-95900597D01*
X60813571Y-95926795D01*
X60855823Y-95943424D01*
X60877657Y-95947281D01*
X60878491Y-95946754D01*
X60876784Y-95926063D01*
X60854436Y-95887374D01*
X60815476Y-95835888D01*
X60763933Y-95776809D01*
X60703835Y-95715339D01*
X60686546Y-95698896D01*
X60519873Y-95560661D01*
X60345904Y-95449920D01*
X60259785Y-95406939D01*
X60202982Y-95383932D01*
X60132454Y-95359363D01*
X60055351Y-95335221D01*
X59978824Y-95313495D01*
X59910024Y-95296174D01*
X59856101Y-95285246D01*
X59824206Y-95282700D01*
X59819271Y-95284419D01*
X59656540Y-95284419D01*
X59634460Y-95215922D01*
X59630734Y-95178747D01*
X59630734Y-95161322D01*
X59868743Y-95161322D01*
X59885475Y-95172610D01*
X59899773Y-95173800D01*
X59946070Y-95180193D01*
X60014988Y-95197522D01*
X60098179Y-95223015D01*
X60187297Y-95253899D01*
X60273994Y-95287400D01*
X60349923Y-95320746D01*
X60366468Y-95328846D01*
X60554015Y-95439969D01*
X60731555Y-95577717D01*
X60890461Y-95734875D01*
X60975048Y-95837841D01*
X61022383Y-95900748D01*
X60993184Y-95990241D01*
X60969030Y-96058921D01*
X60947452Y-96099212D01*
X60922253Y-96115436D01*
X60887233Y-96111913D01*
X60842255Y-96095454D01*
X60825629Y-96091230D01*
X60824045Y-96101514D01*
X60838681Y-96131608D01*
X60857590Y-96164545D01*
X60884875Y-96214107D01*
X60896419Y-96249571D01*
X60894740Y-96285363D01*
X60885465Y-96324312D01*
X60869020Y-96373332D01*
X60839632Y-96447740D01*
X60799515Y-96542633D01*
X60750880Y-96653114D01*
X60695942Y-96774283D01*
X60636912Y-96901239D01*
X60576004Y-97029083D01*
X60515429Y-97152915D01*
X60473956Y-97235483D01*
X60325951Y-97513389D01*
X60178996Y-97762512D01*
X60030117Y-97987696D01*
X59920518Y-98137133D01*
X59888073Y-98179467D01*
X60297037Y-98179870D01*
X60466394Y-98181159D01*
X60611097Y-98185266D01*
X60740302Y-98193092D01*
X60863166Y-98205542D01*
X60988848Y-98223519D01*
X61126505Y-98247927D01*
X61263994Y-98275273D01*
X61593510Y-98354388D01*
X61920780Y-98454940D01*
X62240615Y-98574638D01*
X62547823Y-98711191D01*
X62837214Y-98862309D01*
X63103598Y-99025701D01*
X63322201Y-99183567D01*
X63432267Y-99270015D01*
X63443410Y-98851741D01*
X63450472Y-98658422D01*
X63460909Y-98473357D01*
X63474151Y-98305032D01*
X63489628Y-98161928D01*
X63489861Y-98160120D01*
X63509590Y-98015249D01*
X63531735Y-97866094D01*
X63555323Y-97718183D01*
X63579387Y-97577044D01*
X63602954Y-97448204D01*
X63625056Y-97337191D01*
X63644721Y-97249531D01*
X63656655Y-97205448D01*
X63796334Y-97205448D01*
X63798289Y-97217360D01*
X63807787Y-97224172D01*
X63830279Y-97225829D01*
X63871214Y-97222275D01*
X63936043Y-97213455D01*
X64003767Y-97203328D01*
X64109404Y-97186354D01*
X64230914Y-97165338D01*
X64351051Y-97143324D01*
X64427228Y-97128525D01*
X64526601Y-97107478D01*
X64630801Y-97083578D01*
X64726466Y-97059985D01*
X64791295Y-97042470D01*
X64875253Y-97015959D01*
X64956370Y-96986292D01*
X65029099Y-96956000D01*
X65087892Y-96927616D01*
X65127202Y-96903672D01*
X65141482Y-96886700D01*
X65140008Y-96883298D01*
X65119044Y-96872372D01*
X65072932Y-96853481D01*
X65008657Y-96829359D01*
X64939334Y-96804839D01*
X64753067Y-96740723D01*
X64465201Y-96740428D01*
X64353541Y-96740855D01*
X64268056Y-96742870D01*
X64201063Y-96747186D01*
X64144880Y-96754516D01*
X64091827Y-96765572D01*
X64037634Y-96780089D01*
X63960649Y-96805323D01*
X63913210Y-96827903D01*
X63896106Y-96846647D01*
X63910126Y-96860373D01*
X63956060Y-96867899D01*
X63978367Y-96868821D01*
X64056679Y-96873283D01*
X64106708Y-96884330D01*
X64133781Y-96904384D01*
X64143225Y-96935870D01*
X64143467Y-96943938D01*
X64135015Y-96985013D01*
X64103760Y-97013250D01*
X64092265Y-97019374D01*
X63975760Y-97079197D01*
X63889408Y-97127413D01*
X63831865Y-97164868D01*
X63801790Y-97192405D01*
X63796334Y-97205448D01*
X63656655Y-97205448D01*
X63658852Y-97197334D01*
X63679741Y-97138218D01*
X63702930Y-97099474D01*
X63738256Y-97068454D01*
X63779636Y-97042044D01*
X63827276Y-97012616D01*
X63848778Y-96995929D01*
X63847228Y-96987611D01*
X63825712Y-96983289D01*
X63821479Y-96982777D01*
X63777042Y-96970065D01*
X63755025Y-96942226D01*
X63754043Y-96894786D01*
X63772453Y-96824074D01*
X63791881Y-96769183D01*
X63810964Y-96736606D01*
X63839338Y-96716296D01*
X63886641Y-96698206D01*
X63896296Y-96694952D01*
X64103374Y-96640073D01*
X64319211Y-96612618D01*
X64439801Y-96608697D01*
X64587610Y-96612407D01*
X64717197Y-96626083D01*
X64843345Y-96652102D01*
X64980835Y-96692837D01*
X64996909Y-96698192D01*
X65061372Y-96718997D01*
X65112517Y-96733889D01*
X65142813Y-96740753D01*
X65147731Y-96740580D01*
X65142229Y-96726327D01*
X65108054Y-96705138D01*
X65049252Y-96678827D01*
X64969868Y-96649207D01*
X64875417Y-96618537D01*
X64690539Y-96568341D01*
X64509508Y-96530830D01*
X64338075Y-96506704D01*
X64181990Y-96496661D01*
X64047003Y-96501402D01*
X63985482Y-96510244D01*
X63941575Y-96516879D01*
X63911131Y-96512360D01*
X63881294Y-96491901D01*
X63847110Y-96458707D01*
X63806901Y-96421958D01*
X63773363Y-96398006D01*
X63759562Y-96392769D01*
X63725089Y-96388344D01*
X63701745Y-96383054D01*
X63678736Y-96382302D01*
X63660653Y-96399269D01*
X63641396Y-96440634D01*
X63635803Y-96455252D01*
X63607929Y-96521328D01*
X63574972Y-96588509D01*
X63564326Y-96607802D01*
X63538408Y-96648609D01*
X63512830Y-96671455D01*
X63475543Y-96683630D01*
X63427068Y-96690856D01*
X63275740Y-96693701D01*
X63121374Y-96666413D01*
X62971080Y-96611173D01*
X62831968Y-96530159D01*
X62784567Y-96493934D01*
X62726162Y-96440493D01*
X62698535Y-96398906D01*
X62859914Y-96398906D01*
X62909024Y-96438263D01*
X62984169Y-96487433D01*
X63072094Y-96527571D01*
X63165792Y-96557310D01*
X63258256Y-96575280D01*
X63342477Y-96580115D01*
X63411448Y-96570444D01*
X63457667Y-96545400D01*
X63487000Y-96504783D01*
X63484221Y-96474238D01*
X63449454Y-96454437D01*
X63440593Y-96452236D01*
X63393966Y-96431500D01*
X63367470Y-96398947D01*
X63366343Y-96362851D01*
X63374870Y-96348414D01*
X63399194Y-96332757D01*
X63440909Y-96330139D01*
X63474471Y-96333716D01*
X63552919Y-96344505D01*
X63573026Y-96257394D01*
X63586884Y-96192599D01*
X63589558Y-96152702D01*
X63578024Y-96129734D01*
X63549261Y-96115725D01*
X63515859Y-96106629D01*
X63468958Y-96092814D01*
X63447284Y-96077791D01*
X63442756Y-96054209D01*
X63443892Y-96041119D01*
X63449262Y-96014348D01*
X63463350Y-96001003D01*
X63495189Y-95996891D01*
X63538101Y-95997397D01*
X63627001Y-95999727D01*
X63629540Y-95908497D01*
X63631275Y-95853188D01*
X63632961Y-95810552D01*
X63633774Y-95796100D01*
X63620312Y-95779613D01*
X63585500Y-95769299D01*
X63584667Y-95769202D01*
X63525113Y-95752762D01*
X63495305Y-95720208D01*
X63491534Y-95697659D01*
X63504671Y-95661596D01*
X63544561Y-95645385D01*
X63582365Y-95645070D01*
X63631832Y-95648840D01*
X63622500Y-95558420D01*
X63610004Y-95482773D01*
X63590603Y-95417079D01*
X63567208Y-95368578D01*
X63542733Y-95344510D01*
X63535884Y-95343134D01*
X63510645Y-95352909D01*
X63483489Y-95384048D01*
X63452971Y-95439266D01*
X63417647Y-95521282D01*
X63376072Y-95632813D01*
X63364797Y-95664867D01*
X63330133Y-95759950D01*
X63292763Y-95855227D01*
X63256919Y-95940321D01*
X63226832Y-96004852D01*
X63223782Y-96010774D01*
X63169448Y-96099935D01*
X63101182Y-96190214D01*
X63026872Y-96272489D01*
X62954407Y-96337641D01*
X62920449Y-96361493D01*
X62859914Y-96398906D01*
X62698535Y-96398906D01*
X62698008Y-96398113D01*
X62700176Y-96362488D01*
X62732736Y-96329313D01*
X62787792Y-96298135D01*
X62848508Y-96264152D01*
X62900075Y-96227620D01*
X62937484Y-96193204D01*
X62955730Y-96165571D01*
X62949805Y-96149386D01*
X62948123Y-96148721D01*
X62927759Y-96142335D01*
X62880164Y-96127689D01*
X62810516Y-96106359D01*
X62723989Y-96079922D01*
X62625760Y-96049953D01*
X62521006Y-96018030D01*
X62414902Y-95985730D01*
X62312624Y-95954629D01*
X62219349Y-95926303D01*
X62140252Y-95902330D01*
X62080510Y-95884285D01*
X62047305Y-95874339D01*
X62026912Y-95872982D01*
X62023580Y-95891886D01*
X62027533Y-95913282D01*
X62040384Y-95953008D01*
X62063695Y-96010037D01*
X62090714Y-96068451D01*
X62119291Y-96134602D01*
X62128632Y-96183096D01*
X62115939Y-96216664D01*
X62078415Y-96238039D01*
X62013261Y-96249953D01*
X61917680Y-96255138D01*
X61899125Y-96255530D01*
X61754218Y-96243691D01*
X61609428Y-96205394D01*
X61474159Y-96144168D01*
X61357815Y-96063540D01*
X61336767Y-96044567D01*
X61303527Y-96010426D01*
X61283823Y-95978987D01*
X61276414Y-95941950D01*
X61280058Y-95891017D01*
X61281247Y-95884552D01*
X61405188Y-95884552D01*
X61409309Y-95928365D01*
X61437127Y-95970426D01*
X61491690Y-96013853D01*
X61576044Y-96061767D01*
X61580412Y-96063988D01*
X61682545Y-96107169D01*
X61784900Y-96130325D01*
X61885474Y-96137299D01*
X61981213Y-96139000D01*
X61948835Y-96053787D01*
X61914727Y-95942169D01*
X61896452Y-95824937D01*
X61894177Y-95697164D01*
X61908071Y-95553925D01*
X61938302Y-95390293D01*
X61976827Y-95232026D01*
X62008813Y-95102071D01*
X62027995Y-95002407D01*
X62034493Y-94932018D01*
X62028428Y-94889892D01*
X62018831Y-94877774D01*
X61988595Y-94877819D01*
X61942566Y-94901346D01*
X61885792Y-94945141D01*
X61832067Y-94996723D01*
X61791879Y-95042837D01*
X61773838Y-95073271D01*
X61776807Y-95084083D01*
X61804692Y-95100004D01*
X61836074Y-95123275D01*
X61861597Y-95150462D01*
X61860983Y-95175050D01*
X61855321Y-95185439D01*
X61840720Y-95202372D01*
X61818306Y-95210440D01*
X61779629Y-95210762D01*
X61716238Y-95204456D01*
X61713833Y-95204172D01*
X61687051Y-95206119D01*
X61663993Y-95223610D01*
X61637682Y-95263134D01*
X61624131Y-95287590D01*
X61576464Y-95375979D01*
X61640766Y-95406256D01*
X61684954Y-95432758D01*
X61703271Y-95461737D01*
X61705067Y-95478733D01*
X61700697Y-95507206D01*
X61680944Y-95518689D01*
X61645800Y-95520328D01*
X61593739Y-95516232D01*
X61550621Y-95507198D01*
X61550008Y-95506987D01*
X61527901Y-95503182D01*
X61511793Y-95514950D01*
X61496061Y-95548836D01*
X61484041Y-95583792D01*
X61466529Y-95636697D01*
X61452909Y-95677198D01*
X61447898Y-95691609D01*
X61458107Y-95707221D01*
X61491733Y-95724417D01*
X61507681Y-95729805D01*
X61556383Y-95751764D01*
X61581658Y-95778959D01*
X61582508Y-95781621D01*
X61582363Y-95825016D01*
X61555712Y-95849147D01*
X61504568Y-95853016D01*
X61457414Y-95843723D01*
X61426065Y-95838995D01*
X61411537Y-95853726D01*
X61405188Y-95884552D01*
X61281247Y-95884552D01*
X61293513Y-95817888D01*
X61298961Y-95791873D01*
X61311337Y-95731869D01*
X61320304Y-95685386D01*
X61324048Y-95661862D01*
X61324067Y-95661293D01*
X61308886Y-95645253D01*
X61270225Y-95632797D01*
X61218410Y-95625452D01*
X61163765Y-95624745D01*
X61120290Y-95631156D01*
X61082546Y-95639874D01*
X61054471Y-95638699D01*
X61025654Y-95623834D01*
X60985685Y-95591485D01*
X60967106Y-95575305D01*
X60847785Y-95485032D01*
X60700236Y-95396811D01*
X60530088Y-95313374D01*
X60342972Y-95237450D01*
X60144521Y-95171768D01*
X60120014Y-95164647D01*
X60027616Y-95141002D01*
X59957255Y-95128906D01*
X59913455Y-95129130D01*
X59912581Y-95129340D01*
X59878520Y-95144326D01*
X59868743Y-95161322D01*
X59630734Y-95161322D01*
X59630734Y-95112235D01*
X59774777Y-95056204D01*
X59836210Y-95033187D01*
X59887390Y-95017930D01*
X59934890Y-95010896D01*
X59985281Y-95012546D01*
X60045136Y-95023343D01*
X60121028Y-95043750D01*
X60219528Y-95074229D01*
X60272595Y-95091230D01*
X60430342Y-95147065D01*
X60584402Y-95211140D01*
X60727637Y-95279987D01*
X60852908Y-95350136D01*
X60953076Y-95418120D01*
X60965391Y-95427833D01*
X61020067Y-95470769D01*
X61058156Y-95495605D01*
X61088807Y-95506252D01*
X61121172Y-95506622D01*
X61143191Y-95503836D01*
X61236867Y-95506267D01*
X61289979Y-95520570D01*
X61341300Y-95535051D01*
X61368713Y-95534068D01*
X61371712Y-95530398D01*
X61381201Y-95508594D01*
X61402107Y-95463819D01*
X61430928Y-95403505D01*
X61451682Y-95360651D01*
X61531874Y-95209407D01*
X61615184Y-95077200D01*
X61699679Y-94965617D01*
X61783425Y-94876240D01*
X61864488Y-94810654D01*
X61940934Y-94770444D01*
X62010829Y-94757194D01*
X62072240Y-94772489D01*
G37*
X62072240Y-94772489D02*
X62119727Y-94813317D01*
X62145412Y-94868694D01*
X62152979Y-94947606D01*
X62142391Y-95051689D01*
X62113612Y-95182577D01*
X62111224Y-95191628D01*
X62073732Y-95337528D01*
X62046544Y-95455487D01*
X62028860Y-95549557D01*
X62019881Y-95623792D01*
X62018334Y-95662743D01*
X62018334Y-95743071D01*
X62536272Y-95901554D01*
X62683030Y-95946199D01*
X62800671Y-95981296D01*
X62892332Y-96007636D01*
X62961146Y-96026009D01*
X63010248Y-96037202D01*
X63042774Y-96042006D01*
X63061859Y-96041209D01*
X63070370Y-96036019D01*
X63110075Y-95967293D01*
X63155246Y-95872554D01*
X63202878Y-95758578D01*
X63249966Y-95632141D01*
X63251748Y-95627057D01*
X63281904Y-95543297D01*
X63311713Y-95464798D01*
X63337609Y-95400707D01*
X63355103Y-95361958D01*
X63407372Y-95286027D01*
X63467979Y-95240573D01*
X63532196Y-95225509D01*
X63595295Y-95240751D01*
X63652550Y-95286213D01*
X63699233Y-95361812D01*
X63701966Y-95368191D01*
X63726506Y-95451437D01*
X63743222Y-95559681D01*
X63752115Y-95684974D01*
X63753189Y-95819365D01*
X63746444Y-95954902D01*
X63731882Y-96083636D01*
X63709506Y-96197614D01*
X63701768Y-96226051D01*
X63699138Y-96234939D01*
X63697627Y-96243083D01*
X63698649Y-96250519D01*
X63703620Y-96257284D01*
X63713953Y-96263414D01*
X63731065Y-96268947D01*
X63756368Y-96273918D01*
X63791280Y-96278366D01*
X63837213Y-96282326D01*
X63895583Y-96285836D01*
X63967805Y-96288932D01*
X64055294Y-96291651D01*
X64159464Y-96294030D01*
X64281729Y-96296105D01*
X64423506Y-96297914D01*
X64586208Y-96299493D01*
X64771250Y-96300879D01*
X64980047Y-96302110D01*
X65214015Y-96303220D01*
X65474567Y-96304248D01*
X65763118Y-96305230D01*
X66081084Y-96306204D01*
X66429878Y-96307205D01*
X66810916Y-96308270D01*
X66869734Y-96308435D01*
X67248452Y-96309505D01*
X67594798Y-96310517D01*
X67910267Y-96311491D01*
X68196356Y-96312444D01*
X68454558Y-96313396D01*
X68686368Y-96314365D01*
X68893283Y-96315371D01*
X69076796Y-96316431D01*
X69238402Y-96317566D01*
X69379598Y-96318793D01*
X69501878Y-96320132D01*
X69606736Y-96321601D01*
X69695669Y-96323219D01*
X69770171Y-96325005D01*
X69831737Y-96326978D01*
X69881862Y-96329156D01*
X69922041Y-96331559D01*
X69953769Y-96334204D01*
X69978542Y-96337112D01*
X69997854Y-96340301D01*
X70013200Y-96343789D01*
X70026076Y-96347596D01*
X70027801Y-96348166D01*
X70193818Y-96418320D01*
X70349131Y-96514720D01*
X70495097Y-96638755D01*
X70633071Y-96791812D01*
X70764410Y-96975280D01*
X70890471Y-97190547D01*
X70935322Y-97277089D01*
X71021550Y-97458246D01*
X71104135Y-97651993D01*
X71183803Y-97860770D01*
X71261285Y-98087016D01*
X71337307Y-98333169D01*
X71412598Y-98601668D01*
X71487887Y-98894952D01*
X71563901Y-99215460D01*
X71641369Y-99565631D01*
X71695263Y-99822000D01*
X71743361Y-100054536D01*
X71785426Y-100256254D01*
X71822064Y-100429549D01*
X71853883Y-100576813D01*
X71881488Y-100700438D01*
X71905487Y-100802817D01*
X71926487Y-100886344D01*
X71945094Y-100953411D01*
X71961916Y-101006409D01*
X71977557Y-101047734D01*
X71992627Y-101079776D01*
X72007730Y-101104929D01*
X72023474Y-101125585D01*
X72026794Y-101129433D01*
X72065755Y-101181560D01*
X72105672Y-101246873D01*
X72125822Y-101285961D01*
X72146695Y-101334540D01*
X72159582Y-101378911D01*
X72166178Y-101429679D01*
X72168180Y-101497451D01*
X72167897Y-101549200D01*
X72162744Y-101649096D01*
X72150415Y-101756107D01*
X72132319Y-101864510D01*
X72109858Y-101968579D01*
X72084439Y-102062592D01*
X72057468Y-102140824D01*
X72030348Y-102197551D01*
X72004487Y-102227049D01*
X72001083Y-102228666D01*
X71965545Y-102228339D01*
X71939104Y-102196225D01*
X71921464Y-102131882D01*
X71917692Y-102104952D01*
X71904687Y-102029808D01*
X71882078Y-101959848D01*
X71846147Y-101887261D01*
X71793177Y-101804239D01*
X71738358Y-101728175D01*
X71666087Y-101626788D01*
X71615384Y-101542760D01*
X71584329Y-101469053D01*
X71571006Y-101398624D01*
X71573496Y-101324434D01*
X71589882Y-101239443D01*
X71597313Y-101210437D01*
X71625893Y-101103183D01*
X71504121Y-100610323D01*
X71434325Y-100340651D01*
X71359551Y-100075358D01*
X71281703Y-99820466D01*
X71202684Y-99581994D01*
X71124395Y-99365964D01*
X71059616Y-99203934D01*
X71026777Y-99128927D01*
X70984906Y-99037691D01*
X70936297Y-98934808D01*
X70883239Y-98824858D01*
X70828025Y-98712423D01*
X70772945Y-98602083D01*
X70720290Y-98498421D01*
X70672353Y-98406016D01*
X70631423Y-98329450D01*
X70599793Y-98273304D01*
X70579754Y-98242160D01*
X70577003Y-98238992D01*
X70561197Y-98226335D01*
X70556012Y-98235260D01*
X70559372Y-98271139D01*
X70560751Y-98281067D01*
X70563761Y-98308410D01*
X70569527Y-98366758D01*
X70577798Y-98453379D01*
X70588321Y-98565547D01*
X70600846Y-98700530D01*
X70615119Y-98855601D01*
X70630889Y-99028031D01*
X70647904Y-99215089D01*
X70665913Y-99414047D01*
X70684663Y-99622176D01*
X70688923Y-99669600D01*
X70708587Y-99888444D01*
X70728115Y-100105422D01*
X70747184Y-100316982D01*
X70765473Y-100519570D01*
X70782660Y-100709635D01*
X70798425Y-100883623D01*
X70812444Y-101037983D01*
X70824398Y-101169162D01*
X70833963Y-101273606D01*
X70840655Y-101346000D01*
X70867316Y-101633638D01*
X70890644Y-101888911D01*
X70910747Y-102113146D01*
X70927729Y-102307670D01*
X70941699Y-102473808D01*
X70952761Y-102612888D01*
X70961024Y-102726236D01*
X70966592Y-102815180D01*
X70969572Y-102881045D01*
X70970071Y-102925159D01*
X70968874Y-102944827D01*
X70936530Y-103065465D01*
X70874504Y-103179560D01*
X70786964Y-103281645D01*
X70678076Y-103366252D01*
X70624695Y-103396422D01*
X70527334Y-103445734D01*
X69837322Y-103445734D01*
X69455226Y-102848192D01*
X69356976Y-102695485D01*
X69271246Y-102564182D01*
X69198908Y-102455556D01*
X69140834Y-102370881D01*
X69097895Y-102311428D01*
X69070961Y-102278472D01*
X69061155Y-102272459D01*
X69053014Y-102295603D01*
X69038227Y-102345519D01*
X69018497Y-102416158D01*
X68995528Y-102501472D01*
X68979707Y-102561776D01*
X68954397Y-102656219D01*
X68929811Y-102742577D01*
X68908022Y-102813943D01*
X68891104Y-102863414D01*
X68884257Y-102879517D01*
X68842657Y-102933112D01*
X68776382Y-102987755D01*
X68693912Y-103037597D01*
X68603730Y-103076789D01*
X68592913Y-103080459D01*
X68459850Y-103116721D01*
X68321425Y-103138486D01*
X68168321Y-103146790D01*
X68021201Y-103144107D01*
X67826587Y-103127554D01*
X67657624Y-103096282D01*
X67515740Y-103050744D01*
X67402360Y-102991394D01*
X67321421Y-102921577D01*
X67286558Y-102877322D01*
X67265103Y-102834728D01*
X67255363Y-102785102D01*
X67255530Y-102746058D01*
X67369267Y-102746058D01*
X67376010Y-102800432D01*
X67401676Y-102842854D01*
X67420882Y-102862295D01*
X67484887Y-102906831D01*
X67575893Y-102948512D01*
X67687032Y-102984566D01*
X67775667Y-103005486D01*
X67861742Y-103017677D01*
X67969393Y-103025289D01*
X68088086Y-103028305D01*
X68207282Y-103026711D01*
X68316446Y-103020490D01*
X68405040Y-103009626D01*
X68421495Y-103006449D01*
X68543245Y-102973762D01*
X68646037Y-102932259D01*
X68723791Y-102884617D01*
X68748489Y-102862416D01*
X68772782Y-102825066D01*
X68799774Y-102765586D01*
X68825561Y-102695062D01*
X68846237Y-102624579D01*
X68857898Y-102565225D01*
X68859146Y-102548267D01*
X68843639Y-102539550D01*
X68801100Y-102535571D01*
X68753603Y-102536230D01*
X68657311Y-102530444D01*
X68582410Y-102501327D01*
X68523550Y-102446331D01*
X68503709Y-102417188D01*
X68470060Y-102362000D01*
X68469903Y-102412800D01*
X68455240Y-102518558D01*
X68413735Y-102608409D01*
X68348071Y-102678149D01*
X68274875Y-102718624D01*
X68181452Y-102737743D01*
X68091641Y-102725085D01*
X68010778Y-102682696D01*
X67944196Y-102612621D01*
X67927098Y-102585255D01*
X67890457Y-102520062D01*
X67860715Y-102568031D01*
X67795433Y-102645488D01*
X67716003Y-102695297D01*
X67628024Y-102716228D01*
X67537092Y-102707051D01*
X67448807Y-102666534D01*
X67440066Y-102660516D01*
X67405497Y-102640642D01*
X67384099Y-102643298D01*
X67373007Y-102671945D01*
X67369357Y-102730045D01*
X67369267Y-102746058D01*
X67255530Y-102746058D01*
X67255643Y-102719751D01*
X67264252Y-102629979D01*
X67264393Y-102628764D01*
X67271488Y-102561999D01*
X67275764Y-102509389D01*
X67276631Y-102478917D01*
X67275792Y-102474590D01*
X67260102Y-102480067D01*
X67227810Y-102500913D01*
X67213746Y-102511264D01*
X67131147Y-102554397D01*
X67042312Y-102566944D01*
X66953698Y-102549717D01*
X66871760Y-102503528D01*
X66829025Y-102462863D01*
X66791066Y-102408555D01*
X66768935Y-102345955D01*
X66760558Y-102266448D01*
X66761218Y-102236118D01*
X66878201Y-102236118D01*
X66880729Y-102297909D01*
X66891087Y-102339561D01*
X66913427Y-102374603D01*
X66924767Y-102387721D01*
X66984123Y-102433070D01*
X67032509Y-102449093D01*
X67096590Y-102443590D01*
X67152767Y-102409910D01*
X67194700Y-102353706D01*
X67215366Y-102286091D01*
X67230241Y-102224854D01*
X67256423Y-102193658D01*
X67297771Y-102190752D01*
X67358141Y-102214386D01*
X67365231Y-102218067D01*
X67445467Y-102260400D01*
X67446486Y-102370467D01*
X67452008Y-102455355D01*
X67468973Y-102514909D01*
X67500760Y-102556687D01*
X67541852Y-102583815D01*
X67608201Y-102601590D01*
X67671800Y-102590361D01*
X67725603Y-102554714D01*
X67762566Y-102499238D01*
X67775667Y-102431539D01*
X67787633Y-102370361D01*
X67823570Y-102333105D01*
X67883537Y-102319713D01*
X67888057Y-102319667D01*
X67953311Y-102325831D01*
X67992058Y-102347791D01*
X68009958Y-102390746D01*
X68013110Y-102434563D01*
X68026682Y-102511719D01*
X68062416Y-102570404D01*
X68114047Y-102607761D01*
X68175310Y-102620933D01*
X68239940Y-102607060D01*
X68299690Y-102565293D01*
X68323675Y-102536603D01*
X68337084Y-102503883D01*
X68343069Y-102456085D01*
X68344524Y-102408134D01*
X68345709Y-102337091D01*
X68348942Y-102292029D01*
X68357372Y-102265078D01*
X68374145Y-102248370D01*
X68402410Y-102234038D01*
X68416739Y-102227614D01*
X68486682Y-102204730D01*
X68536165Y-102208582D01*
X68565635Y-102239265D01*
X68572200Y-102260400D01*
X68598137Y-102338184D01*
X68640831Y-102390245D01*
X68682963Y-102414461D01*
X68728429Y-102429173D01*
X68766510Y-102426282D01*
X68797921Y-102414816D01*
X68852954Y-102383507D01*
X68887586Y-102340412D01*
X68905450Y-102278496D01*
X68910201Y-102197366D01*
X68910201Y-102082600D01*
X67904479Y-102082600D01*
X67693283Y-102082670D01*
X67513447Y-102082925D01*
X67362462Y-102083429D01*
X67237822Y-102084250D01*
X67137019Y-102085454D01*
X67057546Y-102087106D01*
X66996895Y-102089273D01*
X66952559Y-102092020D01*
X66922032Y-102095415D01*
X66902804Y-102099523D01*
X66892370Y-102104409D01*
X66888479Y-102109385D01*
X66882871Y-102140294D01*
X66879138Y-102192092D01*
X66878201Y-102236118D01*
X66761218Y-102236118D01*
X66762316Y-102185768D01*
X66768134Y-102082538D01*
X65921467Y-102082664D01*
X65732924Y-102083027D01*
X65560466Y-102084026D01*
X65406749Y-102085611D01*
X65274432Y-102087734D01*
X65166172Y-102090345D01*
X65084625Y-102093396D01*
X65032451Y-102096836D01*
X65014949Y-102099416D01*
X64903968Y-102147123D01*
X64806194Y-102222175D01*
X64727202Y-102318923D01*
X64672565Y-102431719D01*
X64665713Y-102453405D01*
X64657773Y-102483162D01*
X64652110Y-102513158D01*
X64648799Y-102547910D01*
X64647913Y-102591934D01*
X64649529Y-102649745D01*
X64653719Y-102725861D01*
X64660560Y-102824798D01*
X64670126Y-102951071D01*
X64674970Y-103013285D01*
X64687161Y-103168968D01*
X64696763Y-103294400D01*
X64703654Y-103393104D01*
X64707714Y-103468605D01*
X64708822Y-103524429D01*
X64706857Y-103564099D01*
X64701698Y-103591141D01*
X64693224Y-103609078D01*
X64681315Y-103621436D01*
X64665850Y-103631740D01*
X64653513Y-103639203D01*
X64533715Y-103702101D01*
X64395478Y-103756234D01*
X64246549Y-103799996D01*
X64094680Y-103831776D01*
X63947619Y-103849967D01*
X63813116Y-103852960D01*
X63698922Y-103839148D01*
X63694734Y-103838187D01*
X63626404Y-103818287D01*
X63558604Y-103792549D01*
X63531453Y-103779791D01*
X63498802Y-103761982D01*
X63469799Y-103743161D01*
X63443118Y-103720647D01*
X63417428Y-103691758D01*
X63391404Y-103653811D01*
X63363715Y-103604124D01*
X63333034Y-103540016D01*
X63298034Y-103458805D01*
X63257385Y-103357809D01*
X63209760Y-103234346D01*
X63153830Y-103085733D01*
X63088267Y-102909289D01*
X63052544Y-102812729D01*
X62985523Y-102631775D01*
X62929053Y-102480222D01*
X62882127Y-102355634D01*
X62843736Y-102255580D01*
X62812873Y-102177627D01*
X62788531Y-102119340D01*
X62769701Y-102078287D01*
X62755376Y-102052035D01*
X62744548Y-102038151D01*
X62736209Y-102034200D01*
X62730979Y-102036296D01*
X62713209Y-102052039D01*
X62673446Y-102088429D01*
X62614403Y-102142948D01*
X62538793Y-102213078D01*
X62449326Y-102296303D01*
X62348716Y-102390102D01*
X62239674Y-102491960D01*
X62179227Y-102548504D01*
X62065450Y-102654838D01*
X61957491Y-102755451D01*
X61858259Y-102847652D01*
X61770666Y-102928749D01*
X61697621Y-102996051D01*
X61642034Y-103046865D01*
X61606817Y-103078499D01*
X61597935Y-103086137D01*
X61541602Y-103132467D01*
X61122678Y-103132467D01*
X61000342Y-103131713D01*
X60883562Y-103129595D01*
X60778467Y-103126333D01*
X60691183Y-103122145D01*
X60627838Y-103117249D01*
X60603277Y-103113954D01*
X60463063Y-103073300D01*
X60336842Y-103007399D01*
X60229734Y-102919920D01*
X60146862Y-102814528D01*
X60122269Y-102769472D01*
X60106795Y-102734964D01*
X60095017Y-102700513D01*
X60087344Y-102663084D01*
X60084183Y-102619647D01*
X60084364Y-102614216D01*
X60197040Y-102614216D01*
X60198321Y-102626877D01*
X60238338Y-102734819D01*
X60306730Y-102830871D01*
X60398852Y-102910677D01*
X60510062Y-102969884D01*
X60591437Y-102995509D01*
X60625701Y-102999668D01*
X60688413Y-103003440D01*
X60774158Y-103006652D01*
X60877520Y-103009134D01*
X60993080Y-103010714D01*
X61087001Y-103011208D01*
X61518801Y-103011884D01*
X62086067Y-102478850D01*
X62203054Y-102368889D01*
X62313196Y-102265295D01*
X62413881Y-102170530D01*
X62502496Y-102087056D01*
X62576429Y-102017336D01*
X62633068Y-101963830D01*
X62669799Y-101929002D01*
X62683296Y-101916042D01*
X62693670Y-101903672D01*
X62698792Y-101888337D01*
X62697512Y-101865097D01*
X62688677Y-101829007D01*
X62671138Y-101775127D01*
X62643742Y-101698513D01*
X62613439Y-101616134D01*
X62513620Y-101346000D01*
X62346410Y-101333508D01*
X62289144Y-101329067D01*
X62631575Y-101329067D01*
X62965452Y-102235000D01*
X63029613Y-102409131D01*
X63092381Y-102579555D01*
X63152391Y-102742557D01*
X63208275Y-102894421D01*
X63258666Y-103031431D01*
X63302197Y-103149872D01*
X63337503Y-103246028D01*
X63363216Y-103316184D01*
X63372832Y-103342500D01*
X63420218Y-103462253D01*
X63466240Y-103553404D01*
X63515100Y-103620758D01*
X63570995Y-103669123D01*
X63638127Y-103703301D01*
X63706884Y-103724719D01*
X63773690Y-103733907D01*
X63863416Y-103735546D01*
X63966122Y-103730271D01*
X64071865Y-103718720D01*
X64170703Y-103701526D01*
X64208298Y-103692637D01*
X64293953Y-103667538D01*
X64381244Y-103637226D01*
X64461889Y-103605044D01*
X64527605Y-103574331D01*
X64570110Y-103548427D01*
X64573993Y-103545145D01*
X64580768Y-103534984D01*
X64585272Y-103516356D01*
X64587402Y-103485622D01*
X64587055Y-103439139D01*
X64584131Y-103373266D01*
X64578526Y-103284363D01*
X64570139Y-103168789D01*
X64559628Y-103032581D01*
X64549368Y-102893785D01*
X64541203Y-102766909D01*
X64535341Y-102656386D01*
X64531987Y-102566648D01*
X64531350Y-102502128D01*
X64533335Y-102468878D01*
X64570559Y-102345022D01*
X64637106Y-102229690D01*
X64728549Y-102128567D01*
X64840465Y-102047334D01*
X64876572Y-102028085D01*
X64989402Y-101972533D01*
X66934546Y-101967953D01*
X67240297Y-101967174D01*
X67513798Y-101966341D01*
X67756668Y-101965433D01*
X67970524Y-101964426D01*
X68156985Y-101963299D01*
X68317666Y-101962030D01*
X68454187Y-101960596D01*
X68568164Y-101958974D01*
X68661216Y-101957144D01*
X68734960Y-101955082D01*
X68791014Y-101952766D01*
X68830994Y-101950174D01*
X68856520Y-101947285D01*
X68869208Y-101944074D01*
X68871241Y-101941352D01*
X68859110Y-101919089D01*
X68832423Y-101874967D01*
X68795172Y-101815463D01*
X68753203Y-101749914D01*
X68708299Y-101679991D01*
X68668808Y-101617572D01*
X68639212Y-101569798D01*
X68624568Y-101544908D01*
X68613079Y-101500324D01*
X68627851Y-101468116D01*
X68664308Y-101456067D01*
X68674493Y-101459794D01*
X68689154Y-101472238D01*
X68709579Y-101495296D01*
X68737058Y-101530863D01*
X68772882Y-101580835D01*
X68818340Y-101647109D01*
X68874721Y-101731580D01*
X68943315Y-101836144D01*
X69025411Y-101962698D01*
X69122300Y-102113136D01*
X69235271Y-102289356D01*
X69300688Y-102391633D01*
X69403767Y-102552676D01*
X69501763Y-102705361D01*
X69593112Y-102847278D01*
X69676252Y-102976020D01*
X69749620Y-103089178D01*
X69811652Y-103184344D01*
X69860786Y-103259108D01*
X69895458Y-103311062D01*
X69914105Y-103337797D01*
X69916693Y-103340865D01*
X69939053Y-103345146D01*
X69989029Y-103348038D01*
X70060391Y-103349384D01*
X70146909Y-103349030D01*
X70201484Y-103347986D01*
X70302345Y-103345313D01*
X70376403Y-103342218D01*
X70430713Y-103337505D01*
X70472332Y-103329977D01*
X70508313Y-103318440D01*
X70545712Y-103301698D01*
X70581847Y-103283521D01*
X70670669Y-103229745D01*
X70737610Y-103167887D01*
X70758046Y-103142607D01*
X70797160Y-103086588D01*
X70825085Y-103033575D01*
X70842958Y-102976956D01*
X70851919Y-102910119D01*
X70853107Y-102826452D01*
X70847659Y-102719341D01*
X70842554Y-102651839D01*
X70834631Y-102557625D01*
X70826780Y-102471322D01*
X70819731Y-102400500D01*
X70814218Y-102352729D01*
X70812551Y-102341445D01*
X70803194Y-102287023D01*
X70723807Y-102327252D01*
X70579045Y-102386236D01*
X70437489Y-102415795D01*
X70339012Y-102418073D01*
X70275642Y-102411893D01*
X70232877Y-102399906D01*
X70197459Y-102377020D01*
X70172234Y-102354018D01*
X70132775Y-102307736D01*
X70103005Y-102252024D01*
X70081342Y-102181229D01*
X70066205Y-102089700D01*
X70056012Y-101971783D01*
X70053671Y-101930200D01*
X70043788Y-101803026D01*
X70026497Y-101703718D01*
X69998404Y-101626515D01*
X69956116Y-101565654D01*
X69896237Y-101515374D01*
X69815375Y-101469913D01*
X69770254Y-101449058D01*
X69718294Y-101424219D01*
X69679762Y-101402348D01*
X69665003Y-101390387D01*
X69665349Y-101365366D01*
X69678312Y-101316635D01*
X69701464Y-101250826D01*
X69732377Y-101174570D01*
X69768624Y-101094501D01*
X69787016Y-101057033D01*
X69866813Y-100922105D01*
X69954009Y-100818110D01*
X70047724Y-100745718D01*
X70147078Y-100705603D01*
X70251194Y-100698435D01*
X70255774Y-100698876D01*
X70363306Y-100720962D01*
X70468644Y-100766586D01*
X70579795Y-100839262D01*
X70585599Y-100843631D01*
X70631976Y-100877899D01*
X70666134Y-100901545D01*
X70680904Y-100909616D01*
X70680981Y-100909557D01*
X70679963Y-100892518D01*
X70676067Y-100844171D01*
X70669507Y-100766933D01*
X70660497Y-100663223D01*
X70649254Y-100535457D01*
X70635989Y-100386053D01*
X70620920Y-100217429D01*
X70604259Y-100032001D01*
X70586221Y-99832187D01*
X70567022Y-99620404D01*
X70549232Y-99424927D01*
X70414234Y-97944120D01*
X70254483Y-97672327D01*
X70204194Y-97585144D01*
X70160906Y-97506984D01*
X70127254Y-97442864D01*
X70105872Y-97397800D01*
X70099366Y-97376948D01*
X70118630Y-97343528D01*
X70151321Y-97328933D01*
X70183969Y-97338597D01*
X70187156Y-97341554D01*
X70207303Y-97368552D01*
X70241364Y-97421458D01*
X70287130Y-97496395D01*
X70342391Y-97589488D01*
X70404939Y-97696862D01*
X70472563Y-97814641D01*
X70543056Y-97938950D01*
X70614207Y-98065914D01*
X70683807Y-98191656D01*
X70749648Y-98312301D01*
X70809521Y-98423974D01*
X70861215Y-98522800D01*
X70867508Y-98535067D01*
X70985422Y-98770672D01*
X71087280Y-98986004D01*
X71176330Y-99188615D01*
X71255821Y-99386061D01*
X71328999Y-99585895D01*
X71366215Y-99695000D01*
X71422074Y-99870261D01*
X71481287Y-100069861D01*
X71541370Y-100284782D01*
X71599839Y-100506003D01*
X71654207Y-100724506D01*
X71679905Y-100833507D01*
X71699424Y-100917045D01*
X71713854Y-100972773D01*
X71725685Y-101005886D01*
X71737406Y-101021583D01*
X71751506Y-101025061D01*
X71770021Y-101021625D01*
X71805537Y-101011515D01*
X71821865Y-101004409D01*
X71821514Y-100986189D01*
X71814473Y-100942403D01*
X71802043Y-100880398D01*
X71791556Y-100833224D01*
X71778720Y-100775918D01*
X71760176Y-100690930D01*
X71737096Y-100583738D01*
X71710651Y-100459821D01*
X71682013Y-100324658D01*
X71652353Y-100183727D01*
X71636890Y-100109867D01*
X71573429Y-99808671D01*
X71515148Y-99537748D01*
X71461268Y-99294032D01*
X71411008Y-99074457D01*
X71363591Y-98875959D01*
X71318237Y-98695470D01*
X71274167Y-98529927D01*
X71230602Y-98376262D01*
X71186762Y-98231411D01*
X71141870Y-98092307D01*
X71095145Y-97955886D01*
X71075295Y-97900067D01*
X70966076Y-97618607D01*
X70850897Y-97365285D01*
X70730385Y-97141104D01*
X70605163Y-96947069D01*
X70475856Y-96784184D01*
X70343089Y-96653451D01*
X70259482Y-96589104D01*
X70188378Y-96546479D01*
X70105722Y-96506617D01*
X70021662Y-96473541D01*
X69946347Y-96451277D01*
X69893094Y-96443800D01*
X69867611Y-96446273D01*
X69848997Y-96458161D01*
X69832287Y-96486167D01*
X69812515Y-96536997D01*
X69802172Y-96566567D01*
X69775191Y-96640754D01*
X69740815Y-96729878D01*
X69705284Y-96817875D01*
X69695298Y-96841734D01*
X69657399Y-96941097D01*
X69635066Y-97028854D01*
X69628544Y-97112974D01*
X69638078Y-97201425D01*
X69663915Y-97302174D01*
X69706299Y-97423191D01*
X69713822Y-97442867D01*
X69749076Y-97537119D01*
X69772831Y-97609145D01*
X69787270Y-97667697D01*
X69794578Y-97721527D01*
X69796898Y-97775923D01*
X69796651Y-97828358D01*
X69792742Y-97871198D01*
X69782652Y-97912777D01*
X69763862Y-97961429D01*
X69733853Y-98025487D01*
X69702200Y-98089189D01*
X69636278Y-98212961D01*
X69553465Y-98356364D01*
X69458151Y-98512681D01*
X69354726Y-98675199D01*
X69247579Y-98837202D01*
X69141101Y-98991976D01*
X69039682Y-99132806D01*
X68947712Y-99252977D01*
X68915095Y-99293105D01*
X68850345Y-99361110D01*
X68778439Y-99414477D01*
X68691668Y-99457469D01*
X68582319Y-99494348D01*
X68521745Y-99510577D01*
X68373058Y-99536304D01*
X68233338Y-99537326D01*
X68108584Y-99513842D01*
X68058724Y-99495244D01*
X68004540Y-99463004D01*
X67931909Y-99406859D01*
X67843760Y-99329171D01*
X67791232Y-99279571D01*
X67695630Y-99189569D01*
X67615019Y-99120982D01*
X67541904Y-99070571D01*
X67468794Y-99035099D01*
X67388193Y-99011326D01*
X67292608Y-98996016D01*
X67174547Y-98985931D01*
X67101828Y-98981678D01*
X66997421Y-98975341D01*
X66895646Y-98967848D01*
X66805313Y-98959940D01*
X66735235Y-98952358D01*
X66708867Y-98948651D01*
X66570251Y-98914872D01*
X66454525Y-98863360D01*
X66363601Y-98796129D01*
X66299392Y-98715197D01*
X66263809Y-98622578D01*
X66258766Y-98520288D01*
X66264945Y-98480766D01*
X66276696Y-98433379D01*
X66292936Y-98387367D01*
X66316327Y-98338279D01*
X66349532Y-98281668D01*
X66395214Y-98213084D01*
X66456036Y-98128078D01*
X66534660Y-98022201D01*
X66557878Y-97991327D01*
X66656381Y-97858053D01*
X66733136Y-97746592D01*
X66788668Y-97653244D01*
X66823505Y-97574310D01*
X66838171Y-97506092D01*
X66833192Y-97444890D01*
X66809094Y-97387006D01*
X66766402Y-97328739D01*
X66705643Y-97266392D01*
X66666046Y-97230208D01*
X66548528Y-97124473D01*
X66454400Y-97037253D01*
X66380833Y-96965623D01*
X66324999Y-96906661D01*
X66284070Y-96857444D01*
X66255218Y-96815049D01*
X66243372Y-96793380D01*
X66207826Y-96688931D01*
X66204050Y-96585031D01*
X66226267Y-96500455D01*
X66242497Y-96460125D01*
X66251200Y-96435604D01*
X66251667Y-96433266D01*
X66235290Y-96431964D01*
X66188383Y-96430750D01*
X66114282Y-96429654D01*
X66016324Y-96428700D01*
X65897846Y-96427918D01*
X65762183Y-96427333D01*
X65612674Y-96426975D01*
X65469912Y-96426867D01*
X65311329Y-96427105D01*
X65164013Y-96427787D01*
X65031234Y-96428865D01*
X64916266Y-96430290D01*
X64822379Y-96432014D01*
X64752846Y-96433988D01*
X64710938Y-96436164D01*
X64699562Y-96438272D01*
X64719451Y-96447437D01*
X64764915Y-96463759D01*
X64829031Y-96484867D01*
X64898959Y-96506601D01*
X65011711Y-96542318D01*
X65096608Y-96573530D01*
X65158879Y-96602985D01*
X65203750Y-96633430D01*
X65236448Y-96667615D01*
X65253589Y-96693040D01*
X65288768Y-96745945D01*
X65326755Y-96794805D01*
X65333608Y-96802531D01*
X65363642Y-96852989D01*
X65360193Y-96902962D01*
X65323117Y-96952999D01*
X65286668Y-96981909D01*
X65247506Y-97010891D01*
X65223206Y-97032522D01*
X65219376Y-97038400D01*
X65233322Y-97049921D01*
X65269534Y-97067589D01*
X65294868Y-97077875D01*
X65381319Y-97119076D01*
X65478998Y-97178702D01*
X65577246Y-97249333D01*
X65665406Y-97323550D01*
X65707629Y-97365222D01*
X65798592Y-97462134D01*
X65791238Y-97602240D01*
X65786563Y-97667348D01*
X65778343Y-97720357D01*
X65763545Y-97771494D01*
X65739139Y-97830982D01*
X65702091Y-97909045D01*
X65697424Y-97918573D01*
X65613316Y-98073226D01*
X65517269Y-98220936D01*
X65412752Y-98358064D01*
X65303233Y-98480973D01*
X65192180Y-98586026D01*
X65083061Y-98669583D01*
X64979344Y-98728009D01*
X64900329Y-98754705D01*
X64835644Y-98752802D01*
X64758742Y-98724852D01*
X64673779Y-98674452D01*
X64584911Y-98605203D01*
X64496293Y-98520702D01*
X64412082Y-98424548D01*
X64336433Y-98320339D01*
X64273734Y-98212136D01*
X64212728Y-98065336D01*
X64171551Y-97910403D01*
X64150797Y-97754371D01*
X64151063Y-97604272D01*
X64172943Y-97467142D01*
X64203211Y-97378577D01*
X64221751Y-97333689D01*
X64231641Y-97303739D01*
X64232037Y-97297192D01*
X64214269Y-97297736D01*
X64170390Y-97303195D01*
X64107601Y-97312377D01*
X64033103Y-97324086D01*
X63954097Y-97337127D01*
X63877782Y-97350307D01*
X63811359Y-97362430D01*
X63762030Y-97372303D01*
X63736993Y-97378730D01*
X63735445Y-97379578D01*
X63729281Y-97399415D01*
X63719040Y-97448071D01*
X63705508Y-97520851D01*
X63689472Y-97613057D01*
X63671721Y-97719994D01*
X63653041Y-97836966D01*
X63634221Y-97959275D01*
X63616047Y-98082227D01*
X63607008Y-98145600D01*
X63595006Y-98236053D01*
X63585723Y-98320148D01*
X63578824Y-98404425D01*
X63573974Y-98495422D01*
X63570837Y-98599679D01*
X63569077Y-98723737D01*
X63568358Y-98874133D01*
X63568320Y-98899388D01*
X63567734Y-99382242D01*
X63695782Y-99530510D01*
X63827044Y-99696957D01*
X63930818Y-99861905D01*
X64008829Y-100025200D01*
X64030578Y-100081513D01*
X64044775Y-100130401D01*
X64053028Y-100182092D01*
X64056951Y-100246815D01*
X64058152Y-100334798D01*
X64058165Y-100338467D01*
X64054395Y-100462255D01*
X64040262Y-100562617D01*
X64012891Y-100649155D01*
X63969406Y-100731472D01*
X63918836Y-100803703D01*
X63807781Y-100925144D01*
X63670832Y-101030679D01*
X63507051Y-101120716D01*
X63315496Y-101195662D01*
X63095231Y-101255924D01*
X62845315Y-101301908D01*
X62735588Y-101316546D01*
X62631575Y-101329067D01*
X62289144Y-101329067D01*
X62170239Y-101319846D01*
X62021794Y-101307064D01*
X61894972Y-101294426D01*
X61783671Y-101281191D01*
X61681789Y-101266621D01*
X61583223Y-101249977D01*
X61481871Y-101230522D01*
X61461589Y-101226404D01*
X61368773Y-101207918D01*
X61287795Y-101192732D01*
X61224345Y-101181840D01*
X61184115Y-101176231D01*
X61172632Y-101176070D01*
X61159583Y-101193829D01*
X61137792Y-101232116D01*
X61122547Y-101261602D01*
X61083120Y-101340546D01*
X61112068Y-101643706D01*
X61124230Y-101785636D01*
X61130413Y-101899603D01*
X61130341Y-101991024D01*
X61123736Y-102065320D01*
X61110324Y-102127908D01*
X61089826Y-102184208D01*
X61083833Y-102197362D01*
X61041463Y-102261132D01*
X60981283Y-102303379D01*
X60913817Y-102325984D01*
X60862992Y-102328362D01*
X60787967Y-102319074D01*
X60695732Y-102299658D01*
X60593273Y-102271653D01*
X60487578Y-102236597D01*
X60458267Y-102225694D01*
X60391318Y-102200614D01*
X60336415Y-102180923D01*
X60301106Y-102169281D01*
X60292548Y-102167267D01*
X60281530Y-102182808D01*
X60267241Y-102224543D01*
X60251185Y-102285135D01*
X60234866Y-102357249D01*
X60219789Y-102433550D01*
X60207456Y-102506701D01*
X60199372Y-102569369D01*
X60197040Y-102614216D01*
X60084364Y-102614216D01*
X60085941Y-102567167D01*
X60093026Y-102502613D01*
X60105845Y-102422950D01*
X60124807Y-102325148D01*
X60150319Y-102206173D01*
X60182789Y-102062991D01*
X60222624Y-101892572D01*
X60263062Y-101722005D01*
X60299921Y-101566610D01*
X60334230Y-101421052D01*
X60365210Y-101288699D01*
X60392083Y-101172915D01*
X60414073Y-101077067D01*
X60430401Y-101004520D01*
X60440289Y-100958641D01*
X60443049Y-100943071D01*
X60428347Y-100929739D01*
X60387648Y-100904549D01*
X60325597Y-100870071D01*
X60246838Y-100828870D01*
X60156017Y-100783516D01*
X60142482Y-100776922D01*
X59919044Y-100660717D01*
X59704465Y-100534157D01*
X59503492Y-100400617D01*
X59320871Y-100263469D01*
X59161347Y-100126089D01*
X59029669Y-99991849D01*
X59016136Y-99976311D01*
X58875717Y-99796073D01*
X58767500Y-99620244D01*
X58691540Y-99449424D01*
X58647892Y-99284209D01*
X58636612Y-99125195D01*
X58640128Y-99099879D01*
X58758629Y-99099879D01*
X58762983Y-99222238D01*
X58774518Y-99289857D01*
X58825178Y-99455233D01*
X58907536Y-99620774D01*
X59019458Y-99785129D01*
X59158809Y-99946949D01*
X59323454Y-100104886D01*
X59511259Y-100257588D01*
X59720089Y-100403707D01*
X59947810Y-100541893D01*
X60192287Y-100670797D01*
X60451386Y-100789069D01*
X60722971Y-100895360D01*
X61004909Y-100988319D01*
X61295065Y-101066598D01*
X61591304Y-101128847D01*
X61716442Y-101149796D01*
X61815813Y-101165076D01*
X61894763Y-101176613D01*
X61960953Y-101184978D01*
X62022044Y-101190745D01*
X62085695Y-101194484D01*
X62159567Y-101196768D01*
X62251321Y-101198169D01*
X62368615Y-101199258D01*
X62380227Y-101199357D01*
X62575129Y-101198049D01*
X62738247Y-101190493D01*
X62871096Y-101176618D01*
X62876560Y-101175819D01*
X63100183Y-101132663D01*
X63301548Y-101073382D01*
X63478903Y-100998940D01*
X63630496Y-100910302D01*
X63754574Y-100808434D01*
X63849384Y-100694301D01*
X63893735Y-100615604D01*
X63915838Y-100564486D01*
X63929605Y-100518694D01*
X63936904Y-100467335D01*
X63939602Y-100399516D01*
X63939791Y-100346934D01*
X63934827Y-100232243D01*
X63918445Y-100133324D01*
X63887348Y-100039437D01*
X63838236Y-99939841D01*
X63789743Y-99858367D01*
X63655642Y-99672309D01*
X63490291Y-99491557D01*
X63296089Y-99317560D01*
X63075433Y-99151765D01*
X62830721Y-98995622D01*
X62564349Y-98850578D01*
X62278715Y-98718082D01*
X61976217Y-98599581D01*
X61659252Y-98496524D01*
X61434134Y-98435370D01*
X61171866Y-98378034D01*
X60903196Y-98334929D01*
X60634518Y-98306449D01*
X60372226Y-98292986D01*
X60122717Y-98294936D01*
X59892383Y-98312692D01*
X59759875Y-98332194D01*
X59542994Y-98381253D01*
X59349258Y-98446032D01*
X59180414Y-98525534D01*
X59038208Y-98618762D01*
X58924387Y-98724716D01*
X58840698Y-98842400D01*
X58829513Y-98863661D01*
X58780307Y-98984217D01*
X58758629Y-99099879D01*
X58640128Y-99099879D01*
X58657756Y-98972981D01*
X58711379Y-98828162D01*
X58797537Y-98691337D01*
X58887098Y-98590806D01*
X59005132Y-98493540D01*
X59150082Y-98405540D01*
X59315523Y-98330122D01*
X59495031Y-98270602D01*
X59520667Y-98263792D01*
X59599921Y-98242384D01*
X59654891Y-98223891D01*
X59694379Y-98203991D01*
X59727187Y-98178363D01*
X59757734Y-98147414D01*
X59844967Y-98044166D01*
X59941266Y-97912888D01*
X60044211Y-97757410D01*
X60151381Y-97581561D01*
X60260356Y-97389171D01*
X60368717Y-97184069D01*
X60377934Y-97165951D01*
X60427421Y-97067013D01*
X60478511Y-96962471D01*
X60529001Y-96857089D01*
X60576687Y-96755630D01*
X60619367Y-96662857D01*
X60654838Y-96583535D01*
X60680896Y-96522427D01*
X60695339Y-96484296D01*
X60697534Y-96474864D01*
X60685915Y-96459008D01*
X60653793Y-96424114D01*
X60605272Y-96374415D01*
X60544454Y-96314143D01*
X60499267Y-96270336D01*
X60334389Y-96109687D01*
X60192501Y-95966635D01*
X60070187Y-95837572D01*
X59964031Y-95718889D01*
X59870618Y-95606979D01*
X59866926Y-95602377D01*
X59772709Y-95479083D01*
X59703392Y-95375070D01*
X59657725Y-95288097D01*
X59656540Y-95284419D01*
X59819271Y-95284419D01*
X59820013Y-95306344D01*
X59840050Y-95349444D01*
X59876549Y-95409258D01*
X59926678Y-95481322D01*
X59987601Y-95561175D01*
X60021541Y-95603008D01*
X60069515Y-95658295D01*
X60131523Y-95725767D01*
X60204050Y-95801981D01*
X60283581Y-95883494D01*
X60366600Y-95966864D01*
X60449592Y-96048649D01*
X60529043Y-96125405D01*
X60601435Y-96193690D01*
X60663255Y-96250062D01*
X60710987Y-96291076D01*
X60741116Y-96313292D01*
X60749595Y-96316021D01*
X60763660Y-96292460D01*
X60765267Y-96279797D01*
X60757552Y-96254491D01*
X60736724Y-96207178D01*
X60706258Y-96145374D01*
X60680601Y-96096667D01*
X60638366Y-96016647D01*
X60611988Y-95960116D01*
X60600054Y-95921430D01*
X60601153Y-95894942D01*
X60613873Y-95875009D01*
X60623073Y-95866623D01*
X60641715Y-95856925D01*
X60667008Y-95858893D01*
X60706788Y-95874482D01*
X60759182Y-95900597D01*
X60813571Y-95926795D01*
X60855823Y-95943424D01*
X60877657Y-95947281D01*
X60878491Y-95946754D01*
X60876784Y-95926063D01*
X60854436Y-95887374D01*
X60815476Y-95835888D01*
X60763933Y-95776809D01*
X60703835Y-95715339D01*
X60686546Y-95698896D01*
X60519873Y-95560661D01*
X60345904Y-95449920D01*
X60259785Y-95406939D01*
X60202982Y-95383932D01*
X60132454Y-95359363D01*
X60055351Y-95335221D01*
X59978824Y-95313495D01*
X59910024Y-95296174D01*
X59856101Y-95285246D01*
X59824206Y-95282700D01*
X59819271Y-95284419D01*
X59656540Y-95284419D01*
X59634460Y-95215922D01*
X59630734Y-95178747D01*
X59630734Y-95161322D01*
X59868743Y-95161322D01*
X59885475Y-95172610D01*
X59899773Y-95173800D01*
X59946070Y-95180193D01*
X60014988Y-95197522D01*
X60098179Y-95223015D01*
X60187297Y-95253899D01*
X60273994Y-95287400D01*
X60349923Y-95320746D01*
X60366468Y-95328846D01*
X60554015Y-95439969D01*
X60731555Y-95577717D01*
X60890461Y-95734875D01*
X60975048Y-95837841D01*
X61022383Y-95900748D01*
X60993184Y-95990241D01*
X60969030Y-96058921D01*
X60947452Y-96099212D01*
X60922253Y-96115436D01*
X60887233Y-96111913D01*
X60842255Y-96095454D01*
X60825629Y-96091230D01*
X60824045Y-96101514D01*
X60838681Y-96131608D01*
X60857590Y-96164545D01*
X60884875Y-96214107D01*
X60896419Y-96249571D01*
X60894740Y-96285363D01*
X60885465Y-96324312D01*
X60869020Y-96373332D01*
X60839632Y-96447740D01*
X60799515Y-96542633D01*
X60750880Y-96653114D01*
X60695942Y-96774283D01*
X60636912Y-96901239D01*
X60576004Y-97029083D01*
X60515429Y-97152915D01*
X60473956Y-97235483D01*
X60325951Y-97513389D01*
X60178996Y-97762512D01*
X60030117Y-97987696D01*
X59920518Y-98137133D01*
X59888073Y-98179467D01*
X60297037Y-98179870D01*
X60466394Y-98181159D01*
X60611097Y-98185266D01*
X60740302Y-98193092D01*
X60863166Y-98205542D01*
X60988848Y-98223519D01*
X61126505Y-98247927D01*
X61263994Y-98275273D01*
X61593510Y-98354388D01*
X61920780Y-98454940D01*
X62240615Y-98574638D01*
X62547823Y-98711191D01*
X62837214Y-98862309D01*
X63103598Y-99025701D01*
X63322201Y-99183567D01*
X63432267Y-99270015D01*
X63443410Y-98851741D01*
X63450472Y-98658422D01*
X63460909Y-98473357D01*
X63474151Y-98305032D01*
X63489628Y-98161928D01*
X63489861Y-98160120D01*
X63509590Y-98015249D01*
X63531735Y-97866094D01*
X63555323Y-97718183D01*
X63579387Y-97577044D01*
X63602954Y-97448204D01*
X63625056Y-97337191D01*
X63644721Y-97249531D01*
X63656655Y-97205448D01*
X63796334Y-97205448D01*
X63798289Y-97217360D01*
X63807787Y-97224172D01*
X63830279Y-97225829D01*
X63871214Y-97222275D01*
X63936043Y-97213455D01*
X64003767Y-97203328D01*
X64109404Y-97186354D01*
X64230914Y-97165338D01*
X64351051Y-97143324D01*
X64427228Y-97128525D01*
X64526601Y-97107478D01*
X64630801Y-97083578D01*
X64726466Y-97059985D01*
X64791295Y-97042470D01*
X64875253Y-97015959D01*
X64956370Y-96986292D01*
X65029099Y-96956000D01*
X65087892Y-96927616D01*
X65127202Y-96903672D01*
X65141482Y-96886700D01*
X65140008Y-96883298D01*
X65119044Y-96872372D01*
X65072932Y-96853481D01*
X65008657Y-96829359D01*
X64939334Y-96804839D01*
X64753067Y-96740723D01*
X64465201Y-96740428D01*
X64353541Y-96740855D01*
X64268056Y-96742870D01*
X64201063Y-96747186D01*
X64144880Y-96754516D01*
X64091827Y-96765572D01*
X64037634Y-96780089D01*
X63960649Y-96805323D01*
X63913210Y-96827903D01*
X63896106Y-96846647D01*
X63910126Y-96860373D01*
X63956060Y-96867899D01*
X63978367Y-96868821D01*
X64056679Y-96873283D01*
X64106708Y-96884330D01*
X64133781Y-96904384D01*
X64143225Y-96935870D01*
X64143467Y-96943938D01*
X64135015Y-96985013D01*
X64103760Y-97013250D01*
X64092265Y-97019374D01*
X63975760Y-97079197D01*
X63889408Y-97127413D01*
X63831865Y-97164868D01*
X63801790Y-97192405D01*
X63796334Y-97205448D01*
X63656655Y-97205448D01*
X63658852Y-97197334D01*
X63679741Y-97138218D01*
X63702930Y-97099474D01*
X63738256Y-97068454D01*
X63779636Y-97042044D01*
X63827276Y-97012616D01*
X63848778Y-96995929D01*
X63847228Y-96987611D01*
X63825712Y-96983289D01*
X63821479Y-96982777D01*
X63777042Y-96970065D01*
X63755025Y-96942226D01*
X63754043Y-96894786D01*
X63772453Y-96824074D01*
X63791881Y-96769183D01*
X63810964Y-96736606D01*
X63839338Y-96716296D01*
X63886641Y-96698206D01*
X63896296Y-96694952D01*
X64103374Y-96640073D01*
X64319211Y-96612618D01*
X64439801Y-96608697D01*
X64587610Y-96612407D01*
X64717197Y-96626083D01*
X64843345Y-96652102D01*
X64980835Y-96692837D01*
X64996909Y-96698192D01*
X65061372Y-96718997D01*
X65112517Y-96733889D01*
X65142813Y-96740753D01*
X65147731Y-96740580D01*
X65142229Y-96726327D01*
X65108054Y-96705138D01*
X65049252Y-96678827D01*
X64969868Y-96649207D01*
X64875417Y-96618537D01*
X64690539Y-96568341D01*
X64509508Y-96530830D01*
X64338075Y-96506704D01*
X64181990Y-96496661D01*
X64047003Y-96501402D01*
X63985482Y-96510244D01*
X63941575Y-96516879D01*
X63911131Y-96512360D01*
X63881294Y-96491901D01*
X63847110Y-96458707D01*
X63806901Y-96421958D01*
X63773363Y-96398006D01*
X63759562Y-96392769D01*
X63725089Y-96388344D01*
X63701745Y-96383054D01*
X63678736Y-96382302D01*
X63660653Y-96399269D01*
X63641396Y-96440634D01*
X63635803Y-96455252D01*
X63607929Y-96521328D01*
X63574972Y-96588509D01*
X63564326Y-96607802D01*
X63538408Y-96648609D01*
X63512830Y-96671455D01*
X63475543Y-96683630D01*
X63427068Y-96690856D01*
X63275740Y-96693701D01*
X63121374Y-96666413D01*
X62971080Y-96611173D01*
X62831968Y-96530159D01*
X62784567Y-96493934D01*
X62726162Y-96440493D01*
X62698535Y-96398906D01*
X62859914Y-96398906D01*
X62909024Y-96438263D01*
X62984169Y-96487433D01*
X63072094Y-96527571D01*
X63165792Y-96557310D01*
X63258256Y-96575280D01*
X63342477Y-96580115D01*
X63411448Y-96570444D01*
X63457667Y-96545400D01*
X63487000Y-96504783D01*
X63484221Y-96474238D01*
X63449454Y-96454437D01*
X63440593Y-96452236D01*
X63393966Y-96431500D01*
X63367470Y-96398947D01*
X63366343Y-96362851D01*
X63374870Y-96348414D01*
X63399194Y-96332757D01*
X63440909Y-96330139D01*
X63474471Y-96333716D01*
X63552919Y-96344505D01*
X63573026Y-96257394D01*
X63586884Y-96192599D01*
X63589558Y-96152702D01*
X63578024Y-96129734D01*
X63549261Y-96115725D01*
X63515859Y-96106629D01*
X63468958Y-96092814D01*
X63447284Y-96077791D01*
X63442756Y-96054209D01*
X63443892Y-96041119D01*
X63449262Y-96014348D01*
X63463350Y-96001003D01*
X63495189Y-95996891D01*
X63538101Y-95997397D01*
X63627001Y-95999727D01*
X63629540Y-95908497D01*
X63631275Y-95853188D01*
X63632961Y-95810552D01*
X63633774Y-95796100D01*
X63620312Y-95779613D01*
X63585500Y-95769299D01*
X63584667Y-95769202D01*
X63525113Y-95752762D01*
X63495305Y-95720208D01*
X63491534Y-95697659D01*
X63504671Y-95661596D01*
X63544561Y-95645385D01*
X63582365Y-95645070D01*
X63631832Y-95648840D01*
X63622500Y-95558420D01*
X63610004Y-95482773D01*
X63590603Y-95417079D01*
X63567208Y-95368578D01*
X63542733Y-95344510D01*
X63535884Y-95343134D01*
X63510645Y-95352909D01*
X63483489Y-95384048D01*
X63452971Y-95439266D01*
X63417647Y-95521282D01*
X63376072Y-95632813D01*
X63364797Y-95664867D01*
X63330133Y-95759950D01*
X63292763Y-95855227D01*
X63256919Y-95940321D01*
X63226832Y-96004852D01*
X63223782Y-96010774D01*
X63169448Y-96099935D01*
X63101182Y-96190214D01*
X63026872Y-96272489D01*
X62954407Y-96337641D01*
X62920449Y-96361493D01*
X62859914Y-96398906D01*
X62698535Y-96398906D01*
X62698008Y-96398113D01*
X62700176Y-96362488D01*
X62732736Y-96329313D01*
X62787792Y-96298135D01*
X62848508Y-96264152D01*
X62900075Y-96227620D01*
X62937484Y-96193204D01*
X62955730Y-96165571D01*
X62949805Y-96149386D01*
X62948123Y-96148721D01*
X62927759Y-96142335D01*
X62880164Y-96127689D01*
X62810516Y-96106359D01*
X62723989Y-96079922D01*
X62625760Y-96049953D01*
X62521006Y-96018030D01*
X62414902Y-95985730D01*
X62312624Y-95954629D01*
X62219349Y-95926303D01*
X62140252Y-95902330D01*
X62080510Y-95884285D01*
X62047305Y-95874339D01*
X62026912Y-95872982D01*
X62023580Y-95891886D01*
X62027533Y-95913282D01*
X62040384Y-95953008D01*
X62063695Y-96010037D01*
X62090714Y-96068451D01*
X62119291Y-96134602D01*
X62128632Y-96183096D01*
X62115939Y-96216664D01*
X62078415Y-96238039D01*
X62013261Y-96249953D01*
X61917680Y-96255138D01*
X61899125Y-96255530D01*
X61754218Y-96243691D01*
X61609428Y-96205394D01*
X61474159Y-96144168D01*
X61357815Y-96063540D01*
X61336767Y-96044567D01*
X61303527Y-96010426D01*
X61283823Y-95978987D01*
X61276414Y-95941950D01*
X61280058Y-95891017D01*
X61281247Y-95884552D01*
X61405188Y-95884552D01*
X61409309Y-95928365D01*
X61437127Y-95970426D01*
X61491690Y-96013853D01*
X61576044Y-96061767D01*
X61580412Y-96063988D01*
X61682545Y-96107169D01*
X61784900Y-96130325D01*
X61885474Y-96137299D01*
X61981213Y-96139000D01*
X61948835Y-96053787D01*
X61914727Y-95942169D01*
X61896452Y-95824937D01*
X61894177Y-95697164D01*
X61908071Y-95553925D01*
X61938302Y-95390293D01*
X61976827Y-95232026D01*
X62008813Y-95102071D01*
X62027995Y-95002407D01*
X62034493Y-94932018D01*
X62028428Y-94889892D01*
X62018831Y-94877774D01*
X61988595Y-94877819D01*
X61942566Y-94901346D01*
X61885792Y-94945141D01*
X61832067Y-94996723D01*
X61791879Y-95042837D01*
X61773838Y-95073271D01*
X61776807Y-95084083D01*
X61804692Y-95100004D01*
X61836074Y-95123275D01*
X61861597Y-95150462D01*
X61860983Y-95175050D01*
X61855321Y-95185439D01*
X61840720Y-95202372D01*
X61818306Y-95210440D01*
X61779629Y-95210762D01*
X61716238Y-95204456D01*
X61713833Y-95204172D01*
X61687051Y-95206119D01*
X61663993Y-95223610D01*
X61637682Y-95263134D01*
X61624131Y-95287590D01*
X61576464Y-95375979D01*
X61640766Y-95406256D01*
X61684954Y-95432758D01*
X61703271Y-95461737D01*
X61705067Y-95478733D01*
X61700697Y-95507206D01*
X61680944Y-95518689D01*
X61645800Y-95520328D01*
X61593739Y-95516232D01*
X61550621Y-95507198D01*
X61550008Y-95506987D01*
X61527901Y-95503182D01*
X61511793Y-95514950D01*
X61496061Y-95548836D01*
X61484041Y-95583792D01*
X61466529Y-95636697D01*
X61452909Y-95677198D01*
X61447898Y-95691609D01*
X61458107Y-95707221D01*
X61491733Y-95724417D01*
X61507681Y-95729805D01*
X61556383Y-95751764D01*
X61581658Y-95778959D01*
X61582508Y-95781621D01*
X61582363Y-95825016D01*
X61555712Y-95849147D01*
X61504568Y-95853016D01*
X61457414Y-95843723D01*
X61426065Y-95838995D01*
X61411537Y-95853726D01*
X61405188Y-95884552D01*
X61281247Y-95884552D01*
X61293513Y-95817888D01*
X61298961Y-95791873D01*
X61311337Y-95731869D01*
X61320304Y-95685386D01*
X61324048Y-95661862D01*
X61324067Y-95661293D01*
X61308886Y-95645253D01*
X61270225Y-95632797D01*
X61218410Y-95625452D01*
X61163765Y-95624745D01*
X61120290Y-95631156D01*
X61082546Y-95639874D01*
X61054471Y-95638699D01*
X61025654Y-95623834D01*
X60985685Y-95591485D01*
X60967106Y-95575305D01*
X60847785Y-95485032D01*
X60700236Y-95396811D01*
X60530088Y-95313374D01*
X60342972Y-95237450D01*
X60144521Y-95171768D01*
X60120014Y-95164647D01*
X60027616Y-95141002D01*
X59957255Y-95128906D01*
X59913455Y-95129130D01*
X59912581Y-95129340D01*
X59878520Y-95144326D01*
X59868743Y-95161322D01*
X59630734Y-95161322D01*
X59630734Y-95112235D01*
X59774777Y-95056204D01*
X59836210Y-95033187D01*
X59887390Y-95017930D01*
X59934890Y-95010896D01*
X59985281Y-95012546D01*
X60045136Y-95023343D01*
X60121028Y-95043750D01*
X60219528Y-95074229D01*
X60272595Y-95091230D01*
X60430342Y-95147065D01*
X60584402Y-95211140D01*
X60727637Y-95279987D01*
X60852908Y-95350136D01*
X60953076Y-95418120D01*
X60965391Y-95427833D01*
X61020067Y-95470769D01*
X61058156Y-95495605D01*
X61088807Y-95506252D01*
X61121172Y-95506622D01*
X61143191Y-95503836D01*
X61236867Y-95506267D01*
X61289979Y-95520570D01*
X61341300Y-95535051D01*
X61368713Y-95534068D01*
X61371712Y-95530398D01*
X61381201Y-95508594D01*
X61402107Y-95463819D01*
X61430928Y-95403505D01*
X61451682Y-95360651D01*
X61531874Y-95209407D01*
X61615184Y-95077200D01*
X61699679Y-94965617D01*
X61783425Y-94876240D01*
X61864488Y-94810654D01*
X61940934Y-94770444D01*
X62010829Y-94757194D01*
X62072240Y-94772489D01*
G36*
X55206284Y-65417783D02*
G01*
X55220990Y-65418735D01*
X55241283Y-65420533D01*
X55268168Y-65423279D01*
X55302648Y-65427075D01*
X55345729Y-65432021D01*
X55398415Y-65438220D01*
X55461710Y-65445773D01*
X55536619Y-65454782D01*
X55624147Y-65465347D01*
X55702200Y-65474779D01*
X55811961Y-65488051D01*
X55908391Y-65499750D01*
X55992569Y-65510036D01*
X56065572Y-65519074D01*
X56128481Y-65527024D01*
X56182374Y-65534049D01*
X56228330Y-65540312D01*
X56267427Y-65545974D01*
X56300744Y-65551198D01*
X56329360Y-65556147D01*
X56354355Y-65560982D01*
X56376806Y-65565865D01*
X56397792Y-65570960D01*
X56418393Y-65576428D01*
X56439687Y-65582432D01*
X56462752Y-65589133D01*
X56463078Y-65589228D01*
X56514902Y-65604927D01*
X56553943Y-65618080D01*
X56581604Y-65629222D01*
X56599287Y-65638886D01*
X56604592Y-65643110D01*
X56611174Y-65648592D01*
X56619338Y-65653269D01*
X56630815Y-65657489D01*
X56647335Y-65661598D01*
X56670627Y-65665945D01*
X56702421Y-65670876D01*
X56744448Y-65676740D01*
X56798437Y-65683882D01*
X56824618Y-65687285D01*
X57025379Y-65713304D01*
X57109444Y-65684317D01*
X57193508Y-65655330D01*
X57732369Y-65771878D01*
X57818927Y-65790606D01*
X57901628Y-65808512D01*
X57979335Y-65825349D01*
X58050912Y-65840870D01*
X58115223Y-65854828D01*
X58171131Y-65866977D01*
X58217501Y-65877071D01*
X58253195Y-65884861D01*
X58277079Y-65890102D01*
X58288015Y-65892547D01*
X58288329Y-65892622D01*
X58301608Y-65900832D01*
X58315512Y-65920089D01*
X58326423Y-65941195D01*
X58337242Y-65966339D01*
X58344824Y-65988303D01*
X58347423Y-66001382D01*
X58341084Y-66022054D01*
X58323999Y-66035431D01*
X58301553Y-66039232D01*
X58290570Y-66038293D01*
X58266408Y-66035835D01*
X58230308Y-66031994D01*
X58183509Y-66026906D01*
X58127254Y-66020710D01*
X58062781Y-66013542D01*
X57991333Y-66005539D01*
X57914148Y-65996838D01*
X57832468Y-65987576D01*
X57785000Y-65982169D01*
X57291514Y-65925876D01*
X57161793Y-65863195D01*
X57110747Y-65838994D01*
X57070224Y-65821120D01*
X57037997Y-65808965D01*
X57011838Y-65801921D01*
X56989519Y-65799383D01*
X56968812Y-65800742D01*
X56948603Y-65805092D01*
X56940035Y-65808160D01*
X56938538Y-65812953D01*
X56945166Y-65822301D01*
X56960973Y-65839036D01*
X56961389Y-65839464D01*
X56985484Y-65869564D01*
X57002231Y-65901303D01*
X57010029Y-65930980D01*
X57009056Y-65949596D01*
X57000425Y-65968388D01*
X56986749Y-65986197D01*
X56976570Y-65994915D01*
X56964951Y-66000158D01*
X56948043Y-66002787D01*
X56921997Y-66003663D01*
X56908377Y-66003715D01*
X56856023Y-66000446D01*
X56801619Y-65991422D01*
X56750640Y-65977818D01*
X56708770Y-65960914D01*
X56676809Y-65939779D01*
X56645266Y-65910758D01*
X56618488Y-65878409D01*
X56601093Y-65847962D01*
X56590908Y-65825833D01*
X56583098Y-65816472D01*
X56576108Y-65818676D01*
X56571604Y-65825149D01*
X56564426Y-65834289D01*
X56549453Y-65851251D01*
X56529013Y-65873451D01*
X56509756Y-65893804D01*
X56453711Y-65952340D01*
X56419041Y-65941197D01*
X56406893Y-65937455D01*
X56381924Y-65929898D01*
X56345223Y-65918855D01*
X56297883Y-65904651D01*
X56240992Y-65887611D01*
X56175641Y-65868063D01*
X56102920Y-65846333D01*
X56023921Y-65822747D01*
X55939732Y-65797630D01*
X55851445Y-65771310D01*
X55792914Y-65753871D01*
X55201457Y-65577687D01*
X55188306Y-65538515D01*
X55179462Y-65505483D01*
X55174710Y-65473330D01*
X55174274Y-65445813D01*
X55178377Y-65426689D01*
X55181399Y-65422170D01*
X55183238Y-65420412D01*
X55185642Y-65418992D01*
X55189614Y-65418013D01*
X55196160Y-65417576D01*
X55206284Y-65417783D01*
G37*
X55206284Y-65417783D02*
X55220990Y-65418735D01*
X55241283Y-65420533D01*
X55268168Y-65423279D01*
X55302648Y-65427075D01*
X55345729Y-65432021D01*
X55398415Y-65438220D01*
X55461710Y-65445773D01*
X55536619Y-65454782D01*
X55624147Y-65465347D01*
X55702200Y-65474779D01*
X55811961Y-65488051D01*
X55908391Y-65499750D01*
X55992569Y-65510036D01*
X56065572Y-65519074D01*
X56128481Y-65527024D01*
X56182374Y-65534049D01*
X56228330Y-65540312D01*
X56267427Y-65545974D01*
X56300744Y-65551198D01*
X56329360Y-65556147D01*
X56354355Y-65560982D01*
X56376806Y-65565865D01*
X56397792Y-65570960D01*
X56418393Y-65576428D01*
X56439687Y-65582432D01*
X56462752Y-65589133D01*
X56463078Y-65589228D01*
X56514902Y-65604927D01*
X56553943Y-65618080D01*
X56581604Y-65629222D01*
X56599287Y-65638886D01*
X56604592Y-65643110D01*
X56611174Y-65648592D01*
X56619338Y-65653269D01*
X56630815Y-65657489D01*
X56647335Y-65661598D01*
X56670627Y-65665945D01*
X56702421Y-65670876D01*
X56744448Y-65676740D01*
X56798437Y-65683882D01*
X56824618Y-65687285D01*
X57025379Y-65713304D01*
X57109444Y-65684317D01*
X57193508Y-65655330D01*
X57732369Y-65771878D01*
X57818927Y-65790606D01*
X57901628Y-65808512D01*
X57979335Y-65825349D01*
X58050912Y-65840870D01*
X58115223Y-65854828D01*
X58171131Y-65866977D01*
X58217501Y-65877071D01*
X58253195Y-65884861D01*
X58277079Y-65890102D01*
X58288015Y-65892547D01*
X58288329Y-65892622D01*
X58301608Y-65900832D01*
X58315512Y-65920089D01*
X58326423Y-65941195D01*
X58337242Y-65966339D01*
X58344824Y-65988303D01*
X58347423Y-66001382D01*
X58341084Y-66022054D01*
X58323999Y-66035431D01*
X58301553Y-66039232D01*
X58290570Y-66038293D01*
X58266408Y-66035835D01*
X58230308Y-66031994D01*
X58183509Y-66026906D01*
X58127254Y-66020710D01*
X58062781Y-66013542D01*
X57991333Y-66005539D01*
X57914148Y-65996838D01*
X57832468Y-65987576D01*
X57785000Y-65982169D01*
X57291514Y-65925876D01*
X57161793Y-65863195D01*
X57110747Y-65838994D01*
X57070224Y-65821120D01*
X57037997Y-65808965D01*
X57011838Y-65801921D01*
X56989519Y-65799383D01*
X56968812Y-65800742D01*
X56948603Y-65805092D01*
X56940035Y-65808160D01*
X56938538Y-65812953D01*
X56945166Y-65822301D01*
X56960973Y-65839036D01*
X56961389Y-65839464D01*
X56985484Y-65869564D01*
X57002231Y-65901303D01*
X57010029Y-65930980D01*
X57009056Y-65949596D01*
X57000425Y-65968388D01*
X56986749Y-65986197D01*
X56976570Y-65994915D01*
X56964951Y-66000158D01*
X56948043Y-66002787D01*
X56921997Y-66003663D01*
X56908377Y-66003715D01*
X56856023Y-66000446D01*
X56801619Y-65991422D01*
X56750640Y-65977818D01*
X56708770Y-65960914D01*
X56676809Y-65939779D01*
X56645266Y-65910758D01*
X56618488Y-65878409D01*
X56601093Y-65847962D01*
X56590908Y-65825833D01*
X56583098Y-65816472D01*
X56576108Y-65818676D01*
X56571604Y-65825149D01*
X56564426Y-65834289D01*
X56549453Y-65851251D01*
X56529013Y-65873451D01*
X56509756Y-65893804D01*
X56453711Y-65952340D01*
X56419041Y-65941197D01*
X56406893Y-65937455D01*
X56381924Y-65929898D01*
X56345223Y-65918855D01*
X56297883Y-65904651D01*
X56240992Y-65887611D01*
X56175641Y-65868063D01*
X56102920Y-65846333D01*
X56023921Y-65822747D01*
X55939732Y-65797630D01*
X55851445Y-65771310D01*
X55792914Y-65753871D01*
X55201457Y-65577687D01*
X55188306Y-65538515D01*
X55179462Y-65505483D01*
X55174710Y-65473330D01*
X55174274Y-65445813D01*
X55178377Y-65426689D01*
X55181399Y-65422170D01*
X55183238Y-65420412D01*
X55185642Y-65418992D01*
X55189614Y-65418013D01*
X55196160Y-65417576D01*
X55206284Y-65417783D01*
G36*
X73589744Y-69365586D02*
G01*
X73631714Y-69470826D01*
X73672961Y-69574265D01*
X73713075Y-69674876D01*
X73751646Y-69771631D01*
X73788266Y-69863503D01*
X73822523Y-69949463D01*
X73854010Y-70028484D01*
X73882316Y-70099538D01*
X73907032Y-70161598D01*
X73927748Y-70213635D01*
X73944054Y-70254621D01*
X73955542Y-70283529D01*
X73958454Y-70290872D01*
X73974769Y-70331520D01*
X73989441Y-70367110D01*
X74001595Y-70395598D01*
X74010356Y-70414939D01*
X74014849Y-70423090D01*
X74015091Y-70423222D01*
X74018354Y-70416630D01*
X74026571Y-70397550D01*
X74039335Y-70366983D01*
X74056240Y-70325929D01*
X74076878Y-70275388D01*
X74100843Y-70216361D01*
X74127729Y-70149848D01*
X74157128Y-70076850D01*
X74188634Y-69998366D01*
X74221840Y-69915398D01*
X74238575Y-69873493D01*
X74277364Y-69776331D01*
X74318241Y-69673996D01*
X74360346Y-69568643D01*
X74402816Y-69462426D01*
X74444791Y-69357496D01*
X74485408Y-69256009D01*
X74523806Y-69160118D01*
X74559123Y-69071975D01*
X74590499Y-68993735D01*
X74608690Y-68948415D01*
X74759457Y-68572972D01*
X75192468Y-68572858D01*
X75625480Y-68572743D01*
X75579998Y-68679786D01*
X75574206Y-68693416D01*
X75568646Y-68706501D01*
X75563085Y-68719582D01*
X75557294Y-68733199D01*
X75551042Y-68747892D01*
X75544098Y-68764204D01*
X75536231Y-68782674D01*
X75527212Y-68803843D01*
X75516808Y-68828252D01*
X75504790Y-68856442D01*
X75490927Y-68888954D01*
X75474988Y-68926328D01*
X75456743Y-68969104D01*
X75435960Y-69017825D01*
X75412409Y-69073030D01*
X75385861Y-69135260D01*
X75356082Y-69205057D01*
X75322845Y-69282960D01*
X75285916Y-69369511D01*
X75245067Y-69465250D01*
X75200065Y-69570718D01*
X75150681Y-69686456D01*
X75096684Y-69813004D01*
X75037844Y-69950904D01*
X74973928Y-70100696D01*
X74904708Y-70262921D01*
X74853300Y-70383400D01*
X74799162Y-70510257D01*
X74746472Y-70633680D01*
X74695520Y-70752992D01*
X74646595Y-70867519D01*
X74599985Y-70976584D01*
X74555982Y-71079511D01*
X74514872Y-71175624D01*
X74476947Y-71264249D01*
X74442495Y-71344708D01*
X74411805Y-71416326D01*
X74385167Y-71478428D01*
X74362870Y-71530336D01*
X74345204Y-71571377D01*
X74332457Y-71600873D01*
X74324918Y-71618148D01*
X74322922Y-71622558D01*
X74312770Y-71642515D01*
X73698073Y-71642515D01*
X73683357Y-71608043D01*
X73678889Y-71597470D01*
X73669123Y-71574279D01*
X73654380Y-71539236D01*
X73634981Y-71493104D01*
X73611249Y-71436649D01*
X73583503Y-71370635D01*
X73552066Y-71295827D01*
X73517259Y-71212989D01*
X73479402Y-71122887D01*
X73438819Y-71026285D01*
X73395829Y-70923947D01*
X73350754Y-70816639D01*
X73303915Y-70705125D01*
X73255635Y-70590170D01*
X73246516Y-70568458D01*
X73193963Y-70443325D01*
X73140272Y-70315485D01*
X73085987Y-70186230D01*
X73031651Y-70056854D01*
X72977806Y-69928649D01*
X72924996Y-69802908D01*
X72873763Y-69680924D01*
X72824651Y-69563990D01*
X72778202Y-69453398D01*
X72734960Y-69350442D01*
X72695467Y-69256414D01*
X72660266Y-69172606D01*
X72629901Y-69100313D01*
X72618081Y-69072173D01*
X72584558Y-68992308D01*
X72552726Y-68916365D01*
X72523026Y-68845402D01*
X72495897Y-68780475D01*
X72471780Y-68722641D01*
X72451115Y-68672957D01*
X72434342Y-68632480D01*
X72421902Y-68602266D01*
X72414234Y-68583372D01*
X72411772Y-68576873D01*
X72418818Y-68576129D01*
X72439119Y-68575429D01*
X72471412Y-68574783D01*
X72514436Y-68574205D01*
X72566931Y-68573706D01*
X72627635Y-68573298D01*
X72695288Y-68572993D01*
X72768629Y-68572805D01*
X72842652Y-68572743D01*
X73273533Y-68572743D01*
X73589744Y-69365586D01*
G37*
X73589744Y-69365586D02*
X73631714Y-69470826D01*
X73672961Y-69574265D01*
X73713075Y-69674876D01*
X73751646Y-69771631D01*
X73788266Y-69863503D01*
X73822523Y-69949463D01*
X73854010Y-70028484D01*
X73882316Y-70099538D01*
X73907032Y-70161598D01*
X73927748Y-70213635D01*
X73944054Y-70254621D01*
X73955542Y-70283529D01*
X73958454Y-70290872D01*
X73974769Y-70331520D01*
X73989441Y-70367110D01*
X74001595Y-70395598D01*
X74010356Y-70414939D01*
X74014849Y-70423090D01*
X74015091Y-70423222D01*
X74018354Y-70416630D01*
X74026571Y-70397550D01*
X74039335Y-70366983D01*
X74056240Y-70325929D01*
X74076878Y-70275388D01*
X74100843Y-70216361D01*
X74127729Y-70149848D01*
X74157128Y-70076850D01*
X74188634Y-69998366D01*
X74221840Y-69915398D01*
X74238575Y-69873493D01*
X74277364Y-69776331D01*
X74318241Y-69673996D01*
X74360346Y-69568643D01*
X74402816Y-69462426D01*
X74444791Y-69357496D01*
X74485408Y-69256009D01*
X74523806Y-69160118D01*
X74559123Y-69071975D01*
X74590499Y-68993735D01*
X74608690Y-68948415D01*
X74759457Y-68572972D01*
X75192468Y-68572858D01*
X75625480Y-68572743D01*
X75579998Y-68679786D01*
X75574206Y-68693416D01*
X75568646Y-68706501D01*
X75563085Y-68719582D01*
X75557294Y-68733199D01*
X75551042Y-68747892D01*
X75544098Y-68764204D01*
X75536231Y-68782674D01*
X75527212Y-68803843D01*
X75516808Y-68828252D01*
X75504790Y-68856442D01*
X75490927Y-68888954D01*
X75474988Y-68926328D01*
X75456743Y-68969104D01*
X75435960Y-69017825D01*
X75412409Y-69073030D01*
X75385861Y-69135260D01*
X75356082Y-69205057D01*
X75322845Y-69282960D01*
X75285916Y-69369511D01*
X75245067Y-69465250D01*
X75200065Y-69570718D01*
X75150681Y-69686456D01*
X75096684Y-69813004D01*
X75037844Y-69950904D01*
X74973928Y-70100696D01*
X74904708Y-70262921D01*
X74853300Y-70383400D01*
X74799162Y-70510257D01*
X74746472Y-70633680D01*
X74695520Y-70752992D01*
X74646595Y-70867519D01*
X74599985Y-70976584D01*
X74555982Y-71079511D01*
X74514872Y-71175624D01*
X74476947Y-71264249D01*
X74442495Y-71344708D01*
X74411805Y-71416326D01*
X74385167Y-71478428D01*
X74362870Y-71530336D01*
X74345204Y-71571377D01*
X74332457Y-71600873D01*
X74324918Y-71618148D01*
X74322922Y-71622558D01*
X74312770Y-71642515D01*
X73698073Y-71642515D01*
X73683357Y-71608043D01*
X73678889Y-71597470D01*
X73669123Y-71574279D01*
X73654380Y-71539236D01*
X73634981Y-71493104D01*
X73611249Y-71436649D01*
X73583503Y-71370635D01*
X73552066Y-71295827D01*
X73517259Y-71212989D01*
X73479402Y-71122887D01*
X73438819Y-71026285D01*
X73395829Y-70923947D01*
X73350754Y-70816639D01*
X73303915Y-70705125D01*
X73255635Y-70590170D01*
X73246516Y-70568458D01*
X73193963Y-70443325D01*
X73140272Y-70315485D01*
X73085987Y-70186230D01*
X73031651Y-70056854D01*
X72977806Y-69928649D01*
X72924996Y-69802908D01*
X72873763Y-69680924D01*
X72824651Y-69563990D01*
X72778202Y-69453398D01*
X72734960Y-69350442D01*
X72695467Y-69256414D01*
X72660266Y-69172606D01*
X72629901Y-69100313D01*
X72618081Y-69072173D01*
X72584558Y-68992308D01*
X72552726Y-68916365D01*
X72523026Y-68845402D01*
X72495897Y-68780475D01*
X72471780Y-68722641D01*
X72451115Y-68672957D01*
X72434342Y-68632480D01*
X72421902Y-68602266D01*
X72414234Y-68583372D01*
X72411772Y-68576873D01*
X72418818Y-68576129D01*
X72439119Y-68575429D01*
X72471412Y-68574783D01*
X72514436Y-68574205D01*
X72566931Y-68573706D01*
X72627635Y-68573298D01*
X72695288Y-68572993D01*
X72768629Y-68572805D01*
X72842652Y-68572743D01*
X73273533Y-68572743D01*
X73589744Y-69365586D01*
G36*
X71970654Y-69104329D02*
G01*
X72059133Y-69338800D01*
X72142593Y-69559977D01*
X72221142Y-69768146D01*
X72294888Y-69963593D01*
X72363937Y-70146602D01*
X72428399Y-70317460D01*
X72488380Y-70476451D01*
X72543988Y-70623861D01*
X72595330Y-70759976D01*
X72642515Y-70885080D01*
X72685650Y-70999460D01*
X72724842Y-71103400D01*
X72760199Y-71197187D01*
X72791829Y-71281104D01*
X72819839Y-71355439D01*
X72844337Y-71420476D01*
X72865431Y-71476501D01*
X72883228Y-71523799D01*
X72897835Y-71562656D01*
X72909361Y-71593356D01*
X72917913Y-71616186D01*
X72923599Y-71631431D01*
X72926525Y-71639376D01*
X72927002Y-71640758D01*
X72919961Y-71641066D01*
X72899674Y-71641296D01*
X72867407Y-71641448D01*
X72824429Y-71641523D01*
X72772006Y-71641519D01*
X72711407Y-71641437D01*
X72643898Y-71641278D01*
X72570748Y-71641041D01*
X72500672Y-71640758D01*
X72074314Y-71638886D01*
X71975237Y-71374000D01*
X71876161Y-71109115D01*
X70777195Y-71109115D01*
X70671012Y-71374000D01*
X70564829Y-71638886D01*
X70141592Y-71640759D01*
X69718356Y-71642632D01*
X69723503Y-71626245D01*
X69726806Y-71617242D01*
X69735051Y-71595422D01*
X69747959Y-71561511D01*
X69765250Y-71516235D01*
X69786647Y-71460319D01*
X69811869Y-71394489D01*
X69840638Y-71319470D01*
X69872675Y-71235989D01*
X69907700Y-71144771D01*
X69945434Y-71046542D01*
X69985599Y-70942028D01*
X70027915Y-70831953D01*
X70072104Y-70717045D01*
X70117885Y-70598029D01*
X70157187Y-70495886D01*
X70997491Y-70495886D01*
X71328036Y-70495886D01*
X71406478Y-70495843D01*
X71471590Y-70495686D01*
X71524554Y-70495377D01*
X71566553Y-70494875D01*
X71598772Y-70494141D01*
X71622393Y-70493135D01*
X71638599Y-70491816D01*
X71648574Y-70490146D01*
X71653502Y-70488085D01*
X71654564Y-70485593D01*
X71654374Y-70484922D01*
X71651441Y-70476342D01*
X71644338Y-70455124D01*
X71633444Y-70422415D01*
X71619140Y-70379359D01*
X71601805Y-70327102D01*
X71581819Y-70266790D01*
X71559562Y-70199567D01*
X71535413Y-70126580D01*
X71509754Y-70048973D01*
X71493138Y-69998693D01*
X71466761Y-69919110D01*
X71441608Y-69843705D01*
X71418060Y-69773588D01*
X71396498Y-69709874D01*
X71377304Y-69653673D01*
X71360859Y-69606098D01*
X71347544Y-69568262D01*
X71337740Y-69541276D01*
X71331828Y-69526253D01*
X71330257Y-69523429D01*
X71326218Y-69529975D01*
X71318555Y-69548164D01*
X71308090Y-69575824D01*
X71295647Y-69610782D01*
X71282799Y-69648615D01*
X71272096Y-69680704D01*
X71257396Y-69724614D01*
X71239346Y-69778417D01*
X71218596Y-69840182D01*
X71195792Y-69907981D01*
X71171585Y-69979884D01*
X71146623Y-70053961D01*
X71121554Y-70128285D01*
X71119341Y-70134843D01*
X70997491Y-70495886D01*
X70157187Y-70495886D01*
X70164981Y-70475631D01*
X70213111Y-70350575D01*
X70261998Y-70223589D01*
X70311361Y-70095398D01*
X70360922Y-69966726D01*
X70410402Y-69838302D01*
X70459521Y-69710849D01*
X70508001Y-69585093D01*
X70555562Y-69461761D01*
X70601926Y-69341579D01*
X70638861Y-69245871D01*
X70898657Y-68572799D01*
X71770055Y-68572743D01*
X71970654Y-69104329D01*
G37*
X71970654Y-69104329D02*
X72059133Y-69338800D01*
X72142593Y-69559977D01*
X72221142Y-69768146D01*
X72294888Y-69963593D01*
X72363937Y-70146602D01*
X72428399Y-70317460D01*
X72488380Y-70476451D01*
X72543988Y-70623861D01*
X72595330Y-70759976D01*
X72642515Y-70885080D01*
X72685650Y-70999460D01*
X72724842Y-71103400D01*
X72760199Y-71197187D01*
X72791829Y-71281104D01*
X72819839Y-71355439D01*
X72844337Y-71420476D01*
X72865431Y-71476501D01*
X72883228Y-71523799D01*
X72897835Y-71562656D01*
X72909361Y-71593356D01*
X72917913Y-71616186D01*
X72923599Y-71631431D01*
X72926525Y-71639376D01*
X72927002Y-71640758D01*
X72919961Y-71641066D01*
X72899674Y-71641296D01*
X72867407Y-71641448D01*
X72824429Y-71641523D01*
X72772006Y-71641519D01*
X72711407Y-71641437D01*
X72643898Y-71641278D01*
X72570748Y-71641041D01*
X72500672Y-71640758D01*
X72074314Y-71638886D01*
X71975237Y-71374000D01*
X71876161Y-71109115D01*
X70777195Y-71109115D01*
X70671012Y-71374000D01*
X70564829Y-71638886D01*
X70141592Y-71640759D01*
X69718356Y-71642632D01*
X69723503Y-71626245D01*
X69726806Y-71617242D01*
X69735051Y-71595422D01*
X69747959Y-71561511D01*
X69765250Y-71516235D01*
X69786647Y-71460319D01*
X69811869Y-71394489D01*
X69840638Y-71319470D01*
X69872675Y-71235989D01*
X69907700Y-71144771D01*
X69945434Y-71046542D01*
X69985599Y-70942028D01*
X70027915Y-70831953D01*
X70072104Y-70717045D01*
X70117885Y-70598029D01*
X70157187Y-70495886D01*
X70997491Y-70495886D01*
X71328036Y-70495886D01*
X71406478Y-70495843D01*
X71471590Y-70495686D01*
X71524554Y-70495377D01*
X71566553Y-70494875D01*
X71598772Y-70494141D01*
X71622393Y-70493135D01*
X71638599Y-70491816D01*
X71648574Y-70490146D01*
X71653502Y-70488085D01*
X71654564Y-70485593D01*
X71654374Y-70484922D01*
X71651441Y-70476342D01*
X71644338Y-70455124D01*
X71633444Y-70422415D01*
X71619140Y-70379359D01*
X71601805Y-70327102D01*
X71581819Y-70266790D01*
X71559562Y-70199567D01*
X71535413Y-70126580D01*
X71509754Y-70048973D01*
X71493138Y-69998693D01*
X71466761Y-69919110D01*
X71441608Y-69843705D01*
X71418060Y-69773588D01*
X71396498Y-69709874D01*
X71377304Y-69653673D01*
X71360859Y-69606098D01*
X71347544Y-69568262D01*
X71337740Y-69541276D01*
X71331828Y-69526253D01*
X71330257Y-69523429D01*
X71326218Y-69529975D01*
X71318555Y-69548164D01*
X71308090Y-69575824D01*
X71295647Y-69610782D01*
X71282799Y-69648615D01*
X71272096Y-69680704D01*
X71257396Y-69724614D01*
X71239346Y-69778417D01*
X71218596Y-69840182D01*
X71195792Y-69907981D01*
X71171585Y-69979884D01*
X71146623Y-70053961D01*
X71121554Y-70128285D01*
X71119341Y-70134843D01*
X70997491Y-70495886D01*
X70157187Y-70495886D01*
X70164981Y-70475631D01*
X70213111Y-70350575D01*
X70261998Y-70223589D01*
X70311361Y-70095398D01*
X70360922Y-69966726D01*
X70410402Y-69838302D01*
X70459521Y-69710849D01*
X70508001Y-69585093D01*
X70555562Y-69461761D01*
X70601926Y-69341579D01*
X70638861Y-69245871D01*
X70898657Y-68572799D01*
X71770055Y-68572743D01*
X71970654Y-69104329D01*
G36*
X67614860Y-69467186D02*
G01*
X67614930Y-69605000D01*
X67615119Y-69734182D01*
X67615424Y-69854179D01*
X67615839Y-69964439D01*
X67616360Y-70064409D01*
X67616983Y-70153537D01*
X67617704Y-70231271D01*
X67618519Y-70297059D01*
X67619423Y-70350347D01*
X67620413Y-70390583D01*
X67621483Y-70417216D01*
X67622217Y-70426943D01*
X67631899Y-70496924D01*
X67645147Y-70568054D01*
X67661245Y-70637780D01*
X67679477Y-70703546D01*
X67699128Y-70762800D01*
X67719481Y-70812987D01*
X67739821Y-70851553D01*
X67742303Y-70855394D01*
X67784696Y-70906259D01*
X67838337Y-70948046D01*
X67903260Y-70980769D01*
X67979495Y-71004446D01*
X68061798Y-71018503D01*
X68127319Y-71022508D01*
X68196322Y-71020535D01*
X68263785Y-71013025D01*
X68324682Y-71000420D01*
X68348249Y-70993324D01*
X68420219Y-70962033D01*
X68484129Y-70920113D01*
X68538639Y-70868814D01*
X68582407Y-70809386D01*
X68612605Y-70747094D01*
X68623408Y-70717374D01*
X68633243Y-70687753D01*
X68642154Y-70657456D01*
X68650187Y-70625707D01*
X68657386Y-70591733D01*
X68663797Y-70554759D01*
X68669465Y-70514009D01*
X68674433Y-70468710D01*
X68678749Y-70418087D01*
X68682455Y-70361365D01*
X68685598Y-70297769D01*
X68688221Y-70226524D01*
X68690371Y-70146857D01*
X68692092Y-70057992D01*
X68693429Y-69959155D01*
X68694427Y-69849571D01*
X68695131Y-69728465D01*
X68695586Y-69595064D01*
X68695836Y-69448591D01*
X68695923Y-69311158D01*
X68696114Y-68572743D01*
X69495284Y-68572743D01*
X69492308Y-69565158D01*
X69491865Y-69710329D01*
X69491433Y-69841813D01*
X69490987Y-69960436D01*
X69490502Y-70067025D01*
X69489954Y-70162407D01*
X69489317Y-70247408D01*
X69488567Y-70322855D01*
X69487680Y-70389574D01*
X69486631Y-70448394D01*
X69485394Y-70500139D01*
X69483946Y-70545637D01*
X69482261Y-70585715D01*
X69480315Y-70621199D01*
X69478083Y-70652916D01*
X69475541Y-70681693D01*
X69472663Y-70708356D01*
X69469424Y-70733732D01*
X69465801Y-70758649D01*
X69461769Y-70783931D01*
X69457302Y-70810407D01*
X69454597Y-70826086D01*
X69436206Y-70918767D01*
X69414646Y-71000186D01*
X69388731Y-71073460D01*
X69357276Y-71141705D01*
X69319097Y-71208038D01*
X69296039Y-71243033D01*
X69266680Y-71281658D01*
X69228799Y-71325283D01*
X69185737Y-71370539D01*
X69140831Y-71414056D01*
X69097419Y-71452465D01*
X69058972Y-71482305D01*
X68968979Y-71538157D01*
X68867077Y-71588131D01*
X68754878Y-71631615D01*
X68633999Y-71667996D01*
X68506054Y-71696662D01*
X68482029Y-71701020D01*
X68437614Y-71707115D01*
X68381902Y-71712146D01*
X68318079Y-71716021D01*
X68249330Y-71718645D01*
X68178839Y-71719926D01*
X68109791Y-71719769D01*
X68045373Y-71718080D01*
X67995800Y-71715310D01*
X67874018Y-71702342D01*
X67753246Y-71681868D01*
X67636509Y-71654617D01*
X67526829Y-71621320D01*
X67427231Y-71582706D01*
X67405280Y-71572782D01*
X67305441Y-71518607D01*
X67212627Y-71452974D01*
X67127863Y-71377191D01*
X67052169Y-71292561D01*
X66986571Y-71200392D01*
X66932092Y-71101988D01*
X66889754Y-70998655D01*
X66860581Y-70891698D01*
X66857006Y-70873258D01*
X66852195Y-70846606D01*
X66847835Y-70821429D01*
X66843900Y-70796917D01*
X66840368Y-70772261D01*
X66837213Y-70746654D01*
X66834411Y-70719287D01*
X66831939Y-70689350D01*
X66829772Y-70656035D01*
X66827887Y-70618534D01*
X66826258Y-70576038D01*
X66824862Y-70527738D01*
X66823674Y-70472826D01*
X66822671Y-70410493D01*
X66821828Y-70339930D01*
X66821122Y-70260329D01*
X66820527Y-70170881D01*
X66820021Y-70070778D01*
X66819578Y-69959210D01*
X66819174Y-69835370D01*
X66818786Y-69698448D01*
X66818482Y-69583300D01*
X66815855Y-68572743D01*
X67614800Y-68572743D01*
X67614860Y-69467186D01*
G37*
X67614860Y-69467186D02*
X67614930Y-69605000D01*
X67615119Y-69734182D01*
X67615424Y-69854179D01*
X67615839Y-69964439D01*
X67616360Y-70064409D01*
X67616983Y-70153537D01*
X67617704Y-70231271D01*
X67618519Y-70297059D01*
X67619423Y-70350347D01*
X67620413Y-70390583D01*
X67621483Y-70417216D01*
X67622217Y-70426943D01*
X67631899Y-70496924D01*
X67645147Y-70568054D01*
X67661245Y-70637780D01*
X67679477Y-70703546D01*
X67699128Y-70762800D01*
X67719481Y-70812987D01*
X67739821Y-70851553D01*
X67742303Y-70855394D01*
X67784696Y-70906259D01*
X67838337Y-70948046D01*
X67903260Y-70980769D01*
X67979495Y-71004446D01*
X68061798Y-71018503D01*
X68127319Y-71022508D01*
X68196322Y-71020535D01*
X68263785Y-71013025D01*
X68324682Y-71000420D01*
X68348249Y-70993324D01*
X68420219Y-70962033D01*
X68484129Y-70920113D01*
X68538639Y-70868814D01*
X68582407Y-70809386D01*
X68612605Y-70747094D01*
X68623408Y-70717374D01*
X68633243Y-70687753D01*
X68642154Y-70657456D01*
X68650187Y-70625707D01*
X68657386Y-70591733D01*
X68663797Y-70554759D01*
X68669465Y-70514009D01*
X68674433Y-70468710D01*
X68678749Y-70418087D01*
X68682455Y-70361365D01*
X68685598Y-70297769D01*
X68688221Y-70226524D01*
X68690371Y-70146857D01*
X68692092Y-70057992D01*
X68693429Y-69959155D01*
X68694427Y-69849571D01*
X68695131Y-69728465D01*
X68695586Y-69595064D01*
X68695836Y-69448591D01*
X68695923Y-69311158D01*
X68696114Y-68572743D01*
X69495284Y-68572743D01*
X69492308Y-69565158D01*
X69491865Y-69710329D01*
X69491433Y-69841813D01*
X69490987Y-69960436D01*
X69490502Y-70067025D01*
X69489954Y-70162407D01*
X69489317Y-70247408D01*
X69488567Y-70322855D01*
X69487680Y-70389574D01*
X69486631Y-70448394D01*
X69485394Y-70500139D01*
X69483946Y-70545637D01*
X69482261Y-70585715D01*
X69480315Y-70621199D01*
X69478083Y-70652916D01*
X69475541Y-70681693D01*
X69472663Y-70708356D01*
X69469424Y-70733732D01*
X69465801Y-70758649D01*
X69461769Y-70783931D01*
X69457302Y-70810407D01*
X69454597Y-70826086D01*
X69436206Y-70918767D01*
X69414646Y-71000186D01*
X69388731Y-71073460D01*
X69357276Y-71141705D01*
X69319097Y-71208038D01*
X69296039Y-71243033D01*
X69266680Y-71281658D01*
X69228799Y-71325283D01*
X69185737Y-71370539D01*
X69140831Y-71414056D01*
X69097419Y-71452465D01*
X69058972Y-71482305D01*
X68968979Y-71538157D01*
X68867077Y-71588131D01*
X68754878Y-71631615D01*
X68633999Y-71667996D01*
X68506054Y-71696662D01*
X68482029Y-71701020D01*
X68437614Y-71707115D01*
X68381902Y-71712146D01*
X68318079Y-71716021D01*
X68249330Y-71718645D01*
X68178839Y-71719926D01*
X68109791Y-71719769D01*
X68045373Y-71718080D01*
X67995800Y-71715310D01*
X67874018Y-71702342D01*
X67753246Y-71681868D01*
X67636509Y-71654617D01*
X67526829Y-71621320D01*
X67427231Y-71582706D01*
X67405280Y-71572782D01*
X67305441Y-71518607D01*
X67212627Y-71452974D01*
X67127863Y-71377191D01*
X67052169Y-71292561D01*
X66986571Y-71200392D01*
X66932092Y-71101988D01*
X66889754Y-70998655D01*
X66860581Y-70891698D01*
X66857006Y-70873258D01*
X66852195Y-70846606D01*
X66847835Y-70821429D01*
X66843900Y-70796917D01*
X66840368Y-70772261D01*
X66837213Y-70746654D01*
X66834411Y-70719287D01*
X66831939Y-70689350D01*
X66829772Y-70656035D01*
X66827887Y-70618534D01*
X66826258Y-70576038D01*
X66824862Y-70527738D01*
X66823674Y-70472826D01*
X66822671Y-70410493D01*
X66821828Y-70339930D01*
X66821122Y-70260329D01*
X66820527Y-70170881D01*
X66820021Y-70070778D01*
X66819578Y-69959210D01*
X66819174Y-69835370D01*
X66818786Y-69698448D01*
X66818482Y-69583300D01*
X66815855Y-68572743D01*
X67614800Y-68572743D01*
X67614860Y-69467186D01*
G36*
X54361445Y-64682143D02*
G01*
X54362411Y-64682316D01*
X54410429Y-64690952D01*
X54674144Y-65250284D01*
X54937858Y-65809616D01*
X54926329Y-65910375D01*
X54922079Y-65949186D01*
X54918535Y-65984727D01*
X54916018Y-66013550D01*
X54914846Y-66032207D01*
X54914800Y-66034703D01*
X54917542Y-66047565D01*
X54925363Y-66072137D01*
X54937656Y-66106774D01*
X54953816Y-66149832D01*
X54973236Y-66199667D01*
X54995310Y-66254633D01*
X55001287Y-66269264D01*
X55028020Y-66333961D01*
X55050725Y-66387515D01*
X55070558Y-66432342D01*
X55088678Y-66470858D01*
X55106239Y-66505476D01*
X55124400Y-66538611D01*
X55144317Y-66572678D01*
X55155501Y-66591152D01*
X55223229Y-66702048D01*
X56061429Y-67082374D01*
X56166349Y-67129990D01*
X56268075Y-67176176D01*
X56365773Y-67220551D01*
X56458609Y-67262737D01*
X56545749Y-67302353D01*
X56626358Y-67339020D01*
X56699603Y-67372357D01*
X56764649Y-67401986D01*
X56820662Y-67427527D01*
X56866808Y-67448600D01*
X56902252Y-67464825D01*
X56926161Y-67475823D01*
X56937701Y-67481214D01*
X56937791Y-67481257D01*
X56980241Y-67504945D01*
X57016146Y-67532528D01*
X57048638Y-67567013D01*
X57080846Y-67611405D01*
X57092682Y-67629918D01*
X57111012Y-67659301D01*
X57126639Y-67684271D01*
X57137911Y-67702194D01*
X57143176Y-67710437D01*
X57143184Y-67710449D01*
X57151606Y-67713787D01*
X57171365Y-67718290D01*
X57199394Y-67723336D01*
X57228441Y-67727729D01*
X57309627Y-67739016D01*
X57327307Y-67718637D01*
X57338473Y-67703762D01*
X57340227Y-67693047D01*
X57335774Y-67683743D01*
X57238371Y-67530356D01*
X57148428Y-67388846D01*
X57065679Y-67258804D01*
X56989857Y-67139821D01*
X56920697Y-67031486D01*
X56857932Y-66933391D01*
X56801296Y-66845125D01*
X56750523Y-66766280D01*
X56705346Y-66696446D01*
X56665499Y-66635213D01*
X56630716Y-66582172D01*
X56600731Y-66536913D01*
X56575277Y-66499027D01*
X56554088Y-66468104D01*
X56536898Y-66443736D01*
X56523441Y-66425511D01*
X56513450Y-66413022D01*
X56506659Y-66405858D01*
X56503535Y-66403743D01*
X56478283Y-66391852D01*
X56446924Y-66372602D01*
X56413638Y-66348871D01*
X56382608Y-66323538D01*
X56369713Y-66311626D01*
X56332373Y-66269032D01*
X56299137Y-66219280D01*
X56273490Y-66167946D01*
X56264563Y-66143308D01*
X56250198Y-66096798D01*
X56305797Y-66030299D01*
X56328402Y-66003330D01*
X56348233Y-65979796D01*
X56363075Y-65962316D01*
X56370519Y-65953724D01*
X56376740Y-65949797D01*
X56381853Y-65955694D01*
X56387598Y-65973569D01*
X56388115Y-65975496D01*
X56411257Y-66035639D01*
X56446764Y-66092189D01*
X56492526Y-66142659D01*
X56546438Y-66184566D01*
X56582825Y-66205057D01*
X56606389Y-66216238D01*
X56625459Y-66223913D01*
X56643860Y-66228845D01*
X56665421Y-66231798D01*
X56693968Y-66233535D01*
X56731776Y-66234775D01*
X56770378Y-66236063D01*
X56796861Y-66237597D01*
X56813616Y-66239784D01*
X56823039Y-66243028D01*
X56827522Y-66247735D01*
X56828780Y-66251209D01*
X56838425Y-66262614D01*
X56851879Y-66264972D01*
X56874018Y-66269315D01*
X56901990Y-66280624D01*
X56930694Y-66296315D01*
X56955032Y-66313805D01*
X56962815Y-66321162D01*
X56969449Y-66330013D01*
X56983456Y-66350132D01*
X57004253Y-66380646D01*
X57031258Y-66420682D01*
X57063891Y-66469369D01*
X57101568Y-66525834D01*
X57143707Y-66589203D01*
X57189728Y-66658605D01*
X57239048Y-66733167D01*
X57291084Y-66812015D01*
X57345256Y-66894279D01*
X57360930Y-66918115D01*
X57415242Y-67000721D01*
X57467288Y-67079862D01*
X57516515Y-67154699D01*
X57562372Y-67224393D01*
X57604304Y-67288105D01*
X57641761Y-67344995D01*
X57674189Y-67394225D01*
X57701036Y-67434954D01*
X57721749Y-67466344D01*
X57735776Y-67487555D01*
X57742563Y-67497749D01*
X57743118Y-67498550D01*
X57750622Y-67497673D01*
X57765253Y-67490968D01*
X57767914Y-67489478D01*
X57784894Y-67480941D01*
X57796972Y-67476954D01*
X57797660Y-67476915D01*
X57806240Y-67480221D01*
X57825432Y-67489426D01*
X57853118Y-67503453D01*
X57887179Y-67521229D01*
X57925498Y-67541681D01*
X57927401Y-67542707D01*
X58049286Y-67608500D01*
X58185657Y-67484197D01*
X58322029Y-67359895D01*
X58362559Y-67362538D01*
X58412545Y-67372710D01*
X58462581Y-67396038D01*
X58510309Y-67431368D01*
X58518638Y-67439071D01*
X58555590Y-67474399D01*
X58620238Y-67446397D01*
X58652655Y-67432183D01*
X58684006Y-67418141D01*
X58709203Y-67406561D01*
X58716620Y-67403033D01*
X58749799Y-67390778D01*
X58777880Y-67390194D01*
X58804932Y-67401703D01*
X58821449Y-67413832D01*
X58905697Y-67483123D01*
X58979405Y-67543900D01*
X59043274Y-67596827D01*
X59098007Y-67642569D01*
X59144306Y-67681790D01*
X59182875Y-67715154D01*
X59214416Y-67743327D01*
X59239632Y-67766971D01*
X59259225Y-67786752D01*
X59273898Y-67803335D01*
X59284353Y-67817382D01*
X59291293Y-67829560D01*
X59295421Y-67840531D01*
X59297440Y-67850961D01*
X59298051Y-67861513D01*
X59298066Y-67864499D01*
X59296824Y-67880601D01*
X59293491Y-67907090D01*
X59288601Y-67940074D01*
X59283600Y-67970400D01*
X59277923Y-68003655D01*
X59273290Y-68031546D01*
X59270196Y-68051036D01*
X59269134Y-68058991D01*
X59274416Y-68065506D01*
X59288585Y-68078586D01*
X59309056Y-68095902D01*
X59319584Y-68104417D01*
X59346063Y-68127300D01*
X59370931Y-68151800D01*
X59389649Y-68173376D01*
X59392645Y-68177502D01*
X59404242Y-68194800D01*
X59412574Y-68209869D01*
X59417189Y-68224500D01*
X59417638Y-68240481D01*
X59413468Y-68259605D01*
X59404229Y-68283661D01*
X59389470Y-68314438D01*
X59368739Y-68353728D01*
X59341586Y-68403321D01*
X59330839Y-68422797D01*
X59302793Y-68473855D01*
X59281261Y-68513786D01*
X59265560Y-68544069D01*
X59255007Y-68566182D01*
X59248921Y-68581604D01*
X59246618Y-68591812D01*
X59247417Y-68598285D01*
X59248771Y-68600588D01*
X59256459Y-68610015D01*
X59271715Y-68628409D01*
X59292759Y-68653635D01*
X59317810Y-68683556D01*
X59336761Y-68706133D01*
X59365945Y-68741185D01*
X59386757Y-68767188D01*
X59400408Y-68785995D01*
X59408110Y-68799460D01*
X59411072Y-68809434D01*
X59410506Y-68817771D01*
X59410291Y-68818628D01*
X59406098Y-68836944D01*
X59404302Y-68848171D01*
X59409350Y-68852347D01*
X59425058Y-68860859D01*
X59451705Y-68873832D01*
X59489575Y-68891393D01*
X59538949Y-68913666D01*
X59600110Y-68940777D01*
X59673339Y-68972850D01*
X59758919Y-69010012D01*
X59857132Y-69052387D01*
X59968260Y-69100100D01*
X60060114Y-69139406D01*
X60152881Y-69179098D01*
X60242027Y-69217331D01*
X60326627Y-69253702D01*
X60405752Y-69287808D01*
X60478475Y-69319246D01*
X60543868Y-69347614D01*
X60601005Y-69372508D01*
X60648957Y-69393527D01*
X60686797Y-69410267D01*
X60713599Y-69422326D01*
X60728433Y-69429301D01*
X60731064Y-69430750D01*
X60741626Y-69445156D01*
X60746293Y-69469634D01*
X60746577Y-69474940D01*
X60749484Y-69498820D01*
X60757857Y-69515210D01*
X60769744Y-69526850D01*
X60780882Y-69537479D01*
X60787964Y-69549096D01*
X60792404Y-69565723D01*
X60795616Y-69591377D01*
X60796746Y-69603618D01*
X60800359Y-69635590D01*
X60805733Y-69658955D01*
X60814830Y-69679619D01*
X60829610Y-69703488D01*
X60830194Y-69704363D01*
X60855704Y-69737655D01*
X60888790Y-69773867D01*
X60925541Y-69809231D01*
X60962043Y-69839979D01*
X60993974Y-69862103D01*
X61020838Y-69875993D01*
X61053125Y-69890075D01*
X61074604Y-69898082D01*
X61097655Y-69906768D01*
X61113922Y-69914618D01*
X61119833Y-69919853D01*
X61115307Y-69927700D01*
X61103355Y-69944170D01*
X61085861Y-69966753D01*
X61067371Y-69989700D01*
X61015341Y-70053200D01*
X60976556Y-70053200D01*
X60923047Y-70046568D01*
X60866780Y-70027447D01*
X60809931Y-69996999D01*
X60754672Y-69956384D01*
X60703748Y-69907393D01*
X60657550Y-69856776D01*
X59925218Y-69569667D01*
X59826756Y-69531064D01*
X59732021Y-69493920D01*
X59641896Y-69458580D01*
X59557264Y-69425391D01*
X59479009Y-69394700D01*
X59408013Y-69366854D01*
X59345160Y-69342198D01*
X59291334Y-69321079D01*
X59247417Y-69303843D01*
X59214293Y-69290838D01*
X59192845Y-69282409D01*
X59183956Y-69278904D01*
X59183814Y-69278846D01*
X59177083Y-69278222D01*
X59175695Y-69284866D01*
X59180039Y-69300164D01*
X59190506Y-69325503D01*
X59206922Y-69361080D01*
X59233541Y-69414071D01*
X59257627Y-69454412D01*
X59280464Y-69483455D01*
X59303333Y-69502554D01*
X59327515Y-69513062D01*
X59353997Y-69516331D01*
X59384994Y-69521306D01*
X59420954Y-69534554D01*
X59456637Y-69554024D01*
X59465243Y-69559867D01*
X59472670Y-69568003D01*
X59487827Y-69587044D01*
X59510036Y-69616069D01*
X59538615Y-69654154D01*
X59572885Y-69700378D01*
X59612165Y-69753816D01*
X59655777Y-69813547D01*
X59703039Y-69878648D01*
X59753273Y-69948195D01*
X59805797Y-70021267D01*
X59824972Y-70048029D01*
X59877770Y-70121767D01*
X59928155Y-70192106D01*
X59975484Y-70258149D01*
X60019114Y-70319002D01*
X60058403Y-70373771D01*
X60092710Y-70421560D01*
X60121392Y-70461475D01*
X60143807Y-70492622D01*
X60159312Y-70514104D01*
X60167266Y-70525029D01*
X60168184Y-70526236D01*
X60177823Y-70529275D01*
X60201017Y-70532659D01*
X60236812Y-70536337D01*
X60284253Y-70540261D01*
X60342388Y-70544382D01*
X60410261Y-70548651D01*
X60486919Y-70553019D01*
X60571408Y-70557437D01*
X60662774Y-70561855D01*
X60760062Y-70566225D01*
X60862319Y-70570498D01*
X60968590Y-70574625D01*
X61077923Y-70578557D01*
X61189362Y-70582244D01*
X61301953Y-70585638D01*
X61350947Y-70587008D01*
X61520550Y-70591633D01*
X61484190Y-70523803D01*
X61471816Y-70500577D01*
X61453848Y-70466653D01*
X61431423Y-70424192D01*
X61405682Y-70375355D01*
X61377764Y-70322301D01*
X61348807Y-70267190D01*
X61333623Y-70238258D01*
X61303737Y-70181393D01*
X61273527Y-70124105D01*
X61244288Y-70068839D01*
X61217319Y-70018041D01*
X61193915Y-69974156D01*
X61175375Y-69939629D01*
X61169177Y-69928189D01*
X61118938Y-69835834D01*
X61187695Y-69750389D01*
X61256452Y-69664943D01*
X61215269Y-69660706D01*
X61161857Y-69648198D01*
X61113809Y-69622571D01*
X61071735Y-69584419D01*
X61036244Y-69534334D01*
X61007944Y-69472912D01*
X61000652Y-69451427D01*
X60985868Y-69399188D01*
X60978094Y-69358657D01*
X60977237Y-69328885D01*
X60983208Y-69308922D01*
X60986458Y-69304546D01*
X61016260Y-69280805D01*
X61049867Y-69270939D01*
X61086889Y-69274930D01*
X61126936Y-69292758D01*
X61155791Y-69312851D01*
X61183388Y-69334708D01*
X61187084Y-69307512D01*
X61187618Y-69297554D01*
X61185948Y-69286695D01*
X61181239Y-69273503D01*
X61172654Y-69256545D01*
X61159359Y-69234390D01*
X61140516Y-69205608D01*
X61115289Y-69168765D01*
X61082844Y-69122430D01*
X61060739Y-69091138D01*
X61053747Y-69081097D01*
X61047317Y-69071172D01*
X61041090Y-69060326D01*
X61034706Y-69047518D01*
X61027804Y-69031712D01*
X61020025Y-69011866D01*
X61011010Y-68986944D01*
X61000397Y-68955905D01*
X60987828Y-68917711D01*
X60972942Y-68871323D01*
X60955380Y-68815703D01*
X60934781Y-68749810D01*
X60910785Y-68672608D01*
X60883034Y-68583055D01*
X60868848Y-68537235D01*
X60843332Y-68454541D01*
X60819119Y-68375551D01*
X60796550Y-68301409D01*
X60775968Y-68233263D01*
X60757713Y-68172260D01*
X60742127Y-68119546D01*
X60729551Y-68076267D01*
X60720328Y-68043571D01*
X60714798Y-68022604D01*
X60713257Y-68014848D01*
X60716280Y-67996880D01*
X60721966Y-67986366D01*
X60738441Y-67979188D01*
X60764167Y-67978941D01*
X60795790Y-67985358D01*
X60820938Y-67994209D01*
X60859677Y-68010315D01*
X61074062Y-68525342D01*
X61288448Y-69040370D01*
X61276615Y-69124057D01*
X61271877Y-69159125D01*
X61268045Y-69190472D01*
X61265546Y-69214389D01*
X61264791Y-69226256D01*
X61267157Y-69238210D01*
X61273788Y-69261618D01*
X61283990Y-69294293D01*
X61297067Y-69334050D01*
X61312325Y-69378701D01*
X61321495Y-69404833D01*
X61341180Y-69459729D01*
X61357814Y-69504055D01*
X61372857Y-69541035D01*
X61387769Y-69573892D01*
X61404008Y-69605853D01*
X61423034Y-69640141D01*
X61445166Y-69678053D01*
X61512143Y-69791209D01*
X61640657Y-70191793D01*
X61769172Y-70592377D01*
X62219114Y-70587876D01*
X62347486Y-70586417D01*
X62472204Y-70584660D01*
X62592031Y-70582633D01*
X62705726Y-70580367D01*
X62812049Y-70577894D01*
X62909760Y-70575243D01*
X62997621Y-70572445D01*
X63074391Y-70569531D01*
X63138831Y-70566532D01*
X63178872Y-70564208D01*
X63246000Y-70559846D01*
X63246000Y-68572620D01*
X63646587Y-68574496D01*
X64047175Y-68576372D01*
X64768077Y-69501658D01*
X64847709Y-69603847D01*
X64925006Y-69703005D01*
X64999489Y-69798518D01*
X65070681Y-69889774D01*
X65138102Y-69976162D01*
X65201273Y-70057067D01*
X65259717Y-70131879D01*
X65312954Y-70199985D01*
X65360506Y-70260772D01*
X65401894Y-70313628D01*
X65436639Y-70357940D01*
X65464263Y-70393097D01*
X65484288Y-70418485D01*
X65496233Y-70433493D01*
X65499604Y-70437570D01*
X65501157Y-70437835D01*
X65502553Y-70434896D01*
X65503802Y-70428051D01*
X65504910Y-70416600D01*
X65505886Y-70399842D01*
X65506738Y-70377075D01*
X65507475Y-70347599D01*
X65508103Y-70310713D01*
X65508632Y-70265715D01*
X65509068Y-70211904D01*
X65509421Y-70148580D01*
X65509698Y-70075042D01*
X65509908Y-69990588D01*
X65510057Y-69894518D01*
X65510155Y-69786130D01*
X65510210Y-69664723D01*
X65510228Y-69529597D01*
X65510229Y-69510470D01*
X65510229Y-68572743D01*
X66308514Y-68572743D01*
X66308514Y-71642515D01*
X65911186Y-71642392D01*
X65513857Y-71642270D01*
X65060286Y-71057892D01*
X64989783Y-70967057D01*
X64916410Y-70872524D01*
X64841355Y-70775823D01*
X64765807Y-70678488D01*
X64690955Y-70582051D01*
X64617989Y-70488042D01*
X64548097Y-70397995D01*
X64482469Y-70313441D01*
X64422294Y-70235913D01*
X64368761Y-70166943D01*
X64327314Y-70113544D01*
X64047914Y-69753575D01*
X64044232Y-71642515D01*
X63246000Y-71642515D01*
X63246000Y-70661227D01*
X63229672Y-70665169D01*
X63203223Y-70670724D01*
X63163825Y-70677841D01*
X63112931Y-70686318D01*
X63051999Y-70695951D01*
X62982484Y-70706537D01*
X62905842Y-70717874D01*
X62823529Y-70729758D01*
X62737000Y-70741986D01*
X62647712Y-70754354D01*
X62557120Y-70766660D01*
X62466681Y-70778700D01*
X62377849Y-70790271D01*
X62292082Y-70801170D01*
X62210835Y-70811194D01*
X62135564Y-70820140D01*
X62067724Y-70827804D01*
X62052200Y-70829485D01*
X62006782Y-70834392D01*
X61964319Y-70839048D01*
X61927714Y-70843131D01*
X61899869Y-70846316D01*
X61884140Y-70848221D01*
X61853965Y-70852175D01*
X61871331Y-70908073D01*
X61881993Y-70944844D01*
X61887264Y-70970559D01*
X61887233Y-70987602D01*
X61881987Y-70998359D01*
X61874877Y-71003631D01*
X61858242Y-71008146D01*
X61832305Y-71010592D01*
X61802149Y-71010836D01*
X61772855Y-71008749D01*
X61759198Y-71006609D01*
X61748039Y-71002989D01*
X61738032Y-70995471D01*
X61727184Y-70981623D01*
X61713501Y-70959016D01*
X61699876Y-70934290D01*
X61683287Y-70904133D01*
X61671469Y-70884725D01*
X61662542Y-70873913D01*
X61654630Y-70869545D01*
X61645854Y-70869468D01*
X61643627Y-70869812D01*
X61620176Y-70872891D01*
X61583989Y-70876490D01*
X61536832Y-70880498D01*
X61480471Y-70884802D01*
X61416671Y-70889293D01*
X61347197Y-70893857D01*
X61273815Y-70898384D01*
X61198290Y-70902762D01*
X61122387Y-70906880D01*
X61047872Y-70910626D01*
X60976511Y-70913888D01*
X60910068Y-70916556D01*
X60894686Y-70917108D01*
X60832401Y-70919330D01*
X60769396Y-70921659D01*
X60708604Y-70923981D01*
X60652961Y-70926182D01*
X60605400Y-70928148D01*
X60568857Y-70929763D01*
X60563430Y-70930020D01*
X60460775Y-70934943D01*
X60554425Y-71065572D01*
X60648075Y-71196200D01*
X60758681Y-71237031D01*
X60794300Y-71249774D01*
X60829073Y-71261223D01*
X60865362Y-71271996D01*
X60905530Y-71282710D01*
X60951939Y-71293984D01*
X61006952Y-71306434D01*
X61072932Y-71320679D01*
X61102742Y-71326979D01*
X61336198Y-71376097D01*
X61455143Y-71346329D01*
X61574088Y-71316562D01*
X62179100Y-71478075D01*
X62784113Y-71639588D01*
X62798488Y-71667288D01*
X62807736Y-71691111D01*
X62813987Y-71718696D01*
X62816578Y-71745071D01*
X62814849Y-71765267D01*
X62812323Y-71771257D01*
X62808176Y-71772583D01*
X62797694Y-71772903D01*
X62780121Y-71772137D01*
X62754702Y-71770205D01*
X62720682Y-71767026D01*
X62677307Y-71762521D01*
X62623822Y-71756608D01*
X62559470Y-71749208D01*
X62483499Y-71740240D01*
X62395151Y-71729623D01*
X62293673Y-71717278D01*
X62217507Y-71707944D01*
X61628840Y-71635630D01*
X61499434Y-71560362D01*
X61434531Y-71523742D01*
X61379613Y-71495277D01*
X61333195Y-71474231D01*
X61301068Y-71462205D01*
X61271538Y-71452543D01*
X61247365Y-71444898D01*
X61231716Y-71440255D01*
X61227610Y-71439315D01*
X61223806Y-71445725D01*
X61219655Y-71461797D01*
X61218346Y-71469118D01*
X61216499Y-71487117D01*
X61219360Y-71500682D01*
X61228993Y-71515098D01*
X61242015Y-71529770D01*
X61265944Y-71561779D01*
X61276225Y-71591692D01*
X61273297Y-71620909D01*
X61271895Y-71624925D01*
X61257403Y-71651312D01*
X61237528Y-71672276D01*
X61215977Y-71684390D01*
X61205760Y-71686058D01*
X61182484Y-71682983D01*
X61150583Y-71674755D01*
X61114335Y-71662871D01*
X61078017Y-71648826D01*
X61045907Y-71634114D01*
X61027391Y-71623692D01*
X61000924Y-71604319D01*
X60970899Y-71578566D01*
X60940816Y-71549836D01*
X60914174Y-71521536D01*
X60894472Y-71497070D01*
X60889583Y-71489573D01*
X60879866Y-71475242D01*
X60872788Y-71468432D01*
X60872301Y-71468343D01*
X60866292Y-71473656D01*
X60852818Y-71488315D01*
X60833567Y-71510400D01*
X60810224Y-71537993D01*
X60795851Y-71555309D01*
X60770471Y-71585282D01*
X60747595Y-71610797D01*
X60729065Y-71629913D01*
X60716727Y-71640686D01*
X60713257Y-71642350D01*
X60698967Y-71639190D01*
X60684057Y-71632867D01*
X60664027Y-71623523D01*
X60643762Y-71615755D01*
X60627436Y-71610953D01*
X60619219Y-71610510D01*
X60618914Y-71611128D01*
X60623338Y-71620734D01*
X60635294Y-71638753D01*
X60652811Y-71662628D01*
X60673916Y-71689805D01*
X60696636Y-71717726D01*
X60719000Y-71743835D01*
X60734138Y-71760464D01*
X60797351Y-71820059D01*
X60861135Y-71865324D01*
X60925819Y-71896437D01*
X60991729Y-71913582D01*
X61016714Y-71916437D01*
X61070397Y-71920498D01*
X61066402Y-71945120D01*
X61057630Y-71969678D01*
X61039540Y-72000358D01*
X61014424Y-72034573D01*
X60984574Y-72069737D01*
X60952283Y-72103261D01*
X60919843Y-72132559D01*
X60889545Y-72155043D01*
X60871585Y-72165007D01*
X60846044Y-72174456D01*
X60821072Y-72178031D01*
X60792005Y-72175852D01*
X60754180Y-72168039D01*
X60754145Y-72168030D01*
X60707449Y-72153295D01*
X60663435Y-72131627D01*
X60619315Y-72101278D01*
X60572302Y-72060496D01*
X60552960Y-72041763D01*
X60500141Y-71985173D01*
X60454574Y-71926599D01*
X60413440Y-71862001D01*
X60373921Y-71787342D01*
X60370546Y-71780400D01*
X60356829Y-71754643D01*
X60337491Y-71721944D01*
X60313848Y-71684204D01*
X60287217Y-71643324D01*
X60258914Y-71601204D01*
X60230255Y-71559746D01*
X60202557Y-71520850D01*
X60177136Y-71486417D01*
X60155307Y-71458348D01*
X60138389Y-71438544D01*
X60127695Y-71428906D01*
X60126873Y-71428515D01*
X60117718Y-71425113D01*
X60096330Y-71417255D01*
X60064112Y-71405456D01*
X60022466Y-71390226D01*
X59972798Y-71372080D01*
X59916510Y-71351530D01*
X59855006Y-71329090D01*
X59795229Y-71307291D01*
X59703657Y-71273881D01*
X59624775Y-71245025D01*
X59557621Y-71220344D01*
X59501236Y-71199460D01*
X59454659Y-71181995D01*
X59416928Y-71167569D01*
X59387084Y-71155805D01*
X59364165Y-71146322D01*
X59347211Y-71138744D01*
X59335261Y-71132690D01*
X59327354Y-71127783D01*
X59322531Y-71123644D01*
X59319845Y-71119924D01*
X59318966Y-71116372D01*
X60306857Y-71116372D01*
X60310486Y-71120000D01*
X60314114Y-71116372D01*
X60310486Y-71112743D01*
X60306857Y-71116372D01*
X59318966Y-71116372D01*
X59316610Y-71106856D01*
X59315310Y-71094600D01*
X60292343Y-71094600D01*
X60295972Y-71098229D01*
X60299600Y-71094600D01*
X60295972Y-71090972D01*
X60292343Y-71094600D01*
X59315310Y-71094600D01*
X59314125Y-71083445D01*
X59313639Y-71072829D01*
X60277829Y-71072829D01*
X60281457Y-71076458D01*
X60285086Y-71072829D01*
X60281457Y-71069200D01*
X60277829Y-71072829D01*
X59313639Y-71072829D01*
X59312770Y-71053861D01*
X59312629Y-71040649D01*
X59312813Y-71009574D01*
X59313825Y-70990243D01*
X59316354Y-70979887D01*
X59321089Y-70975735D01*
X59328719Y-70975019D01*
X59328957Y-70975021D01*
X59339717Y-70976223D01*
X59363053Y-70979570D01*
X59397231Y-70984789D01*
X59440516Y-70991607D01*
X59491173Y-70999750D01*
X59547466Y-71008947D01*
X59602767Y-71018106D01*
X59662007Y-71027895D01*
X59716595Y-71036747D01*
X59764910Y-71044413D01*
X59805333Y-71050642D01*
X59836243Y-71055187D01*
X59856021Y-71057795D01*
X59863031Y-71058245D01*
X59860104Y-71051670D01*
X59855149Y-71043800D01*
X60256057Y-71043800D01*
X60259686Y-71047429D01*
X60263314Y-71043800D01*
X60259686Y-71040172D01*
X60256057Y-71043800D01*
X59855149Y-71043800D01*
X59850091Y-71035768D01*
X59840757Y-71022029D01*
X60241543Y-71022029D01*
X60245172Y-71025658D01*
X60248800Y-71022029D01*
X60245172Y-71018400D01*
X60241543Y-71022029D01*
X59840757Y-71022029D01*
X59834539Y-71012878D01*
X59814994Y-70985342D01*
X59813686Y-70983535D01*
X59804768Y-70971229D01*
X60205257Y-70971229D01*
X60208886Y-70974858D01*
X60212514Y-70971229D01*
X60208886Y-70967600D01*
X60205257Y-70971229D01*
X59804768Y-70971229D01*
X59761557Y-70911608D01*
X59669535Y-70906525D01*
X59546157Y-70898130D01*
X59413074Y-70886206D01*
X59274529Y-70871241D01*
X59134767Y-70853720D01*
X58998030Y-70834129D01*
X58899287Y-70818248D01*
X58707825Y-70782547D01*
X58525906Y-70741981D01*
X58353901Y-70696741D01*
X58192185Y-70647016D01*
X58041127Y-70592999D01*
X57901102Y-70534880D01*
X57772481Y-70472851D01*
X57655636Y-70407102D01*
X57550940Y-70337823D01*
X57458764Y-70265207D01*
X57379481Y-70189444D01*
X57313464Y-70110725D01*
X57261084Y-70029240D01*
X57228906Y-69961334D01*
X57202962Y-69881619D01*
X57190421Y-69804678D01*
X57190987Y-69728496D01*
X57192504Y-69714323D01*
X57203848Y-69652972D01*
X57222281Y-69589833D01*
X57245881Y-69530668D01*
X57267533Y-69489499D01*
X57290590Y-69451456D01*
X57306389Y-69501287D01*
X57340558Y-69585440D01*
X57388782Y-69667117D01*
X57450770Y-69746038D01*
X57526229Y-69821921D01*
X57614868Y-69894486D01*
X57716395Y-69963449D01*
X57830518Y-70028531D01*
X57879343Y-70053275D01*
X58011023Y-70112852D01*
X58156437Y-70169279D01*
X58315121Y-70222422D01*
X58486611Y-70272147D01*
X58670444Y-70318320D01*
X58866155Y-70360806D01*
X59073281Y-70399472D01*
X59081656Y-70400913D01*
X59132873Y-70409521D01*
X59185457Y-70418043D01*
X59237422Y-70426188D01*
X59286786Y-70433666D01*
X59331561Y-70440189D01*
X59369765Y-70445467D01*
X59399412Y-70449209D01*
X59418518Y-70451126D01*
X59425062Y-70451048D01*
X59421288Y-70444935D01*
X59409668Y-70428043D01*
X59390888Y-70401330D01*
X59365635Y-70365759D01*
X59334596Y-70322289D01*
X59298457Y-70271881D01*
X59257906Y-70215496D01*
X59213629Y-70154094D01*
X59166313Y-70088636D01*
X59138024Y-70049572D01*
X59086529Y-69978284D01*
X59038420Y-69911245D01*
X58994323Y-69849351D01*
X58954862Y-69793496D01*
X58920661Y-69744575D01*
X58892346Y-69703485D01*
X58870540Y-69671118D01*
X58855868Y-69648371D01*
X58848954Y-69636139D01*
X58848482Y-69634573D01*
X58845713Y-69615323D01*
X58839491Y-69596758D01*
X58831889Y-69584091D01*
X58827351Y-69581486D01*
X58821154Y-69586861D01*
X58807010Y-69602029D01*
X58786168Y-69625556D01*
X58759879Y-69656010D01*
X58729394Y-69691954D01*
X58695964Y-69731957D01*
X58692859Y-69735700D01*
X58565032Y-69889915D01*
X58471014Y-69922003D01*
X58376996Y-69954092D01*
X58303578Y-69894005D01*
X58269705Y-69866991D01*
X58242241Y-69847276D01*
X58216924Y-69832323D01*
X58189491Y-69819593D01*
X58158239Y-69807488D01*
X58086317Y-69781058D01*
X57042441Y-68914148D01*
X57023301Y-68856675D01*
X57004160Y-68799202D01*
X56928309Y-68736251D01*
X56900622Y-68713126D01*
X56877462Y-68693504D01*
X56860867Y-68679132D01*
X56852876Y-68671760D01*
X56852457Y-68671191D01*
X56854195Y-68656690D01*
X56858849Y-68632275D01*
X56865579Y-68601407D01*
X56873546Y-68567547D01*
X56881910Y-68534157D01*
X56889831Y-68504698D01*
X56896469Y-68482631D01*
X56900890Y-68471559D01*
X56922483Y-68440033D01*
X56950627Y-68401655D01*
X56982224Y-68360416D01*
X57014178Y-68320310D01*
X57043391Y-68285328D01*
X57059093Y-68267612D01*
X57085101Y-68238116D01*
X57100554Y-68217319D01*
X57105691Y-68204216D01*
X57100751Y-68197805D01*
X57085975Y-68197080D01*
X57075614Y-68198433D01*
X57054867Y-68201694D01*
X57040108Y-68203863D01*
X57037514Y-68204190D01*
X57030147Y-68201225D01*
X57010513Y-68192383D01*
X56979438Y-68178052D01*
X56937749Y-68158624D01*
X56886269Y-68134486D01*
X56825826Y-68106030D01*
X56757243Y-68073643D01*
X56681348Y-68037716D01*
X56598964Y-67998639D01*
X56510918Y-67956800D01*
X56418035Y-67912590D01*
X56321141Y-67866397D01*
X56273435Y-67843628D01*
X56175015Y-67796671D01*
X56080282Y-67751538D01*
X55990056Y-67708616D01*
X55905154Y-67668292D01*
X55826395Y-67630952D01*
X55754599Y-67596983D01*
X55690582Y-67566771D01*
X55635165Y-67540703D01*
X55589165Y-67519166D01*
X55553402Y-67502546D01*
X55528693Y-67491230D01*
X55515858Y-67485604D01*
X55514151Y-67485042D01*
X55515919Y-67492277D01*
X55522059Y-67511572D01*
X55532027Y-67541328D01*
X55545276Y-67579950D01*
X55561259Y-67625842D01*
X55579431Y-67677406D01*
X55594166Y-67718840D01*
X55617443Y-67784467D01*
X55635964Y-67837724D01*
X55650098Y-67879817D01*
X55660218Y-67911953D01*
X55666694Y-67935340D01*
X55669897Y-67951186D01*
X55670197Y-67960698D01*
X55669340Y-67963522D01*
X55655412Y-67975998D01*
X55631082Y-67985046D01*
X55600245Y-67989735D01*
X55566798Y-67989137D01*
X55563545Y-67988761D01*
X55525684Y-67984031D01*
X55338171Y-67652897D01*
X55301931Y-67589020D01*
X55267586Y-67528717D01*
X55235846Y-67473216D01*
X55207420Y-67423748D01*
X55183020Y-67381544D01*
X55163353Y-67347834D01*
X55149131Y-67323847D01*
X55141062Y-67310815D01*
X55139772Y-67309008D01*
X55130026Y-67302202D01*
X55108786Y-67290329D01*
X55077817Y-67274219D01*
X55038885Y-67254705D01*
X54993757Y-67232616D01*
X54944198Y-67208785D01*
X54891976Y-67184043D01*
X54838856Y-67159221D01*
X54786605Y-67135151D01*
X54736989Y-67112664D01*
X54691773Y-67092591D01*
X54652726Y-67075764D01*
X54621611Y-67063013D01*
X54601099Y-67055463D01*
X54508760Y-67021112D01*
X54429097Y-66982668D01*
X54418004Y-66975641D01*
X55330965Y-66975641D01*
X55331222Y-66978580D01*
X55335037Y-66992778D01*
X55335714Y-66998018D01*
X55339983Y-67007186D01*
X55349397Y-67017585D01*
X55358866Y-67024253D01*
X55362623Y-67024253D01*
X55360851Y-67016911D01*
X55352487Y-67002130D01*
X55346381Y-66993065D01*
X55336056Y-66979696D01*
X55330965Y-66975641D01*
X54418004Y-66975641D01*
X54362331Y-66940377D01*
X54308683Y-66894484D01*
X54268376Y-66845237D01*
X54241631Y-66792881D01*
X54228669Y-66737663D01*
X54229713Y-66679828D01*
X54235699Y-66649444D01*
X54254830Y-66596561D01*
X54284851Y-66541605D01*
X54323447Y-66488527D01*
X54342949Y-66466358D01*
X54363315Y-66445236D01*
X54378032Y-66432770D01*
X54391017Y-66426698D01*
X54406184Y-66424757D01*
X54415177Y-66424629D01*
X54448398Y-66424629D01*
X54463693Y-66466357D01*
X54494640Y-66533313D01*
X54536221Y-66596885D01*
X54585792Y-66653720D01*
X54640711Y-66700466D01*
X54656648Y-66711264D01*
X54682259Y-66725619D01*
X54716310Y-66741951D01*
X54753433Y-66757774D01*
X54774406Y-66765791D01*
X54849585Y-66793082D01*
X54820114Y-66739692D01*
X54790642Y-66686303D01*
X54857184Y-66602263D01*
X54880345Y-66572645D01*
X54899636Y-66547273D01*
X54913549Y-66528186D01*
X54920576Y-66517424D01*
X54921078Y-66515826D01*
X54913086Y-66513127D01*
X54895296Y-66508705D01*
X54879233Y-66505157D01*
X54819241Y-66485400D01*
X54766279Y-66453004D01*
X54720467Y-66408095D01*
X54681922Y-66350797D01*
X54650764Y-66281236D01*
X54642228Y-66255948D01*
X54629151Y-66214268D01*
X54646790Y-66195387D01*
X54678680Y-66169704D01*
X54714577Y-66157477D01*
X54733488Y-66156115D01*
X54764820Y-66159618D01*
X54791451Y-66171791D01*
X54813677Y-66189735D01*
X54832297Y-66207068D01*
X54849606Y-66188644D01*
X54866914Y-66170220D01*
X54844541Y-66125068D01*
X54833273Y-66105883D01*
X54814486Y-66077914D01*
X54789914Y-66043563D01*
X54761287Y-66005230D01*
X54730336Y-65965318D01*
X54720074Y-65952418D01*
X54617980Y-65824922D01*
X54436381Y-65264900D01*
X54408305Y-65178034D01*
X54381656Y-65095031D01*
X54356762Y-65016943D01*
X54333949Y-64944819D01*
X54313544Y-64879712D01*
X54295873Y-64822673D01*
X54281264Y-64774753D01*
X54270043Y-64737004D01*
X54262538Y-64710476D01*
X54259075Y-64696220D01*
X54258920Y-64694094D01*
X54270128Y-64684028D01*
X54292659Y-64678487D01*
X54323952Y-64677762D01*
X54361445Y-64682143D01*
G37*
X54361445Y-64682143D02*
X54362411Y-64682316D01*
X54410429Y-64690952D01*
X54674144Y-65250284D01*
X54937858Y-65809616D01*
X54926329Y-65910375D01*
X54922079Y-65949186D01*
X54918535Y-65984727D01*
X54916018Y-66013550D01*
X54914846Y-66032207D01*
X54914800Y-66034703D01*
X54917542Y-66047565D01*
X54925363Y-66072137D01*
X54937656Y-66106774D01*
X54953816Y-66149832D01*
X54973236Y-66199667D01*
X54995310Y-66254633D01*
X55001287Y-66269264D01*
X55028020Y-66333961D01*
X55050725Y-66387515D01*
X55070558Y-66432342D01*
X55088678Y-66470858D01*
X55106239Y-66505476D01*
X55124400Y-66538611D01*
X55144317Y-66572678D01*
X55155501Y-66591152D01*
X55223229Y-66702048D01*
X56061429Y-67082374D01*
X56166349Y-67129990D01*
X56268075Y-67176176D01*
X56365773Y-67220551D01*
X56458609Y-67262737D01*
X56545749Y-67302353D01*
X56626358Y-67339020D01*
X56699603Y-67372357D01*
X56764649Y-67401986D01*
X56820662Y-67427527D01*
X56866808Y-67448600D01*
X56902252Y-67464825D01*
X56926161Y-67475823D01*
X56937701Y-67481214D01*
X56937791Y-67481257D01*
X56980241Y-67504945D01*
X57016146Y-67532528D01*
X57048638Y-67567013D01*
X57080846Y-67611405D01*
X57092682Y-67629918D01*
X57111012Y-67659301D01*
X57126639Y-67684271D01*
X57137911Y-67702194D01*
X57143176Y-67710437D01*
X57143184Y-67710449D01*
X57151606Y-67713787D01*
X57171365Y-67718290D01*
X57199394Y-67723336D01*
X57228441Y-67727729D01*
X57309627Y-67739016D01*
X57327307Y-67718637D01*
X57338473Y-67703762D01*
X57340227Y-67693047D01*
X57335774Y-67683743D01*
X57238371Y-67530356D01*
X57148428Y-67388846D01*
X57065679Y-67258804D01*
X56989857Y-67139821D01*
X56920697Y-67031486D01*
X56857932Y-66933391D01*
X56801296Y-66845125D01*
X56750523Y-66766280D01*
X56705346Y-66696446D01*
X56665499Y-66635213D01*
X56630716Y-66582172D01*
X56600731Y-66536913D01*
X56575277Y-66499027D01*
X56554088Y-66468104D01*
X56536898Y-66443736D01*
X56523441Y-66425511D01*
X56513450Y-66413022D01*
X56506659Y-66405858D01*
X56503535Y-66403743D01*
X56478283Y-66391852D01*
X56446924Y-66372602D01*
X56413638Y-66348871D01*
X56382608Y-66323538D01*
X56369713Y-66311626D01*
X56332373Y-66269032D01*
X56299137Y-66219280D01*
X56273490Y-66167946D01*
X56264563Y-66143308D01*
X56250198Y-66096798D01*
X56305797Y-66030299D01*
X56328402Y-66003330D01*
X56348233Y-65979796D01*
X56363075Y-65962316D01*
X56370519Y-65953724D01*
X56376740Y-65949797D01*
X56381853Y-65955694D01*
X56387598Y-65973569D01*
X56388115Y-65975496D01*
X56411257Y-66035639D01*
X56446764Y-66092189D01*
X56492526Y-66142659D01*
X56546438Y-66184566D01*
X56582825Y-66205057D01*
X56606389Y-66216238D01*
X56625459Y-66223913D01*
X56643860Y-66228845D01*
X56665421Y-66231798D01*
X56693968Y-66233535D01*
X56731776Y-66234775D01*
X56770378Y-66236063D01*
X56796861Y-66237597D01*
X56813616Y-66239784D01*
X56823039Y-66243028D01*
X56827522Y-66247735D01*
X56828780Y-66251209D01*
X56838425Y-66262614D01*
X56851879Y-66264972D01*
X56874018Y-66269315D01*
X56901990Y-66280624D01*
X56930694Y-66296315D01*
X56955032Y-66313805D01*
X56962815Y-66321162D01*
X56969449Y-66330013D01*
X56983456Y-66350132D01*
X57004253Y-66380646D01*
X57031258Y-66420682D01*
X57063891Y-66469369D01*
X57101568Y-66525834D01*
X57143707Y-66589203D01*
X57189728Y-66658605D01*
X57239048Y-66733167D01*
X57291084Y-66812015D01*
X57345256Y-66894279D01*
X57360930Y-66918115D01*
X57415242Y-67000721D01*
X57467288Y-67079862D01*
X57516515Y-67154699D01*
X57562372Y-67224393D01*
X57604304Y-67288105D01*
X57641761Y-67344995D01*
X57674189Y-67394225D01*
X57701036Y-67434954D01*
X57721749Y-67466344D01*
X57735776Y-67487555D01*
X57742563Y-67497749D01*
X57743118Y-67498550D01*
X57750622Y-67497673D01*
X57765253Y-67490968D01*
X57767914Y-67489478D01*
X57784894Y-67480941D01*
X57796972Y-67476954D01*
X57797660Y-67476915D01*
X57806240Y-67480221D01*
X57825432Y-67489426D01*
X57853118Y-67503453D01*
X57887179Y-67521229D01*
X57925498Y-67541681D01*
X57927401Y-67542707D01*
X58049286Y-67608500D01*
X58185657Y-67484197D01*
X58322029Y-67359895D01*
X58362559Y-67362538D01*
X58412545Y-67372710D01*
X58462581Y-67396038D01*
X58510309Y-67431368D01*
X58518638Y-67439071D01*
X58555590Y-67474399D01*
X58620238Y-67446397D01*
X58652655Y-67432183D01*
X58684006Y-67418141D01*
X58709203Y-67406561D01*
X58716620Y-67403033D01*
X58749799Y-67390778D01*
X58777880Y-67390194D01*
X58804932Y-67401703D01*
X58821449Y-67413832D01*
X58905697Y-67483123D01*
X58979405Y-67543900D01*
X59043274Y-67596827D01*
X59098007Y-67642569D01*
X59144306Y-67681790D01*
X59182875Y-67715154D01*
X59214416Y-67743327D01*
X59239632Y-67766971D01*
X59259225Y-67786752D01*
X59273898Y-67803335D01*
X59284353Y-67817382D01*
X59291293Y-67829560D01*
X59295421Y-67840531D01*
X59297440Y-67850961D01*
X59298051Y-67861513D01*
X59298066Y-67864499D01*
X59296824Y-67880601D01*
X59293491Y-67907090D01*
X59288601Y-67940074D01*
X59283600Y-67970400D01*
X59277923Y-68003655D01*
X59273290Y-68031546D01*
X59270196Y-68051036D01*
X59269134Y-68058991D01*
X59274416Y-68065506D01*
X59288585Y-68078586D01*
X59309056Y-68095902D01*
X59319584Y-68104417D01*
X59346063Y-68127300D01*
X59370931Y-68151800D01*
X59389649Y-68173376D01*
X59392645Y-68177502D01*
X59404242Y-68194800D01*
X59412574Y-68209869D01*
X59417189Y-68224500D01*
X59417638Y-68240481D01*
X59413468Y-68259605D01*
X59404229Y-68283661D01*
X59389470Y-68314438D01*
X59368739Y-68353728D01*
X59341586Y-68403321D01*
X59330839Y-68422797D01*
X59302793Y-68473855D01*
X59281261Y-68513786D01*
X59265560Y-68544069D01*
X59255007Y-68566182D01*
X59248921Y-68581604D01*
X59246618Y-68591812D01*
X59247417Y-68598285D01*
X59248771Y-68600588D01*
X59256459Y-68610015D01*
X59271715Y-68628409D01*
X59292759Y-68653635D01*
X59317810Y-68683556D01*
X59336761Y-68706133D01*
X59365945Y-68741185D01*
X59386757Y-68767188D01*
X59400408Y-68785995D01*
X59408110Y-68799460D01*
X59411072Y-68809434D01*
X59410506Y-68817771D01*
X59410291Y-68818628D01*
X59406098Y-68836944D01*
X59404302Y-68848171D01*
X59409350Y-68852347D01*
X59425058Y-68860859D01*
X59451705Y-68873832D01*
X59489575Y-68891393D01*
X59538949Y-68913666D01*
X59600110Y-68940777D01*
X59673339Y-68972850D01*
X59758919Y-69010012D01*
X59857132Y-69052387D01*
X59968260Y-69100100D01*
X60060114Y-69139406D01*
X60152881Y-69179098D01*
X60242027Y-69217331D01*
X60326627Y-69253702D01*
X60405752Y-69287808D01*
X60478475Y-69319246D01*
X60543868Y-69347614D01*
X60601005Y-69372508D01*
X60648957Y-69393527D01*
X60686797Y-69410267D01*
X60713599Y-69422326D01*
X60728433Y-69429301D01*
X60731064Y-69430750D01*
X60741626Y-69445156D01*
X60746293Y-69469634D01*
X60746577Y-69474940D01*
X60749484Y-69498820D01*
X60757857Y-69515210D01*
X60769744Y-69526850D01*
X60780882Y-69537479D01*
X60787964Y-69549096D01*
X60792404Y-69565723D01*
X60795616Y-69591377D01*
X60796746Y-69603618D01*
X60800359Y-69635590D01*
X60805733Y-69658955D01*
X60814830Y-69679619D01*
X60829610Y-69703488D01*
X60830194Y-69704363D01*
X60855704Y-69737655D01*
X60888790Y-69773867D01*
X60925541Y-69809231D01*
X60962043Y-69839979D01*
X60993974Y-69862103D01*
X61020838Y-69875993D01*
X61053125Y-69890075D01*
X61074604Y-69898082D01*
X61097655Y-69906768D01*
X61113922Y-69914618D01*
X61119833Y-69919853D01*
X61115307Y-69927700D01*
X61103355Y-69944170D01*
X61085861Y-69966753D01*
X61067371Y-69989700D01*
X61015341Y-70053200D01*
X60976556Y-70053200D01*
X60923047Y-70046568D01*
X60866780Y-70027447D01*
X60809931Y-69996999D01*
X60754672Y-69956384D01*
X60703748Y-69907393D01*
X60657550Y-69856776D01*
X59925218Y-69569667D01*
X59826756Y-69531064D01*
X59732021Y-69493920D01*
X59641896Y-69458580D01*
X59557264Y-69425391D01*
X59479009Y-69394700D01*
X59408013Y-69366854D01*
X59345160Y-69342198D01*
X59291334Y-69321079D01*
X59247417Y-69303843D01*
X59214293Y-69290838D01*
X59192845Y-69282409D01*
X59183956Y-69278904D01*
X59183814Y-69278846D01*
X59177083Y-69278222D01*
X59175695Y-69284866D01*
X59180039Y-69300164D01*
X59190506Y-69325503D01*
X59206922Y-69361080D01*
X59233541Y-69414071D01*
X59257627Y-69454412D01*
X59280464Y-69483455D01*
X59303333Y-69502554D01*
X59327515Y-69513062D01*
X59353997Y-69516331D01*
X59384994Y-69521306D01*
X59420954Y-69534554D01*
X59456637Y-69554024D01*
X59465243Y-69559867D01*
X59472670Y-69568003D01*
X59487827Y-69587044D01*
X59510036Y-69616069D01*
X59538615Y-69654154D01*
X59572885Y-69700378D01*
X59612165Y-69753816D01*
X59655777Y-69813547D01*
X59703039Y-69878648D01*
X59753273Y-69948195D01*
X59805797Y-70021267D01*
X59824972Y-70048029D01*
X59877770Y-70121767D01*
X59928155Y-70192106D01*
X59975484Y-70258149D01*
X60019114Y-70319002D01*
X60058403Y-70373771D01*
X60092710Y-70421560D01*
X60121392Y-70461475D01*
X60143807Y-70492622D01*
X60159312Y-70514104D01*
X60167266Y-70525029D01*
X60168184Y-70526236D01*
X60177823Y-70529275D01*
X60201017Y-70532659D01*
X60236812Y-70536337D01*
X60284253Y-70540261D01*
X60342388Y-70544382D01*
X60410261Y-70548651D01*
X60486919Y-70553019D01*
X60571408Y-70557437D01*
X60662774Y-70561855D01*
X60760062Y-70566225D01*
X60862319Y-70570498D01*
X60968590Y-70574625D01*
X61077923Y-70578557D01*
X61189362Y-70582244D01*
X61301953Y-70585638D01*
X61350947Y-70587008D01*
X61520550Y-70591633D01*
X61484190Y-70523803D01*
X61471816Y-70500577D01*
X61453848Y-70466653D01*
X61431423Y-70424192D01*
X61405682Y-70375355D01*
X61377764Y-70322301D01*
X61348807Y-70267190D01*
X61333623Y-70238258D01*
X61303737Y-70181393D01*
X61273527Y-70124105D01*
X61244288Y-70068839D01*
X61217319Y-70018041D01*
X61193915Y-69974156D01*
X61175375Y-69939629D01*
X61169177Y-69928189D01*
X61118938Y-69835834D01*
X61187695Y-69750389D01*
X61256452Y-69664943D01*
X61215269Y-69660706D01*
X61161857Y-69648198D01*
X61113809Y-69622571D01*
X61071735Y-69584419D01*
X61036244Y-69534334D01*
X61007944Y-69472912D01*
X61000652Y-69451427D01*
X60985868Y-69399188D01*
X60978094Y-69358657D01*
X60977237Y-69328885D01*
X60983208Y-69308922D01*
X60986458Y-69304546D01*
X61016260Y-69280805D01*
X61049867Y-69270939D01*
X61086889Y-69274930D01*
X61126936Y-69292758D01*
X61155791Y-69312851D01*
X61183388Y-69334708D01*
X61187084Y-69307512D01*
X61187618Y-69297554D01*
X61185948Y-69286695D01*
X61181239Y-69273503D01*
X61172654Y-69256545D01*
X61159359Y-69234390D01*
X61140516Y-69205608D01*
X61115289Y-69168765D01*
X61082844Y-69122430D01*
X61060739Y-69091138D01*
X61053747Y-69081097D01*
X61047317Y-69071172D01*
X61041090Y-69060326D01*
X61034706Y-69047518D01*
X61027804Y-69031712D01*
X61020025Y-69011866D01*
X61011010Y-68986944D01*
X61000397Y-68955905D01*
X60987828Y-68917711D01*
X60972942Y-68871323D01*
X60955380Y-68815703D01*
X60934781Y-68749810D01*
X60910785Y-68672608D01*
X60883034Y-68583055D01*
X60868848Y-68537235D01*
X60843332Y-68454541D01*
X60819119Y-68375551D01*
X60796550Y-68301409D01*
X60775968Y-68233263D01*
X60757713Y-68172260D01*
X60742127Y-68119546D01*
X60729551Y-68076267D01*
X60720328Y-68043571D01*
X60714798Y-68022604D01*
X60713257Y-68014848D01*
X60716280Y-67996880D01*
X60721966Y-67986366D01*
X60738441Y-67979188D01*
X60764167Y-67978941D01*
X60795790Y-67985358D01*
X60820938Y-67994209D01*
X60859677Y-68010315D01*
X61074062Y-68525342D01*
X61288448Y-69040370D01*
X61276615Y-69124057D01*
X61271877Y-69159125D01*
X61268045Y-69190472D01*
X61265546Y-69214389D01*
X61264791Y-69226256D01*
X61267157Y-69238210D01*
X61273788Y-69261618D01*
X61283990Y-69294293D01*
X61297067Y-69334050D01*
X61312325Y-69378701D01*
X61321495Y-69404833D01*
X61341180Y-69459729D01*
X61357814Y-69504055D01*
X61372857Y-69541035D01*
X61387769Y-69573892D01*
X61404008Y-69605853D01*
X61423034Y-69640141D01*
X61445166Y-69678053D01*
X61512143Y-69791209D01*
X61640657Y-70191793D01*
X61769172Y-70592377D01*
X62219114Y-70587876D01*
X62347486Y-70586417D01*
X62472204Y-70584660D01*
X62592031Y-70582633D01*
X62705726Y-70580367D01*
X62812049Y-70577894D01*
X62909760Y-70575243D01*
X62997621Y-70572445D01*
X63074391Y-70569531D01*
X63138831Y-70566532D01*
X63178872Y-70564208D01*
X63246000Y-70559846D01*
X63246000Y-68572620D01*
X63646587Y-68574496D01*
X64047175Y-68576372D01*
X64768077Y-69501658D01*
X64847709Y-69603847D01*
X64925006Y-69703005D01*
X64999489Y-69798518D01*
X65070681Y-69889774D01*
X65138102Y-69976162D01*
X65201273Y-70057067D01*
X65259717Y-70131879D01*
X65312954Y-70199985D01*
X65360506Y-70260772D01*
X65401894Y-70313628D01*
X65436639Y-70357940D01*
X65464263Y-70393097D01*
X65484288Y-70418485D01*
X65496233Y-70433493D01*
X65499604Y-70437570D01*
X65501157Y-70437835D01*
X65502553Y-70434896D01*
X65503802Y-70428051D01*
X65504910Y-70416600D01*
X65505886Y-70399842D01*
X65506738Y-70377075D01*
X65507475Y-70347599D01*
X65508103Y-70310713D01*
X65508632Y-70265715D01*
X65509068Y-70211904D01*
X65509421Y-70148580D01*
X65509698Y-70075042D01*
X65509908Y-69990588D01*
X65510057Y-69894518D01*
X65510155Y-69786130D01*
X65510210Y-69664723D01*
X65510228Y-69529597D01*
X65510229Y-69510470D01*
X65510229Y-68572743D01*
X66308514Y-68572743D01*
X66308514Y-71642515D01*
X65911186Y-71642392D01*
X65513857Y-71642270D01*
X65060286Y-71057892D01*
X64989783Y-70967057D01*
X64916410Y-70872524D01*
X64841355Y-70775823D01*
X64765807Y-70678488D01*
X64690955Y-70582051D01*
X64617989Y-70488042D01*
X64548097Y-70397995D01*
X64482469Y-70313441D01*
X64422294Y-70235913D01*
X64368761Y-70166943D01*
X64327314Y-70113544D01*
X64047914Y-69753575D01*
X64044232Y-71642515D01*
X63246000Y-71642515D01*
X63246000Y-70661227D01*
X63229672Y-70665169D01*
X63203223Y-70670724D01*
X63163825Y-70677841D01*
X63112931Y-70686318D01*
X63051999Y-70695951D01*
X62982484Y-70706537D01*
X62905842Y-70717874D01*
X62823529Y-70729758D01*
X62737000Y-70741986D01*
X62647712Y-70754354D01*
X62557120Y-70766660D01*
X62466681Y-70778700D01*
X62377849Y-70790271D01*
X62292082Y-70801170D01*
X62210835Y-70811194D01*
X62135564Y-70820140D01*
X62067724Y-70827804D01*
X62052200Y-70829485D01*
X62006782Y-70834392D01*
X61964319Y-70839048D01*
X61927714Y-70843131D01*
X61899869Y-70846316D01*
X61884140Y-70848221D01*
X61853965Y-70852175D01*
X61871331Y-70908073D01*
X61881993Y-70944844D01*
X61887264Y-70970559D01*
X61887233Y-70987602D01*
X61881987Y-70998359D01*
X61874877Y-71003631D01*
X61858242Y-71008146D01*
X61832305Y-71010592D01*
X61802149Y-71010836D01*
X61772855Y-71008749D01*
X61759198Y-71006609D01*
X61748039Y-71002989D01*
X61738032Y-70995471D01*
X61727184Y-70981623D01*
X61713501Y-70959016D01*
X61699876Y-70934290D01*
X61683287Y-70904133D01*
X61671469Y-70884725D01*
X61662542Y-70873913D01*
X61654630Y-70869545D01*
X61645854Y-70869468D01*
X61643627Y-70869812D01*
X61620176Y-70872891D01*
X61583989Y-70876490D01*
X61536832Y-70880498D01*
X61480471Y-70884802D01*
X61416671Y-70889293D01*
X61347197Y-70893857D01*
X61273815Y-70898384D01*
X61198290Y-70902762D01*
X61122387Y-70906880D01*
X61047872Y-70910626D01*
X60976511Y-70913888D01*
X60910068Y-70916556D01*
X60894686Y-70917108D01*
X60832401Y-70919330D01*
X60769396Y-70921659D01*
X60708604Y-70923981D01*
X60652961Y-70926182D01*
X60605400Y-70928148D01*
X60568857Y-70929763D01*
X60563430Y-70930020D01*
X60460775Y-70934943D01*
X60554425Y-71065572D01*
X60648075Y-71196200D01*
X60758681Y-71237031D01*
X60794300Y-71249774D01*
X60829073Y-71261223D01*
X60865362Y-71271996D01*
X60905530Y-71282710D01*
X60951939Y-71293984D01*
X61006952Y-71306434D01*
X61072932Y-71320679D01*
X61102742Y-71326979D01*
X61336198Y-71376097D01*
X61455143Y-71346329D01*
X61574088Y-71316562D01*
X62179100Y-71478075D01*
X62784113Y-71639588D01*
X62798488Y-71667288D01*
X62807736Y-71691111D01*
X62813987Y-71718696D01*
X62816578Y-71745071D01*
X62814849Y-71765267D01*
X62812323Y-71771257D01*
X62808176Y-71772583D01*
X62797694Y-71772903D01*
X62780121Y-71772137D01*
X62754702Y-71770205D01*
X62720682Y-71767026D01*
X62677307Y-71762521D01*
X62623822Y-71756608D01*
X62559470Y-71749208D01*
X62483499Y-71740240D01*
X62395151Y-71729623D01*
X62293673Y-71717278D01*
X62217507Y-71707944D01*
X61628840Y-71635630D01*
X61499434Y-71560362D01*
X61434531Y-71523742D01*
X61379613Y-71495277D01*
X61333195Y-71474231D01*
X61301068Y-71462205D01*
X61271538Y-71452543D01*
X61247365Y-71444898D01*
X61231716Y-71440255D01*
X61227610Y-71439315D01*
X61223806Y-71445725D01*
X61219655Y-71461797D01*
X61218346Y-71469118D01*
X61216499Y-71487117D01*
X61219360Y-71500682D01*
X61228993Y-71515098D01*
X61242015Y-71529770D01*
X61265944Y-71561779D01*
X61276225Y-71591692D01*
X61273297Y-71620909D01*
X61271895Y-71624925D01*
X61257403Y-71651312D01*
X61237528Y-71672276D01*
X61215977Y-71684390D01*
X61205760Y-71686058D01*
X61182484Y-71682983D01*
X61150583Y-71674755D01*
X61114335Y-71662871D01*
X61078017Y-71648826D01*
X61045907Y-71634114D01*
X61027391Y-71623692D01*
X61000924Y-71604319D01*
X60970899Y-71578566D01*
X60940816Y-71549836D01*
X60914174Y-71521536D01*
X60894472Y-71497070D01*
X60889583Y-71489573D01*
X60879866Y-71475242D01*
X60872788Y-71468432D01*
X60872301Y-71468343D01*
X60866292Y-71473656D01*
X60852818Y-71488315D01*
X60833567Y-71510400D01*
X60810224Y-71537993D01*
X60795851Y-71555309D01*
X60770471Y-71585282D01*
X60747595Y-71610797D01*
X60729065Y-71629913D01*
X60716727Y-71640686D01*
X60713257Y-71642350D01*
X60698967Y-71639190D01*
X60684057Y-71632867D01*
X60664027Y-71623523D01*
X60643762Y-71615755D01*
X60627436Y-71610953D01*
X60619219Y-71610510D01*
X60618914Y-71611128D01*
X60623338Y-71620734D01*
X60635294Y-71638753D01*
X60652811Y-71662628D01*
X60673916Y-71689805D01*
X60696636Y-71717726D01*
X60719000Y-71743835D01*
X60734138Y-71760464D01*
X60797351Y-71820059D01*
X60861135Y-71865324D01*
X60925819Y-71896437D01*
X60991729Y-71913582D01*
X61016714Y-71916437D01*
X61070397Y-71920498D01*
X61066402Y-71945120D01*
X61057630Y-71969678D01*
X61039540Y-72000358D01*
X61014424Y-72034573D01*
X60984574Y-72069737D01*
X60952283Y-72103261D01*
X60919843Y-72132559D01*
X60889545Y-72155043D01*
X60871585Y-72165007D01*
X60846044Y-72174456D01*
X60821072Y-72178031D01*
X60792005Y-72175852D01*
X60754180Y-72168039D01*
X60754145Y-72168030D01*
X60707449Y-72153295D01*
X60663435Y-72131627D01*
X60619315Y-72101278D01*
X60572302Y-72060496D01*
X60552960Y-72041763D01*
X60500141Y-71985173D01*
X60454574Y-71926599D01*
X60413440Y-71862001D01*
X60373921Y-71787342D01*
X60370546Y-71780400D01*
X60356829Y-71754643D01*
X60337491Y-71721944D01*
X60313848Y-71684204D01*
X60287217Y-71643324D01*
X60258914Y-71601204D01*
X60230255Y-71559746D01*
X60202557Y-71520850D01*
X60177136Y-71486417D01*
X60155307Y-71458348D01*
X60138389Y-71438544D01*
X60127695Y-71428906D01*
X60126873Y-71428515D01*
X60117718Y-71425113D01*
X60096330Y-71417255D01*
X60064112Y-71405456D01*
X60022466Y-71390226D01*
X59972798Y-71372080D01*
X59916510Y-71351530D01*
X59855006Y-71329090D01*
X59795229Y-71307291D01*
X59703657Y-71273881D01*
X59624775Y-71245025D01*
X59557621Y-71220344D01*
X59501236Y-71199460D01*
X59454659Y-71181995D01*
X59416928Y-71167569D01*
X59387084Y-71155805D01*
X59364165Y-71146322D01*
X59347211Y-71138744D01*
X59335261Y-71132690D01*
X59327354Y-71127783D01*
X59322531Y-71123644D01*
X59319845Y-71119924D01*
X59318966Y-71116372D01*
X60306857Y-71116372D01*
X60310486Y-71120000D01*
X60314114Y-71116372D01*
X60310486Y-71112743D01*
X60306857Y-71116372D01*
X59318966Y-71116372D01*
X59316610Y-71106856D01*
X59315310Y-71094600D01*
X60292343Y-71094600D01*
X60295972Y-71098229D01*
X60299600Y-71094600D01*
X60295972Y-71090972D01*
X60292343Y-71094600D01*
X59315310Y-71094600D01*
X59314125Y-71083445D01*
X59313639Y-71072829D01*
X60277829Y-71072829D01*
X60281457Y-71076458D01*
X60285086Y-71072829D01*
X60281457Y-71069200D01*
X60277829Y-71072829D01*
X59313639Y-71072829D01*
X59312770Y-71053861D01*
X59312629Y-71040649D01*
X59312813Y-71009574D01*
X59313825Y-70990243D01*
X59316354Y-70979887D01*
X59321089Y-70975735D01*
X59328719Y-70975019D01*
X59328957Y-70975021D01*
X59339717Y-70976223D01*
X59363053Y-70979570D01*
X59397231Y-70984789D01*
X59440516Y-70991607D01*
X59491173Y-70999750D01*
X59547466Y-71008947D01*
X59602767Y-71018106D01*
X59662007Y-71027895D01*
X59716595Y-71036747D01*
X59764910Y-71044413D01*
X59805333Y-71050642D01*
X59836243Y-71055187D01*
X59856021Y-71057795D01*
X59863031Y-71058245D01*
X59860104Y-71051670D01*
X59855149Y-71043800D01*
X60256057Y-71043800D01*
X60259686Y-71047429D01*
X60263314Y-71043800D01*
X60259686Y-71040172D01*
X60256057Y-71043800D01*
X59855149Y-71043800D01*
X59850091Y-71035768D01*
X59840757Y-71022029D01*
X60241543Y-71022029D01*
X60245172Y-71025658D01*
X60248800Y-71022029D01*
X60245172Y-71018400D01*
X60241543Y-71022029D01*
X59840757Y-71022029D01*
X59834539Y-71012878D01*
X59814994Y-70985342D01*
X59813686Y-70983535D01*
X59804768Y-70971229D01*
X60205257Y-70971229D01*
X60208886Y-70974858D01*
X60212514Y-70971229D01*
X60208886Y-70967600D01*
X60205257Y-70971229D01*
X59804768Y-70971229D01*
X59761557Y-70911608D01*
X59669535Y-70906525D01*
X59546157Y-70898130D01*
X59413074Y-70886206D01*
X59274529Y-70871241D01*
X59134767Y-70853720D01*
X58998030Y-70834129D01*
X58899287Y-70818248D01*
X58707825Y-70782547D01*
X58525906Y-70741981D01*
X58353901Y-70696741D01*
X58192185Y-70647016D01*
X58041127Y-70592999D01*
X57901102Y-70534880D01*
X57772481Y-70472851D01*
X57655636Y-70407102D01*
X57550940Y-70337823D01*
X57458764Y-70265207D01*
X57379481Y-70189444D01*
X57313464Y-70110725D01*
X57261084Y-70029240D01*
X57228906Y-69961334D01*
X57202962Y-69881619D01*
X57190421Y-69804678D01*
X57190987Y-69728496D01*
X57192504Y-69714323D01*
X57203848Y-69652972D01*
X57222281Y-69589833D01*
X57245881Y-69530668D01*
X57267533Y-69489499D01*
X57290590Y-69451456D01*
X57306389Y-69501287D01*
X57340558Y-69585440D01*
X57388782Y-69667117D01*
X57450770Y-69746038D01*
X57526229Y-69821921D01*
X57614868Y-69894486D01*
X57716395Y-69963449D01*
X57830518Y-70028531D01*
X57879343Y-70053275D01*
X58011023Y-70112852D01*
X58156437Y-70169279D01*
X58315121Y-70222422D01*
X58486611Y-70272147D01*
X58670444Y-70318320D01*
X58866155Y-70360806D01*
X59073281Y-70399472D01*
X59081656Y-70400913D01*
X59132873Y-70409521D01*
X59185457Y-70418043D01*
X59237422Y-70426188D01*
X59286786Y-70433666D01*
X59331561Y-70440189D01*
X59369765Y-70445467D01*
X59399412Y-70449209D01*
X59418518Y-70451126D01*
X59425062Y-70451048D01*
X59421288Y-70444935D01*
X59409668Y-70428043D01*
X59390888Y-70401330D01*
X59365635Y-70365759D01*
X59334596Y-70322289D01*
X59298457Y-70271881D01*
X59257906Y-70215496D01*
X59213629Y-70154094D01*
X59166313Y-70088636D01*
X59138024Y-70049572D01*
X59086529Y-69978284D01*
X59038420Y-69911245D01*
X58994323Y-69849351D01*
X58954862Y-69793496D01*
X58920661Y-69744575D01*
X58892346Y-69703485D01*
X58870540Y-69671118D01*
X58855868Y-69648371D01*
X58848954Y-69636139D01*
X58848482Y-69634573D01*
X58845713Y-69615323D01*
X58839491Y-69596758D01*
X58831889Y-69584091D01*
X58827351Y-69581486D01*
X58821154Y-69586861D01*
X58807010Y-69602029D01*
X58786168Y-69625556D01*
X58759879Y-69656010D01*
X58729394Y-69691954D01*
X58695964Y-69731957D01*
X58692859Y-69735700D01*
X58565032Y-69889915D01*
X58471014Y-69922003D01*
X58376996Y-69954092D01*
X58303578Y-69894005D01*
X58269705Y-69866991D01*
X58242241Y-69847276D01*
X58216924Y-69832323D01*
X58189491Y-69819593D01*
X58158239Y-69807488D01*
X58086317Y-69781058D01*
X57042441Y-68914148D01*
X57023301Y-68856675D01*
X57004160Y-68799202D01*
X56928309Y-68736251D01*
X56900622Y-68713126D01*
X56877462Y-68693504D01*
X56860867Y-68679132D01*
X56852876Y-68671760D01*
X56852457Y-68671191D01*
X56854195Y-68656690D01*
X56858849Y-68632275D01*
X56865579Y-68601407D01*
X56873546Y-68567547D01*
X56881910Y-68534157D01*
X56889831Y-68504698D01*
X56896469Y-68482631D01*
X56900890Y-68471559D01*
X56922483Y-68440033D01*
X56950627Y-68401655D01*
X56982224Y-68360416D01*
X57014178Y-68320310D01*
X57043391Y-68285328D01*
X57059093Y-68267612D01*
X57085101Y-68238116D01*
X57100554Y-68217319D01*
X57105691Y-68204216D01*
X57100751Y-68197805D01*
X57085975Y-68197080D01*
X57075614Y-68198433D01*
X57054867Y-68201694D01*
X57040108Y-68203863D01*
X57037514Y-68204190D01*
X57030147Y-68201225D01*
X57010513Y-68192383D01*
X56979438Y-68178052D01*
X56937749Y-68158624D01*
X56886269Y-68134486D01*
X56825826Y-68106030D01*
X56757243Y-68073643D01*
X56681348Y-68037716D01*
X56598964Y-67998639D01*
X56510918Y-67956800D01*
X56418035Y-67912590D01*
X56321141Y-67866397D01*
X56273435Y-67843628D01*
X56175015Y-67796671D01*
X56080282Y-67751538D01*
X55990056Y-67708616D01*
X55905154Y-67668292D01*
X55826395Y-67630952D01*
X55754599Y-67596983D01*
X55690582Y-67566771D01*
X55635165Y-67540703D01*
X55589165Y-67519166D01*
X55553402Y-67502546D01*
X55528693Y-67491230D01*
X55515858Y-67485604D01*
X55514151Y-67485042D01*
X55515919Y-67492277D01*
X55522059Y-67511572D01*
X55532027Y-67541328D01*
X55545276Y-67579950D01*
X55561259Y-67625842D01*
X55579431Y-67677406D01*
X55594166Y-67718840D01*
X55617443Y-67784467D01*
X55635964Y-67837724D01*
X55650098Y-67879817D01*
X55660218Y-67911953D01*
X55666694Y-67935340D01*
X55669897Y-67951186D01*
X55670197Y-67960698D01*
X55669340Y-67963522D01*
X55655412Y-67975998D01*
X55631082Y-67985046D01*
X55600245Y-67989735D01*
X55566798Y-67989137D01*
X55563545Y-67988761D01*
X55525684Y-67984031D01*
X55338171Y-67652897D01*
X55301931Y-67589020D01*
X55267586Y-67528717D01*
X55235846Y-67473216D01*
X55207420Y-67423748D01*
X55183020Y-67381544D01*
X55163353Y-67347834D01*
X55149131Y-67323847D01*
X55141062Y-67310815D01*
X55139772Y-67309008D01*
X55130026Y-67302202D01*
X55108786Y-67290329D01*
X55077817Y-67274219D01*
X55038885Y-67254705D01*
X54993757Y-67232616D01*
X54944198Y-67208785D01*
X54891976Y-67184043D01*
X54838856Y-67159221D01*
X54786605Y-67135151D01*
X54736989Y-67112664D01*
X54691773Y-67092591D01*
X54652726Y-67075764D01*
X54621611Y-67063013D01*
X54601099Y-67055463D01*
X54508760Y-67021112D01*
X54429097Y-66982668D01*
X54418004Y-66975641D01*
X55330965Y-66975641D01*
X55331222Y-66978580D01*
X55335037Y-66992778D01*
X55335714Y-66998018D01*
X55339983Y-67007186D01*
X55349397Y-67017585D01*
X55358866Y-67024253D01*
X55362623Y-67024253D01*
X55360851Y-67016911D01*
X55352487Y-67002130D01*
X55346381Y-66993065D01*
X55336056Y-66979696D01*
X55330965Y-66975641D01*
X54418004Y-66975641D01*
X54362331Y-66940377D01*
X54308683Y-66894484D01*
X54268376Y-66845237D01*
X54241631Y-66792881D01*
X54228669Y-66737663D01*
X54229713Y-66679828D01*
X54235699Y-66649444D01*
X54254830Y-66596561D01*
X54284851Y-66541605D01*
X54323447Y-66488527D01*
X54342949Y-66466358D01*
X54363315Y-66445236D01*
X54378032Y-66432770D01*
X54391017Y-66426698D01*
X54406184Y-66424757D01*
X54415177Y-66424629D01*
X54448398Y-66424629D01*
X54463693Y-66466357D01*
X54494640Y-66533313D01*
X54536221Y-66596885D01*
X54585792Y-66653720D01*
X54640711Y-66700466D01*
X54656648Y-66711264D01*
X54682259Y-66725619D01*
X54716310Y-66741951D01*
X54753433Y-66757774D01*
X54774406Y-66765791D01*
X54849585Y-66793082D01*
X54820114Y-66739692D01*
X54790642Y-66686303D01*
X54857184Y-66602263D01*
X54880345Y-66572645D01*
X54899636Y-66547273D01*
X54913549Y-66528186D01*
X54920576Y-66517424D01*
X54921078Y-66515826D01*
X54913086Y-66513127D01*
X54895296Y-66508705D01*
X54879233Y-66505157D01*
X54819241Y-66485400D01*
X54766279Y-66453004D01*
X54720467Y-66408095D01*
X54681922Y-66350797D01*
X54650764Y-66281236D01*
X54642228Y-66255948D01*
X54629151Y-66214268D01*
X54646790Y-66195387D01*
X54678680Y-66169704D01*
X54714577Y-66157477D01*
X54733488Y-66156115D01*
X54764820Y-66159618D01*
X54791451Y-66171791D01*
X54813677Y-66189735D01*
X54832297Y-66207068D01*
X54849606Y-66188644D01*
X54866914Y-66170220D01*
X54844541Y-66125068D01*
X54833273Y-66105883D01*
X54814486Y-66077914D01*
X54789914Y-66043563D01*
X54761287Y-66005230D01*
X54730336Y-65965318D01*
X54720074Y-65952418D01*
X54617980Y-65824922D01*
X54436381Y-65264900D01*
X54408305Y-65178034D01*
X54381656Y-65095031D01*
X54356762Y-65016943D01*
X54333949Y-64944819D01*
X54313544Y-64879712D01*
X54295873Y-64822673D01*
X54281264Y-64774753D01*
X54270043Y-64737004D01*
X54262538Y-64710476D01*
X54259075Y-64696220D01*
X54258920Y-64694094D01*
X54270128Y-64684028D01*
X54292659Y-64678487D01*
X54323952Y-64677762D01*
X54361445Y-64682143D01*
D11*
G04 #@! TO.C,J6*
X50860000Y-107890000D02*
X50860000Y-109220000D01*
X49530000Y-107890000D02*
X50860000Y-107890000D01*
X48260000Y-107890000D02*
X48260000Y-110550000D01*
X48260000Y-110550000D02*
X43120000Y-110550000D01*
X48260000Y-107890000D02*
X43120000Y-107890000D01*
X43120000Y-107890000D02*
X43120000Y-110550000D01*
G04 #@! TO.C,J9*
X88960000Y-107890000D02*
X88960000Y-109220000D01*
X87630000Y-107890000D02*
X88960000Y-107890000D01*
X86360000Y-107890000D02*
X86360000Y-110550000D01*
X86360000Y-110550000D02*
X81220000Y-110550000D01*
X86360000Y-107890000D02*
X81220000Y-107890000D01*
X81220000Y-107890000D02*
X81220000Y-110550000D01*
G04 #@! TO.C,J8*
X76260000Y-107890000D02*
X76260000Y-109220000D01*
X74930000Y-107890000D02*
X76260000Y-107890000D01*
X73660000Y-107890000D02*
X73660000Y-110550000D01*
X73660000Y-110550000D02*
X68520000Y-110550000D01*
X73660000Y-107890000D02*
X68520000Y-107890000D01*
X68520000Y-107890000D02*
X68520000Y-110550000D01*
G04 #@! TO.C,J7*
X63560000Y-115510000D02*
X63560000Y-116840000D01*
X62230000Y-115510000D02*
X63560000Y-115510000D01*
X60960000Y-115510000D02*
X60960000Y-118170000D01*
X60960000Y-118170000D02*
X55820000Y-118170000D01*
X60960000Y-115510000D02*
X55820000Y-115510000D01*
X55820000Y-115510000D02*
X55820000Y-118170000D01*
G04 #@! TO.C,J5*
X39370000Y-92770000D02*
X38040000Y-92770000D01*
X38040000Y-92770000D02*
X38040000Y-91440000D01*
X38040000Y-90170000D02*
X38040000Y-77410000D01*
X40700000Y-77410000D02*
X38040000Y-77410000D01*
X40700000Y-90170000D02*
X40700000Y-77410000D01*
X40700000Y-90170000D02*
X38040000Y-90170000D01*
G04 #@! TO.C,J4*
X88960000Y-115510000D02*
X88960000Y-116840000D01*
X87630000Y-115510000D02*
X88960000Y-115510000D01*
X86360000Y-115510000D02*
X86360000Y-118170000D01*
X86360000Y-118170000D02*
X81220000Y-118170000D01*
X86360000Y-115510000D02*
X81220000Y-115510000D01*
X81220000Y-115510000D02*
X81220000Y-118170000D01*
G04 #@! TO.C,J3*
X76260000Y-115510000D02*
X76260000Y-116840000D01*
X74930000Y-115510000D02*
X76260000Y-115510000D01*
X73660000Y-115510000D02*
X73660000Y-118170000D01*
X73660000Y-118170000D02*
X68520000Y-118170000D01*
X73660000Y-115510000D02*
X68520000Y-115510000D01*
X68520000Y-115510000D02*
X68520000Y-118170000D01*
G04 #@! TO.C,J2*
X63560000Y-107890000D02*
X63560000Y-109220000D01*
X62230000Y-107890000D02*
X63560000Y-107890000D01*
X60960000Y-107890000D02*
X60960000Y-110550000D01*
X60960000Y-110550000D02*
X55820000Y-110550000D01*
X60960000Y-107890000D02*
X55820000Y-107890000D01*
X55820000Y-107890000D02*
X55820000Y-110550000D01*
G04 #@! TO.C,J1*
X50860000Y-115580000D02*
X50860000Y-116910000D01*
X49530000Y-115580000D02*
X50860000Y-115580000D01*
X48260000Y-115580000D02*
X48260000Y-118240000D01*
X48260000Y-118240000D02*
X43120000Y-118240000D01*
X48260000Y-115580000D02*
X43120000Y-115580000D01*
X43120000Y-115580000D02*
X43120000Y-118240000D01*
G04 #@! TO.C,A1*
X46860000Y-75562000D02*
X46860000Y-93602000D01*
X90300000Y-75562000D02*
X46860000Y-75562000D01*
X90300000Y-93602000D02*
X90300000Y-75562000D01*
X87630000Y-90932000D02*
X87630000Y-93602000D01*
X52070000Y-90932000D02*
X87630000Y-90932000D01*
X52070000Y-90932000D02*
X52070000Y-93602000D01*
X87630000Y-78232000D02*
X87630000Y-75562000D01*
X49530000Y-78232000D02*
X87630000Y-78232000D01*
X49530000Y-78232000D02*
X49530000Y-75562000D01*
X46860000Y-93602000D02*
X49530000Y-93602000D01*
X52070000Y-93602000D02*
X90300000Y-93602000D01*
X49530000Y-90932000D02*
X49530000Y-93602000D01*
X52070000Y-90932000D02*
X49530000Y-90932000D01*
G04 #@! TD*
M02*
